<?xml version="1.0" encoding="utf-8"?>
<!-- Generator: Adobe Illustrator 22.1.0, SVG Export Plug-In . SVG Version: 6.00 Build 0)  -->
<svg version="1.1" id="Layer_1" xmlns="http://www.w3.org/2000/svg" xmlns:xlink="http://www.w3.org/1999/xlink" x="0px" y="0px"
	 viewBox="0 0 141.6 48.4" enable-background="new 0 0 141.6 48.4" xml:space="preserve">
<path fill="#00539B" d="M13,18.6H8.1l2.6-8.4L13,18.6L13,18.6z M5.6,27.8l1.6-5.5h6.5l1.5,5.5h6l-6-21C15,5.6,14.3,5,13,5H4.4v2h0.7
	c0.9,0,1.4,0.3,1.4,1c0,0.4-0.1,0.8-0.4,1.8l-6,18H5.6L5.6,27.8z"/>
<path fill="#00539B" d="M28.3,27.8V6.7c0-1.1-0.7-1.7-1.7-1.7h-5.3v2h0.3c0.9,0,1.3,0.4,1.3,1.3v19.6L28.3,27.8L28.3,27.8z"/>
<path fill="#00539B" d="M37.5,27.8V6.7c0-1.1-0.7-1.7-1.7-1.7h-5.3v2h0.3c0.9,0,1.3,0.4,1.3,1.3v19.6L37.5,27.8L37.5,27.8z"/>
<path fill="#00539B" d="M46.8,7.1c0-1.5-1.1-2.5-3.1-2.5c-1.9,0-3.1,0.9-3.1,2.5c0,1.5,1.2,2.5,3.1,2.5C45.7,9.5,46.8,8.6,46.8,7.1
	L46.8,7.1z M46.7,27.8V12.4c0-1.1-0.7-1.7-1.7-1.7h-5.2v2h0.3c0.9,0,1.3,0.4,1.3,1.3v13.9H46.7L46.7,27.8z"/>
<path fill="#00539B" d="M58.5,19.6v3.3c-0.9,0.9-2,1.5-2.9,1.5c-1,0-1.3-0.5-1.3-1.7s0.3-1.9,1.2-2.2C56.3,20.1,57.2,19.8,58.5,19.6
	L58.5,19.6z M51.3,15.6c1.8-0.9,3.7-1.3,5.3-1.3c1.4,0,2,0.5,2,2v0.4c-2.2,0.3-2.9,0.5-4.1,0.8c-0.7,0.2-1.4,0.4-2,0.6
	c-2.2,0.9-3.2,2.5-3.2,5.1c0,3.3,1.4,4.8,4.3,4.8c1.1,0,2-0.2,2.9-0.5c0.8-0.3,1.2-0.6,2.3-1.5v0.2c0,1.1,0.5,1.6,1.6,1.6h4.9V26H65
	c-0.9,0-1.3-0.4-1.3-1.5v-8.2c0-4.4-1.5-5.9-5.9-5.9c-1.4,0-2.8,0.2-4.1,0.5c-1.3,0.3-2,0.6-3.6,1.4L51.3,15.6L51.3,15.6z"/>
<path fill="#00539B" d="M73,27.8V16.2c0.9-1,1.8-1.4,2.9-1.4c1.1,0,1.4,0.4,1.4,2.2v10.9h5.3V16.2c0-2.7-0.2-3.6-1.1-4.5
	c-0.7-0.8-1.8-1.2-3.2-1.2c-2.1,0-3.6,0.6-5.6,2.5v-0.7c0-1.1-0.5-1.6-1.6-1.6h-5.1v2h0.3c0.9,0,1.3,0.4,1.3,1.3v13.9L73,27.8
	L73,27.8z"/>
<path fill="#00539B" d="M98.5,24.2H91l7.1-10v-3.5H87c-1.3,0-1.9,0.6-1.9,1.9v3.1h2v-0.3c0-0.8,0.4-1.2,1.3-1.2h3.8L85,24.3v3.5
	h13.5V24.2L98.5,24.2z"/>
<path fill="#00539B" d="M126.6,27.4V8c0-1.5-0.5-2.1-2.1-2.1H120v2.2h0.3c1,0,1.2,0.2,1.2,1.5v17.8L126.6,27.4L126.6,27.4z
	 M128.8,27.4h5V12.3c0-1.5-0.6-2.1-2.1-2.1h-3V27.4L128.8,27.4z M119.3,27.4V10.2h-3c-1.5,0-2.1,0.5-2.1,2.1v15.1L119.3,27.4
	L119.3,27.4z M138.6,17.5c0,8.5-6.1,14.7-14.6,14.7c-8.4,0-14.6-6.2-14.6-14.7c0-8.5,6.1-14.7,14.6-14.7
	C132.5,2.8,138.6,9,138.6,17.5L138.6,17.5z M141.6,17.5c0-10-7.5-17.5-17.5-17.5c-10,0-17.5,7.5-17.5,17.5S114,35.1,124,35.1
	C134.1,35.1,141.6,27.6,141.6,17.5L141.6,17.5z"/>
<path fill="#00539B" d="M6.6,48.4l-0.8-2.9H2.7l-0.8,2.9H0l3.1-10h2.6l3,10H6.6L6.6,48.4z M4.5,40.8c-0.1-0.2-0.1-0.3-0.1-0.4
	c0-0.1-0.1-0.3-0.1-0.4c0-0.1,0-0.2,0-0.4c0,0.1,0,0.2-0.1,0.3c0,0.2-0.1,0.5-0.2,0.8L3.1,44h2.2L4.5,40.8L4.5,40.8z"/>
<polygon fill="#00539B" points="9.5,48.4 9.5,37.7 11.5,37.5 11.5,48.4 "/>
<polygon fill="#00539B" points="13.2,48.4 13.2,37.7 15.1,37.5 15.1,48.4 "/>
<path fill="#00539B" d="M18.9,38.7c0,0.2,0,0.4-0.1,0.5c-0.1,0.1-0.1,0.2-0.3,0.3c-0.1,0.1-0.2,0.1-0.4,0.2c-0.1,0-0.3,0-0.4,0
	c-0.3,0-0.6-0.1-0.8-0.3c-0.2-0.2-0.3-0.4-0.3-0.7c0-0.2,0-0.4,0.1-0.5c0.1-0.1,0.1-0.2,0.2-0.3c0.1-0.1,0.2-0.1,0.4-0.2
	c0.1,0,0.3,0,0.4,0c0.3,0,0.6,0.1,0.8,0.3C18.8,38.1,18.9,38.4,18.9,38.7L18.9,38.7z M16.9,48.4V41h2v7.4H16.9L16.9,48.4z"/>
<path fill="#00539B" d="M24.2,48.5v-0.9c-0.1,0.2-0.2,0.4-0.4,0.5c-0.1,0.1-0.3,0.2-0.6,0.3c-0.2,0.1-0.5,0.2-0.9,0.2
	c-0.4,0-0.7-0.1-1-0.2c-0.3-0.1-0.5-0.3-0.7-0.5c-0.2-0.2-0.3-0.5-0.4-0.7c-0.1-0.3-0.1-0.5-0.1-0.8c0-0.4,0-0.7,0.1-1
	c0.1-0.3,0.2-0.5,0.4-0.7c0.2-0.2,0.3-0.3,0.6-0.4c0.2-0.1,0.4-0.2,0.7-0.2s0.5-0.1,0.7-0.1c0.2,0,0.5,0,0.7,0l0.8,0v-0.3
	c0-0.1,0-0.2,0-0.4c0-0.1-0.1-0.3-0.2-0.4c-0.1-0.1-0.2-0.2-0.4-0.3c-0.2-0.1-0.4-0.1-0.8-0.1c-0.3,0-0.6,0-0.8,0.1
	c-0.2,0.1-0.4,0.1-0.6,0.2c-0.2,0.1-0.3,0.2-0.5,0.3v-1.5c0.1-0.1,0.3-0.2,0.6-0.3c0.2-0.1,0.4-0.1,0.7-0.2c0.3-0.1,0.7-0.1,1.1-0.1
	c0.4,0,0.8,0,1.1,0.1c0.3,0.1,0.5,0.2,0.7,0.3c0.2,0.1,0.4,0.3,0.5,0.5c0.1,0.2,0.2,0.3,0.2,0.5c0.1,0.2,0.1,0.4,0.1,0.5
	c0,0.2,0,0.3,0,0.5v5L24.2,48.5L24.2,48.5z M24.1,44.9l-0.6,0c-0.2,0-0.4,0-0.6,0.1c-0.2,0-0.3,0.1-0.5,0.2
	c-0.1,0.1-0.2,0.2-0.3,0.3c-0.1,0.1-0.1,0.3-0.1,0.5c0,0.1,0,0.2,0,0.3c0,0.1,0.1,0.2,0.1,0.3c0.1,0.1,0.2,0.2,0.3,0.2
	c0.1,0.1,0.3,0.1,0.5,0.1c0.2,0,0.3,0,0.4-0.1c0.1-0.1,0.2-0.1,0.3-0.2c0.1-0.1,0.2-0.2,0.2-0.3c0-0.1,0.1-0.3,0.1-0.4L24.1,44.9
	L24.1,44.9z"/>
<path fill="#00539B" d="M32,48.4v-4.3c0-0.2,0-0.4,0-0.5c0-0.2,0-0.4-0.1-0.5c-0.1-0.2-0.2-0.3-0.4-0.4c-0.2-0.1-0.4-0.1-0.7-0.1
	c-0.1,0-0.3,0-0.4,0.1c-0.1,0-0.3,0.1-0.4,0.2c-0.1,0.1-0.2,0.2-0.3,0.3c-0.1,0.1-0.1,0.3-0.1,0.5v4.8h-1.9V41h1.9v0.9
	c0.1-0.2,0.3-0.4,0.4-0.5c0.2-0.1,0.4-0.2,0.6-0.4c0.3-0.1,0.6-0.2,1-0.2c0.4,0,0.7,0.1,1,0.2c0.3,0.1,0.5,0.2,0.7,0.4
	c0.2,0.2,0.3,0.3,0.4,0.5s0.2,0.4,0.2,0.6c0,0.2,0.1,0.4,0.1,0.6c0,0.2,0,0.3,0,0.5v4.8L32,48.4L32,48.4z"/>
<polygon fill="#00539B" points="40.7,48.4 35.2,48.4 35.2,47.2 38.5,42.3 35.4,42.3 35.4,41 40.8,41 40.8,42.2 37.4,47.1 40.8,47.1 
	"/>
<path fill="#00539B" d="M54.4,48.5h-2.2l-1.4-5.7c-0.1-0.4-0.2-0.7-0.2-0.9c0-0.1-0.1-0.3-0.1-0.4c0,0.1,0,0.2,0,0.3
	c0,0.1,0,0.2-0.1,0.4c0,0.2-0.1,0.4-0.1,0.6l-1.4,5.7h-2.2l-2.6-10h2.1l1.4,6.3c0.1,0.2,0.1,0.5,0.1,0.7c0,0.2,0.1,0.4,0.1,0.5
	c0,0.2,0.1,0.4,0.1,0.5c0-0.2,0.1-0.4,0.1-0.6c0-0.2,0.1-0.4,0.1-0.6c0-0.2,0.1-0.4,0.1-0.6l1.5-6.2v0h1.9l1.5,6.3
	c0.1,0.2,0.1,0.4,0.1,0.6c0,0.2,0.1,0.4,0.1,0.5c0,0.2,0.1,0.4,0.1,0.5c0-0.2,0-0.4,0.1-0.5c0-0.2,0.1-0.3,0.1-0.5
	c0-0.2,0.1-0.4,0.1-0.6l1.5-6.3h1.9L54.4,48.5L54.4,48.5z"/>
<path fill="#00539B" d="M64.2,44.6c0,0.6-0.1,1.2-0.2,1.7c-0.1,0.5-0.4,0.9-0.7,1.2c-0.3,0.3-0.6,0.6-1,0.8
	c-0.4,0.2-0.9,0.3-1.4,0.3c-0.5,0-1-0.1-1.4-0.2c-0.4-0.2-0.8-0.4-1-0.7c-0.3-0.3-0.5-0.7-0.7-1.2c-0.2-0.5-0.2-1-0.2-1.6
	c0-0.6,0.1-1.2,0.2-1.7c0.1-0.5,0.4-0.9,0.6-1.2c0.3-0.3,0.6-0.6,1-0.8c0.4-0.2,0.9-0.3,1.4-0.3c0.5,0,0.9,0.1,1.4,0.2
	c0.4,0.2,0.8,0.4,1,0.7c0.3,0.3,0.5,0.7,0.7,1.2C64.1,43.4,64.2,44,64.2,44.6L64.2,44.6z M62.2,44.7c0-0.4,0-0.7-0.1-1
	c0-0.3-0.1-0.6-0.2-0.8c-0.1-0.2-0.2-0.4-0.4-0.5c-0.2-0.1-0.4-0.2-0.6-0.2c-0.2,0-0.5,0-0.6,0.1c-0.2,0.1-0.3,0.2-0.4,0.4
	c-0.1,0.2-0.2,0.4-0.2,0.7c0,0.3-0.1,0.7-0.1,1.1c0,0.4,0,0.7,0.1,1c0,0.3,0.1,0.6,0.2,0.8c0.1,0.2,0.2,0.4,0.4,0.5
	c0.2,0.1,0.4,0.2,0.7,0.2c0.2,0,0.5,0,0.6-0.1c0.2-0.1,0.3-0.2,0.4-0.4c0.1-0.2,0.2-0.4,0.2-0.8C62.2,45.5,62.2,45.2,62.2,44.7
	L62.2,44.7z"/>
<path fill="#00539B" d="M69.8,42.8c-0.1-0.1-0.2-0.1-0.3-0.2c-0.1,0-0.2-0.1-0.3-0.1c-0.1,0-0.3-0.1-0.5-0.1c-0.3,0-0.5,0-0.7,0.1
	c-0.2,0.1-0.3,0.2-0.4,0.3c-0.1,0.1-0.2,0.3-0.2,0.5c0,0.2,0,0.3,0,0.5v4.5h-1.9V41h1.9v1c0.1-0.2,0.2-0.4,0.3-0.6
	c0.1-0.1,0.1-0.1,0.2-0.2c0.1-0.1,0.2-0.1,0.3-0.2c0.1-0.1,0.2-0.1,0.3-0.1c0.1,0,0.3,0,0.4,0c0.2,0,0.3,0,0.5,0
	c0.1,0,0.2,0.1,0.3,0.1c0.1,0,0.2,0.1,0.2,0.1L69.8,42.8L69.8,42.8z"/>
<polygon fill="#00539B" points="70.8,48.4 70.8,37.7 72.7,37.5 72.7,48.4 "/>
<path fill="#00539B" d="M78.6,48.5v-1c-0.1,0.2-0.2,0.4-0.4,0.5c-0.1,0.1-0.3,0.2-0.6,0.4c-0.2,0.1-0.5,0.2-0.9,0.2
	c-0.4,0-0.8-0.1-1.1-0.2c-0.3-0.2-0.6-0.4-0.8-0.7c-0.2-0.3-0.4-0.7-0.5-1.1c-0.1-0.5-0.2-1-0.2-1.6c0-0.6,0-1.1,0.1-1.5
	c0.1-0.4,0.2-0.8,0.4-1.1c0.2-0.3,0.3-0.5,0.5-0.7c0.2-0.2,0.4-0.3,0.7-0.4c0.2-0.1,0.5-0.2,0.7-0.2c0.2,0,0.5-0.1,0.7-0.1
	c0.2,0,0.4,0,0.6,0.1c0.2,0.1,0.3,0.1,0.5,0.2c0.1,0.1,0.3,0.2,0.4,0.3v-3.7l1.9-0.2v10.8L78.6,48.5L78.6,48.5z M78.6,42.8
	c-0.1-0.1-0.1-0.2-0.2-0.2c-0.1-0.1-0.2-0.1-0.3-0.2c-0.1,0-0.3-0.1-0.5-0.1c-0.3,0-0.5,0-0.7,0.1c-0.2,0.1-0.3,0.2-0.5,0.4
	c-0.1,0.2-0.2,0.4-0.3,0.7C76,43.9,76,44.3,76,44.7c0,0.4,0,0.8,0.1,1.1c0.1,0.3,0.2,0.5,0.3,0.7c0.1,0.2,0.3,0.3,0.4,0.4
	c0.2,0.1,0.4,0.1,0.6,0.1c0.2,0,0.3,0,0.4-0.1c0.1,0,0.3-0.1,0.4-0.2c0.1-0.1,0.2-0.2,0.3-0.4c0.1-0.2,0.1-0.3,0.1-0.5L78.6,42.8
	L78.6,42.8z"/>
<path fill="#00539B" d="M90.1,48.4h-2.3l-0.8-3.7c0-0.2-0.1-0.3-0.1-0.5c0-0.1,0-0.3-0.1-0.4c0-0.1,0-0.2,0-0.3c0,0.1,0,0.2,0,0.3
	c0,0.1,0,0.2-0.1,0.4c0,0.1-0.1,0.3-0.1,0.5l-0.8,3.7h-2.3l-2-7.5h1.9l1.1,4.8c0,0.2,0.1,0.3,0.1,0.5c0,0.2,0.1,0.3,0.1,0.4
	c0,0.2,0,0.3,0.1,0.4c0-0.2,0-0.3,0.1-0.5c0-0.1,0-0.3,0.1-0.4c0-0.2,0.1-0.3,0.1-0.4L86,41h1.9l1,4.8c0,0.2,0.1,0.3,0.1,0.5
	c0,0.2,0,0.3,0.1,0.4c0,0.2,0,0.3,0.1,0.4c0-0.1,0-0.3,0.1-0.4c0-0.1,0-0.3,0.1-0.4c0-0.2,0.1-0.3,0.1-0.5l1.2-4.8h1.8L90.1,48.4
	L90.1,48.4z"/>
<path fill="#00539B" d="M95.2,38.7c0,0.2,0,0.4-0.1,0.5c-0.1,0.1-0.1,0.2-0.3,0.3c-0.1,0.1-0.2,0.1-0.3,0.2c-0.1,0-0.3,0-0.4,0
	c-0.3,0-0.6-0.1-0.8-0.3C93.1,39.2,93,39,93,38.7c0-0.2,0-0.4,0.1-0.5c0.1-0.1,0.1-0.2,0.2-0.3c0.1-0.1,0.2-0.1,0.3-0.2
	c0.1,0,0.3,0,0.4,0c0.4,0,0.6,0.1,0.8,0.3C95.1,38.1,95.2,38.4,95.2,38.7L95.2,38.7z M93.1,48.4V41h2v7.4H93.1L93.1,48.4z"/>
<path fill="#00539B" d="M101,48.5v-1c-0.1,0.2-0.2,0.4-0.4,0.5c-0.1,0.1-0.3,0.2-0.6,0.4c-0.2,0.1-0.5,0.2-0.9,0.2
	c-0.4,0-0.8-0.1-1.1-0.2c-0.3-0.2-0.6-0.4-0.8-0.7c-0.2-0.3-0.4-0.7-0.5-1.1c-0.1-0.5-0.2-1-0.2-1.6c0-0.6,0-1.1,0.1-1.5
	c0.1-0.4,0.2-0.8,0.4-1.1c0.2-0.3,0.3-0.5,0.5-0.7c0.2-0.2,0.4-0.3,0.7-0.4c0.2-0.1,0.5-0.2,0.7-0.2c0.2,0,0.5-0.1,0.7-0.1
	c0.2,0,0.4,0,0.6,0.1c0.2,0.1,0.3,0.1,0.5,0.2c0.1,0.1,0.3,0.2,0.4,0.3v-3.7l1.9-0.2v10.8L101,48.5L101,48.5z M101,42.8
	c-0.1-0.1-0.1-0.2-0.2-0.2c-0.1-0.1-0.2-0.1-0.3-0.2c-0.1,0-0.3-0.1-0.5-0.1c-0.3,0-0.5,0-0.7,0.1c-0.2,0.1-0.3,0.2-0.5,0.4
	c-0.1,0.2-0.2,0.4-0.3,0.7c-0.1,0.3-0.1,0.6-0.1,1.1c0,0.4,0,0.8,0.1,1.1c0.1,0.3,0.1,0.5,0.3,0.7c0.1,0.2,0.3,0.3,0.4,0.4
	c0.2,0.1,0.4,0.1,0.6,0.1c0.2,0,0.3,0,0.4-0.1c0.1,0,0.3-0.1,0.4-0.2c0.1-0.1,0.2-0.2,0.2-0.4c0.1-0.2,0.1-0.3,0.1-0.5L101,42.8
	L101,42.8z"/>
<path fill="#00539B" d="M106.2,45.2c0,0.2,0,0.5,0.1,0.7c0.1,0.2,0.1,0.4,0.3,0.6c0.2,0.2,0.4,0.3,0.6,0.4c0.3,0.1,0.6,0.2,1.1,0.2
	c0.3,0,0.6,0,0.9-0.1c0.2-0.1,0.5-0.1,0.6-0.2c0.2-0.1,0.4-0.2,0.5-0.3l-0.1,1.5c-0.1,0.1-0.3,0.2-0.6,0.3c-0.2,0.1-0.4,0.1-0.8,0.2
	c-0.3,0.1-0.7,0.1-1.1,0.1c-0.3,0-0.5,0-0.8-0.1c-0.3,0-0.5-0.1-0.8-0.2c-0.3-0.1-0.5-0.2-0.7-0.4c-0.2-0.2-0.4-0.4-0.6-0.7
	c-0.2-0.3-0.3-0.6-0.4-1c-0.1-0.4-0.2-0.9-0.2-1.4c0-0.6,0.1-1.1,0.2-1.6c0.1-0.5,0.3-0.9,0.6-1.2c0.3-0.3,0.6-0.6,1-0.8
	c0.4-0.2,0.9-0.3,1.5-0.3c0.5,0,0.9,0.1,1.2,0.2c0.3,0.1,0.6,0.3,0.8,0.5c0.2,0.2,0.4,0.5,0.5,0.8c0.1,0.3,0.2,0.6,0.3,0.9
	c0.1,0.3,0.1,0.6,0.1,0.9c0,0.3,0,0.6,0,0.8v0.2L106.2,45.2L106.2,45.2z M108.6,43.9c0-0.2,0-0.4,0-0.6c0-0.2-0.1-0.4-0.2-0.6
	c-0.1-0.2-0.2-0.3-0.4-0.4c-0.2-0.1-0.4-0.2-0.6-0.2c-0.2,0-0.4,0-0.5,0.1c-0.1,0.1-0.3,0.1-0.3,0.2c-0.1,0.1-0.2,0.2-0.2,0.3
	c-0.1,0.1-0.1,0.2-0.1,0.4c0,0.1,0,0.3-0.1,0.4c0,0.1,0,0.2,0,0.3H108.6L108.6,43.9z"/>
<path fill="#00539B" d="M121.3,47.9c-0.1,0.1-0.3,0.3-0.6,0.4c-0.2,0.1-0.5,0.2-0.8,0.2c-0.3,0.1-0.8,0.1-1.3,0.1
	c-0.8,0-1.4-0.1-2-0.4c-0.6-0.3-1-0.6-1.3-1.1c-0.3-0.4-0.6-1-0.8-1.6c-0.2-0.6-0.2-1.2-0.2-1.9c0-0.6,0.1-1.2,0.2-1.7
	c0.1-0.6,0.3-1,0.5-1.5c0.4-0.7,0.9-1.2,1.5-1.6c0.6-0.4,1.4-0.5,2.3-0.5c0.4,0,0.8,0,1.1,0.1c0.3,0.1,0.6,0.1,0.8,0.2
	c0.3,0.1,0.5,0.2,0.6,0.3v1.8c-0.2-0.2-0.3-0.3-0.6-0.4c-0.2-0.1-0.4-0.2-0.7-0.3c-0.3-0.1-0.6-0.1-1-0.1c-0.4,0-0.8,0.1-1.1,0.2
	c-0.3,0.1-0.6,0.3-0.9,0.6s-0.4,0.6-0.6,1.1c-0.1,0.4-0.2,1-0.2,1.6c0,0.5,0,1,0.1,1.4c0.1,0.4,0.3,0.8,0.5,1.1
	c0.2,0.3,0.5,0.5,0.9,0.7c0.4,0.2,0.8,0.3,1.3,0.3c0.4,0,0.8-0.1,1.1-0.1c0.3-0.1,0.6-0.2,0.7-0.3c0.2-0.1,0.4-0.3,0.6-0.5
	L121.3,47.9L121.3,47.9z"/>
<path fill="#00539B" d="M126.2,48.5v-0.9c-0.1,0.2-0.2,0.4-0.4,0.5c-0.1,0.1-0.3,0.2-0.6,0.3c-0.2,0.1-0.5,0.2-0.9,0.2
	c-0.4,0-0.7-0.1-1-0.2c-0.3-0.1-0.5-0.3-0.7-0.5c-0.2-0.2-0.3-0.5-0.4-0.7c-0.1-0.3-0.1-0.5-0.1-0.8c0-0.4,0.1-0.7,0.1-1
	c0.1-0.3,0.2-0.5,0.4-0.7c0.2-0.2,0.3-0.3,0.6-0.4c0.2-0.1,0.4-0.2,0.7-0.2c0.2-0.1,0.5-0.1,0.7-0.1c0.2,0,0.5,0,0.7,0l0.8,0v-0.3
	c0-0.1,0-0.2,0-0.4c0-0.1-0.1-0.3-0.2-0.4c-0.1-0.1-0.2-0.2-0.4-0.3c-0.2-0.1-0.4-0.1-0.8-0.1c-0.3,0-0.6,0-0.8,0.1
	c-0.2,0.1-0.4,0.1-0.6,0.2c-0.2,0.1-0.3,0.2-0.5,0.3v-1.5c0.1-0.1,0.3-0.2,0.6-0.3c0.2-0.1,0.4-0.1,0.7-0.2c0.3-0.1,0.7-0.1,1.1-0.1
	c0.4,0,0.8,0,1.1,0.1c0.3,0.1,0.5,0.2,0.7,0.3s0.4,0.3,0.5,0.5c0.1,0.2,0.2,0.3,0.2,0.5c0.1,0.2,0.1,0.4,0.1,0.5c0,0.2,0,0.3,0,0.5
	v5L126.2,48.5L126.2,48.5z M126.1,44.9l-0.6,0c-0.2,0-0.4,0-0.6,0.1c-0.2,0-0.3,0.1-0.5,0.2c-0.1,0.1-0.2,0.2-0.3,0.3
	c-0.1,0.1-0.1,0.3-0.1,0.5c0,0.1,0,0.2,0,0.3c0,0.1,0.1,0.2,0.1,0.3c0.1,0.1,0.2,0.2,0.3,0.2c0.1,0.1,0.3,0.1,0.5,0.1
	c0.2,0,0.3,0,0.4-0.1c0.1-0.1,0.2-0.1,0.3-0.2c0.1-0.1,0.2-0.2,0.2-0.3c0.1-0.1,0.1-0.3,0.1-0.4V44.9L126.1,44.9z"/>
<path fill="#00539B" d="M134,42.8c-0.1-0.1-0.2-0.1-0.3-0.2c-0.1,0-0.2-0.1-0.3-0.1c-0.1,0-0.3-0.1-0.5-0.1c-0.3,0-0.5,0-0.7,0.1
	c-0.2,0.1-0.3,0.2-0.4,0.3c-0.1,0.1-0.2,0.3-0.2,0.5c0,0.2,0,0.3,0,0.5v4.5h-1.9V41h1.9v1c0.1-0.2,0.2-0.4,0.3-0.6
	c0.1-0.1,0.1-0.1,0.2-0.2c0.1-0.1,0.2-0.1,0.3-0.2c0.1-0.1,0.2-0.1,0.3-0.1c0.1,0,0.3,0,0.4,0c0.2,0,0.3,0,0.5,0
	c0.1,0,0.2,0.1,0.3,0.1c0.1,0,0.2,0.1,0.2,0.1L134,42.8L134,42.8z"/>
<path fill="#00539B" d="M136.5,45.2c0,0.2,0,0.5,0.1,0.7c0.1,0.2,0.1,0.4,0.3,0.6c0.2,0.2,0.4,0.3,0.6,0.4c0.3,0.1,0.6,0.2,1.1,0.2
	c0.3,0,0.6,0,0.9-0.1c0.2-0.1,0.5-0.1,0.6-0.2c0.2-0.1,0.4-0.2,0.5-0.3l-0.1,1.5c-0.1,0.1-0.3,0.2-0.6,0.3c-0.2,0.1-0.4,0.1-0.8,0.2
	c-0.3,0.1-0.7,0.1-1.1,0.1c-0.3,0-0.5,0-0.8-0.1c-0.3,0-0.5-0.1-0.8-0.2c-0.3-0.1-0.5-0.2-0.7-0.4c-0.2-0.2-0.4-0.4-0.6-0.7
	c-0.2-0.3-0.3-0.6-0.4-1c-0.1-0.4-0.2-0.9-0.2-1.4c0-0.6,0.1-1.1,0.2-1.6c0.1-0.5,0.3-0.9,0.6-1.2c0.3-0.3,0.6-0.6,1-0.8
	c0.4-0.2,0.9-0.3,1.5-0.3c0.5,0,0.9,0.1,1.2,0.2c0.3,0.1,0.6,0.3,0.8,0.5c0.2,0.2,0.4,0.5,0.5,0.8c0.1,0.3,0.2,0.6,0.3,0.9
	c0.1,0.3,0.1,0.6,0.1,0.9c0,0.3,0,0.6,0,0.8v0.2L136.5,45.2L136.5,45.2z M138.9,43.9c0-0.2,0-0.4,0-0.6c0-0.2-0.1-0.4-0.2-0.6
	c-0.1-0.2-0.2-0.3-0.4-0.4c-0.2-0.1-0.4-0.2-0.6-0.2c-0.2,0-0.4,0-0.5,0.1c-0.1,0.1-0.3,0.1-0.4,0.2c-0.1,0.1-0.2,0.2-0.2,0.3
	c-0.1,0.1-0.1,0.2-0.1,0.4c0,0.1,0,0.3,0,0.4c0,0.1,0,0.2,0,0.3H138.9L138.9,43.9z"/>
</svg>
