<?xml version="1.0" encoding="utf-8"?>
<!-- Generator: Adobe Illustrator 22.1.0, SVG Export Plug-In . SVG Version: 6.00 Build 0)  -->
<svg version="1.1" id="Layer_1" xmlns="http://www.w3.org/2000/svg" xmlns:xlink="http://www.w3.org/1999/xlink" x="0px" y="0px"
	 viewBox="0 0 1068.9 242.1" enable-background="new 0 0 1068.9 242.1" xml:space="preserve">
<path fill="#FEDC00" d="M195.1,200.6L175.6,0h0l-19.8,203.9C168.6,202.5,181.7,201.4,195.1,200.6"/>
<path fill="#63B346" d="M242.7,199.1L242.8,0l-67.2,0v0l19.5,200.6C210.6,199.7,226.5,199.2,242.7,199.1"/>
<path fill="#0067B1" d="M155.8,203.9L175.6,0v0L0,0l0.1,242.1C41.3,224.1,95,210.6,155.8,203.9"/>
<path fill="#0067B1" d="M658.8,58.5c3.2,0.6,14.6,3.9,14.6,12v130.1h38.7V53.9h-53.3L658.8,58.5L658.8,58.5z"/>
<path fill="#0067B1" d="M354.8,53.9v4.6c4.7,1,14.8,3.8,10.7,13l-57.7,129.1h30.5l18.1-40.2h63.9l15.8,40.2h40.1L418.9,53.9H354.8z
	 M364.6,142.1l25.9-57.7l22.6,57.7H364.6z"/>
<path fill="#0067B1" d="M947.5,53.9v4.6c4.7,1,14.8,3.8,10.7,13l-57.6,129.1h30.5l18-40.2h63.9l15.8,40.2h40.1l-57.3-146.7
	C1011.6,53.9,947.5,53.9,947.5,53.9z M957.3,142.1l25.9-57.7l22.6,57.7H957.3z"/>
<path fill="#0067B1" d="M844.7,200.6l61.1-146.7h-28.9l-44.8,107.6L789.4,53.9h-54.3v4.6c6.3,1.2,13.3,3.9,16.5,12l51.6,130.1
	L844.7,200.6L844.7,200.6z"/>
<path fill="#0067B1" d="M576.7,200.6l61.1-146.7h-28.9l-44.8,107.6L521.4,53.9h-54.3v4.6c6.3,1.2,13.3,3.9,16.5,12l51.5,130.1
	L576.7,200.6L576.7,200.6z"/>
</svg>
