<?xml version="1.0" encoding="utf-8"?>
<!-- Generator: Adobe Illustrator 22.1.0, SVG Export Plug-In . SVG Version: 6.00 Build 0)  -->
<svg version="1.1" id="Layer_1" xmlns="http://www.w3.org/2000/svg" xmlns:xlink="http://www.w3.org/1999/xlink" x="0px" y="0px"
	 viewBox="0 0 164 52.9" enable-background="new 0 0 164 52.9" xml:space="preserve">
<path fill="#FFFFFF" d="M52.3,16.4l0.5,1c-1.2,0.8-2.3,1.3-3.3,1.7s-2.1,0.5-3.2,0.5c-2.3,0-4.2-0.7-5.5-2s-2-3.1-2-5.4
	c0-2.4,0.8-4.3,2.3-5.8c1.5-1.5,3.6-2.2,6.2-2.2c0.8,0,1.7,0.1,2.5,0.2c0.8,0.1,1.8,0.4,2.9,0.8c0,0.4-0.1,0.9-0.1,1.4
	c0,0.8,0.1,1.9,0.2,3.1h-1.1c-0.3-1.3-0.6-2.1-0.7-2.3c-0.3-0.5-0.7-1-1.3-1.3c-0.6-0.4-1.4-0.5-2.4-0.5c-1.5,0-2.7,0.5-3.5,1.4
	c-1,1.1-1.5,2.6-1.5,4.6c0,2,0.5,3.6,1.5,4.6c1,1.1,2.3,1.6,4,1.6C49.4,17.7,50.9,17.2,52.3,16.4z"/>
<path fill="#FFFFFF" d="M56.3,12.7l-0.9-0.1c0.2-1,0.3-1.8,0.4-2.6c1.3-0.6,2.6-0.9,3.9-0.9c0.8,0,1.4,0.1,1.9,0.4s0.8,0.6,1,1
	s0.3,1.1,0.3,2.1l-0.1,3.5c0,0.7,0.1,1.1,0.2,1.3c0.1,0.2,0.3,0.3,0.5,0.3c0.2,0,0.5-0.1,1-0.4l0.4,0.6c-0.9,0.7-1.6,1.1-2.1,1.3
	c-0.3,0.1-0.6,0.2-0.9,0.2c-0.4,0-0.7-0.1-1-0.3c-0.3-0.2-0.5-0.5-0.6-1c-0.8,0.6-1.4,0.9-1.7,1.1c-0.3,0.1-0.7,0.2-1.2,0.2
	c-0.7,0-1.3-0.2-1.7-0.7s-0.7-1.1-0.7-1.9c0-0.6,0.2-1.1,0.5-1.6c0.2-0.3,0.6-0.7,1.1-1l3.8-1.8c0-0.8-0.1-1.4-0.4-1.7
	c-0.2-0.3-0.6-0.4-1.1-0.4c-0.5,0-0.9,0.2-1.3,0.5C57.1,11.1,56.7,11.8,56.3,12.7z M60.2,13.5c-1.1,0.5-1.9,1-2.2,1.3
	s-0.4,0.8-0.4,1.3c0,0.6,0.1,1,0.3,1.2s0.5,0.4,0.9,0.4c0.3,0,0.5-0.1,0.8-0.3s0.4-0.4,0.5-0.8c0.1-0.3,0.1-1,0.1-2.1
	C60.2,14.5,60.2,14.1,60.2,13.5z"/>
<path fill="#FFFFFF" d="M71.8,9.4l0.1,0.1c-0.2,0.4-0.4,0.8-0.6,1.2c-0.7-0.1-1.5-0.1-2.4-0.2l0,1.2l0,1.4l0,1.4
	c0,1.3,0.1,2.1,0.3,2.5c0.2,0.3,0.5,0.5,0.9,0.5c0.3,0,0.7-0.1,1.3-0.4l0.4,0.7c-1,0.6-1.7,1-2.1,1.1c-0.5,0.2-0.9,0.2-1.3,0.2
	c-0.6,0-1.2-0.2-1.5-0.6c-0.4-0.4-0.6-1-0.6-1.8l0-2.4l0.1-4l-0.8,0c-0.1,0-0.3,0-0.6,0V9.8c0.7-0.2,1.3-0.6,1.8-1.1
	c0.6-0.5,1.1-1.3,1.7-2.4h0.9c-0.2,1.1-0.3,2.2-0.3,3.1c0.6,0,1,0,1.1,0C70.3,9.5,70.9,9.4,71.8,9.4z"/>
<path fill="#FFFFFF" d="M72.1,6.2V5.4C73.2,5.2,74,5,74.5,4.8s1.1-0.4,1.7-0.8l0.5,0.3c-0.1,0.7-0.1,1.5-0.2,2.6
	c-0.1,1.5-0.1,2.7-0.1,3.5V11c0.9-0.9,1.5-1.4,1.9-1.6s0.8-0.3,1.4-0.3c0.8,0,1.3,0.2,1.7,0.5c0.4,0.4,0.6,0.8,0.7,1.4
	c0.1,0.4,0.1,1.6,0.1,3.5c0,1.6,0,2.6,0,2.9c0,0.3,0.1,0.5,0.2,0.6c0.1,0.1,0.4,0.2,0.9,0.4c0.1,0,0.2,0.1,0.4,0.1v0.7
	c-1.2-0.1-2.1-0.1-2.8-0.1c-0.7,0-1.6,0-2.7,0.1v-0.7c0.6-0.2,1-0.3,1.1-0.4c0.1-0.1,0.2-0.4,0.2-0.9c0-2.9,0-4.5,0-4.6
	c0-0.6-0.2-1-0.4-1.2c-0.2-0.2-0.5-0.3-0.9-0.3c-0.4,0-0.7,0.1-1,0.4s-0.5,0.6-0.6,1c-0.1,0.3-0.1,1.1-0.1,2.5c0,1.5,0,2.4,0,2.6
	c0,0.2,0.1,0.4,0.2,0.5c0.1,0.1,0.5,0.2,1,0.3v0.7c-1.1-0.1-1.9-0.1-2.6-0.1c-0.4,0-1.4,0-3,0.1v-0.7c0.1,0,0.2-0.1,0.3-0.1
	c0.6-0.1,0.9-0.3,1-0.4c0.1-0.2,0.2-0.5,0.2-0.9c0.1-1,0.1-2.9,0.1-5.7l0-4.5c0-0.3-0.1-0.5-0.2-0.6c-0.1-0.1-0.3-0.2-0.5-0.2
	C72.7,6.1,72.4,6.1,72.1,6.2z"/>
<path fill="#FFFFFF" d="M92.7,16.4l0.5,0.8c-1.1,0.9-2.1,1.6-3,2c-0.4,0.2-0.9,0.3-1.5,0.3c-1.3,0-2.3-0.4-2.9-1.1
	c-0.9-1-1.3-2.2-1.3-3.8c0-1.6,0.5-3,1.5-4c1-1,2.2-1.5,3.6-1.5c1.3,0,2.3,0.4,2.9,1.2c0.4,0.5,0.6,1.3,0.7,2.5
	c-0.3,0.2-0.7,0.5-1,0.8c-0.7,0-1.5,0-2.2,0c-1,0-1.9,0-2.7,0c0,0.2,0,0.3,0,0.4c0,1,0.2,1.8,0.7,2.6c0.4,0.7,1.1,1.1,2,1.1
	c0.4,0,0.8-0.1,1.2-0.2C91.6,17.1,92.1,16.8,92.7,16.4z M87.4,12.3c0.4,0,0.7,0,1,0c0.6,0,1.3,0,2.2-0.1c0-0.9-0.2-1.5-0.4-1.8
	s-0.6-0.4-1-0.4c-0.4,0-0.8,0.2-1.1,0.5C87.6,10.9,87.4,11.5,87.4,12.3z"/>
<path fill="#FFFFFF" d="M99.3,6.2V5.5c1.6-0.3,3-0.8,4.1-1.5l0.5,0.4c-0.1,0.9-0.2,1.9-0.2,3c0,1.1-0.1,2.4-0.1,3.8
	c0,2.5,0,4.3,0,5.3c0,0.5,0.1,0.8,0.2,0.9c0.1,0.1,0.3,0.2,0.6,0.2c0.1,0,0.3,0,0.8,0v0.7c-0.8,0.1-1.6,0.3-2.2,0.4
	c-0.6,0.2-1.3,0.4-2,0.6l-0.5-0.2c0.1-0.4,0.1-0.9,0.2-1.3c-0.8,0.7-1.4,1.1-2,1.3c-0.4,0.2-0.8,0.3-1.2,0.3c-0.8,0-1.5-0.3-2.1-1
	c-0.7-0.9-1.1-2.1-1.1-3.5c0-0.7,0.1-1.4,0.3-2.1c0.2-0.7,0.5-1.3,0.9-1.8c0.4-0.5,1-1,1.7-1.3c0.7-0.4,1.4-0.5,2.2-0.5
	c0.2,0,0.4,0,0.6,0.1c0.2,0,0.4,0.1,0.7,0.2c0-0.8,0-1.3,0-1.6c0-0.7-0.1-1.2-0.2-1.3c-0.1-0.2-0.3-0.2-0.6-0.2
	C99.9,6.1,99.6,6.2,99.3,6.2z M100.9,13.8c0-1.4-0.1-2.3-0.3-2.7c-0.3-0.5-0.7-0.8-1.3-0.8c-0.5,0-0.9,0.3-1.3,0.8
	c-0.4,0.5-0.6,1.4-0.6,2.7c0,1.3,0.2,2.2,0.7,2.9c0.3,0.4,0.7,0.7,1.2,0.7c0.6,0,1-0.3,1.3-0.9C100.8,16.1,100.9,15.2,100.9,13.8z"
	/>
<path fill="#FFFFFF" d="M105.5,11.2v-0.7c1.7-0.4,3.1-0.8,4.1-1.4l0.5,0.3c-0.1,0.7-0.2,1.5-0.2,2.4c0.7-1.1,1.2-1.8,1.6-2
	c0.3-0.3,0.7-0.4,1.2-0.4c0.3,0,0.7,0.1,1,0.2c-0.2,0.9-0.4,1.8-0.5,2.7h-0.7c0-0.3-0.1-0.5-0.3-0.6c-0.1-0.1-0.3-0.2-0.5-0.2
	c-0.3,0-0.6,0.1-0.9,0.4c-0.4,0.4-0.7,1-0.8,1.6c-0.1,0.3-0.1,0.9-0.1,1.7c0,1.4,0,2.2,0,2.4c0,0.2,0.1,0.4,0.2,0.5
	c0.1,0.1,0.5,0.2,1.1,0.4c0.1,0,0.2,0.1,0.4,0.1v0.7c-1.3-0.1-2.4-0.1-3.2-0.1c-0.9,0-1.9,0-3,0.1v-0.7c0.8-0.2,1.3-0.4,1.4-0.6
	c0.2-0.3,0.2-1.7,0.2-4.3c0-1.3-0.1-2.1-0.2-2.3c-0.1-0.2-0.3-0.3-0.6-0.3C106.2,11.1,105.9,11.1,105.5,11.2z"/>
<path fill="#FFFFFF" d="M115.7,12.7l-0.9-0.1c0.2-1,0.3-1.8,0.4-2.6c1.3-0.6,2.6-0.9,3.9-0.9c0.8,0,1.4,0.1,1.9,0.4
	c0.5,0.3,0.8,0.6,1,1c0.2,0.4,0.3,1.1,0.3,2.1l-0.1,3.5c0,0.7,0.1,1.1,0.2,1.3s0.3,0.3,0.4,0.3c0.2,0,0.5-0.1,1-0.4l0.4,0.6
	c-0.9,0.7-1.6,1.1-2.1,1.3c-0.3,0.1-0.6,0.2-0.9,0.2c-0.4,0-0.7-0.1-1-0.3c-0.3-0.2-0.5-0.5-0.6-1c-0.8,0.6-1.4,0.9-1.7,1.1
	c-0.3,0.1-0.7,0.2-1.2,0.2c-0.7,0-1.3-0.2-1.7-0.7c-0.5-0.5-0.7-1.1-0.7-1.9c0-0.6,0.2-1.1,0.5-1.6c0.2-0.3,0.6-0.7,1.1-1l3.8-1.8
	c0-0.8-0.1-1.4-0.4-1.7c-0.2-0.3-0.6-0.4-1.1-0.4c-0.5,0-0.9,0.2-1.3,0.5C116.5,11.1,116.1,11.8,115.7,12.7z M119.6,13.5
	c-1.1,0.5-1.9,1-2.2,1.3s-0.4,0.8-0.4,1.3c0,0.6,0.1,1,0.3,1.2s0.5,0.4,0.9,0.4c0.3,0,0.5-0.1,0.8-0.3c0.3-0.2,0.4-0.4,0.5-0.8
	c0.1-0.3,0.1-1,0.1-2.1C119.6,14.5,119.6,14.1,119.6,13.5z"/>
<path fill="#FFFFFF" d="M124.2,6.2V5.5c1-0.2,1.8-0.5,2.3-0.7c0.5-0.2,1.1-0.5,1.8-0.8l0.5,0.4c-0.1,0.9-0.2,1.9-0.2,3.1
	c-0.1,1.2-0.1,2.6-0.1,4.1c0,3.3,0,5.1,0,5.6s0.1,0.7,0.2,0.8c0.2,0.2,0.6,0.4,1.3,0.5v0.7c-1.1-0.1-2.1-0.1-2.9-0.1
	c-0.9,0-1.9,0-3,0.1v-0.7c0.8-0.2,1.2-0.3,1.4-0.5c0.1-0.1,0.2-0.5,0.2-1c0-0.7,0.1-2.7,0.1-5.8c0-2.9,0-4.5-0.1-4.7
	c-0.1-0.3-0.3-0.5-0.7-0.5C124.8,6.1,124.6,6.1,124.2,6.2z"/>
<path fill="#FFFFFF" d="M38.4,31.2v-0.8c1.6,0.1,2.9,0.1,4,0.1c0.8,0,1.9,0,3.3-0.1c1,0,1.9-0.1,2.6-0.1c1.3,0,2.3,0.2,3.1,0.5
	c1,0.5,1.9,1.2,2.5,2.1c0.6,0.9,0.9,2.2,0.9,3.7c0,1.7-0.4,3.2-1.2,4.5c-0.8,1.3-1.9,2.3-3.3,3c-1.2,0.6-2.6,0.9-4.3,0.9
	c-0.2,0-0.8,0-1.9-0.1S42.3,45,42.1,45c-0.5,0-1.7,0-3.8,0.1v-0.8l0.4-0.1c0.9-0.2,1.4-0.3,1.6-0.4c0.2-0.1,0.2-0.3,0.3-0.6
	c0-0.4,0-2.5,0-6.3c0-2.8,0-4.3-0.1-4.7c0-0.2-0.1-0.4-0.3-0.5c-0.1-0.1-0.7-0.2-1.6-0.4L38.4,31.2z M43.9,43.8
	c0.8,0.1,1.5,0.2,2.1,0.2c1.6,0,2.8-0.5,3.6-1.4c1-1.2,1.5-2.9,1.5-5.2c0-2-0.5-3.4-1.4-4.5c-0.7-0.8-1.9-1.2-3.5-1.2
	c-0.7,0-1.5,0.1-2.4,0.2c-0.1,1.1-0.1,3.1-0.1,6C43.8,39.5,43.9,41.5,43.9,43.8z"/>
<path fill="#FFFFFF" d="M64.5,42.3l0.5,0.8c-1.1,0.9-2.1,1.6-3,2c-0.4,0.2-0.9,0.3-1.5,0.3c-1.3,0-2.3-0.4-2.9-1.1
	c-0.9-1-1.3-2.2-1.3-3.8c0-1.6,0.5-3,1.5-4s2.2-1.5,3.6-1.5c1.3,0,2.3,0.4,2.9,1.2c0.4,0.5,0.6,1.3,0.7,2.5c-0.3,0.2-0.7,0.5-1,0.8
	c-0.7,0-1.5,0-2.2,0c-1,0-1.9,0-2.7,0c0,0.2,0,0.3,0,0.4c0,1,0.2,1.8,0.7,2.6s1.1,1.1,2,1.1c0.4,0,0.8-0.1,1.2-0.2
	C63.4,43,63.9,42.7,64.5,42.3z M59.1,38.3c0.4,0,0.7,0,1,0c0.6,0,1.3,0,2.2-0.1c0-0.9-0.2-1.5-0.4-1.8c-0.3-0.3-0.6-0.4-1-0.4
	c-0.4,0-0.8,0.2-1.1,0.5C59.4,36.9,59.2,37.4,59.1,38.3z"/>
<path fill="#FFFFFF" d="M65.8,37.1v-0.7c0.9-0.2,1.7-0.4,2.3-0.6c0.6-0.2,1.2-0.5,1.8-0.8l0.5,0.3c-0.1,0.5-0.2,1.1-0.2,1.7
	c0.8-0.9,1.3-1.4,1.7-1.6c0.4-0.2,0.8-0.3,1.4-0.3c0.5,0,1,0.1,1.3,0.3c0.4,0.2,0.7,0.5,0.8,0.8c0.2,0.3,0.3,0.7,0.4,1.2
	c0,0.3,0.1,1.1,0.1,2.3l0,1.8c0,1.2,0,1.9,0,2.1c0,0.2,0.1,0.4,0.2,0.5c0.1,0.1,0.4,0.2,0.9,0.3c0.1,0,0.2,0.1,0.4,0.1v0.7
	c-1.2-0.1-2-0.1-2.7-0.1c-0.6,0-1.6,0-2.8,0.1v-0.7c0.5-0.1,0.9-0.3,1-0.4s0.2-0.3,0.2-0.5c0-0.3,0.1-1.5,0.1-3.4
	c0-1.4-0.1-2.2-0.2-2.5c-0.2-0.4-0.6-0.7-1.1-0.7c-0.4,0-0.7,0.1-1.1,0.4c-0.3,0.3-0.5,0.6-0.6,1.1c-0.1,0.4-0.1,1.4-0.1,2.8
	c0,1.3,0,2.1,0.1,2.4c0,0.2,0.1,0.3,0.2,0.4c0.1,0.1,0.4,0.2,1,0.4v0.7c-1-0.1-1.9-0.1-2.6-0.1c-0.7,0-1.6,0-2.9,0.1v-0.7
	c0.8-0.2,1.2-0.3,1.3-0.4s0.2-0.3,0.2-0.6c0.1-0.7,0.1-1.7,0.1-2.9c0-1.8,0-2.8-0.1-3C67.2,37.2,67,37,66.7,37
	C66.4,37,66.2,37.1,65.8,37.1z"/>
<path fill="#FFFFFF" d="M84.6,35.3l0.1,0.1c-0.2,0.4-0.4,0.8-0.6,1.2c-0.7-0.1-1.5-0.1-2.4-0.2l0,1.2l0,1.4l0,1.4
	c0,1.3,0.1,2.1,0.3,2.5c0.2,0.3,0.5,0.5,0.9,0.5c0.3,0,0.7-0.1,1.3-0.4l0.4,0.7c-1,0.6-1.7,1-2.1,1.1c-0.5,0.2-0.9,0.2-1.3,0.2
	c-0.6,0-1.2-0.2-1.5-0.6c-0.4-0.4-0.6-1-0.6-1.8l0-2.4l0.1-4l-0.8,0c-0.1,0-0.3,0-0.6,0v-0.8c0.7-0.2,1.3-0.6,1.8-1.1
	s1.1-1.3,1.7-2.4h0.9c-0.2,1.1-0.3,2.2-0.3,3.1c0.6,0,1,0,1.1,0C83.1,35.4,83.7,35.4,84.6,35.3z"/>
<path fill="#FFFFFF" d="M87,38.6l-0.9-0.1c0.2-1,0.3-1.8,0.4-2.6c1.3-0.6,2.6-0.9,3.9-0.9c0.8,0,1.4,0.1,1.9,0.4s0.8,0.6,1,1
	c0.2,0.4,0.3,1.1,0.3,2.1L93.5,42c0,0.7,0.1,1.1,0.2,1.3c0.1,0.2,0.3,0.3,0.5,0.3c0.2,0,0.5-0.1,1-0.4l0.4,0.6
	c-0.9,0.7-1.6,1.1-2.1,1.3c-0.3,0.1-0.6,0.2-0.9,0.2c-0.4,0-0.7-0.1-1-0.3c-0.3-0.2-0.5-0.5-0.6-1c-0.8,0.6-1.4,0.9-1.7,1.1
	c-0.3,0.1-0.7,0.2-1.2,0.2c-0.7,0-1.3-0.2-1.7-0.7c-0.5-0.5-0.7-1.1-0.7-1.9c0-0.6,0.2-1.1,0.5-1.6c0.2-0.3,0.6-0.7,1.1-1l3.8-1.8
	c0-0.8-0.1-1.4-0.4-1.7c-0.2-0.3-0.6-0.4-1.1-0.4c-0.5,0-0.9,0.2-1.3,0.5C87.8,37.1,87.4,37.7,87,38.6z M90.9,39.5
	c-1.1,0.5-1.9,1-2.2,1.3s-0.4,0.8-0.4,1.3c0,0.6,0.1,1,0.3,1.2c0.2,0.3,0.5,0.4,0.9,0.4c0.3,0,0.5-0.1,0.8-0.3
	c0.3-0.2,0.4-0.4,0.5-0.8c0.1-0.3,0.1-1,0.1-2.1C90.9,40.4,90.9,40,90.9,39.5z"/>
<path fill="#FFFFFF" d="M95.5,32.1v-0.7c1-0.2,1.8-0.5,2.3-0.7s1.1-0.5,1.8-0.8l0.5,0.4c-0.1,0.9-0.2,1.9-0.2,3.1
	c-0.1,1.2-0.1,2.6-0.1,4.1c0,3.3,0,5.1,0,5.6c0,0.4,0.1,0.7,0.2,0.8c0.2,0.2,0.6,0.4,1.3,0.5v0.7c-1.1-0.1-2.1-0.1-2.9-0.1
	c-0.9,0-1.9,0-3,0.1v-0.7c0.8-0.2,1.2-0.3,1.4-0.5c0.1-0.1,0.2-0.5,0.3-1c0-0.7,0.1-2.7,0.1-5.8c0-2.9,0-4.5-0.1-4.7
	C97,32.2,96.8,32,96.3,32C96.2,32,95.9,32.1,95.5,32.1z"/>
<path fill="#FFFFFF" d="M121.5,42.3l0.5,1c-1.2,0.8-2.3,1.3-3.3,1.7s-2.1,0.5-3.2,0.5c-2.3,0-4.2-0.7-5.5-2c-1.3-1.3-2-3.1-2-5.4
	c0-2.4,0.8-4.3,2.3-5.8s3.6-2.2,6.2-2.2c0.8,0,1.7,0.1,2.5,0.2c0.8,0.1,1.8,0.4,2.9,0.8c0,0.4-0.1,0.9-0.1,1.4
	c0,0.8,0.1,1.9,0.2,3.1h-1.1c-0.3-1.3-0.6-2.1-0.7-2.3c-0.3-0.5-0.7-1-1.3-1.3c-0.6-0.4-1.4-0.5-2.4-0.5c-1.5,0-2.7,0.5-3.5,1.4
	c-1,1.1-1.5,2.6-1.5,4.6c0,2,0.5,3.6,1.5,4.6c1,1.1,2.3,1.6,4,1.6C118.6,43.6,120.1,43.2,121.5,42.3z"/>
<path fill="#FFFFFF" d="M123.4,32.1v-0.7c1-0.2,1.8-0.5,2.3-0.7s1.1-0.5,1.8-0.8l0.5,0.4c-0.1,0.9-0.2,1.9-0.2,3.1s-0.1,2.6-0.1,4.1
	c0,3.3,0,5.1,0,5.6c0,0.4,0.1,0.7,0.2,0.8c0.2,0.2,0.6,0.4,1.3,0.5v0.7c-1.1-0.1-2.1-0.1-2.9-0.1c-0.9,0-1.9,0-3,0.1v-0.7
	c0.8-0.2,1.2-0.3,1.4-0.5c0.1-0.1,0.2-0.5,0.2-1c0-0.7,0.1-2.7,0.1-5.8c0-2.9,0-4.5-0.1-4.7c-0.1-0.3-0.3-0.5-0.7-0.5
	C124.1,32,123.8,32.1,123.4,32.1z"/>
<path fill="#FFFFFF" d="M130,37v-0.7c1.6-0.3,2.9-0.8,4.1-1.4l0.5,0.3c-0.1,0.8-0.2,1.6-0.2,2.2c0,1-0.1,2.5-0.1,4.6
	c0,0.9,0,1.4,0.1,1.7c0,0.2,0.1,0.3,0.2,0.4c0.1,0.1,0.5,0.2,1.2,0.4v0.7c-1-0.1-1.8-0.1-2.6-0.1c-0.8,0-1.9,0-3.3,0.1v-0.7l0.3-0.1
	c0.6-0.1,1-0.3,1.1-0.4s0.2-0.3,0.2-0.5c0.1-0.7,0.1-2,0.1-4.1c0-1.2,0-1.9-0.1-2.1c-0.1-0.3-0.3-0.4-0.6-0.4
	C130.7,37,130.4,37,130,37z M133,30.1c0.5,0,0.9,0.2,1.2,0.5c0.3,0.3,0.5,0.7,0.5,1.2s-0.2,0.9-0.5,1.2s-0.7,0.5-1.2,0.5
	s-0.9-0.2-1.2-0.5c-0.3-0.3-0.5-0.7-0.5-1.2c0-0.5,0.2-0.9,0.5-1.2C132.2,30.2,132.6,30.1,133,30.1z"/>
<path fill="#FFFFFF" d="M136.5,37.1v-0.7c0.9-0.2,1.7-0.4,2.3-0.6c0.6-0.2,1.2-0.5,1.8-0.8l0.5,0.3c-0.1,0.5-0.2,1.1-0.2,1.7
	c0.8-0.9,1.3-1.4,1.7-1.6c0.4-0.2,0.8-0.3,1.4-0.3c0.5,0,1,0.1,1.3,0.3c0.4,0.2,0.7,0.5,0.8,0.8s0.3,0.7,0.4,1.2
	c0,0.3,0.1,1.1,0.1,2.3l0,1.8c0,1.2,0,1.9,0,2.1c0,0.2,0.1,0.4,0.2,0.5c0.1,0.1,0.4,0.2,0.9,0.3c0.1,0,0.2,0.1,0.4,0.1v0.7
	c-1.2-0.1-2-0.1-2.7-0.1c-0.6,0-1.6,0-2.8,0.1v-0.7c0.5-0.1,0.9-0.3,1-0.4s0.2-0.3,0.2-0.5c0-0.3,0.1-1.5,0.1-3.4
	c0-1.4-0.1-2.2-0.2-2.5c-0.2-0.4-0.6-0.7-1.1-0.7c-0.4,0-0.7,0.1-1.1,0.4c-0.3,0.3-0.5,0.6-0.6,1.1c-0.1,0.4-0.1,1.4-0.1,2.8
	c0,1.3,0,2.1,0.1,2.4c0,0.2,0.1,0.3,0.2,0.4c0.1,0.1,0.4,0.2,1,0.4v0.7c-1-0.1-1.9-0.1-2.6-0.1c-0.7,0-1.6,0-2.9,0.1v-0.7
	c0.8-0.2,1.2-0.3,1.3-0.4s0.2-0.3,0.2-0.6c0.1-0.7,0.1-1.7,0.1-2.9c0-1.8,0-2.8-0.1-3c-0.1-0.3-0.3-0.5-0.6-0.5
	C137.2,37,136.9,37.1,136.5,37.1z"/>
<path fill="#FFFFFF" d="M148.6,37v-0.7c1.6-0.3,2.9-0.8,4.1-1.4l0.5,0.3c-0.1,0.8-0.2,1.6-0.2,2.2c0,1-0.1,2.5-0.1,4.6
	c0,0.9,0,1.4,0.1,1.7c0,0.2,0.1,0.3,0.2,0.4c0.1,0.1,0.5,0.2,1.2,0.4v0.7c-1-0.1-1.8-0.1-2.6-0.1c-0.8,0-1.9,0-3.3,0.1v-0.7l0.3-0.1
	c0.6-0.1,1-0.3,1.1-0.4c0.1-0.1,0.2-0.3,0.2-0.5c0.1-0.7,0.1-2,0.1-4.1c0-1.2,0-1.9-0.1-2.1c-0.1-0.3-0.3-0.4-0.6-0.4
	C149.2,37,148.9,37,148.6,37z M151.6,30.1c0.5,0,0.9,0.2,1.2,0.5c0.3,0.3,0.5,0.7,0.5,1.2s-0.2,0.9-0.5,1.2s-0.7,0.5-1.2,0.5
	s-0.9-0.2-1.2-0.5c-0.3-0.3-0.5-0.7-0.5-1.2c0-0.5,0.2-0.9,0.5-1.2C150.7,30.2,151.1,30.1,151.6,30.1z"/>
<path fill="#FFFFFF" d="M163.4,38.6l-0.9,0c-0.1-1-0.3-1.7-0.6-2c-0.3-0.4-0.8-0.6-1.3-0.6c-0.6,0-1.1,0.2-1.5,0.7
	c-0.5,0.6-0.8,1.6-0.8,2.8c0,1.2,0.3,2.2,0.8,2.8c0.6,0.6,1.2,1,2,1c0.3,0,0.7-0.1,1-0.2c0.3-0.1,0.8-0.3,1.4-0.6l0.5,0.8
	c-1.2,0.9-2,1.5-2.5,1.7c-0.5,0.2-1.1,0.4-1.7,0.4c-1.2,0-2.2-0.4-3.1-1.3c-0.8-0.9-1.2-2-1.2-3.5c0-1.6,0.5-2.9,1.4-4
	c0.9-1.1,2.3-1.7,3.9-1.7c1,0,2,0.3,3.1,0.8c-0.1,0.6-0.3,1.2-0.4,2C163.5,38.1,163.4,38.4,163.4,38.6z"/>
<path fill="#FFFFFF" d="M11.3,1.7c0.7,0,1.4,0.1,1.9,0.1c0,0.1-0.2,0-0.1,0.1c0.4,0.2,1,0,1.3,0.3c0,0.1-0.3,0-0.4,0
	c-0.1-0.1,0,0.2-0.1,0.1c-0.3,0,0.1-0.2-0.2-0.2c-0.3,0.4,0.6,0.6,0.9,0.6c0.2,0.2,0.1,0.5,0.3,0.6c0,0.3-0.2,0.5,0,0.7
	c0,0.1,0.2-0.1,0.1,0c-0.2,0.4-0.7-0.3-0.9,0.1c-0.3,0-0.5-0.3-0.7-0.2c-0.1,0,0.1-0.1,0-0.2c-0.1,0-0.3,0-0.4-0.1
	c-0.1,0-0.1,0.1-0.2,0.1c-0.8-0.1-1.5,0.4-2.3,0.2c-0.3,0-0.5-0.3-0.8-0.4C9.4,3.5,9,3.5,8.8,3.2c-0.1,0,0.1-0.1,0-0.2
	C8.6,3,8.4,2.9,8.2,2.9C8.1,3.1,8.4,3,8.5,3.1c-0.2,0.1-0.3,0-0.5,0C6.2,3.2,5.4,4.4,4.4,5.4C4.1,5.8,3.6,6.2,3.5,6.6
	C3.4,7,3.4,7.5,3.3,7.9C3.3,8.1,3.1,8.3,3,8.5C2.9,8.7,3,8.9,2.8,9c0.2,0.8,0.4,1.8,0.6,2.6c0,0.1,0.1-0.2,0.2-0.1
	c0.2,0.2,0,0.7,0,1c0,0.1,0.2,0.2,0.2,0.4c0,0.1,0,0.2,0,0.2c0.2,0.3,0.5,0.5,0.7,0.8c0.4,0.7,0.6,1.8,0.8,2.6
	c0.5,1.7,1.2,3.3,1.7,5c0.3,0.9,0.7,1.8,0.7,2.7c0,0.1,0,0.2,0,0.3c0,0.1,0.1,0.2,0.1,0.3c0.1,0.5,0,1.5,0,2.1
	c0.1,1.3,0.2,2.9,0.1,4.3c0,0.4,0,0.9-0.1,1.2C8,32.7,7.8,33,7.8,33.3c0,0.2,0,0.5,0,0.7c-0.1,2.9-1,5.6-1.7,8.2
	c-0.4,1.3-0.6,2.6-1,4c-0.4,1.5-0.9,3-0.9,4.6c-0.2,0-0.5,0.4-0.6,0.3c0.1,0,0.1,0,0.1,0c-0.2-0.4-0.4-0.8-0.4-1.2
	c0-0.1,0-0.3,0-0.4C3.2,49.1,3,48.9,3,48.6c-0.1-0.5-0.2-1.2-0.1-1.8c0.1-0.6,0.2-1.3,0.2-1.9c0-0.3,0-0.6,0-0.9
	c0-0.2-0.1,0-0.1-0.1c0.3-2.1,0.7-4,1.2-5.9c0.1-0.6,0.4-1.2,0.5-1.9c0.1-0.9,0-2.2,0.4-2.8c0-0.3,0-0.5,0-0.8
	c0-0.1,0.1-0.2,0.1-0.3c0.1-0.5,0-1,0.1-1.5c0-0.7,0-1.3,0-2c-0.1,0.1,0-0.5,0.1-0.6c-0.1-0.6-0.1-1.2-0.4-1.6c0-0.1,0-0.2,0-0.3
	C5,26.3,5,26.5,4.8,26.6c-0.1-0.9-0.4-1.6-0.6-2.5c-0.1,0.1,0,0.3,0,0.5C4,23,3.8,21.2,3.4,19.9c-0.4-1.2-1-2.2-1.3-3.4
	C1.2,14.1,0.5,11.8,0,9V7.6c0.1-0.5,0-1,0.1-1.4c0.1-0.6,0.7-1.3,1.1-1.6c0.2-0.1,0.3-0.3,0.5-0.2C1.7,2.8,2.5,1.8,3.5,1.1
	c1-0.7,2.4-1.3,3.9-1c-0.6,0-1.2,0.1-1.7,0.3c0.3-0.1,0.7,0.1,0.9-0.1c0,0.1-0.1,0.2,0,0.2c0.7,0.2,0.9-0.4,1.5-0.2
	c0,0.1-0.1,0.1,0,0.2c0.1,0.1,0.3,0.1,0.4,0.2c0.1,0.1-0.1,0.3,0.2,0.2C8.8,1,8.6,0.7,8.8,0.7c0.4,0,0.7,0.2,1,0.3 M13.9,3.8
	c0,0.1-0.1,0-0.1,0.1C13.9,4,14,4,14.1,4.1C14.1,3.9,13.9,3.9,13.9,3.8 M4.7,1.1c0-0.1,0.1-0.2,0.1-0.2c0.2-0.1,0.4-0.3,0.7-0.4
	c-0.4,0.1-1,0.3-1.3,0.6C4.4,1.2,4.6,1.1,4.7,1.1 M11.6,1.8c0.6-0.1-0.3-0.1-0.4,0C11.2,1.9,11.7,1.8,11.6,1.8 M13.8,3.8
	c0.1-0.3-0.8-0.5-1.1-0.5C13,3.5,13.5,3.6,13.8,3.8"/>
<path fill="#FFFFFF" d="M25.7,52.9c0.2-0.3,0.6-0.2,0.8-0.4c0.2,0-0.1-0.1,0-0.1c0.5-0.3,0.9-0.8,1.1-1.5c0.1-0.3,0.2-0.7,0.2-0.9
	c0-0.1-0.1-0.3-0.1-0.4c-0.1-0.3-0.1-0.7-0.1-1.1c0-0.4-0.1-0.8-0.1-1.1c0-0.6,0.1-1.2-0.1-1.7c-0.1-0.3-0.5-0.9-0.6-1
	c-1.2-3.1-1.5-7.1-2.3-10.6c0.1,0.1,0.1-0.5,0.2-0.5c-0.2-0.4-0.2-0.9-0.1-1.3c0-0.6-0.1-1.2-0.2-1.9c-0.1-0.6-0.2-1.3-0.2-1.9
	c0-0.1-0.1,0.1-0.1,0c0.2-0.9-0.2-2-0.2-2.9c0,0.2-0.1,0.4-0.3,0.4c-0.1-1-0.1-2-0.2-2.9c0,0.2-0.1,0.4-0.1,0.6
	c0.6-3.8,1.4-7.9,2.6-11.3c0.4-1.1,0.9-2.4,1-3.7c0-0.3,0-0.6,0-0.9c-0.1-0.9-0.6-1.2-1-1.7c-0.2-0.4-0.4-0.9-0.3-1.5
	c-0.3,0-0.7-0.1-0.9,0c-0.2-0.2-0.4-0.4-0.7-0.6c-0.1,0.1,0.2,0.2,0.1,0.2c-0.8-0.1-1.6,0.3-2.2,0.4c0.4-0.3,0.9-0.5,1.4-0.6
	c0.1,0,0.4-0.1,0.4-0.3c-0.3-0.1-0.5,0.3-0.9,0.4c-0.2,0-0.4-0.1-0.5,0.1c-0.1,0,0-0.2-0.1-0.2C22,4,21.8,4,21.6,4.1
	c-0.1,0.2-0.1,0.4-0.4,0.5c-0.1,0,0.1-0.2-0.1-0.1c-0.4,0.1-0.5-0.1-0.7,0c-0.1,0.1,0.2,0,0.1,0.2c-0.3,0.3-0.7,0.4-1.1,0.6
	c0,0.3-0.3,0.3-0.4,0.5c-0.2,0.2-0.3,0.5-0.5,0.6c-0.1,0-0.1-0.1-0.2,0c-0.2,0.2-0.4,0.5-0.7,0.5c0.1-0.3,0.3-0.4,0.4-0.7
	c-0.1,0-0.2,0.1-0.2,0.2c-0.3,0.3-0.6,0.6-1,0.7c-0.1,0-0.1-0.1-0.1-0.2c-0.1,0.1-0.2,0.2-0.3,0.2c-0.7,0.4-1.7,1-2.7,0.9
	c-0.1,0.1-0.2,0.1-0.4,0.1c0,0,0.1-0.1,0.1-0.2c-0.4-0.2-1.2,0.2-1.4-0.2c0.2,0,0.5,0,0.5-0.1c0.2,0-0.1,0.3,0.1,0.2
	c0.2-0.1-0.1-0.3-0.1-0.4c-0.4,0-0.7-0.2-0.9,0c-0.3-0.1-0.4-0.1-0.6-0.3c-0.5,0.2-0.5-0.4-1.1-0.3c-0.1,0,0.1,0.1,0,0.2
	c-0.4-0.3,0.2-0.6,0.3-0.8c0-0.2-0.3-0.1-0.2-0.2c0-0.2,0.4-0.1,0.5-0.2c0.1,0,0-0.2,0.1-0.2C11,5.8,10.9,5.8,11.1,6
	c0.3,0.1,0.7,0,0.9,0.3c-0.1,0-0.3-0.1-0.4,0c0.3,0.1,0.3,0.2,0.6,0c0.4,0.1,0.8,0.4,1.4,0.3c-0.4-0.1-0.7-0.2-1.1-0.4
	c0.2,0,0.3,0,0.4-0.1c-0.1,0.3,0.2,0.1,0.3,0.2c0.1,0,0-0.1,0.2-0.2c0.6-0.1,0.9-0.5,1.3-0.8c0.2,0,0.3-0.1,0.5,0
	c0.1-0.1,0.1-0.2,0.3-0.2c0.3,0.1,0.4-0.3,0.6,0c0.1-0.1,0.1-0.2,0.2-0.3c0.5-0.1,0.7-0.4,1.1-0.7c0.8-0.6,1.6-1.1,2.4-1.6
	c-0.2-0.1-0.3,0.3-0.5,0.2c1.4-0.9,2.8-2.1,4.8-2.2c1.4,0,2.3,0.7,3.1,1.4c0.5,0.5,0.9,1.1,1.3,1.7c0.4,0.5,1.1,1.2,1.2,1.8
	c0.1,0.4,0.1,1.1,0.2,1.5v0.1h0c-0.1,0.3,0,0.8,0,1.1V9h0c0.1,0.6-0.4,1.2-0.3,1.7c0,0.2,0,0,0,0.1c0.4,0.3-0.4,0.9-0.5,1.1
	c-0.1,0.5,0,1,0,1.6c0,0.4-0.2,0.8-0.4,1.2c-0.4,1.2-0.9,2.3-1.2,3.6c-0.5,1.9-0.2,3.7-0.4,5.9c0.2,0.8-0.2,1.5-0.1,2.4
	c0,0.8,0.2,1.7,0.3,2.6c0,0.4,0.1,0.9,0.1,1.3c0,0.4,0.1,0.9,0.1,1.3c0,0.3-0.1,0.6-0.1,0.8c0,0.5,0.2,1.1,0.3,1.6
	c0.3,1.6,0.6,3.3,0.8,4.9c0.2,1.1,0.3,2.2,0.5,3.3c0.1,0.5,0.3,1,0.4,1.5c0.1,0.5,0.3,1.1,0.3,1.6c0.1,2.6-0.6,5.1-1.8,6.6
	c-0.4,0.3-0.8,0.6-1.4,0.7L25.7,52.9L25.7,52.9z M10.2,6.1c0.1,0,0.2,0,0.3,0c0-0.3,0.3,0.1,0.4,0C10.7,5.9,10.4,5.9,10.2,6.1
	 M15.1,7.7c0.1-0.1,0.3-0.1,0.3-0.2C15.3,7.6,15,7.7,15.1,7.7"/>
<path fill="#FFFFFF" d="M12.8,28.6c-0.1,0.3-0.4,0.6-0.5,0.9c0,0.1,0.1,0.1,0.2,0.1c0-0.1-0.1-0.4,0-0.5c0.1,0,0.3,0,0.3-0.2
	c0.1,0.2,0.3,0,0.4,0c0-0.1-0.2-0.2-0.1-0.3c0.1,0.1,0.5,0,0.6,0.1c0.1-0.1-0.2-0.1-0.1-0.2c0.4-0.2,0.5-0.4,0.6-0.9
	c0.1,0,0.1,0.1,0.2,0.1c0.1-0.1,0.1-0.3,0.2-0.2c0,0.2,0,0.3,0,0.4c0.1-0.1,0.2-0.2,0.3-0.4c0.1,0.1,0.2-0.1,0.2,0.1
	c0.4-0.2,0.3-0.8,0.7-0.9c0.1-0.1,0-0.1,0.1-0.2c0.1,0,0,0.2,0.1,0.2c0.2,0,0.2-0.3,0.4-0.3c0.1,0.1-0.1,0.3,0,0.3
	c-0.1,0-0.1-0.1-0.1-0.1c0,0.2,0.3,0.4,0.5,0.2c0.1,0,0-0.1,0-0.1c0.2,0,0.2,0,0.3,0.1c0.1-0.2,0.2,0,0.3,0c0.1,0,0.1-0.2,0-0.2
	c0.2,0.1,0.2,0.8,0.3,1.1c0.1-0.2,0,0.2,0.1,0.3c0,0.1-0.1,0-0.1-0.1c-0.2,0.2-0.5-0.1-0.9,0c0.1,0.2,0.5,0.1,0.5,0.2
	c0,0.2-0.1-0.2-0.2,0c0,0.2,0,0.6,0,0.9c0,0.1-0.3,0-0.2,0.1c-0.2-0.1-0.3,0.1-0.4,0c-0.1,0,0,0.1,0,0.1c-0.6,0-0.8,0.5-1.1,0.7
	c0.2,0,0.1-0.1,0.2-0.1c-0.5,0.8-0.7,1.9-1.5,2.5c0,0.2,0.1,0.4,0.1,0.5c-0.1,0.2-0.2,0.4-0.4,0.5c0.1,0.4,0,0.8-0.1,1.1
	c0.1,0.1,0.1,0,0.2,0.1c-0.1,0.1-0.2,0.3-0.4,0.3c0,0.3,0.1,0.5,0.3,0.7c-0.1,0.9-0.9,1.3-1,2.1c-0.1,0.6,0.2,1.4,0,2
	c0,0.1,0.1,0.1,0.1,0.2c-0.4,0.7-0.4,1.8-0.6,2.7c-0.1,0.1-0.2,0.2-0.3,0.3c0,2.9-0.9,5.3-2,7c-0.2,0.1-0.2,0.4-0.5,0.4
	c0-0.1,0-0.3-0.1-0.4c0.1-0.3-0.1-0.6,0-0.9c-0.6-0.6-0.1-1.6-0.4-2.3c-0.1-1.5,0.5-2.7,0.3-4c0.1,0,0.1-0.1,0.3-0.1
	c0-0.1-0.1-0.2,0-0.3c0.3-0.3,0.2-1.1,0.4-1.5c0,0-0.1,0-0.1-0.1c0-0.1,0.1-0.2,0.2-0.2c0-0.3-0.1-0.6-0.1-0.8
	c-0.1,0.1-0.2,0-0.2,0.1c-0.1-0.3-0.1-0.8-0.2-1.1c-0.1,0.1-0.1,0.1-0.1,0.2c0.3-0.8,0.6-1.7,0.9-2.6c0.5-1.3,1.3-2.7,0.7-4.5
	c0.2-0.3,0.4-0.6,0.9-0.6C11.2,30.2,12,29,12.8,28.6"/>
<path fill="#FFFFFF" d="M19.9,33.5c-0.1,0.1,0.2,0.3,0,0.3c0.2,0,0,0.3,0.1,0.4C20,34.1,20,34,20,33.9c0,0.2,0.3,0.3,0.6,0.4
	c0,0.4,0.1,0.7,0.2,1.2c0.1,0,0.1,0,0,0c0.1,0.1,0.2,0.3,0.3,0.5c0.1,0.2,0.2,0.4,0.2,0.6c0,0.2-0.1,0.5,0.2,0.6
	c0,0.4,0.1,0.5,0.2,0.8c0,0.1,0,0,0.1,0c0,0.1-0.1,0.2-0.1,0.3c0.2,0.1,0.3,0.3,0.3,0.5c0,0.3-0.1,0.5,0,0.8
	c0.1,0.5,0.4,0.8,0.5,1.2c0,0.1,0,0.2,0,0.3c0,0.3,0.2,0.6,0.2,0.9c0,0.1,0,0.1,0,0.2c0.1,0.5,0.4,0.8,0.4,1.3
	c0.1,1.2-0.1,2-0.8,2.7c-0.1-0.2-0.1-0.4-0.1-0.7c-0.1-0.1-0.1-0.4-0.2-0.5c0.1-0.2-0.1-0.4-0.1-0.6c-0.2-0.6-0.1-1.4-0.5-1.7
	c0,0,0.1-0.1,0.1-0.1c-0.3-0.5-0.1-1.3-0.6-1.4c0-0.1-0.2-0.4-0.2-0.3c-0.2-1.2,0-2.7-0.9-3.1c0-0.3,0.1-0.4,0.2-0.5
	c-0.5,0-0.6-0.5-0.5-1c0.1,0,0.1,0.1,0.1,0.2c0.1-0.1,0-0.1,0.1-0.2c0-0.1-0.1,0-0.1-0.1c0-0.1,0.1-0.1,0.2-0.2
	c-0.1-0.2-0.2-0.4-0.3-0.6c0-0.1,0.1,0,0.2,0c-0.1-0.3-0.2-0.5-0.5-0.7c0.1-0.1,0-0.2,0-0.3c0.1-0.1,0.1,0.1,0.2,0
	c0-0.2-0.2-0.3-0.1-0.4c0,0-0.1-0.1-0.1,0C19.3,33.7,19.6,33.5,19.9,33.5"/>
</svg>
