<?xml version="1.0" encoding="utf-8"?>
<!-- Generator: Adobe Illustrator 22.1.0, SVG Export Plug-In . SVG Version: 6.00 Build 0)  -->
<svg version="1.1" id="Layer_1" xmlns="http://www.w3.org/2000/svg" xmlns:xlink="http://www.w3.org/1999/xlink" x="0px" y="0px"
	 viewBox="0 0 265 85.5" enable-background="new 0 0 265 85.5" xml:space="preserve">
<path fill="none" d="M84.5,26.5l0.9,1.6c-1.9,1.3-3.7,2.2-5.3,2.7s-3.3,0.8-5.1,0.8c-3.8,0-6.7-1.1-8.9-3.2s-3.2-5-3.2-8.7
	c0-3.9,1.2-7,3.6-9.3c2.4-2.4,5.8-3.5,10.1-3.5c1.4,0,2.7,0.1,4,0.3c1.3,0.2,2.9,0.6,4.7,1.2c-0.1,0.7-0.1,1.5-0.1,2.3
	c0,1.3,0.1,3,0.3,4.9h-1.8c-0.6-2.1-0.9-3.4-1.1-3.8c-0.4-0.8-1.1-1.5-2-2.1c-0.9-0.6-2.2-0.9-3.8-0.9c-2.4,0-4.3,0.7-5.7,2.2
	c-1.6,1.8-2.4,4.3-2.4,7.4c0,3.3,0.8,5.8,2.4,7.5c1.6,1.7,3.8,2.6,6.5,2.6C79.8,28.6,82.2,27.9,84.5,26.5z"/>
<path fill="none" d="M91,20.5l-1.5-0.2c0.3-1.6,0.5-3,0.6-4.2c2-1,4.2-1.5,6.4-1.5c1.3,0,2.3,0.2,3.1,0.6c0.8,0.4,1.3,1,1.6,1.7
	c0.3,0.7,0.4,1.8,0.4,3.3l-0.1,5.7c0,1.1,0.1,1.8,0.3,2s0.4,0.4,0.7,0.4c0.4,0,0.9-0.2,1.6-0.6l0.6,1c-1.5,1.1-2.6,1.8-3.4,2.1
	c-0.5,0.2-1,0.4-1.5,0.4c-0.6,0-1.2-0.2-1.6-0.5c-0.5-0.3-0.8-0.9-0.9-1.5C96,30.2,95,30.8,94.5,31c-0.5,0.2-1.2,0.3-1.9,0.3
	c-1.1,0-2.1-0.4-2.8-1.2c-0.7-0.8-1.1-1.8-1.1-3.1c0-0.9,0.2-1.8,0.7-2.5c0.3-0.5,1-1.1,1.9-1.6l6.1-2.9c0-1.3-0.2-2.2-0.6-2.7
	s-1-0.7-1.8-0.7c-0.8,0-1.5,0.3-2.1,0.8C92.3,18,91.6,19,91,20.5z M97.3,21.9c-1.8,0.9-3,1.6-3.5,2.1c-0.5,0.5-0.7,1.3-0.7,2.1
	c0,0.9,0.2,1.6,0.5,2c0.4,0.4,0.8,0.6,1.4,0.6c0.4,0,0.9-0.1,1.3-0.4c0.4-0.3,0.7-0.7,0.8-1.2s0.2-1.6,0.2-3.3
	C97.3,23.4,97.3,22.7,97.3,21.9z"/>
<path fill="none" d="M116,15.2l0.2,0.2c-0.4,0.6-0.7,1.3-1,1.9c-1.2-0.1-2.5-0.2-3.9-0.3l-0.1,2l-0.1,2.3l-0.1,2.3
	c0,2.1,0.2,3.5,0.5,4s0.8,0.8,1.4,0.8c0.4,0,1.1-0.2,2.1-0.6l0.6,1.2c-1.7,1-2.8,1.6-3.4,1.8c-0.7,0.3-1.5,0.4-2.1,0.4
	c-1,0-1.9-0.3-2.5-1c-0.6-0.7-0.9-1.6-0.9-2.9l0.1-3.9l0.1-6.4l-1.4,0c-0.1,0-0.5,0-1,0v-1.2c1.1-0.4,2.1-1,3-1.9
	c0.9-0.9,1.8-2.1,2.7-3.8h1.5c-0.3,1.9-0.5,3.5-0.5,5c1,0,1.6,0,1.8,0C113.6,15.3,114.5,15.3,116,15.2z"/>
<path fill="none" d="M116.5,10V8.8c1.8-0.4,3.1-0.8,3.9-1.1c0.8-0.3,1.7-0.7,2.7-1.2l0.8,0.5c-0.1,1.1-0.2,2.4-0.3,4.2
	c-0.1,2.4-0.2,4.3-0.2,5.7v1c1.4-1.4,2.4-2.3,3-2.6c0.6-0.3,1.4-0.5,2.3-0.5c1.2,0,2.2,0.3,2.8,0.9c0.7,0.6,1,1.3,1.2,2.2
	c0.1,0.6,0.1,2.5,0.1,5.6c0,2.6,0,4.1,0.1,4.8c0,0.4,0.1,0.8,0.3,1c0.2,0.2,0.7,0.4,1.5,0.6c0.1,0,0.4,0.1,0.7,0.2v1.2
	c-1.9-0.1-3.4-0.2-4.5-0.2c-1.2,0-2.6,0.1-4.4,0.2v-1.2c1-0.3,1.6-0.5,1.8-0.7c0.2-0.2,0.3-0.7,0.3-1.4c0-4.7,0-7.2,0-7.4
	c-0.1-0.9-0.3-1.5-0.7-1.9c-0.4-0.4-0.9-0.6-1.5-0.6c-0.6,0-1.2,0.2-1.7,0.6c-0.5,0.4-0.9,1-1,1.7c-0.1,0.5-0.2,1.9-0.2,4.1
	c0,2.5,0,3.9,0.1,4.3c0,0.3,0.2,0.6,0.4,0.8c0.2,0.2,0.7,0.4,1.5,0.5v1.2c-1.7-0.1-3.1-0.2-4.1-0.2c-0.7,0-2.3,0.1-4.8,0.2v-1.2
	c0.2-0.1,0.3-0.1,0.4-0.1c0.9-0.2,1.4-0.4,1.6-0.6c0.2-0.3,0.4-0.8,0.4-1.5c0.1-1.6,0.1-4.7,0.1-9.2l-0.1-7.3c0-0.5-0.1-0.8-0.3-1
	c-0.2-0.2-0.4-0.3-0.8-0.3C117.5,9.9,117,9.9,116.5,10z"/>
<path fill="none" d="M149.8,26.5l0.9,1.3c-1.8,1.5-3.4,2.6-4.8,3.2c-0.6,0.3-1.4,0.4-2.4,0.4c-2.1,0-3.7-0.6-4.7-1.8
	c-1.4-1.5-2.1-3.6-2.1-6.2c0-2.7,0.8-4.8,2.4-6.5c1.6-1.7,3.5-2.5,5.9-2.5c2.1,0,3.7,0.6,4.7,1.9c0.7,0.8,1,2.2,1.1,4
	c-0.6,0.4-1.1,0.8-1.6,1.3c-1.2,0-2.4-0.1-3.6-0.1c-1.6,0-3.1,0-4.4,0.1c0,0.2,0,0.5,0,0.6c0,1.6,0.4,3,1.1,4.1
	c0.7,1.2,1.8,1.8,3.2,1.8c0.7,0,1.4-0.1,2-0.4C148.1,27.6,148.9,27.2,149.8,26.5z M141.1,19.9c0.6,0,1.1,0,1.5,0c1,0,2.1,0,3.5-0.1
	c-0.1-1.4-0.3-2.4-0.7-2.8c-0.4-0.5-1-0.7-1.7-0.7c-0.7,0-1.3,0.3-1.8,0.8C141.5,17.7,141.2,18.6,141.1,19.9z"/>
<path fill="none" d="M160.4,10.1V8.9c2.6-0.5,4.8-1.3,6.7-2.4l0.8,0.6c-0.2,1.4-0.3,3-0.4,4.9c-0.1,1.8-0.1,3.9-0.1,6.2
	c0,4,0,6.9,0,8.6c0,0.8,0.1,1.3,0.3,1.5c0.2,0.2,0.5,0.3,1,0.3c0.1,0,0.5,0,1.2,0v1.2c-1.4,0.2-2.5,0.4-3.5,0.7s-2,0.6-3.2,1
	l-0.8-0.4c0.1-0.7,0.2-1.4,0.3-2.2c-1.3,1.1-2.3,1.8-3.2,2.2c-0.6,0.3-1.2,0.4-1.9,0.4c-1.3,0-2.4-0.6-3.3-1.7
	c-1.2-1.4-1.8-3.3-1.8-5.6c0-1.1,0.2-2.2,0.5-3.3c0.3-1.1,0.8-2.1,1.5-3c0.7-0.9,1.6-1.6,2.8-2.1s2.3-0.9,3.5-0.9
	c0.3,0,0.6,0,0.9,0.1c0.3,0.1,0.7,0.1,1.1,0.3c0-1.2,0.1-2.1,0.1-2.6c0-1.2-0.1-1.9-0.3-2.1c-0.2-0.3-0.5-0.4-1-0.4
	C161.5,9.9,161,10,160.4,10.1z M163,22.3c0-2.3-0.2-3.7-0.5-4.4c-0.4-0.8-1.1-1.3-2-1.3c-0.8,0-1.5,0.4-2.1,1.3
	c-0.6,0.9-1,2.3-1,4.4c0,2.1,0.4,3.6,1.1,4.6c0.5,0.7,1.2,1.1,2,1.1c0.9,0,1.6-0.5,2.1-1.5C162.8,25.9,163,24.5,163,22.3z"/>
<path fill="none" d="M170.4,18.1v-1.2c2.8-0.6,5-1.4,6.6-2.3l0.8,0.5c-0.2,1.2-0.3,2.5-0.3,3.9c1.1-1.8,2-2.9,2.5-3.3
	s1.2-0.6,1.9-0.6c0.5,0,1.1,0.1,1.7,0.4c-0.3,1.4-0.6,2.8-0.8,4.3h-1.1c-0.1-0.4-0.2-0.8-0.4-1c-0.2-0.2-0.5-0.3-0.8-0.3
	c-0.5,0-1,0.2-1.4,0.7c-0.7,0.7-1.1,1.6-1.4,2.6c-0.1,0.5-0.2,1.4-0.2,2.7c0,2.3,0,3.6,0.1,3.9c0,0.3,0.2,0.6,0.4,0.8
	s0.8,0.4,1.9,0.6c0.1,0,0.4,0.1,0.7,0.2v1.2c-2.1-0.1-3.8-0.2-5.1-0.2c-1.4,0-3,0.1-4.8,0.2v-1.2c1.3-0.3,2.1-0.6,2.3-0.9
	c0.3-0.5,0.4-2.8,0.4-6.9c0-2.2-0.1-3.4-0.3-3.7s-0.5-0.4-0.9-0.4C171.6,17.9,171.1,18,170.4,18.1z"/>
<path fill="none" d="M187,20.5l-1.5-0.2c0.3-1.6,0.5-3,0.6-4.2c2-1,4.2-1.5,6.4-1.5c1.3,0,2.3,0.2,3.1,0.6c0.8,0.4,1.3,1,1.6,1.7
	s0.4,1.8,0.4,3.3l-0.1,5.7c0,1.1,0.1,1.8,0.3,2s0.4,0.4,0.7,0.4c0.4,0,0.9-0.2,1.6-0.6l0.6,1c-1.5,1.1-2.6,1.8-3.4,2.1
	c-0.5,0.2-1,0.4-1.5,0.4c-0.6,0-1.2-0.2-1.6-0.5c-0.5-0.3-0.8-0.9-0.9-1.5c-1.3,0.9-2.3,1.5-2.8,1.7c-0.5,0.2-1.2,0.3-1.9,0.3
	c-1.1,0-2.1-0.4-2.8-1.2c-0.7-0.8-1.1-1.8-1.1-3.1c0-0.9,0.2-1.8,0.7-2.5c0.3-0.5,1-1.1,1.9-1.6l6.1-2.9c0-1.3-0.2-2.2-0.6-2.7
	c-0.4-0.5-1-0.7-1.8-0.7c-0.8,0-1.5,0.3-2.1,0.8C188.2,18,187.6,19,187,20.5z M193.2,21.9c-1.8,0.9-3,1.6-3.5,2.1
	c-0.5,0.5-0.7,1.3-0.7,2.1c0,0.9,0.2,1.6,0.5,2c0.4,0.4,0.8,0.6,1.4,0.6c0.4,0,0.9-0.1,1.3-0.4c0.4-0.3,0.7-0.7,0.8-1.2
	c0.1-0.5,0.2-1.6,0.2-3.3C193.3,23.4,193.3,22.7,193.2,21.9z"/>
<path fill="none" d="M200.7,10V8.8c1.6-0.4,2.9-0.7,3.8-1.1s1.8-0.7,2.8-1.3l0.8,0.6c-0.2,1.4-0.3,3.1-0.4,5
	c-0.1,1.9-0.1,4.1-0.1,6.6c0,5.3,0,8.3,0,9c0,0.7,0.1,1.1,0.3,1.3c0.3,0.3,1,0.6,2.1,0.8v1.2c-1.8-0.1-3.3-0.2-4.7-0.2
	c-1.4,0-3,0.1-4.8,0.2v-1.2c1.2-0.3,2-0.5,2.2-0.8c0.2-0.2,0.4-0.8,0.4-1.6c0.1-1.2,0.1-4.3,0.1-9.4c0-4.7,0-7.2-0.1-7.5
	c-0.1-0.5-0.5-0.8-1.2-0.8C201.7,9.9,201.3,9.9,200.7,10z"/>
<path fill="none" d="M62,41.7v-1.2c2.6,0.1,4.7,0.2,6.4,0.2c1.3,0,3.1,0,5.4-0.1c1.7-0.1,3-0.1,4.2-0.1c2.1,0,3.8,0.3,5,0.8
	c1.7,0.7,3,1.9,4,3.4s1.4,3.5,1.4,5.9c0,2.7-0.6,5.1-1.9,7.2c-1.3,2.1-3,3.7-5.3,4.9c-1.9,1-4.2,1.5-6.9,1.5c-0.3,0-1.3,0-3.1-0.1
	C69.3,64,68.3,64,68.1,64c-0.8,0-2.8,0.1-6.1,0.2V63l0.7-0.1c1.5-0.3,2.3-0.5,2.6-0.7c0.3-0.2,0.4-0.6,0.4-1c0-0.6,0.1-4,0.1-10.1
	c0-4.5,0-7-0.1-7.6c-0.1-0.4-0.2-0.7-0.4-0.9c-0.2-0.2-1.1-0.4-2.5-0.7L62,41.7z M71,62c1.3,0.2,2.5,0.3,3.4,0.3
	c2.6,0,4.5-0.8,5.8-2.3c1.7-1.9,2.5-4.8,2.5-8.4c0-3.2-0.7-5.6-2.2-7.2c-1.2-1.3-3.1-2-5.6-2c-1.1,0-2.4,0.1-3.9,0.3
	c-0.1,1.7-0.2,5-0.2,9.7C70.8,55.1,70.9,58.3,71,62z"/>
<path fill="none" d="M104.2,59.7L105,61c-1.8,1.5-3.4,2.6-4.8,3.2c-0.6,0.3-1.4,0.4-2.4,0.4c-2.1,0-3.7-0.6-4.7-1.8
	c-1.4-1.5-2.1-3.6-2.1-6.2c0-2.7,0.8-4.8,2.4-6.5c1.6-1.7,3.5-2.5,5.9-2.5c2.1,0,3.7,0.6,4.7,1.9c0.7,0.8,1,2.2,1.1,4
	c-0.6,0.4-1.1,0.8-1.6,1.3c-1.2,0-2.4-0.1-3.6-0.1c-1.6,0-3.1,0-4.4,0.1c0,0.2,0,0.5,0,0.6c0,1.6,0.4,3,1.1,4.1
	c0.7,1.2,1.8,1.8,3.2,1.8c0.7,0,1.4-0.1,2-0.4S103.2,60.3,104.2,59.7z M95.5,53.1c0.6,0,1.1,0,1.5,0c1,0,2.1,0,3.5-0.1
	c-0.1-1.4-0.3-2.4-0.7-2.8c-0.4-0.5-1-0.7-1.7-0.7c-0.7,0-1.3,0.3-1.8,0.8C95.9,50.8,95.6,51.8,95.5,53.1z"/>
<path fill="none" d="M106.3,51.2V50c1.5-0.3,2.7-0.6,3.7-1c1-0.3,1.9-0.8,2.9-1.3l0.9,0.5c-0.2,0.8-0.3,1.8-0.3,2.8
	c1.2-1.4,2.2-2.3,2.8-2.6c0.6-0.4,1.4-0.5,2.2-0.5c0.8,0,1.6,0.2,2.2,0.5c0.6,0.3,1.1,0.7,1.4,1.2s0.5,1.2,0.6,2
	c0.1,0.5,0.1,1.8,0.1,3.8l0,3c0,1.9,0,3,0.1,3.4c0,0.3,0.2,0.6,0.3,0.7s0.7,0.3,1.5,0.5c0.1,0,0.3,0.1,0.6,0.1v1.2
	c-1.9-0.1-3.3-0.2-4.3-0.2c-1,0-2.6,0.1-4.6,0.2V63c0.9-0.2,1.4-0.4,1.6-0.6c0.2-0.2,0.3-0.5,0.4-0.9c0.1-0.6,0.1-2.4,0.1-5.5
	c0-2.2-0.1-3.6-0.3-4c-0.3-0.7-0.9-1.1-1.8-1.1c-0.6,0-1.2,0.2-1.7,0.7c-0.5,0.4-0.8,1-1,1.7c-0.1,0.7-0.2,2.2-0.2,4.6
	c0,2.1,0,3.4,0.1,3.9c0,0.3,0.1,0.5,0.3,0.6c0.2,0.1,0.7,0.3,1.6,0.6v1.2c-1.7-0.1-3.1-0.2-4.2-0.2c-1.1,0-2.6,0.1-4.7,0.2V63
	c1.2-0.3,1.9-0.6,2.1-0.7c0.2-0.1,0.3-0.5,0.3-1c0.1-1.2,0.2-2.8,0.2-4.7c0-2.9,0-4.5-0.1-4.8c-0.1-0.5-0.5-0.7-1-0.7
	C107.4,51.1,106.9,51.1,106.3,51.2z"/>
<path fill="none" d="M136.7,48.4l0.2,0.2c-0.4,0.6-0.7,1.3-1,1.9c-1.2-0.1-2.5-0.2-3.9-0.3l-0.1,2l-0.1,2.3l-0.1,2.3
	c0,2.1,0.2,3.5,0.5,4s0.8,0.8,1.4,0.8c0.4,0,1.1-0.2,2.1-0.6l0.6,1.2c-1.7,1-2.8,1.6-3.4,1.8c-0.7,0.3-1.5,0.4-2.1,0.4
	c-1,0-1.9-0.3-2.5-1c-0.6-0.7-0.9-1.6-0.9-2.9l0.1-3.9l0.1-6.4l-1.4,0c-0.1,0-0.5,0-1,0V49c1.1-0.4,2.1-1,3-1.9
	c0.9-0.9,1.8-2.1,2.7-3.8h1.5c-0.3,1.9-0.5,3.5-0.5,5c1,0,1.6,0,1.8,0C134.3,48.4,135.2,48.4,136.7,48.4z"/>
<path fill="none" d="M140.6,53.6l-1.5-0.2c0.3-1.6,0.5-3,0.6-4.2c2-1,4.2-1.5,6.4-1.5c1.3,0,2.3,0.2,3.1,0.6c0.8,0.4,1.3,1,1.6,1.7
	s0.4,1.8,0.4,3.3l-0.1,5.7c0,1.1,0.1,1.8,0.3,2c0.2,0.3,0.4,0.4,0.7,0.4c0.4,0,0.9-0.2,1.6-0.6l0.6,1c-1.5,1.1-2.6,1.8-3.4,2.1
	c-0.5,0.2-1,0.4-1.5,0.4c-0.6,0-1.2-0.2-1.6-0.5s-0.8-0.9-0.9-1.5c-1.3,0.9-2.3,1.5-2.8,1.7c-0.5,0.2-1.2,0.3-1.9,0.3
	c-1.1,0-2.1-0.4-2.8-1.2s-1.1-1.8-1.1-3.1c0-0.9,0.2-1.8,0.7-2.5c0.3-0.5,1-1.1,1.9-1.6l6.1-2.9c0-1.3-0.2-2.2-0.6-2.7
	c-0.4-0.5-1-0.7-1.8-0.7c-0.8,0-1.5,0.3-2.1,0.8C141.9,51.1,141.3,52.2,140.6,53.6z M146.9,55c-1.8,0.9-3,1.6-3.5,2.1
	c-0.5,0.5-0.7,1.3-0.7,2.1c0,0.9,0.2,1.6,0.5,2c0.4,0.4,0.8,0.6,1.4,0.6c0.4,0,0.9-0.1,1.3-0.4c0.4-0.3,0.7-0.7,0.8-1.2
	c0.1-0.5,0.2-1.6,0.2-3.3C146.9,56.5,146.9,55.9,146.9,55z"/>
<path fill="none" d="M154.4,43.1V42c1.6-0.4,2.9-0.7,3.8-1.1c0.9-0.3,1.8-0.7,2.8-1.3l0.8,0.6c-0.2,1.4-0.3,3.1-0.4,5
	c-0.1,1.9-0.1,4.1-0.1,6.6c0,5.3,0,8.3,0,9c0,0.7,0.1,1.1,0.3,1.3c0.3,0.3,1,0.6,2.1,0.8v1.2c-1.8-0.1-3.3-0.2-4.7-0.2
	c-1.4,0-3,0.1-4.8,0.2V63c1.2-0.3,2-0.5,2.2-0.8c0.2-0.2,0.4-0.8,0.4-1.6c0.1-1.2,0.1-4.3,0.1-9.4c0-4.7,0-7.2-0.1-7.5
	c-0.1-0.5-0.5-0.8-1.2-0.8C155.4,43,154.9,43.1,154.4,43.1z"/>
<path fill="none" d="M196.3,59.6l0.9,1.6c-1.9,1.3-3.7,2.2-5.3,2.7c-1.6,0.5-3.3,0.8-5.1,0.8c-3.8,0-6.7-1.1-8.9-3.2
	c-2.2-2.1-3.2-5-3.2-8.7c0-3.9,1.2-7,3.6-9.3c2.4-2.4,5.8-3.5,10.1-3.5c1.4,0,2.7,0.1,4,0.3c1.3,0.2,2.9,0.6,4.7,1.2
	c-0.1,0.7-0.1,1.5-0.1,2.3c0,1.3,0.1,3,0.3,4.9h-1.8c-0.6-2.1-0.9-3.4-1.1-3.8c-0.4-0.8-1.1-1.5-2-2.1c-0.9-0.6-2.2-0.9-3.8-0.9
	c-2.4,0-4.3,0.7-5.6,2.2c-1.6,1.8-2.4,4.3-2.4,7.4c0,3.3,0.8,5.8,2.4,7.5c1.6,1.7,3.8,2.6,6.5,2.6C191.6,61.7,194,61,196.3,59.6z"/>
<path fill="none" d="M199.4,43.1V42c1.6-0.4,2.9-0.7,3.8-1.1s1.8-0.7,2.8-1.3l0.8,0.6c-0.2,1.4-0.3,3.1-0.4,5
	c-0.1,1.9-0.1,4.1-0.1,6.6c0,5.3,0,8.3,0,9c0,0.7,0.1,1.1,0.3,1.3c0.3,0.3,1,0.6,2.1,0.8v1.2c-1.8-0.1-3.3-0.2-4.7-0.2
	c-1.4,0-3,0.1-4.8,0.2V63c1.2-0.3,2-0.5,2.2-0.8c0.2-0.2,0.4-0.8,0.4-1.6c0.1-1.2,0.1-4.3,0.1-9.4c0-4.7,0-7.2-0.1-7.5
	c-0.1-0.5-0.5-0.8-1.2-0.8C200.5,43,200,43.1,199.4,43.1z"/>
<path fill="none" d="M210.1,51.1v-1.2c2.5-0.4,4.7-1.2,6.6-2.3l0.9,0.5c-0.2,1.3-0.3,2.6-0.3,3.6c-0.1,1.6-0.1,4.1-0.1,7.5
	c0,1.4,0.1,2.3,0.2,2.7c0.1,0.3,0.2,0.4,0.4,0.6c0.2,0.1,0.9,0.3,2,0.6v1.2c-1.5-0.1-3-0.2-4.2-0.2c-1.2,0-3,0.1-5.4,0.2V63l0.4-0.1
	c1-0.2,1.6-0.4,1.7-0.6s0.3-0.4,0.3-0.9c0.1-1.1,0.1-3.2,0.1-6.6c0-1.9,0-3-0.1-3.3c-0.1-0.4-0.5-0.6-1-0.6
	C211.2,51,210.7,51,210.1,51.1z M215,39.9c0.7,0,1.4,0.3,1.9,0.8c0.5,0.5,0.8,1.2,0.8,1.9c0,0.7-0.3,1.4-0.8,1.9
	c-0.5,0.5-1.2,0.8-1.9,0.8c-0.7,0-1.4-0.3-1.9-0.8c-0.5-0.5-0.8-1.2-0.8-1.9s0.3-1.4,0.8-1.9C213.6,40.1,214.2,39.9,215,39.9z"/>
<path fill="none" d="M220.5,51.2V50c1.5-0.3,2.7-0.6,3.7-1c1-0.3,1.9-0.8,2.9-1.3l0.9,0.5c-0.2,0.8-0.3,1.8-0.3,2.8
	c1.2-1.4,2.2-2.3,2.8-2.6c0.6-0.4,1.4-0.5,2.2-0.5c0.8,0,1.6,0.2,2.2,0.5c0.6,0.3,1.1,0.7,1.4,1.2c0.3,0.5,0.5,1.2,0.6,2
	c0.1,0.5,0.1,1.8,0.1,3.8l0,3c0,1.9,0,3,0.1,3.4s0.2,0.6,0.3,0.7c0.2,0.2,0.7,0.3,1.5,0.5c0.1,0,0.3,0.1,0.6,0.1v1.2
	c-1.9-0.1-3.3-0.2-4.3-0.2c-1,0-2.6,0.1-4.6,0.2V63c0.9-0.2,1.4-0.4,1.6-0.6c0.2-0.2,0.3-0.5,0.4-0.9c0.1-0.6,0.1-2.4,0.1-5.5
	c0-2.2-0.1-3.6-0.3-4c-0.3-0.7-0.9-1.1-1.8-1.1c-0.6,0-1.2,0.2-1.7,0.7c-0.5,0.4-0.9,1-1,1.7c-0.1,0.7-0.2,2.2-0.2,4.6
	c0,2.1,0,3.4,0.1,3.9c0,0.3,0.1,0.5,0.3,0.6s0.7,0.3,1.6,0.6v1.2c-1.7-0.1-3.1-0.2-4.2-0.2c-1.1,0-2.6,0.1-4.7,0.2V63
	c1.2-0.3,1.9-0.6,2.1-0.7c0.2-0.1,0.3-0.5,0.3-1c0.1-1.2,0.1-2.8,0.1-4.7c0-2.9,0-4.5-0.1-4.8c-0.1-0.5-0.5-0.7-1-0.7
	C221.6,51.1,221.2,51.1,220.5,51.2z"/>
<path fill="none" d="M240.1,51.1v-1.2c2.5-0.4,4.7-1.2,6.6-2.3l0.9,0.5c-0.2,1.3-0.3,2.6-0.3,3.6c-0.1,1.6-0.1,4.1-0.1,7.5
	c0,1.4,0,2.3,0.1,2.7c0.1,0.3,0.2,0.4,0.4,0.6c0.2,0.1,0.9,0.3,2,0.6v1.2c-1.5-0.1-3-0.2-4.2-0.2c-1.2,0-3,0.1-5.4,0.2V63l0.4-0.1
	c1-0.2,1.6-0.4,1.7-0.6s0.3-0.4,0.3-0.9c0.1-1.1,0.1-3.2,0.1-6.6c0-1.9-0.1-3-0.1-3.3c-0.1-0.4-0.5-0.6-1-0.6
	C241.1,51,240.6,51,240.1,51.1z M244.9,39.9c0.7,0,1.4,0.3,1.9,0.8c0.5,0.5,0.8,1.2,0.8,1.9c0,0.7-0.3,1.4-0.8,1.9
	c-0.5,0.5-1.2,0.8-1.9,0.8c-0.7,0-1.4-0.3-1.9-0.8c-0.5-0.5-0.8-1.2-0.8-1.9s0.3-1.4,0.8-1.9C243.5,40.1,244.2,39.9,244.9,39.9z"/>
<path fill="none" d="M264,53.7l-1.5-0.1c-0.1-1.6-0.4-2.7-1-3.3c-0.5-0.6-1.2-0.9-2-0.9c-1,0-1.8,0.4-2.5,1.2
	c-0.8,1-1.2,2.6-1.2,4.5c0,2,0.4,3.5,1.3,4.6c0.9,1,2,1.6,3.2,1.6c0.5,0,1.1-0.1,1.6-0.3c0.6-0.2,1.3-0.5,2.2-1l0.8,1.3
	c-1.9,1.4-3.2,2.4-4.1,2.8c-0.9,0.4-1.8,0.6-2.8,0.6c-2,0-3.6-0.7-4.9-2.1c-1.3-1.4-2-3.3-2-5.6c0-2.5,0.8-4.7,2.3-6.5
	s3.6-2.7,6.4-2.7c1.6,0,3.3,0.4,5.1,1.3c-0.2,0.9-0.4,1.9-0.7,3.2C264.2,52.8,264.1,53.3,264,53.7z"/>
<path fill="none" d="M18.3,2.7c1.1,0,2.2,0.2,3.1,0.2c0,0.1-0.2,0-0.2,0.2c0.6,0.4,1.7-0.1,2.1,0.4c0,0.2-0.5,0.1-0.7,0.1
	c-0.2-0.1-0.1,0.4-0.2,0.2c-0.4,0,0.1-0.3-0.3-0.4c-0.4,0.7,1,1,1.5,1c0.3,0.3,0.2,0.7,0.5,1c0.1,0.4-0.3,0.7,0,1.2
	c0,0.2,0.4-0.2,0.2,0c-0.3,0.7-1.1-0.4-1.5,0.1c-0.5-0.1-0.7-0.4-1.1-0.4c-0.1,0,0.1-0.2-0.1-0.3c-0.2,0-0.4-0.1-0.6-0.1
	c-0.2,0-0.2,0.2-0.4,0.2c-1.2-0.2-2.4,0.6-3.6,0.4c-0.4-0.1-0.8-0.4-1.3-0.6c-0.7-0.2-1.3-0.3-1.7-0.8c-0.1,0,0.1-0.1,0.1-0.3
	c-0.3-0.1-0.6-0.2-1-0.2C13,4.9,13.6,4.9,13.7,5c-0.3,0.1-0.5,0-0.9,0.1c-2.8,0.1-4.2,2-5.7,3.8C6.6,9.3,5.8,10,5.6,10.6
	c-0.2,0.7-0.1,1.5-0.3,2.1c-0.1,0.4-0.4,0.7-0.5,1.1c-0.1,0.3,0,0.5-0.3,0.7c0.4,1.3,0.6,2.8,1,4.1c0.1,0.1,0.1-0.3,0.3-0.1
	c0.4,0.4,0,1.1,0.1,1.6c0,0.2,0.3,0.3,0.4,0.6c0.1,0.1,0,0.2,0.1,0.3c0.3,0.5,0.8,0.9,1.1,1.3c0.6,1.1,0.9,2.9,1.3,4.2
	c0.8,2.8,1.9,5.3,2.8,8.1c0.5,1.4,1.1,3,1.2,4.3c0,0.2-0.1,0.4-0.1,0.5c0,0.2,0.2,0.3,0.2,0.5c0.2,0.8,0,2.4,0.1,3.4
	c0.1,2.1,0.3,4.7,0.2,6.9c0,0.7,0,1.4-0.1,2c-0.1,0.5-0.4,0.9-0.5,1.4c0,0.4,0,0.8,0,1.1c-0.2,4.7-1.6,9-2.8,13.3
	c-0.6,2.1-1,4.3-1.6,6.4c-0.7,2.5-1.4,4.8-1.4,7.4c-0.4,0-0.8,0.7-0.9,0.5c0.1,0,0.1-0.1,0.2-0.1c-0.4-0.6-0.6-1.2-0.7-2
	c0-0.2,0-0.4,0-0.7c-0.1-0.4-0.4-0.7-0.4-1.1c-0.1-0.7-0.3-1.9-0.2-2.9c0.1-1,0.3-2,0.4-3.1c0-0.5,0-1,0.1-1.5
	c0-0.3-0.1-0.1-0.1-0.2c0.4-3.4,1.2-6.4,2-9.6c0.2-1,0.6-2,0.8-3c0.2-1.5-0.1-3.5,0.7-4.5c0.1-0.4-0.1-0.9,0-1.3
	c0-0.2,0.2-0.3,0.2-0.5c0.2-0.8,0.1-1.7,0.1-2.5c0-1.1,0.1-2.1,0.1-3.2c-0.2,0.1-0.1-0.8,0.1-1c-0.2-0.9-0.2-2-0.7-2.7
	c0-0.2,0-0.4,0.1-0.5c-0.2,0.2-0.2,0.5-0.4,0.7c-0.2-1.5-0.7-2.7-1-4c-0.1,0.1,0,0.5-0.1,0.8c-0.3-2.6-0.6-5.4-1.3-7.6
	c-0.6-1.9-1.5-3.6-2.2-5.5C2,22.8,0.8,19,0,14.6v-2.2c0.2-0.8,0-1.6,0.2-2.3c0.2-0.9,1.1-2.1,1.7-2.7C2.1,7.1,2.4,6.9,2.8,7
	c-0.1-2.5,1.3-4,2.8-5.2c1.6-1.2,3.9-2.1,6.2-1.7c-1,0-1.9,0.2-2.7,0.5c0.5-0.1,1.1,0.1,1.5-0.1c0,0.1-0.2,0.3,0.1,0.3
	c1.2,0.4,1.4-0.6,2.4-0.3c0,0.2-0.2,0.2-0.1,0.3c0.2,0.1,0.5,0.2,0.7,0.3c0.1,0.2-0.1,0.4,0.3,0.3c0.2,0.2-0.2-0.3,0.2-0.3
	c0.7,0,1.2,0.3,1.7,0.5 M22.5,6.1c0,0.1-0.1,0.1-0.1,0.2c0.1,0.1,0.3,0.1,0.4,0.2C22.7,6.4,22.4,6.4,22.5,6.1 M7.7,1.7
	c0.1-0.1,0.1-0.3,0.2-0.4c0.4-0.2,0.7-0.5,1.2-0.7C8.4,0.9,7.5,1.2,7,1.7C7.1,2,7.5,1.8,7.7,1.7 M18.8,2.9c0.9-0.1-0.6-0.1-0.6,0
	C18.1,3,19,2.9,18.8,2.9 M22.3,6.2c0.2-0.5-1.3-0.9-1.8-0.8C21,5.7,21.7,5.9,22.3,6.2"/>
<path fill="none" d="M41.6,85.5c0.2-0.4,0.9-0.4,1.3-0.6c0.3,0-0.1-0.2,0.1-0.2c0.8-0.5,1.5-1.3,1.8-2.4c0.1-0.5,0.4-1.1,0.4-1.5
	c0-0.2-0.1-0.4-0.2-0.6c-0.1-0.5-0.1-1.2-0.2-1.8c0-0.6-0.2-1.2-0.2-1.7c0-1,0.1-2-0.2-2.8c-0.2-0.5-0.8-1.4-1-1.7
	c-1.9-5-2.4-11.5-3.8-17.1c0.2,0.2,0.1-0.7,0.3-0.9c-0.3-0.7-0.2-1.4-0.2-2.1c0-0.9-0.2-2-0.3-3c-0.1-1-0.3-2-0.3-3.1
	c0-0.2-0.2,0.2-0.2-0.1c0.4-1.5-0.3-3.2-0.4-4.7c-0.1,0.3-0.2,0.7-0.4,0.7c-0.1-1.6-0.2-3.2-0.4-4.7c0,0.4-0.1,0.7-0.2,1
	c1-6.1,2.3-12.8,4.2-18.3c0.7-1.9,1.5-3.9,1.6-5.9c0-0.5,0-1,0-1.4c-0.2-1.4-1-1.9-1.6-2.8c-0.4-0.7-0.6-1.5-0.5-2.4
	c-0.5,0-1.1-0.2-1.5-0.1c-0.4-0.3-0.7-0.7-1.1-0.9c-0.1,0.2,0.3,0.3,0.2,0.3c-1.3-0.1-2.6,0.4-3.6,0.6c0.7-0.4,1.5-0.7,2.3-1
	c0.2-0.1,0.7-0.1,0.7-0.4c-0.5-0.2-0.9,0.5-1.5,0.7c-0.3,0.1-0.6-0.2-0.9,0.2c-0.1,0,0-0.3-0.2-0.3c-0.3,0.1-0.7,0.2-0.9,0.3
	c-0.1,0.4-0.2,0.7-0.7,0.8c-0.1,0,0.1-0.3-0.2-0.2C33.5,7.4,33.3,7,33,7.2c-0.1,0.1,0.3,0,0.2,0.3c-0.5,0.5-1.1,0.7-1.7,1
	c-0.1,0.4-0.5,0.5-0.7,0.8c-0.3,0.3-0.5,0.8-0.9,1c-0.2,0-0.1-0.2-0.3-0.1c-0.4,0.3-0.6,0.9-1.1,0.9c0.1-0.4,0.5-0.6,0.6-1.1
	c-0.1-0.1-0.3,0.2-0.4,0.3c-0.5,0.4-1,0.9-1.6,1.1c-0.1,0-0.1-0.1-0.1-0.3c-0.2,0.1-0.3,0.3-0.5,0.4c-1.2,0.7-2.7,1.6-4.3,1.5
	c-0.1,0.1-0.3,0.2-0.6,0.2c0.1-0.1,0.2-0.1,0.1-0.3c-0.7-0.3-1.9,0.3-2.2-0.3c0.4,0,0.8-0.1,0.9-0.2c0.3,0-0.2,0.4,0.2,0.3
	c0.4-0.2-0.1-0.5-0.2-0.7c-0.6,0-1.1-0.3-1.5,0c-0.4-0.2-0.7-0.2-1-0.5C17,12.1,16.9,11,16,11.2c-0.2,0.1,0.2,0.2,0,0.3
	c-0.6-0.5,0.3-0.9,0.5-1.3c0.1-0.3-0.5-0.1-0.3-0.4c0-0.4,0.6-0.2,0.9-0.3c0.1,0,0-0.3,0.2-0.3c0.4,0.1,0.4,0.1,0.7,0.4
	c0.5,0.1,1.2,0,1.4,0.4c-0.2,0-0.5-0.2-0.7,0c0.4,0.1,0.6,0.3,1,0.1c0.7,0.2,1.3,0.7,2.2,0.4c-0.6-0.2-1.2-0.4-1.7-0.6
	c0.3,0,0.5,0,0.6-0.1c-0.1,0.4,0.4,0.2,0.5,0.3c0.2,0,0.1-0.2,0.3-0.3c1-0.2,1.5-0.9,2.2-1.3c0.3,0,0.5-0.1,0.8-0.1
	c0.1-0.1,0.2-0.3,0.4-0.3c0.5,0.1,0.7-0.4,0.9-0.1C26,8.1,26,7.8,26.2,7.8c0.9-0.1,1.2-0.7,1.8-1.1c1.2-1,2.6-1.8,3.8-2.7
	c-0.3-0.2-0.5,0.4-0.8,0.3c2.3-1.5,4.5-3.5,7.7-3.6c2.3-0.1,3.7,1.2,5,2.3c0.8,0.7,1.4,1.8,2.1,2.8c0.6,0.9,1.7,1.9,2,2.9
	c0.2,0.7,0.1,1.7,0.4,2.4v0.2h-0.1c-0.2,0.5-0.1,1.3,0.1,1.8v1.5h-0.1c0.1,1-0.6,1.9-0.5,2.8c0,0.3,0,0.1,0.1,0.1
	c0.6,0.4-0.7,1.4-0.8,1.8c-0.2,0.9,0.1,1.7,0,2.6c0,0.6-0.4,1.3-0.6,2c-0.6,1.9-1.5,3.8-2,5.8c-0.7,3-0.3,6-0.7,9.6
	c0.3,1.3-0.2,2.5-0.2,3.8c0,1.4,0.3,2.8,0.4,4.2c0.1,0.7,0.1,1.4,0.2,2.1c0.1,0.7,0.2,1.4,0.2,2.1c0,0.5-0.2,0.9-0.2,1.4
	c0,0.8,0.3,1.7,0.5,2.6c0.5,2.6,0.9,5.4,1.3,8c0.3,1.8,0.5,3.6,0.9,5.3c0.2,0.8,0.5,1.6,0.7,2.4c0.2,0.9,0.5,1.7,0.5,2.6
	c0.2,4.2-1,8.2-2.9,10.7c-0.7,0.4-1.2,1-2.2,1.2L41.6,85.5L41.6,85.5L41.6,85.5z M16.5,9.8c0.1,0,0.2,0.1,0.4,0.1
	c0-0.4,0.6,0.1,0.7-0.1C17.3,9.5,16.7,9.5,16.5,9.8 M24.3,12.5c0.2-0.1,0.4-0.1,0.5-0.3C24.7,12.3,24.3,12.4,24.3,12.5"/>
<path fill="none" d="M20.7,46.3c-0.1,0.4-0.6,1-0.9,1.5c0.1,0.1,0.2,0.1,0.4,0.1c0-0.1-0.1-0.6,0.1-0.8c0.2-0.1,0.5,0,0.5-0.3
	c0.2,0.3,0.4,0.1,0.7-0.1c0-0.2-0.3-0.3-0.1-0.5c0.2,0.1,0.8,0,1,0.2c0.2-0.2-0.3-0.1-0.2-0.4c0.6-0.3,0.8-0.7,1-1.4
	c0.2-0.1,0.1,0.2,0.3,0.1c0.1-0.2,0.1-0.4,0.4-0.4c0,0.3-0.1,0.4,0.1,0.7c0.1-0.2,0.4-0.4,0.4-0.7c0.1,0.1,0.3-0.1,0.3,0.1
	c0.6-0.3,0.5-1.3,1.2-1.5c0.1-0.1,0-0.2,0.1-0.3c0.1,0,0.1,0.3,0.2,0.3c0.4,0,0.3-0.5,0.7-0.4c0.1,0.2-0.2,0.4-0.1,0.5
	c-0.2,0-0.1-0.2-0.2-0.2c-0.1,0.2,0.4,0.6,0.8,0.3c0.1,0-0.1-0.1,0-0.2c0.3,0,0.3-0.1,0.4,0.1c0.1-0.3,0.4-0.1,0.5,0
	c0.1,0,0.2-0.2,0.1-0.3c0.3,0.2,0.4,1.3,0.4,1.7c0.2-0.3,0,0.4,0.2,0.5c0,0.2-0.2-0.1-0.2-0.1c-0.4,0.4-0.9-0.2-1.4,0
	c0.1,0.2,0.9,0.1,0.8,0.4c0,0.3-0.1-0.3-0.3-0.1c-0.1,0.3-0.1,1-0.1,1.5c-0.1,0.1-0.5-0.1-0.3,0.2c-0.3-0.1-0.5,0.2-0.6,0
	c-0.1,0,0.1,0.1-0.1,0.2c-0.9,0.1-1.3,0.7-1.8,1.2c0.2,0.1,0.2-0.2,0.4-0.1c-0.8,1.3-1.1,3.1-2.4,4c0,0.3,0.1,0.6,0.2,0.9
	c-0.2,0.3-0.3,0.7-0.7,0.8c0.1,0.7,0,1.2-0.1,1.8c0.1,0.1,0.2-0.1,0.3,0.1c-0.1,0.2-0.3,0.4-0.6,0.5c0,0.5,0.2,0.8,0.4,1.2
	c-0.2,1.4-1.4,2.1-1.6,3.4c-0.1,1,0.4,2.3-0.1,3.2c0,0.1,0.1,0.2,0.1,0.3c-0.7,1.1-0.7,2.9-1,4.3c-0.1,0.2-0.3,0.3-0.4,0.5
	c0,4.7-1.4,8.5-3.3,11.2c-0.3,0.2-0.3,0.7-0.9,0.7c0-0.2,0-0.5-0.2-0.6c0.1-0.5-0.1-1,0.1-1.5c-0.9-0.9-0.2-2.6-0.7-3.7
	c-0.2-2.4,0.8-4.4,0.4-6.5c0.2,0.1,0.2-0.2,0.5-0.2c0-0.2-0.1-0.3-0.1-0.5c0.5-0.5,0.3-1.7,0.7-2.4c0-0.1-0.1,0-0.1-0.1
	c0-0.2,0.1-0.3,0.3-0.3c0-0.5-0.2-1.1-0.2-1.4c-0.1,0.1-0.3,0.1-0.4,0.2c-0.2-0.5-0.2-1.3-0.3-1.8c-0.1,0.1-0.2,0.2-0.2,0.4
	c0.5-1.3,0.9-2.7,1.5-4.2c0.8-2.2,2.1-4.4,1.1-7.2c0.3-0.5,0.7-1,1.5-1C18,48.8,19.4,46.8,20.7,46.3"/>
<path fill="none" d="M32.2,54.1c-0.1,0.1,0.3,0.5-0.1,0.5c0.3,0.1,0.1,0.4,0.2,0.6c0.1-0.1,0.1-0.3,0.1-0.5c0,0.3,0.5,0.4,0.9,0.6
	c0,0.7,0.1,1.2,0.3,2c0.1,0,0.1-0.1,0.1-0.1c0.2,0.1,0.3,0.5,0.5,0.8c0.2,0.3,0.4,0.7,0.4,1c0,0.4-0.2,0.8,0.3,0.9
	c-0.1,0.6,0.2,0.8,0.3,1.3c0,0.2,0.1,0.1,0.2,0.1c0.1,0.2-0.1,0.3-0.1,0.4c0.3,0.2,0.5,0.5,0.5,0.9c0,0.4-0.1,0.9-0.1,1.2
	c0.1,0.7,0.7,1.2,0.8,1.9c0,0.1-0.1,0.3-0.1,0.4c0,0.5,0.3,1,0.4,1.4c0,0.1-0.1,0.2-0.1,0.3c0.1,0.8,0.6,1.4,0.7,2.2
	c0.2,1.9-0.1,3.3-1.3,4.4C36,74.4,35.9,74,36,73.6c-0.2-0.2-0.2-0.6-0.4-0.8c0.2-0.4-0.1-0.6-0.2-0.9c-0.3-0.9-0.2-2.2-0.8-2.8
	c0.1-0.1,0.1-0.2,0.2-0.2c-0.5-0.8-0.1-2.1-0.9-2.2c-0.1-0.2-0.3-0.7-0.4-0.5c-0.3-1.9,0-4.3-1.4-5.1c-0.1-0.4,0.1-0.6,0.3-0.8
	c-0.8,0-0.9-0.8-0.8-1.6c0.1,0,0.1,0.2,0.2,0.3c0.1-0.1,0.1-0.2,0.2-0.3c0-0.2-0.2-0.1-0.2-0.2c0-0.2,0.2-0.2,0.3-0.3
	c-0.1-0.4-0.3-0.7-0.4-1c0.1-0.2,0.2,0.1,0.3,0c-0.1-0.5-0.3-0.8-0.8-1.1c0.2-0.2,0-0.3-0.1-0.5c0.2-0.1,0.2,0.1,0.4,0
	c0-0.3-0.4-0.4-0.2-0.7c0-0.1-0.2-0.2-0.2-0.1C31.2,54.4,31.7,54.1,32.2,54.1"/>
<path fill="none" d="M71.9,73.8v0.4c-0.4,0.1-0.7,0.1-0.8,0.2c-0.1,0-0.1,0.1-0.1,0.2c0,0.1,0,0.3,0,0.7c0,0.7,0,1.2,0,1.7
	c-0.2,0-0.5,0.1-0.7,0.1c-0.7,0.1-1.2,0.2-1.5,0.3c-0.3,0-0.6,0.1-1,0.1c-0.8,0-1.4-0.1-1.9-0.3c-0.6-0.3-1-0.6-1.3-1.2
	c-0.3-0.5-0.5-1.1-0.5-1.9c0-1.3,0.5-2.3,1.4-3c0.7-0.5,1.6-0.7,2.7-0.7c0.7,0,1.6,0.1,2.5,0.3c0,0.2,0,0.3,0,0.5c0,0.4,0,0.9,0,1.6
	h-0.5c-0.1-0.5-0.3-0.9-0.4-1.1s-0.3-0.4-0.6-0.5c-0.3-0.1-0.6-0.2-1-0.2c-0.5,0-1,0.1-1.3,0.3c-0.4,0.2-0.6,0.6-0.8,1
	c-0.2,0.5-0.3,1-0.3,1.6c0,1,0.2,1.7,0.7,2.2c0.4,0.5,1,0.7,1.8,0.7c0.4,0,0.8-0.1,1.2-0.2v-1.5c0-0.3,0-0.5,0-0.6
	c0-0.1-0.1-0.1-0.1-0.1c-0.1,0-0.3-0.1-0.6-0.2c0,0-0.1,0-0.2,0v-0.4c0.7,0,1.3,0.1,1.7,0.1C70.4,73.8,71,73.8,71.9,73.8z"/>
<path fill="none" d="M76.4,76l0.2,0.4c-0.5,0.4-1,0.7-1.4,0.9c-0.2,0.1-0.4,0.1-0.7,0.1c-0.6,0-1-0.2-1.4-0.5
	c-0.4-0.4-0.6-1-0.6-1.8c0-0.8,0.2-1.4,0.7-1.9c0.5-0.5,1-0.7,1.7-0.7c0.6,0,1.1,0.2,1.3,0.6c0.2,0.2,0.3,0.6,0.3,1.1
	c-0.2,0.1-0.3,0.2-0.4,0.4c-0.3,0-0.7,0-1,0c-0.5,0-0.9,0-1.3,0c0,0.1,0,0.1,0,0.2c0,0.4,0.1,0.8,0.3,1.2s0.5,0.5,0.9,0.5
	c0.2,0,0.4,0,0.6-0.1S76.2,76.2,76.4,76z M74,74.1c0.2,0,0.3,0,0.4,0c0.3,0,0.6,0,1,0c0-0.4-0.1-0.7-0.2-0.8
	c-0.1-0.1-0.3-0.2-0.5-0.2c-0.2,0-0.4,0.1-0.5,0.2C74.1,73.5,74,73.7,74,74.1z"/>
<path fill="none" d="M77.3,73.6v-0.3c0.4-0.1,0.8-0.2,1-0.3s0.6-0.2,0.8-0.4l0.2,0.1c0,0.2-0.1,0.5-0.1,0.8c0.4-0.4,0.6-0.7,0.8-0.8
	c0.2-0.1,0.4-0.2,0.6-0.2c0.2,0,0.4,0,0.6,0.1c0.2,0.1,0.3,0.2,0.4,0.4s0.1,0.3,0.2,0.6c0,0.1,0,0.5,0,1.1l0,0.8c0,0.5,0,0.9,0,1
	s0,0.2,0.1,0.2s0.2,0.1,0.4,0.1c0,0,0.1,0,0.2,0v0.3c-0.5,0-0.9-0.1-1.2-0.1c-0.3,0-0.7,0-1.3,0.1v-0.3c0.2-0.1,0.4-0.1,0.4-0.2
	c0.1,0,0.1-0.1,0.1-0.2c0-0.2,0-0.7,0-1.6c0-0.6,0-1-0.1-1.1c-0.1-0.2-0.3-0.3-0.5-0.3c-0.2,0-0.3,0.1-0.5,0.2s-0.2,0.3-0.3,0.5
	c0,0.2-0.1,0.6-0.1,1.3c0,0.6,0,1,0,1.1c0,0.1,0,0.1,0.1,0.2c0,0,0.2,0.1,0.4,0.2v0.3c-0.5,0-0.9-0.1-1.2-0.1c-0.3,0-0.7,0-1.3,0.1
	v-0.3c0.3-0.1,0.5-0.2,0.6-0.2c0,0,0.1-0.1,0.1-0.3c0-0.3,0-0.8,0-1.3c0-0.8,0-1.3,0-1.4c0-0.1-0.1-0.2-0.3-0.2
	C77.6,73.5,77.5,73.5,77.3,73.6z"/>
<path fill="none" d="M87.1,76l0.2,0.4c-0.5,0.4-1,0.7-1.4,0.9c-0.2,0.1-0.4,0.1-0.7,0.1c-0.6,0-1-0.2-1.4-0.5
	c-0.4-0.4-0.6-1-0.6-1.8c0-0.8,0.2-1.4,0.7-1.9c0.5-0.5,1-0.7,1.7-0.7c0.6,0,1.1,0.2,1.3,0.6c0.2,0.2,0.3,0.6,0.3,1.1
	c-0.2,0.1-0.3,0.2-0.4,0.4c-0.3,0-0.7,0-1,0c-0.5,0-0.9,0-1.3,0c0,0.1,0,0.1,0,0.2c0,0.4,0.1,0.8,0.3,1.2s0.5,0.5,0.9,0.5
	c0.2,0,0.4,0,0.6-0.1C86.6,76.3,86.8,76.2,87.1,76z M84.6,74.1c0.2,0,0.3,0,0.4,0c0.3,0,0.6,0,1,0c0-0.4-0.1-0.7-0.2-0.8
	c-0.1-0.1-0.3-0.2-0.5-0.2c-0.2,0-0.4,0.1-0.5,0.2C84.7,73.5,84.6,73.7,84.6,74.1z"/>
<path fill="none" d="M87.9,73.6v-0.3c0.8-0.2,1.4-0.4,1.9-0.6l0.2,0.1C90,73,90,73.4,90,73.8c0.3-0.5,0.6-0.8,0.7-0.9
	c0.2-0.1,0.3-0.2,0.5-0.2c0.1,0,0.3,0,0.5,0.1c-0.1,0.4-0.2,0.8-0.2,1.2h-0.3c0-0.1-0.1-0.2-0.1-0.3c-0.1-0.1-0.1-0.1-0.2-0.1
	c-0.1,0-0.3,0.1-0.4,0.2c-0.2,0.2-0.3,0.4-0.4,0.7c0,0.1-0.1,0.4-0.1,0.8c0,0.6,0,1,0,1.1s0,0.2,0.1,0.2c0.1,0,0.2,0.1,0.5,0.2
	c0,0,0.1,0,0.2,0v0.3c-0.6,0-1.1-0.1-1.5-0.1c-0.4,0-0.9,0-1.4,0.1v-0.3c0.4-0.1,0.6-0.2,0.6-0.3c0.1-0.1,0.1-0.8,0.1-2
	c0-0.6,0-1-0.1-1.1c0-0.1-0.1-0.1-0.3-0.1C88.3,73.5,88.1,73.5,87.9,73.6z"/>
<path fill="none" d="M92.9,74.3l-0.4,0c0.1-0.4,0.2-0.9,0.2-1.2c0.6-0.3,1.2-0.4,1.8-0.4c0.4,0,0.7,0.1,0.9,0.2
	c0.2,0.1,0.4,0.3,0.5,0.5c0.1,0.2,0.1,0.5,0.1,0.9l0,1.6c0,0.3,0,0.5,0.1,0.6s0.1,0.1,0.2,0.1c0.1,0,0.3-0.1,0.5-0.2l0.2,0.3
	c-0.4,0.3-0.8,0.5-1,0.6c-0.1,0.1-0.3,0.1-0.4,0.1c-0.2,0-0.3,0-0.5-0.1c-0.1-0.1-0.2-0.2-0.3-0.4c-0.4,0.3-0.6,0.4-0.8,0.5
	c-0.2,0.1-0.3,0.1-0.6,0.1c-0.3,0-0.6-0.1-0.8-0.3c-0.2-0.2-0.3-0.5-0.3-0.9c0-0.3,0.1-0.5,0.2-0.7c0.1-0.2,0.3-0.3,0.5-0.4l1.7-0.8
	c0-0.4-0.1-0.6-0.2-0.8s-0.3-0.2-0.5-0.2c-0.2,0-0.4,0.1-0.6,0.2C93.3,73.5,93.1,73.8,92.9,74.3z M94.7,74.6c-0.5,0.2-0.9,0.4-1,0.6
	s-0.2,0.4-0.2,0.6c0,0.3,0.1,0.4,0.2,0.6c0.1,0.1,0.2,0.2,0.4,0.2c0.1,0,0.2,0,0.4-0.1c0.1-0.1,0.2-0.2,0.2-0.4c0-0.2,0.1-0.5,0.1-1
	C94.7,75.1,94.7,74.9,94.7,74.6z"/>
<path fill="none" d="M97.1,71.3v-0.3c0.5-0.1,0.8-0.2,1.1-0.3c0.3-0.1,0.5-0.2,0.8-0.4l0.2,0.2c0,0.4-0.1,0.9-0.1,1.4
	c0,0.6,0,1.2,0,1.9c0,1.5,0,2.4,0,2.6s0,0.3,0.1,0.4c0.1,0.1,0.3,0.2,0.6,0.2v0.3c-0.5,0-1-0.1-1.4-0.1c-0.4,0-0.9,0-1.4,0.1v-0.3
	c0.4-0.1,0.6-0.2,0.6-0.2s0.1-0.2,0.1-0.4c0-0.3,0-1.2,0-2.7c0-1.3,0-2.1,0-2.1c0-0.1-0.1-0.2-0.3-0.2
	C97.4,71.2,97.3,71.2,97.1,71.3z"/>
<path fill="none" d="M101.2,77l-0.2-0.3c0.1-0.1,0.2-0.2,0.3-0.4c0.2-0.2,0.4-0.5,0.6-0.8c0.3,0.1,0.5,0.2,0.7,0.5
	c0.2,0.2,0.3,0.5,0.3,0.8c0,0.4-0.1,0.8-0.4,1.2c-0.2,0.4-0.6,0.9-1.1,1.3l-0.3-0.3c0.4-0.5,0.6-0.8,0.7-1.1
	c0.1-0.2,0.1-0.3,0.1-0.5c0-0.2,0-0.3-0.1-0.4c-0.1-0.1-0.2-0.1-0.3-0.1C101.3,77,101.3,77,101.2,77z"/>
<path fill="none" d="M113.3,76l0.2,0.5c-0.6,0.4-1.1,0.6-1.5,0.8s-1,0.2-1.5,0.2c-1.1,0-1.9-0.3-2.5-0.9c-0.6-0.6-0.9-1.4-0.9-2.5
	c0-1.1,0.3-2,1-2.7s1.7-1,2.9-1c0.4,0,0.8,0,1.1,0.1c0.4,0.1,0.8,0.2,1.4,0.3c0,0.2,0,0.4,0,0.6c0,0.4,0,0.9,0.1,1.4H113
	c-0.2-0.6-0.3-1-0.3-1.1c-0.1-0.2-0.3-0.4-0.6-0.6c-0.3-0.2-0.6-0.2-1.1-0.2c-0.7,0-1.2,0.2-1.6,0.6c-0.5,0.5-0.7,1.2-0.7,2.1
	c0,0.9,0.2,1.6,0.7,2.1c0.5,0.5,1.1,0.7,1.8,0.7C111.9,76.6,112.6,76.4,113.3,76z"/>
<path fill="none" d="M114.7,74.9c0-0.7,0.2-1.3,0.7-1.7c0.4-0.4,1-0.7,1.7-0.7c0.7,0,1.3,0.2,1.7,0.6c0.4,0.4,0.6,1,0.6,1.7
	c0,0.8-0.2,1.4-0.6,1.9c-0.4,0.5-1,0.7-1.7,0.7c-0.7,0-1.3-0.2-1.7-0.6C114.9,76.3,114.7,75.7,114.7,74.9z M116.1,74.7
	c0,0.9,0.1,1.5,0.4,1.9c0.1,0.2,0.3,0.3,0.6,0.3c0.2,0,0.4-0.1,0.6-0.3c0.2-0.3,0.3-0.8,0.3-1.4c0-0.9-0.1-1.5-0.4-1.8
	c-0.1-0.2-0.4-0.3-0.6-0.3c-0.2,0-0.4,0.1-0.6,0.3C116.2,73.6,116.1,74,116.1,74.7z"/>
<path fill="none" d="M120.4,75.7h0.4c0.1,0.4,0.2,0.8,0.4,0.9s0.4,0.3,0.7,0.3c0.2,0,0.3-0.1,0.5-0.2c0.1-0.1,0.2-0.2,0.2-0.4
	c0-0.1-0.1-0.3-0.2-0.4c-0.1-0.1-0.4-0.3-0.9-0.6c-0.5-0.3-0.8-0.5-0.9-0.7c-0.2-0.2-0.2-0.5-0.2-0.7c0-0.4,0.2-0.7,0.5-1
	s0.8-0.4,1.4-0.4c0.4,0,0.9,0.1,1.3,0.3c0,0.2-0.1,0.6-0.1,1.2l-0.4,0c-0.1-0.4-0.2-0.6-0.3-0.8c-0.2-0.2-0.3-0.2-0.6-0.2
	c-0.2,0-0.3,0-0.4,0.1c-0.1,0.1-0.1,0.2-0.1,0.4c0,0.1,0,0.2,0.1,0.3c0.1,0.1,0.4,0.3,0.8,0.6c0.5,0.3,0.8,0.5,1,0.8
	c0.2,0.2,0.2,0.5,0.2,0.7c0,0.4-0.1,0.7-0.4,1.1c-0.3,0.3-0.8,0.5-1.5,0.5c-0.4,0-0.9-0.1-1.4-0.2C120.4,76.6,120.4,76.1,120.4,75.7
	z"/>
<path fill="none" d="M127.6,72.8L127.6,72.8c0,0.2-0.1,0.4-0.2,0.6c-0.3,0-0.7-0.1-1.1-0.1l0,0.6l0,0.7l0,0.6c0,0.6,0.1,1,0.2,1.1
	c0.1,0.2,0.2,0.2,0.4,0.2c0.1,0,0.3-0.1,0.6-0.2l0.2,0.3c-0.5,0.3-0.8,0.5-1,0.5c-0.2,0.1-0.4,0.1-0.6,0.1c-0.3,0-0.5-0.1-0.7-0.3
	c-0.2-0.2-0.3-0.5-0.3-0.8l0-1.1l0-1.8l-0.4,0c0,0-0.1,0-0.3,0v-0.4c0.3-0.1,0.6-0.3,0.8-0.5c0.3-0.2,0.5-0.6,0.8-1.1h0.4
	c-0.1,0.5-0.1,1-0.1,1.4c0.3,0,0.4,0,0.5,0C126.9,72.8,127.1,72.8,127.6,72.8z"/>
<path fill="none" d="M128,73.6v-0.3c0.7-0.1,1.3-0.4,1.9-0.7l0.2,0.1c0,0.2-0.1,0.5-0.1,0.8c0.4-0.4,0.6-0.7,0.8-0.8
	c0.2-0.1,0.4-0.2,0.6-0.2c0.3,0,0.6,0.1,0.8,0.3c0.2,0.1,0.3,0.3,0.4,0.7c0.3-0.4,0.6-0.6,0.8-0.7s0.5-0.2,0.7-0.2
	c0.3,0,0.5,0.1,0.7,0.2c0.2,0.1,0.3,0.3,0.4,0.5c0.1,0.2,0.1,0.6,0.1,1.2l0,0.8c0,0.7,0,1.2,0,1.3c0,0.1,0,0.1,0.1,0.2
	c0.1,0,0.2,0.1,0.6,0.2v0.3c-0.5,0-0.9-0.1-1.3-0.1c-0.3,0-0.7,0-1.3,0.1v-0.3c0.3-0.1,0.4-0.1,0.5-0.2c0,0,0.1-0.1,0.1-0.2
	c0-0.2,0-0.7,0-1.6c0-0.5,0-0.8,0-0.9c0-0.2-0.1-0.3-0.2-0.4c-0.1-0.1-0.2-0.1-0.4-0.1c-0.2,0-0.4,0.1-0.5,0.2
	c-0.2,0.1-0.2,0.3-0.3,0.6c0,0.1,0,0.6,0,1.4c0,0.5,0,0.9,0,0.9c0,0.1,0,0.1,0.1,0.2c0.1,0,0.2,0.1,0.4,0.2v0.3
	c-0.4,0-0.8-0.1-1.1-0.1c-0.3,0-0.7,0-1.3,0.1v-0.3c0.3-0.1,0.4-0.1,0.5-0.2c0.1,0,0.1-0.1,0.1-0.2c0-0.1,0-0.6,0-1.4
	c0-0.6,0-1,0-1.1c0-0.2-0.1-0.4-0.2-0.5c-0.1-0.1-0.2-0.1-0.4-0.1c-0.2,0-0.4,0.1-0.5,0.2c-0.1,0.1-0.2,0.3-0.3,0.5
	c0,0.2-0.1,0.5-0.1,0.9c0,0.9,0,1.4,0,1.5c0,0.1,0,0.2,0.1,0.2c0.1,0.1,0.2,0.1,0.4,0.2v0.3c-0.5,0-1-0.1-1.3-0.1s-0.7,0-1.3,0.1
	v-0.3c0.4-0.1,0.6-0.2,0.6-0.3c0.1-0.1,0.1-0.7,0.1-1.9c0-0.7,0-1,0-1.1c0-0.1-0.2-0.2-0.3-0.2C128.3,73.5,128.1,73.5,128,73.6z"/>
<path fill="none" d="M140.4,76l0.2,0.4c-0.5,0.4-1,0.7-1.4,0.9c-0.2,0.1-0.4,0.1-0.7,0.1c-0.6,0-1-0.2-1.4-0.5
	c-0.4-0.4-0.6-1-0.6-1.8c0-0.8,0.2-1.4,0.7-1.9c0.5-0.5,1-0.7,1.7-0.7c0.6,0,1.1,0.2,1.3,0.6c0.2,0.2,0.3,0.6,0.3,1.1
	c-0.2,0.1-0.3,0.2-0.4,0.4c-0.3,0-0.7,0-1,0c-0.5,0-0.9,0-1.3,0c0,0.1,0,0.1,0,0.2c0,0.4,0.1,0.8,0.3,1.2c0.2,0.3,0.5,0.5,0.9,0.5
	c0.2,0,0.4,0,0.6-0.1S140.1,76.2,140.4,76z M137.9,74.1c0.2,0,0.3,0,0.4,0c0.3,0,0.6,0,1,0c0-0.4-0.1-0.7-0.2-0.8
	c-0.1-0.1-0.3-0.2-0.5-0.2c-0.2,0-0.4,0.1-0.5,0.2C138,73.5,138,73.7,137.9,74.1z"/>
<path fill="none" d="M144.5,72.8L144.5,72.8c0,0.2-0.1,0.4-0.2,0.6c-0.3,0-0.7-0.1-1.1-0.1l0,0.6l0,0.7l0,0.6c0,0.6,0.1,1,0.2,1.1
	c0.1,0.2,0.2,0.2,0.4,0.2c0.1,0,0.3-0.1,0.6-0.2l0.2,0.3c-0.5,0.3-0.8,0.5-1,0.5c-0.2,0.1-0.4,0.1-0.6,0.1c-0.3,0-0.5-0.1-0.7-0.3
	c-0.2-0.2-0.3-0.5-0.3-0.8l0-1.1l0-1.8l-0.4,0c0,0-0.1,0-0.3,0v-0.4c0.3-0.1,0.6-0.3,0.8-0.5c0.3-0.2,0.5-0.6,0.8-1.1h0.4
	c-0.1,0.5-0.1,1-0.1,1.4c0.3,0,0.4,0,0.5,0C143.8,72.8,144,72.8,144.5,72.8z"/>
<path fill="none" d="M145,73.5v-0.3c0.7-0.1,1.3-0.3,1.9-0.7l0.2,0.1c0,0.4-0.1,0.7-0.1,1c0,0.4,0,1.2,0,2.1c0,0.4,0,0.7,0,0.8
	c0,0.1,0.1,0.1,0.1,0.2s0.2,0.1,0.6,0.2v0.3c-0.4,0-0.8-0.1-1.2-0.1c-0.4,0-0.9,0-1.5,0.1v-0.3l0.1,0c0.3-0.1,0.4-0.1,0.5-0.2
	c0.1,0,0.1-0.1,0.1-0.2c0-0.3,0-0.9,0-1.9c0-0.5,0-0.9,0-1c0-0.1-0.1-0.2-0.3-0.2C145.3,73.5,145.1,73.5,145,73.5z M146.4,70.3
	c0.2,0,0.4,0.1,0.5,0.2c0.2,0.2,0.2,0.3,0.2,0.5s-0.1,0.4-0.2,0.5c-0.1,0.2-0.3,0.2-0.5,0.2s-0.4-0.1-0.5-0.2
	c-0.1-0.2-0.2-0.3-0.2-0.5s0.1-0.4,0.2-0.5C146,70.4,146.2,70.3,146.4,70.3z"/>
<path fill="none" d="M152.1,74.3l-0.4,0c0-0.5-0.1-0.8-0.3-0.9c-0.2-0.2-0.4-0.3-0.6-0.3c-0.3,0-0.5,0.1-0.7,0.3
	c-0.2,0.3-0.3,0.7-0.3,1.3c0,0.6,0.1,1,0.4,1.3c0.3,0.3,0.6,0.4,0.9,0.4c0.2,0,0.3,0,0.5-0.1c0.2-0.1,0.4-0.1,0.6-0.3l0.2,0.4
	c-0.5,0.4-0.9,0.7-1.2,0.8c-0.2,0.1-0.5,0.2-0.8,0.2c-0.6,0-1-0.2-1.4-0.6c-0.4-0.4-0.6-0.9-0.6-1.6c0-0.7,0.2-1.3,0.7-1.9
	c0.4-0.5,1-0.8,1.8-0.8c0.4,0,0.9,0.1,1.4,0.4c-0.1,0.3-0.1,0.6-0.2,0.9C152.2,74,152.1,74.2,152.1,74.3z"/>
<path fill="none" d="M153.7,77l-0.2-0.3c0.1-0.1,0.2-0.2,0.3-0.4c0.2-0.2,0.4-0.5,0.6-0.8c0.3,0.1,0.5,0.2,0.7,0.5s0.3,0.5,0.3,0.8
	c0,0.4-0.1,0.8-0.4,1.2c-0.2,0.4-0.6,0.9-1.1,1.3l-0.3-0.3c0.4-0.5,0.6-0.8,0.7-1.1c0.1-0.2,0.1-0.3,0.1-0.5c0-0.2,0-0.3-0.1-0.4
	c-0.1-0.1-0.2-0.1-0.3-0.1C153.8,77,153.8,77,153.7,77z"/>
<path fill="none" d="M162.9,70.5v0.4l-0.2,0c-0.4,0.1-0.7,0.1-0.8,0.2c-0.1,0.1-0.1,0.2-0.1,0.4v0.2l0,1.6l0,1.8l0,0.9
	c0,0.3,0,0.4,0,0.5c0,0.1,0.1,0.1,0.1,0.2c0.1,0.1,0.4,0.1,0.7,0.2c0,0,0.1,0,0.2,0v0.4c-0.7,0-1.2-0.1-1.7-0.1
	c-0.5,0-1.1,0-1.9,0.1v-0.4c0.5-0.1,0.8-0.1,0.8-0.2c0.1,0,0.1-0.1,0.2-0.1c0-0.1,0.1-0.2,0.1-0.4c0-0.5,0-1.4,0-2.7l0-1.7v-0.1
	c0-0.3,0-0.4-0.1-0.5s-0.3-0.1-0.7-0.2c0,0-0.1,0-0.2,0v-0.4c0.8,0,1.4,0.1,1.8,0.1C161.6,70.6,162.1,70.5,162.9,70.5z"/>
<path fill="none" d="M163.3,73.6v-0.3c0.7-0.1,1.4-0.4,1.9-0.7l0.2,0.1c0,0.2-0.1,0.5-0.1,0.8c0.4-0.4,0.6-0.7,0.8-0.8
	c0.2-0.1,0.4-0.2,0.6-0.2c0.3,0,0.6,0.1,0.8,0.3c0.2,0.1,0.3,0.3,0.4,0.7c0.3-0.4,0.6-0.6,0.8-0.7c0.2-0.1,0.5-0.2,0.7-0.2
	c0.3,0,0.5,0.1,0.7,0.2c0.2,0.1,0.3,0.3,0.4,0.5s0.1,0.6,0.1,1.2l0,0.8c0,0.7,0,1.2,0,1.3c0,0.1,0,0.1,0.1,0.2
	c0.1,0,0.2,0.1,0.6,0.2v0.3c-0.5,0-0.9-0.1-1.3-0.1s-0.7,0-1.3,0.1v-0.3c0.3-0.1,0.4-0.1,0.5-0.2c0,0,0.1-0.1,0.1-0.2
	c0-0.2,0-0.7,0-1.6c0-0.5,0-0.8,0-0.9c0-0.2-0.1-0.3-0.2-0.4s-0.2-0.1-0.4-0.1c-0.2,0-0.4,0.1-0.5,0.2c-0.2,0.1-0.2,0.3-0.3,0.6
	c0,0.1,0,0.6,0,1.4c0,0.5,0,0.9,0,0.9c0,0.1,0,0.1,0.1,0.2c0.1,0,0.2,0.1,0.4,0.2v0.3c-0.4,0-0.8-0.1-1.1-0.1c-0.3,0-0.7,0-1.3,0.1
	v-0.3c0.3-0.1,0.4-0.1,0.5-0.2c0.1,0,0.1-0.1,0.1-0.2c0-0.1,0-0.6,0-1.4c0-0.6,0-1,0-1.1c0-0.2-0.1-0.4-0.2-0.5
	c-0.1-0.1-0.2-0.1-0.4-0.1c-0.2,0-0.4,0.1-0.5,0.2c-0.1,0.1-0.2,0.3-0.3,0.5c0,0.2-0.1,0.5-0.1,0.9c0,0.9,0,1.4,0,1.5
	c0,0.1,0,0.2,0.1,0.2s0.2,0.1,0.4,0.2v0.3c-0.5,0-1-0.1-1.3-0.1c-0.3,0-0.7,0-1.3,0.1v-0.3c0.4-0.1,0.6-0.2,0.6-0.3
	c0.1-0.1,0.1-0.7,0.1-1.9c0-0.7,0-1,0-1.1c0-0.1-0.2-0.2-0.3-0.2C163.6,73.5,163.5,73.5,163.3,73.6z"/>
<path fill="none" d="M171.7,73.6v-0.3c0.5-0.1,0.9-0.2,1.1-0.3c0.2-0.1,0.5-0.2,0.8-0.4l0.2,0.1c0,0.2-0.1,0.5-0.1,0.8
	c0.4-0.4,0.6-0.6,0.7-0.7c0.2-0.1,0.4-0.2,0.7-0.2c0.4,0,0.8,0.2,1.1,0.5c0.3,0.4,0.4,0.9,0.4,1.5c0,0.8-0.2,1.4-0.7,1.9
	s-1,0.8-1.6,0.8c-0.1,0-0.2,0-0.4,0c-0.1,0-0.2-0.1-0.3-0.1c0,0.2,0,0.3,0,0.4c0,0.7,0,1.1,0.1,1.2s0.3,0.2,0.6,0.3c0,0,0.1,0,0.2,0
	v0.3c-0.6,0-1.1-0.1-1.5-0.1c-0.4,0-0.8,0-1.4,0.1V79c0.4-0.1,0.6-0.2,0.6-0.2c0.1-0.1,0.1-0.2,0.1-0.3c0-0.3,0-1.1,0-2.4
	c0-1.4,0-2.2,0-2.3c0-0.2-0.1-0.2-0.3-0.2C172,73.5,171.8,73.6,171.7,73.6z M173.7,76.5c0.1,0.1,0.3,0.2,0.4,0.2
	c0.1,0.1,0.2,0.1,0.3,0.1c0.3,0,0.5-0.1,0.6-0.3c0.2-0.3,0.3-0.8,0.3-1.4c0-0.6-0.1-1-0.3-1.3c-0.1-0.2-0.3-0.3-0.6-0.3
	c-0.2,0-0.3,0.1-0.5,0.2s-0.2,0.4-0.3,0.7C173.7,74.6,173.7,75.3,173.7,76.5z"/>
<path fill="none" d="M177.3,71.3v-0.3c0.5-0.1,0.8-0.2,1.1-0.3c0.3-0.1,0.5-0.2,0.8-0.4l0.2,0.2c0,0.4-0.1,0.9-0.1,1.4s0,1.2,0,1.9
	c0,1.5,0,2.4,0,2.6c0,0.2,0,0.3,0.1,0.4c0.1,0.1,0.3,0.2,0.6,0.2v0.3c-0.5,0-1-0.1-1.4-0.1c-0.4,0-0.9,0-1.4,0.1v-0.3
	c0.4-0.1,0.6-0.2,0.6-0.2s0.1-0.2,0.1-0.4c0-0.3,0-1.2,0-2.7c0-1.3,0-2.1,0-2.1c0-0.1-0.1-0.2-0.3-0.2
	C177.6,71.2,177.5,71.2,177.3,71.3z"/>
<path fill="none" d="M181.5,74.3l-0.4,0c0.1-0.4,0.2-0.9,0.2-1.2c0.6-0.3,1.2-0.4,1.8-0.4c0.4,0,0.7,0.1,0.9,0.2
	c0.2,0.1,0.4,0.3,0.5,0.5c0.1,0.2,0.1,0.5,0.1,0.9l0,1.6c0,0.3,0,0.5,0.1,0.6s0.1,0.1,0.2,0.1c0.1,0,0.3-0.1,0.5-0.2l0.2,0.3
	c-0.4,0.3-0.8,0.5-1,0.6c-0.1,0.1-0.3,0.1-0.4,0.1c-0.2,0-0.3,0-0.5-0.1s-0.2-0.2-0.3-0.4c-0.4,0.3-0.6,0.4-0.8,0.5
	s-0.3,0.1-0.6,0.1c-0.3,0-0.6-0.1-0.8-0.3c-0.2-0.2-0.3-0.5-0.3-0.9c0-0.3,0.1-0.5,0.2-0.7c0.1-0.2,0.3-0.3,0.5-0.4l1.7-0.8
	c0-0.4-0.1-0.6-0.2-0.8s-0.3-0.2-0.5-0.2c-0.2,0-0.4,0.1-0.6,0.2C181.8,73.5,181.7,73.8,181.5,74.3z M183.3,74.6
	c-0.5,0.2-0.9,0.4-1,0.6s-0.2,0.4-0.2,0.6c0,0.3,0.1,0.4,0.2,0.6c0.1,0.1,0.2,0.2,0.4,0.2c0.1,0,0.2,0,0.4-0.1
	c0.1-0.1,0.2-0.2,0.2-0.4c0-0.2,0.1-0.5,0.1-1C183.3,75.1,183.3,74.9,183.3,74.6z"/>
<path fill="none" d="M185.7,73.6v-0.3c0.4-0.1,0.8-0.2,1-0.3c0.3-0.1,0.6-0.2,0.8-0.4l0.3,0.1c0,0.2-0.1,0.5-0.1,0.8
	c0.4-0.4,0.6-0.7,0.8-0.8s0.4-0.2,0.6-0.2c0.2,0,0.4,0,0.6,0.1c0.2,0.1,0.3,0.2,0.4,0.4s0.1,0.3,0.2,0.6c0,0.1,0,0.5,0,1.1l0,0.8
	c0,0.5,0,0.9,0,1c0,0.1,0,0.2,0.1,0.2s0.2,0.1,0.4,0.1c0,0,0.1,0,0.2,0v0.3c-0.5,0-0.9-0.1-1.2-0.1c-0.3,0-0.7,0-1.3,0.1v-0.3
	c0.2-0.1,0.4-0.1,0.4-0.2c0.1,0,0.1-0.1,0.1-0.2c0-0.2,0-0.7,0-1.6c0-0.6,0-1-0.1-1.1c-0.1-0.2-0.3-0.3-0.5-0.3
	c-0.2,0-0.3,0.1-0.5,0.2c-0.1,0.1-0.2,0.3-0.3,0.5s-0.1,0.6-0.1,1.3c0,0.6,0,1,0,1.1c0,0.1,0,0.1,0.1,0.2c0,0,0.2,0.1,0.4,0.2v0.3
	c-0.5,0-0.9-0.1-1.2-0.1c-0.3,0-0.8,0-1.3,0.1v-0.3c0.4-0.1,0.5-0.2,0.6-0.2c0,0,0.1-0.1,0.1-0.3c0-0.3,0-0.8,0-1.3
	c0-0.8,0-1.3,0-1.4c0-0.1-0.1-0.2-0.3-0.2C186,73.5,185.9,73.5,185.7,73.6z"/>
<path fill="none" d="M194.6,72.8L194.6,72.8c0,0.2-0.1,0.4-0.2,0.6c-0.3,0-0.7-0.1-1.1-0.1l0,0.6l0,0.7l0,0.6c0,0.6,0.1,1,0.1,1.1
	c0.1,0.2,0.2,0.2,0.4,0.2c0.1,0,0.3-0.1,0.6-0.2l0.2,0.3c-0.5,0.3-0.8,0.5-1,0.5c-0.2,0.1-0.4,0.1-0.6,0.1c-0.3,0-0.5-0.1-0.7-0.3
	c-0.2-0.2-0.3-0.5-0.3-0.8l0-1.1l0-1.8l-0.4,0c0,0-0.1,0-0.3,0v-0.4c0.3-0.1,0.6-0.3,0.8-0.5c0.3-0.2,0.5-0.6,0.8-1.1h0.4
	c-0.1,0.5-0.1,1-0.1,1.4c0.3,0,0.4,0,0.5,0C194,72.8,194.2,72.8,194.6,72.8z"/>
<path fill="none" d="M202.7,73.2v-0.3c0.4,0,0.7,0.1,1.1,0.1c0.3,0,0.7,0,1.2-0.1v0.3c-0.3,0-0.5,0.1-0.6,0.2
	c-0.1,0.1-0.2,0.2-0.3,0.3c-0.1,0.1-0.2,0.3-0.4,0.6c-0.2,0.4-0.5,0.8-0.7,1.2c0.3,0.3,0.5,0.5,0.8,0.7c0.2,0.1,0.5,0.2,0.6,0.2
	c0.1,0,0.2,0,0.4-0.1c0.1-0.1,0.3-0.1,0.4-0.3l0.3,0.3c-0.4,0.4-0.8,0.8-1.2,0.9c-0.2,0.1-0.4,0.2-0.6,0.2c-0.2,0-0.5-0.1-0.7-0.2
	c-0.3-0.1-0.5-0.4-0.9-0.7c-0.4,0.4-0.8,0.6-1.1,0.7c-0.3,0.1-0.7,0.2-1.1,0.2c-0.6,0-1.1-0.2-1.4-0.5c-0.3-0.3-0.5-0.7-0.5-1.2
	c0-0.3,0.1-0.6,0.2-0.9c0.2-0.3,0.4-0.5,0.6-0.7c0.3-0.2,0.7-0.4,1.2-0.7c-0.2-0.4-0.3-0.6-0.4-0.8c-0.1-0.2-0.1-0.4-0.1-0.6
	c0-0.5,0.2-0.9,0.5-1.2c0.3-0.3,0.8-0.5,1.4-0.5c0.4,0,0.8,0.1,1,0.3c0.2,0.2,0.3,0.5,0.3,0.8c0,0.3-0.1,0.6-0.3,0.9
	c-0.2,0.3-0.6,0.6-1.1,0.9c0.4,0.7,0.8,1.3,1.1,1.8c0.2-0.3,0.3-0.5,0.4-0.8c0.1-0.2,0.1-0.4,0.1-0.6c0-0.1,0-0.2-0.1-0.2
	C203,73.3,202.9,73.3,202.7,73.2z M200.2,73.8c-0.3,0.2-0.5,0.3-0.6,0.5c-0.2,0.3-0.3,0.5-0.3,0.8c0,0.3,0.1,0.6,0.4,0.9
	s0.5,0.4,0.8,0.4c0.2,0,0.4,0,0.6-0.1s0.4-0.2,0.6-0.3c-0.3-0.3-0.5-0.6-0.7-0.9C200.9,74.9,200.6,74.5,200.2,73.8z M201.3,72.8
	c0.2-0.2,0.4-0.3,0.5-0.5c0.1-0.2,0.2-0.4,0.2-0.7c0-0.3-0.1-0.5-0.2-0.6c-0.1-0.1-0.3-0.2-0.4-0.2c-0.1,0-0.3,0.1-0.4,0.2
	c-0.1,0.1-0.1,0.3-0.1,0.5c0,0.1,0,0.3,0.1,0.5C201,72.1,201.1,72.4,201.3,72.8z"/>
<path fill="none" d="M209,74c0-1.1,0.3-2,1-2.6c0.7-0.7,1.6-1,2.7-1c1.1,0,1.9,0.3,2.5,0.9c0.6,0.6,0.9,1.4,0.9,2.4
	c0,0.6-0.1,1.2-0.4,1.7c-0.2,0.4-0.4,0.8-0.7,1.1c-0.3,0.3-0.6,0.5-0.9,0.6c-0.5,0.2-1,0.3-1.7,0.3c-1.1,0-1.9-0.3-2.5-0.9
	C209.3,75.9,209,75.1,209,74z M210.7,73.7c0,1.2,0.2,2,0.6,2.6c0.3,0.4,0.8,0.6,1.3,0.6c0.4,0,0.7-0.1,1-0.3c0.3-0.2,0.5-0.5,0.6-1
	c0.1-0.5,0.2-1,0.2-1.6c0-0.5,0-0.9-0.1-1.3c-0.1-0.4-0.2-0.8-0.3-1c-0.1-0.2-0.3-0.4-0.6-0.6c-0.2-0.1-0.5-0.2-0.9-0.2
	c-0.4,0-0.7,0.1-1,0.3c-0.3,0.2-0.5,0.5-0.7,1C210.8,72.7,210.7,73.2,210.7,73.7z"/>
<path fill="none" d="M216.9,73.6v-0.3c0.8-0.2,1.4-0.4,1.9-0.6l0.2,0.1c-0.1,0.3-0.1,0.7-0.1,1.1c0.3-0.5,0.6-0.8,0.7-0.9
	s0.3-0.2,0.5-0.2c0.1,0,0.3,0,0.5,0.1c-0.1,0.4-0.2,0.8-0.2,1.2h-0.3c0-0.1-0.1-0.2-0.1-0.3c-0.1-0.1-0.1-0.1-0.2-0.1
	c-0.1,0-0.3,0.1-0.4,0.2c-0.2,0.2-0.3,0.4-0.4,0.7c0,0.1-0.1,0.4-0.1,0.8c0,0.6,0,1,0,1.1s0,0.2,0.1,0.2c0.1,0,0.2,0.1,0.5,0.2
	c0,0,0.1,0,0.2,0v0.3c-0.6,0-1.1-0.1-1.5-0.1c-0.4,0-0.9,0-1.4,0.1v-0.3c0.4-0.1,0.6-0.2,0.6-0.3c0.1-0.1,0.1-0.8,0.1-2
	c0-0.6,0-1-0.1-1.1c0-0.1-0.1-0.1-0.3-0.1C217.3,73.5,217.1,73.5,216.9,73.6z"/>
<path fill="none" d="M224.2,72.8L224.2,72.8c0,0.2-0.1,0.4-0.2,0.6c-0.3,0-0.7-0.1-1.1-0.1l0,0.6l0,0.7l0,0.6c0,0.6,0,1,0.1,1.1
	c0.1,0.2,0.2,0.2,0.4,0.2c0.1,0,0.3-0.1,0.6-0.2l0.2,0.3c-0.5,0.3-0.8,0.5-1,0.5c-0.2,0.1-0.4,0.1-0.6,0.1c-0.3,0-0.5-0.1-0.7-0.3
	c-0.2-0.2-0.3-0.5-0.3-0.8l0-1.1l0-1.8l-0.4,0c0,0-0.1,0-0.3,0v-0.4c0.3-0.1,0.6-0.3,0.8-0.5c0.3-0.2,0.5-0.6,0.8-1.1h0.4
	c-0.1,0.5-0.1,1-0.1,1.4c0.3,0,0.4,0,0.5,0C223.5,72.8,223.7,72.8,224.2,72.8z"/>
<path fill="none" d="M224.6,71.3v-0.3c0.5-0.1,0.9-0.2,1.1-0.3c0.2-0.1,0.5-0.2,0.8-0.4l0.2,0.1c0,0.3-0.1,0.7-0.1,1.2
	c0,0.7,0,1.2,0,1.6v0.3c0.4-0.4,0.7-0.7,0.9-0.8c0.2-0.1,0.4-0.1,0.6-0.1c0.4,0,0.6,0.1,0.8,0.2c0.2,0.2,0.3,0.4,0.3,0.6
	c0,0.2,0,0.7,0,1.6c0,0.7,0,1.2,0,1.4c0,0.1,0,0.2,0.1,0.3c0.1,0.1,0.2,0.1,0.4,0.2c0,0,0.1,0,0.2,0v0.3c-0.5,0-1-0.1-1.3-0.1
	c-0.3,0-0.8,0-1.3,0.1v-0.3c0.3-0.1,0.4-0.1,0.5-0.2c0.1-0.1,0.1-0.2,0.1-0.4c0-1.4,0-2.1,0-2.1c0-0.3-0.1-0.4-0.2-0.5
	c-0.1-0.1-0.3-0.2-0.4-0.2c-0.2,0-0.3,0.1-0.5,0.2c-0.1,0.1-0.2,0.3-0.3,0.5c0,0.1,0,0.5,0,1.2c0,0.7,0,1.1,0,1.2
	c0,0.1,0.1,0.2,0.1,0.2c0.1,0.1,0.2,0.1,0.4,0.2v0.3c-0.5,0-0.9-0.1-1.2-0.1c-0.2,0-0.7,0-1.4,0.1v-0.3c0.1,0,0.1,0,0.1,0
	c0.3-0.1,0.4-0.1,0.5-0.2c0.1-0.1,0.1-0.2,0.1-0.4c0-0.5,0-1.3,0-2.6l0-2.1c0-0.1,0-0.2-0.1-0.3s-0.1-0.1-0.2-0.1
	C224.9,71.2,224.7,71.2,224.6,71.3z"/>
<path fill="none" d="M230.6,74.9c0-0.7,0.2-1.3,0.7-1.7c0.4-0.4,1-0.7,1.7-0.7c0.7,0,1.3,0.2,1.7,0.6c0.4,0.4,0.6,1,0.6,1.7
	c0,0.8-0.2,1.4-0.6,1.9s-1,0.7-1.7,0.7c-0.7,0-1.3-0.2-1.7-0.6C230.8,76.3,230.6,75.7,230.6,74.9z M232,74.7c0,0.9,0.1,1.5,0.4,1.9
	c0.1,0.2,0.3,0.3,0.6,0.3c0.2,0,0.4-0.1,0.6-0.3c0.2-0.3,0.3-0.8,0.3-1.4c0-0.9-0.1-1.5-0.4-1.8c-0.1-0.2-0.4-0.3-0.6-0.3
	c-0.2,0-0.4,0.1-0.6,0.3C232.1,73.6,232,74,232,74.7z"/>
<path fill="none" d="M238.5,71.3v-0.3c0.7-0.2,1.4-0.4,1.9-0.7l0.2,0.2c0,0.4-0.1,0.9-0.1,1.4c0,0.5,0,1.1,0,1.8c0,1.2,0,2,0,2.4
	c0,0.2,0,0.4,0.1,0.4c0.1,0.1,0.2,0.1,0.3,0.1c0,0,0.1,0,0.4,0v0.3c-0.4,0.1-0.7,0.1-1,0.2c-0.3,0.1-0.6,0.2-0.9,0.3l-0.2-0.1
	c0-0.2,0.1-0.4,0.1-0.6c-0.4,0.3-0.7,0.5-0.9,0.6c-0.2,0.1-0.4,0.1-0.5,0.1c-0.4,0-0.7-0.2-0.9-0.5c-0.3-0.4-0.5-0.9-0.5-1.6
	c0-0.3,0-0.6,0.1-1c0.1-0.3,0.2-0.6,0.4-0.8c0.2-0.2,0.5-0.4,0.8-0.6c0.3-0.2,0.7-0.2,1-0.2c0.1,0,0.2,0,0.3,0c0.1,0,0.2,0,0.3,0.1
	c0-0.3,0-0.6,0-0.7c0-0.3,0-0.5-0.1-0.6c-0.1-0.1-0.1-0.1-0.3-0.1C238.8,71.2,238.6,71.2,238.5,71.3z M239.2,74.8
	c0-0.6,0-1.1-0.1-1.3c-0.1-0.2-0.3-0.4-0.6-0.4c-0.2,0-0.4,0.1-0.6,0.4c-0.2,0.2-0.3,0.7-0.3,1.3c0,0.6,0.1,1,0.3,1.3
	c0.1,0.2,0.3,0.3,0.6,0.3c0.3,0,0.5-0.1,0.6-0.4C239.2,75.8,239.2,75.4,239.2,74.8z"/>
<path fill="none" d="M241.8,74.9c0-0.7,0.2-1.3,0.7-1.7c0.4-0.4,1-0.7,1.7-0.7c0.7,0,1.3,0.2,1.7,0.6c0.4,0.4,0.6,1,0.6,1.7
	c0,0.8-0.2,1.4-0.6,1.9s-1,0.7-1.7,0.7c-0.7,0-1.3-0.2-1.7-0.6C242,76.3,241.8,75.7,241.8,74.9z M243.3,74.7c0,0.9,0.1,1.5,0.4,1.9
	c0.1,0.2,0.3,0.3,0.6,0.3c0.2,0,0.4-0.1,0.6-0.3c0.2-0.3,0.3-0.8,0.3-1.4c0-0.9-0.1-1.5-0.4-1.8c-0.1-0.2-0.4-0.3-0.6-0.3
	c-0.2,0-0.4,0.1-0.6,0.3C243.4,73.6,243.3,74,243.3,74.7z"/>
<path fill="none" d="M247.3,73.6v-0.3c0.4-0.1,0.8-0.2,1-0.3c0.3-0.1,0.6-0.2,0.8-0.4l0.2,0.1c0,0.2-0.1,0.5-0.1,0.8
	c0.4-0.4,0.6-0.7,0.8-0.8c0.2-0.1,0.4-0.2,0.6-0.2c0.2,0,0.4,0,0.6,0.1c0.2,0.1,0.3,0.2,0.4,0.4s0.1,0.3,0.2,0.6c0,0.1,0,0.5,0,1.1
	l0,0.8c0,0.5,0,0.9,0,1c0,0.1,0,0.2,0.1,0.2c0,0,0.2,0.1,0.4,0.1c0,0,0.1,0,0.2,0v0.3c-0.5,0-0.9-0.1-1.2-0.1c-0.3,0-0.7,0-1.3,0.1
	v-0.3c0.2-0.1,0.4-0.1,0.4-0.2c0.1,0,0.1-0.1,0.1-0.2c0-0.2,0-0.7,0-1.6c0-0.6,0-1-0.1-1.1c-0.1-0.2-0.3-0.3-0.5-0.3
	c-0.2,0-0.3,0.1-0.5,0.2c-0.1,0.1-0.2,0.3-0.3,0.5s-0.1,0.6-0.1,1.3c0,0.6,0,1,0,1.1c0,0.1,0,0.1,0.1,0.2c0,0,0.2,0.1,0.4,0.2v0.3
	c-0.5,0-0.9-0.1-1.2-0.1c-0.3,0-0.7,0-1.3,0.1v-0.3c0.4-0.1,0.5-0.2,0.6-0.2c0,0,0.1-0.1,0.1-0.3c0-0.3,0-0.8,0-1.3
	c0-0.8,0-1.3,0-1.4c0-0.1-0.1-0.2-0.3-0.2C247.6,73.5,247.4,73.5,247.3,73.6z"/>
<path fill="none" d="M256.2,72.8L256.2,72.8c0,0.2-0.1,0.4-0.2,0.6c-0.3,0-0.7-0.1-1.1-0.1l0,0.6l0,0.7l0,0.6c0,0.6,0.1,1,0.1,1.1
	c0.1,0.2,0.2,0.2,0.4,0.2c0.1,0,0.3-0.1,0.6-0.2l0.2,0.3c-0.5,0.3-0.8,0.5-1,0.5c-0.2,0.1-0.4,0.1-0.6,0.1c-0.3,0-0.5-0.1-0.7-0.3
	c-0.2-0.2-0.3-0.5-0.3-0.8l0-1.1l0-1.8l-0.4,0c0,0-0.1,0-0.3,0v-0.4c0.3-0.1,0.6-0.3,0.8-0.5c0.3-0.2,0.5-0.6,0.8-1.1h0.4
	c-0.1,0.5-0.1,1-0.1,1.4c0.3,0,0.4,0,0.5,0C255.5,72.8,255.8,72.8,256.2,72.8z"/>
<path fill="none" d="M256.8,73.5v-0.3c0.7-0.1,1.3-0.3,1.9-0.7l0.2,0.1c0,0.4-0.1,0.7-0.1,1c0,0.4,0,1.2,0,2.1c0,0.4,0,0.7,0,0.8
	c0,0.1,0.1,0.1,0.1,0.2s0.2,0.1,0.6,0.2v0.3c-0.4,0-0.8-0.1-1.2-0.1c-0.4,0-0.9,0-1.5,0.1v-0.3l0.1,0c0.3-0.1,0.4-0.1,0.5-0.2
	c0.1,0,0.1-0.1,0.1-0.2c0-0.3,0-0.9,0-1.9c0-0.5,0-0.9,0-1c0-0.1-0.1-0.2-0.3-0.2C257.1,73.5,256.9,73.5,256.8,73.5z M258.1,70.3
	c0.2,0,0.4,0.1,0.5,0.2s0.2,0.3,0.2,0.5s-0.1,0.4-0.2,0.5c-0.2,0.2-0.3,0.2-0.5,0.2s-0.4-0.1-0.5-0.2c-0.2-0.2-0.2-0.3-0.2-0.5
	s0.1-0.4,0.2-0.5C257.7,70.4,257.9,70.3,258.1,70.3z"/>
<path fill="none" d="M263.9,74.3l-0.4,0c0-0.5-0.1-0.8-0.3-0.9c-0.2-0.2-0.3-0.3-0.6-0.3c-0.3,0-0.5,0.1-0.7,0.3
	c-0.2,0.3-0.3,0.7-0.3,1.3c0,0.6,0.1,1,0.4,1.3c0.3,0.3,0.6,0.4,0.9,0.4c0.2,0,0.3,0,0.5-0.1c0.2-0.1,0.4-0.1,0.6-0.3l0.2,0.4
	c-0.5,0.4-0.9,0.7-1.2,0.8c-0.2,0.1-0.5,0.2-0.8,0.2c-0.6,0-1-0.2-1.4-0.6s-0.6-0.9-0.6-1.6c0-0.7,0.2-1.3,0.7-1.9
	c0.4-0.5,1-0.8,1.8-0.8c0.4,0,0.9,0.1,1.5,0.4c-0.1,0.3-0.1,0.6-0.2,0.9C263.9,74,263.9,74.2,263.9,74.3z"/>
</svg>
