<?xml version="1.0" encoding="utf-8"?>
<!-- Generator: Adobe Illustrator 22.1.0, SVG Export Plug-In . SVG Version: 6.00 Build 0)  -->
<svg version="1.1" id="Layer_1" xmlns="http://www.w3.org/2000/svg" xmlns:xlink="http://www.w3.org/1999/xlink" x="0px" y="0px"
	 viewBox="0 0 777.4 358.3" enable-background="new 0 0 777.4 358.3" xml:space="preserve">
<path fill="#F6871F" d="M301.9,1.5c-21.2,0-39.6,7.6-54.6,22.6c-15,15-22.6,33.4-22.6,73.3v142.9c0,0,0.2,5.3-5.8,5.3h-88
	c-63.6,0-115.4-51.8-115.4-115.4C15.6,66.6,67.3,14.8,131,14.8c2.2,0,4.1-1.8,4.1-4.1V5.9c0-2.2-1.9-4.1-4.1-4.1
	C60.2,1.8,2.5,59.4,2.5,130.2c0,70.3,57.2,127.9,127.5,128.4l100.1,0c0,0,3.6,0.2,5.2-0.3c1.5-0.6,2.6-2,2.6-3.8V142
	c0-3.2,2.6-5.8,5.8-5.8h48.6c1.1,0,2.2-0.2,2.9-1.2l3.1-5c1.1-2.5,2-3,1.4-4.6c-0.6-1.5-2.1-2.5-3.8-2.5h-52.2
	c-3.2,0-5.8-2.6-5.8-5.8V78.7c0-17.5,6.3-32.8,18.7-45.2c12.5-12.4,27.7-18.8,45.2-18.8h1.1c2.3,0,4.1-1.8,4.1-4.1V5.6
	c0-2.3-1.8-4.1-4.1-4.1C303.1,1.5,301.9,1.5,301.9,1.5z"/>
<path fill="#F6871F" d="M336.9,226.7c-12.4-12.5-18.7-27.6-18.7-45.2c0-17.6,6.3-32.8,18.7-45.3c12.4-12.5,27.6-18.9,45.2-18.9
	c17.5,0,32.8,6.4,45.3,19c12.5,12.4,18.9,27.6,18.9,45.2c0,17.5-6.4,32.7-19,45.2c-12.4,12.4-27.6,18.7-45.2,18.7
	C364.6,245.4,349.4,239.1,336.9,226.7 M327.5,126.8c-15,15-22.6,33.4-22.6,54.6c0,21.2,7.6,39.6,22.6,54.6
	c15,15,33.4,22.6,54.6,22.6c17.4,0,33.2-5.4,47-16c2.6-2,5.1-4.2,7.4-6.4c1.1-1.1,2.6-1.7,4.1-1.7c0.8,0,1.5,0.2,2.2,0.4
	c2.2,0.9,3.5,3,3.5,5.3v14.2c0,2.2,1.8,4.1,4.1,4.1h4.9c2.3,0,4.1-1.8,4.1-4.1l0-69.7c0-8.5-0.8-19.2-2.7-23.7
	c-0.2-0.6-0.4-1.2-0.4-1.8c-4.8-15.9-13.9-29-27.1-39c-13.8-10.7-29.6-16-47-16C360.9,104.2,342.5,111.8,327.5,126.8"/>
<path fill="#F6871F" d="M631.4,27.3c-2.3,0-4.1,1.9-4.1,4.1v149.9c0,23.9,7.6,39.6,22.7,54.6c15.1,15.2,33.5,22.9,54.9,22.9h1.2
	c2.3,0,4.1-1.8,4.1-4.1v-5.1c0-2.3-1.8-4.1-4.1-4.1h-1.2c-17.6,0-32.9-6.3-45.5-18.7c-12.5-12.6-18.8-27.9-18.8-45.6v-39.9
	c0-3.2,2.6-5.8,5.8-5.8h121c0.9,0,1.7-0.3,2.4-0.8v-11.6c-0.6-0.5-1.5-0.8-2.4-0.8h-121c-3.2,0-5.8-2.6-5.8-5.8V31.4
	c0-2.2-1.8-4.1-4.1-4.1H631.4z"/>
<path fill="#F6871F" d="M523,107.8c-19.8,4.9-32.3,17.5-33.7,33.9c-1.7,20.8,19.8,30.3,50.4,41.3c23.4,8.5,47.6,17.2,46.3,33.4
	c-1,12.3-9.9,21.9-24.4,26.4c-5.5,1.7-11.9,2.6-18.4,2.6c-18,0-34.2-6.7-43.4-18.1c-0.7-0.9-2-1.4-3.3-1.4c-0.9,0-1.8,0.3-2.4,0.8
	l-3.8,3.1c-0.8,0.7-1.4,1.7-1.5,2.7c-0.2,1.1,0.2,2.3,0.9,3.1c11.6,14.4,31.7,22.9,53.7,22.9c7.7,0,15.4-1.1,22.1-3.2
	c19.9-6.1,32.1-19.9,33.6-37.8c2.1-26.1-28.2-37-54.8-46.7c-25.9-9.4-42.8-16.3-41.9-28c0.9-10.7,9.6-18.8,23.8-22.3
	c4.5-1.1,9.3-1.7,14.3-1.7c14.2,0,32.4,5,41.2,19.1c0.6,0.9,1.5,1.5,2.5,1.7c1.1,0.2,2.2,0.1,3.1-0.5l4.2-2.6
	c0.9-0.6,1.6-1.4,1.8-2.5c0.2-1.1,0.1-2.1-0.5-3.1c-9.9-15.7-29.4-25.1-52.4-25.1C534.2,105.8,528.4,106.5,523,107.8"/>
<path fill="#78797B" d="M771.5,238.6v20.1h-3.2v-17.3l-7,17.3h-1.9l-6.8-17.3v17.3h-3.2v-20.1h5.2l5.8,14.2l6-14.2H771.5 M746,238.6
	v2.9h-6.3v17.3h-3.5v-17.3h-6.4v-2.9H746L746,238.6z"/>
<path fill="#78797B" d="M98,342.3c-7.2,0-12.7-4.9-12.7-14.7c0-9.8,5.5-14.6,12.7-14.6c4,0,6.5,1,9.4,4.2l-2.9,2.7
	c-2.1-2.4-3.8-3.2-6.6-3.2c-2.8,0-5.2,1.1-6.7,3.2c-1.3,1.9-1.9,4.1-1.9,7.7c0,3.6,0.5,5.9,1.9,7.7c1.5,2.2,3.8,3.3,6.7,3.3
	c2.8,0,4.4-0.9,6.6-3.3l2.9,2.8C104.4,341.3,102,342.3,98,342.3"/>
<path fill="#78797B" d="M129.9,318.8c-1.3-1.4-3.2-2.1-5.2-2.1c-2.1,0-3.9,0.7-5.2,2.1c-2.1,2.1-2.3,5.7-2.3,8.8
	c0,3.2,0.2,6.8,2.3,8.9c1.3,1.3,3.1,2.1,5.2,2.1c2,0,3.9-0.8,5.2-2.1c2.1-2.1,2.3-5.6,2.3-8.9C132.2,324.4,132,320.9,129.9,318.8
	 M132.9,339.1c-2,2-4.7,3.2-8.2,3.2c-3.5,0-6.2-1.3-8.2-3.2c-2.9-3-3.5-7-3.5-11.4c0-4.4,0.6-8.4,3.5-11.4c2-2,4.7-3.2,8.2-3.2
	c3.5,0,6.2,1.3,8.2,3.2c2.9,3,3.5,7,3.5,11.4C136.4,332.1,135.8,336.1,132.9,339.1"/>
<path fill="#78797B" d="M154.4,342.3c-4.8,0-8.6-1.1-11.8-4.1l2.8-2.8c2.3,2.4,5.4,3.3,8.9,3.3c4.7,0,7.6-1.7,7.6-5.1
	c0-2.5-1.5-3.9-4.8-4.2l-4.8-0.4c-5.6-0.5-8.5-3-8.5-7.7c0-5.3,4.4-8.4,10.5-8.4c4.1,0,7.7,1,10.3,3.1l-2.7,2.7
	c-2.1-1.6-4.7-2.2-7.6-2.2c-4.2,0-6.4,1.8-6.4,4.7c0,2.5,1.4,3.9,5,4.2l4.6,0.4c5.1,0.5,8.5,2.4,8.5,7.7
	C166.1,339.1,161.3,342.3,154.4,342.3"/>
<path fill="#78797B" d="M211,342v-17.6c0-5.1-2.7-7.6-7-7.6c-4.2,0-7.2,2.6-7.2,7.2V342h-4.2v-17.6c0-5.1-2.8-7.6-7.1-7.6
	c-4.3,0-7.1,2.6-7.1,7.6V342h-4.2v-28.6h4.2v3.1c2-2.3,4.9-3.5,8.1-3.5c4,0,7.1,1.6,8.8,4.8c2.2-3.1,5.4-4.8,9.4-4.8
	c3.1,0,5.7,1,7.4,2.7c2,2,3.1,4.6,3.1,8V342H211"/>
<path fill="#78797B" d="M242.3,320.8c-1.1-2.6-3.7-4.3-6.7-4.3c-3,0-5.6,1.7-6.7,4.3c-0.6,1.6-0.8,2.4-0.9,4.8h15.1
	C243.1,323.3,243,322.4,242.3,320.8 M228.1,328.8c0,6.3,3,9.9,8.4,9.9c3.3,0,5.3-1,7.5-3.2l2.9,2.5c-2.9,2.9-5.6,4.4-10.5,4.4
	c-7.6,0-12.6-4.5-12.6-14.7c0-9.2,4.5-14.6,11.8-14.6c7.4,0,11.8,5.3,11.8,13.8v1.9L228.1,328.8L228.1,328.8z"/>
<path fill="#78797B" d="M264.3,342c-4.8,0-7.3-3.4-7.3-7.7v-17.6h-3.6v-3.2h3.6v-9h4.2v9h6.1v3.2h-6.1v17.5c0,2.6,1.2,4.2,3.9,4.2
	h2.2v3.6H264.3"/>
<path fill="#78797B" d="M275.6,342h4.2v-28.6h-4.2V342 M275.4,305.2h4.7v-4.7h-4.7V305.2z"/>
<path fill="#78797B" d="M301.5,342.3c-7.2,0-12.7-4.9-12.7-14.7c0-9.8,5.5-14.6,12.7-14.6c4,0,6.5,1,9.4,4.2l-2.9,2.7
	c-2.1-2.4-3.8-3.2-6.6-3.2c-2.8,0-5.1,1.1-6.6,3.2c-1.4,1.9-1.9,4.1-1.9,7.7c0,3.6,0.5,5.9,1.9,7.7c1.5,2.2,3.8,3.3,6.6,3.3
	c2.8,0,4.4-0.9,6.6-3.3l2.9,2.8C307.9,341.3,305.4,342.3,301.5,342.3"/>
<path fill="#78797B" d="M341.4,342c-4.9,0-7.3-3.4-7.3-7.7v-17.6h-3.6v-3.2h3.6v-9h4.2v9h6.1v3.2h-6.1v17.5c0,2.6,1.2,4.2,3.9,4.2
	h2.2v3.6H341.4"/>
<path fill="#78797B" d="M367.7,318.8c-1.3-1.4-3.2-2.1-5.2-2.1c-2,0-3.8,0.7-5.2,2.1c-2.1,2.1-2.3,5.7-2.3,8.8
	c0,3.2,0.2,6.8,2.3,8.9c1.3,1.3,3.1,2.1,5.2,2.1c2,0,3.9-0.8,5.2-2.1c2.1-2.1,2.3-5.6,2.3-8.9C370,324.4,369.8,320.9,367.7,318.8
	 M370.6,339.1c-2,2-4.7,3.2-8.2,3.2c-3.5,0-6.3-1.3-8.2-3.2c-2.9-3-3.5-7-3.5-11.4c0-4.4,0.6-8.4,3.5-11.4c2-2,4.7-3.2,8.2-3.2
	c3.5,0,6.2,1.3,8.2,3.2c2.9,3,3.5,7,3.5,11.4C374.2,332.1,373.6,336.1,370.6,339.1"/>
<path fill="#78797B" d="M398.5,318.8c-1.4-1.4-3.2-2.1-5.3-2.1c-2,0-3.8,0.7-5.1,2.1c-2.1,2.1-2.3,5.7-2.3,8.8
	c0,3.2,0.2,6.8,2.3,8.9c1.3,1.3,3.1,2.1,5.1,2.1c2.1,0,3.9-0.8,5.3-2.1c2.1-2.1,2.3-5.6,2.3-8.9
	C400.8,324.4,400.6,320.9,398.5,318.8 M401.5,339.1c-2,2-4.7,3.2-8.2,3.2c-3.5,0-6.2-1.3-8.2-3.2c-2.9-3-3.5-7-3.5-11.4
	c0-4.4,0.6-8.4,3.5-11.4c2-2,4.7-3.2,8.2-3.2c3.5,0,6.2,1.3,8.2,3.2c2.9,3,3.5,7,3.5,11.4C405,332.1,404.4,336.1,401.5,339.1"/>
<path fill="#78797B" d="M422,342c-4.9,0-7.3-3.4-7.3-7.7v-17.6h-3.6v-3.2h3.6v-9h4.2v9h6.1v3.2h-6.1v17.5c0,2.6,1.2,4.2,3.9,4.2h2.2
	v3.6H422"/>
<path fill="#78797B" d="M451.6,342v-17.7c0-5-2.6-7.6-6.9-7.6c-4.3,0-7.2,2.6-7.2,7.6V342h-4.2v-41.5h4.2v16
	c2.1-2.4,4.9-3.5,8.1-3.5c6.4,0,10.3,4.1,10.3,10.6V342L451.6,342"/>
<path fill="#78797B" d="M496.8,328.8h-8.1c-4.3,0-6.4,1.8-6.4,5.1c0,3.3,2,4.9,6.6,4.9c2.4,0,4.6-0.2,6.4-1.9c1-0.9,1.5-2.5,1.5-5
	V328.8 M496.8,342v-2.7c-2.4,2.3-4.4,3.1-8.3,3.1c-4,0-6.3-0.7-8.1-2.6c-1.4-1.4-2.2-3.5-2.2-5.8c0-5,3.5-8.3,9.9-8.3h8.6v-2.8
	c0-4.2-2.1-6.3-7.4-6.3c-3.7,0-5.5,0.9-7.2,3.3l-2.9-2.6c2.6-3.3,5.5-4.2,10.1-4.2c7.7,0,11.5,3.3,11.5,9.5V342L496.8,342L496.8,342
	L496.8,342z"/>
<path fill="#78797B" d="M518.3,342c-5,0-7.3-3.2-7.3-7.6v-33.9h4.2v33.7c0,2.8,0.9,4.2,3.8,4.2h2.3v3.6L518.3,342"/>
<path fill="#78797B" d="M528.4,342h4.2v-28.6h-4.2V342 M528.2,305.2h4.7v-4.7h-4.7V305.2z"/>
<path fill="#78797B" d="M553,316.7c-6.2,0-7.2,5.3-7.2,10.7c0,5.4,0.9,10.7,7.2,10.7c6.3,0,7.1-5.4,7.1-10.7
	C560.1,322,559.3,316.7,553,316.7 M552.3,355.1c-4.3,0-6.7-1.1-9.7-3.9l2.7-2.7c2.1,1.9,3.5,2.8,6.9,2.8c5.5,0,7.8-3.9,7.8-8.8v-4.5
	c-2.3,3-4.9,3.7-8,3.7c-2.9,0-5.4-1-6.9-2.6c-2.9-2.9-3.5-7.3-3.5-11.9c0-4.6,0.6-9.1,3.5-11.9c1.5-1.5,4.1-2.5,7-2.5
	c3.1,0,5.7,0.7,8,3.7v-3.4h4.1v29.5C564.3,350,559.9,355.1,552.3,355.1"/>
<path fill="#78797B" d="M593.1,342v-17.6c0-5.1-2.7-7.6-7-7.6c-4.3,0-7.1,2.6-7.1,7.6V342h-4.2v-28.6h4.2v3.1c2-2.3,4.8-3.5,8-3.5
	c3.1,0,5.6,0.9,7.4,2.7c2,2,3,4.6,3,8V342H593.1"/>
<path fill="#78797B" d="M644.3,342v-17.6c0-5.1-2.8-7.6-7.1-7.6c-4.2,0-7.2,2.6-7.2,7.2V342h-4.2v-17.6c0-5.1-2.7-7.6-7.1-7.6
	c-4.3,0-7.2,2.6-7.2,7.6V342h-4.2v-28.6h4.2v3.1c2-2.3,4.9-3.5,8.1-3.5c4,0,7.1,1.6,8.8,4.8c2.2-3.1,5.4-4.8,9.4-4.8
	c3.1,0,5.6,1,7.4,2.7c2,2,3.1,4.6,3.1,8V342H644.3"/>
<path fill="#78797B" d="M675.5,320.8c-1.1-2.6-3.6-4.3-6.7-4.3s-5.6,1.7-6.7,4.3c-0.6,1.6-0.7,2.4-0.9,4.8h15.2
	C676.4,323.3,676.2,322.4,675.5,320.8 M661.3,328.8c0,6.3,3,9.9,8.5,9.9c3.3,0,5.2-1,7.5-3.2l2.8,2.5c-2.9,2.9-5.6,4.4-10.5,4.4
	c-7.6,0-12.5-4.5-12.5-14.7c0-9.2,4.5-14.6,11.8-14.6c7.4,0,11.7,5.3,11.7,13.8v1.9L661.3,328.8L661.3,328.8z"/>
<path fill="#78797B" d="M707.9,342v-17.6c0-5.1-2.7-7.6-7.1-7.6c-4.3,0-7.1,2.6-7.1,7.6V342h-4.2v-28.6h4.2v3.1
	c2.1-2.3,4.9-3.5,8.1-3.5c3.1,0,5.6,0.9,7.3,2.7c2.1,2,3,4.6,3,8V342H707.9"/>
<path fill="#78797B" d="M730.3,342c-4.9,0-7.3-3.4-7.3-7.7v-17.6h-3.6v-3.2h3.6v-9h4.1v9h6.1v3.2h-6.1v17.5c0,2.6,1.2,4.2,3.9,4.2
	h2.2v3.6H730.3"/>
</svg>
