<?xml version="1.0" encoding="utf-8"?>
<!-- Generator: Adobe Illustrator 22.1.0, SVG Export Plug-In . SVG Version: 6.00 Build 0)  -->
<svg version="1.1" id="Layer_1" xmlns="http://www.w3.org/2000/svg" xmlns:xlink="http://www.w3.org/1999/xlink" x="0px" y="0px"
	 viewBox="0 0 87.2 24" enable-background="new 0 0 87.2 24" xml:space="preserve">
<g>
	<path fill="#650360" d="M0.1,11.7c0-2.8,0.3-5,0.9-6.6c0.6-1.6,1.5-2.7,2.6-3.5c1.1-0.8,2.4-1.2,3.7-1.2c1.4,0,2.7,0.4,3.8,1.2
		c1.1,0.8,2,2,2.7,3.6c0.7,1.6,1,3.8,1,6.5c0,2.7-0.3,4.9-1,6.5c-0.6,1.6-1.5,2.8-2.7,3.6C10,22.6,8.7,23,7.3,23
		c-1.4,0-2.6-0.4-3.7-1.2c-1.1-0.8-2-2-2.6-3.5C0.4,16.8,0.1,14.6,0.1,11.7z M2.1,11.8c0,2.4,0.2,4.3,0.7,5.5
		c0.4,1.2,1.1,2.2,1.9,2.8c0.9,0.6,1.7,1,2.7,1c1,0,1.9-0.3,2.7-0.9c0.8-0.6,1.5-1.6,1.9-2.8c0.5-1.5,0.8-3.4,0.8-5.5
		c0-2.2-0.2-3.9-0.7-5.3c-0.5-1.4-1.1-2.4-2-3c-0.8-0.6-1.7-1-2.7-1c-1,0-1.9,0.3-2.7,1C3.9,4,3.2,5,2.8,6.2
		C2.3,7.5,2.1,9.3,2.1,11.8z"/>
	<path fill="#650360" d="M35.9,0L20.2,24h-1.9L32.5,2.1c-1.7,0.4-3.8,0.6-6.2,0.6l-0.8,0c0.6,0.8,0.9,1.7,0.9,2.7
		c0,1.3-0.5,2.5-1.4,3.6c-0.9,1.1-2.2,1.6-3.7,1.6c-1.4,0-2.6-0.5-3.6-1.5c-1-1-1.4-2.2-1.4-3.6c0-0.9,0.2-1.8,0.7-2.6
		c0.4-0.8,1.1-1.4,1.9-1.9c0.8-0.5,1.6-0.7,2.5-0.7c0.4,0,1,0.1,1.8,0.3c1.3,0.3,2.6,0.4,4.1,0.4c1.1,0,2.1-0.1,3.1-0.2
		c1-0.1,2.2-0.4,3.8-0.9H35.9z M21.4,2.3c-0.9,0-1.6,0.3-2.3,0.9c-0.6,0.6-0.9,1.4-0.9,2.3s0.3,1.6,0.9,2.3s1.4,0.9,2.3,0.9
		s1.6-0.3,2.3-0.9s0.9-1.4,0.9-2.3c0-0.9-0.3-1.6-0.9-2.3C23,2.6,22.3,2.3,21.4,2.3z M33.2,13c1.4,0,2.6,0.5,3.6,1.5
		c1,1,1.5,2.2,1.5,3.6c0,1.4-0.5,2.6-1.5,3.6c-1,1-2.2,1.5-3.6,1.5s-2.6-0.5-3.6-1.5c-1-1-1.5-2.2-1.5-3.6c0-1.4,0.5-2.6,1.5-3.6
		C30.6,13.5,31.8,13,33.2,13z M33.2,14.8c-0.9,0-1.6,0.3-2.3,0.9c-0.6,0.6-0.9,1.4-0.9,2.3s0.3,1.6,0.9,2.3c0.6,0.6,1.4,0.9,2.3,0.9
		s1.6-0.3,2.3-0.9c0.6-0.6,0.9-1.4,0.9-2.3s-0.3-1.6-0.9-2.3C34.8,15.2,34.1,14.8,33.2,14.8z"/>
</g>
<path fill="#650360" d="M41.4,0.9h4.3v1.6H43V4h2.6v1.6H43v3.9h-1.6V0.9z"/>
<path fill="#650360" d="M47.7,0.5c0.3,0,0.5,0.1,0.7,0.3c0.2,0.2,0.3,0.4,0.3,0.7c0,0.3-0.1,0.5-0.3,0.7S48,2.6,47.7,2.6
	c-0.3,0-0.5-0.1-0.7-0.3c-0.2-0.2-0.3-0.5-0.3-0.7c0-0.3,0.1-0.5,0.3-0.7C47.2,0.6,47.5,0.5,47.7,0.5z M46.9,3.1h1.6v6.4h-1.6V3.1z"
	/>
<path fill="#650360" d="M50.2,3.1h1.6v0.7c0.4-0.3,0.7-0.5,1-0.6C53,3,53.3,3,53.6,3c0.6,0,1.2,0.2,1.6,0.7c0.4,0.4,0.6,0.9,0.6,1.7
	v4.2h-1.6V6.7c0-0.8,0-1.3-0.1-1.5c-0.1-0.3-0.2-0.4-0.4-0.6s-0.4-0.2-0.6-0.2c-0.3,0-0.6,0.1-0.8,0.3c-0.2,0.2-0.4,0.5-0.5,0.9
	c0,0.2-0.1,0.6-0.1,1.3v2.6h-1.6V3.1z"/>
<path fill="#650360" d="M62.2,3.1h1.6v6.4h-1.6V8.8c-0.3,0.3-0.6,0.5-0.9,0.6c-0.3,0.1-0.7,0.2-1,0.2c-0.8,0-1.5-0.3-2.1-1
	c-0.6-0.6-0.9-1.4-0.9-2.4c0-1,0.3-1.8,0.9-2.4C58.7,3.3,59.4,3,60.2,3C60.6,3,61,3,61.3,3.2s0.6,0.4,0.9,0.7L62.2,3.1L62.2,3.1z
	 M60.5,4.4c-0.5,0-0.9,0.2-1.2,0.5c-0.3,0.3-0.5,0.8-0.5,1.3c0,0.6,0.2,1,0.5,1.4c0.3,0.4,0.7,0.5,1.2,0.5c0.5,0,0.9-0.2,1.3-0.5
	c0.3-0.3,0.5-0.8,0.5-1.4c0-0.6-0.2-1-0.5-1.3C61.5,4.6,61.1,4.4,60.5,4.4z"/>
<path fill="#650360" d="M65.6,3.1h1.6v0.7c0.4-0.3,0.7-0.5,1-0.6C68.5,3,68.8,3,69.1,3c0.6,0,1.2,0.2,1.6,0.7
	c0.4,0.4,0.6,0.9,0.6,1.7v4.2h-1.6V6.7c0-0.8,0-1.3-0.1-1.5c-0.1-0.3-0.2-0.4-0.4-0.6s-0.4-0.2-0.6-0.2c-0.3,0-0.6,0.1-0.8,0.3
	c-0.2,0.2-0.4,0.5-0.5,0.9c0,0.2-0.1,0.6-0.1,1.3v2.6h-1.6L65.6,3.1L65.6,3.1z"/>
<path fill="#650360" d="M79.2,4.4l-1.3,0.7c-0.3-0.3-0.5-0.4-0.7-0.5c-0.2-0.1-0.5-0.2-0.9-0.2c-0.6,0-1.1,0.2-1.5,0.5
	c-0.4,0.4-0.6,0.8-0.6,1.4c0,0.5,0.2,1,0.5,1.3c0.4,0.3,0.8,0.5,1.4,0.5c0.7,0,1.3-0.2,1.7-0.7l1.3,0.9c-0.7,0.9-1.6,1.3-2.9,1.3
	c-1.1,0-2-0.3-2.6-1s-1-1.4-1-2.3c0-0.6,0.2-1.2,0.5-1.7c0.3-0.5,0.7-0.9,1.3-1.2C75,3.1,75.6,3,76.3,3c0.6,0,1.2,0.1,1.7,0.4
	C78.5,3.6,78.9,3.9,79.2,4.4z"/>
<path fill="#650360" d="M87.2,6.8h-5.1c0.1,0.5,0.3,0.8,0.6,1.1c0.3,0.3,0.7,0.4,1.2,0.4c0.6,0,1.1-0.2,1.5-0.6l1.3,0.6
	c-0.3,0.5-0.7,0.8-1.2,1.1c-0.5,0.2-1,0.3-1.7,0.3c-1,0-1.8-0.3-2.4-0.9s-0.9-1.4-0.9-2.4c0-1,0.3-1.8,0.9-2.4c0.6-0.6,1.4-1,2.4-1
	c1,0,1.8,0.3,2.4,1c0.6,0.6,0.9,1.5,0.9,2.5L87.2,6.8z M85.6,5.5c-0.1-0.4-0.3-0.6-0.6-0.9c-0.3-0.2-0.7-0.3-1.1-0.3
	c-0.4,0-0.8,0.1-1.2,0.4c-0.2,0.2-0.4,0.4-0.6,0.8H85.6z"/>
<path fill="#650360" d="M45.4,10.7c1.2,0,2.3,0.4,3.1,1.3c0.9,0.9,1.3,2,1.3,3.2c0,1.3-0.4,2.3-1.3,3.2c-0.9,0.9-1.9,1.3-3.2,1.3
	c-1.3,0-2.4-0.4-3.2-1.3c-0.9-0.9-1.3-2-1.3-3.2c0-0.8,0.2-1.6,0.6-2.3c0.4-0.7,0.9-1.2,1.6-1.6S44.6,10.7,45.4,10.7z M45.4,12.3
	c-0.8,0-1.5,0.3-2,0.8s-0.8,1.3-0.8,2.1c0,1,0.3,1.7,1,2.3c0.5,0.4,1.1,0.6,1.8,0.6c0.8,0,1.4-0.3,2-0.8c0.5-0.6,0.8-1.3,0.8-2.1
	c0-0.8-0.3-1.5-0.8-2.1C46.9,12.6,46.2,12.3,45.4,12.3z"/>
<path fill="#650360" d="M53,13.1v0.7c0.3-0.3,0.6-0.5,0.9-0.6S54.7,13,55,13c0.8,0,1.5,0.3,2.1,0.9c0.6,0.6,0.9,1.4,0.9,2.4
	c0,0.9-0.3,1.7-0.9,2.4c-0.6,0.6-1.3,1-2.1,1c-0.4,0-0.7-0.1-1-0.2c-0.3-0.1-0.6-0.3-0.9-0.6v3h-1.6v-8.7C51.4,13.1,53,13.1,53,13.1
	z M54.7,14.4c-0.5,0-0.9,0.2-1.3,0.5c-0.3,0.3-0.5,0.8-0.5,1.3c0,0.6,0.2,1,0.5,1.4s0.8,0.5,1.3,0.5c0.5,0,0.9-0.2,1.2-0.5
	c0.3-0.4,0.5-0.8,0.5-1.4c0-0.5-0.2-1-0.5-1.3C55.6,14.6,55.2,14.4,54.7,14.4z"/>
<path fill="#650360" d="M59.7,10.8h1.6v2.4h0.9v1.4h-0.9v5h-1.6v-5h-0.8v-1.4h0.8V10.8z"/>
<path fill="#650360" d="M63.9,10.5c0.3,0,0.5,0.1,0.7,0.3c0.2,0.2,0.3,0.4,0.3,0.7c0,0.3-0.1,0.5-0.3,0.7s-0.4,0.3-0.7,0.3
	c-0.3,0-0.5-0.1-0.7-0.3c-0.2-0.2-0.3-0.5-0.3-0.7c0-0.3,0.1-0.5,0.3-0.7C63.4,10.6,63.6,10.5,63.9,10.5z M63.1,13.1h1.6v6.4h-1.6
	C63.1,19.5,63.1,13.1,63.1,13.1z"/>
<path fill="#650360" d="M69.3,13c0.6,0,1.2,0.1,1.7,0.5c0.5,0.3,0.9,0.7,1.2,1.2s0.4,1.1,0.4,1.7c0,0.6-0.1,1.2-0.4,1.7
	c-0.3,0.5-0.7,0.9-1.2,1.2c-0.5,0.3-1.1,0.4-1.7,0.4c-0.9,0-1.7-0.3-2.3-1c-0.6-0.6-1-1.4-1-2.4c0-1,0.4-1.8,1.1-2.5
	C67.8,13.3,68.5,13,69.3,13z M69.4,14.5c-0.5,0-0.9,0.2-1.2,0.5c-0.3,0.3-0.5,0.8-0.5,1.3c0,0.6,0.2,1,0.5,1.3
	c0.3,0.3,0.7,0.5,1.2,0.5s0.9-0.2,1.3-0.5s0.5-0.8,0.5-1.3s-0.2-1-0.5-1.3S69.9,14.5,69.4,14.5z"/>
<path fill="#650360" d="M74.2,13.1h1.6v0.7c0.4-0.3,0.7-0.5,1-0.6c0.3-0.1,0.6-0.2,0.9-0.2c0.6,0,1.2,0.2,1.6,0.7
	c0.4,0.4,0.6,0.9,0.6,1.7v4.2h-1.6v-2.8c0-0.8,0-1.3-0.1-1.5c-0.1-0.3-0.2-0.4-0.4-0.6s-0.4-0.2-0.6-0.2c-0.3,0-0.6,0.1-0.8,0.3
	c-0.2,0.2-0.4,0.5-0.5,0.9c0,0.2-0.1,0.6-0.1,1.3v2.6h-1.6V13.1z"/>
</svg>
