<?xml version="1.0" encoding="utf-8"?>
<!-- Generator: Adobe Illustrator 22.1.0, SVG Export Plug-In . SVG Version: 6.00 Build 0)  -->
<svg version="1.1" id="Layer_1" xmlns="http://www.w3.org/2000/svg" xmlns:xlink="http://www.w3.org/1999/xlink" x="0px" y="0px"
	 viewBox="0 0 310.5 105.5" enable-background="new 0 0 310.5 105.5" xml:space="preserve">
<polygon fill="#B1B3B6" points="212,89.5 213.6,89.5 213.6,88.1 208.9,88.1 208.9,89.5 210.4,89.5 210.4,94.1 212,94.1 "/>
<polygon fill="#B1B3B6" points="215.6,89.5 215.6,89.5 217.1,94.1 218.5,94.1 220,89.5 220.1,89.5 219.9,94.1 221.5,94.1 
	221.5,88.1 218.9,88.1 217.9,91.8 217.8,91.8 216.7,88.1 214.1,88.1 214.1,94.1 215.7,94.1 "/>
<g>
	<path fill="#B1B3B6" d="M10,70.3v-1.2c0-2.7,1.3-4.3,8.2-4.3h8c4.5,0,7.7,0.2,9.6,1.3c-1.7-1.9-5.2-2.2-10.8-2.2h-8
		c-6.9,0-8.2,1.7-8.2,4.3v1.2H4.5v0.9H10z"/>
	<path fill="#B1B3B6" d="M36,75.2c0.4,0.4,0.8,0.9,1.2,1.5h0.1v-0.5C36.9,75.8,36.4,75.4,36,75.2z"/>
	<path fill="#B1B3B6" d="M40,62.8c1.8,1.7,2.8,4.2,2.8,7.9v21.8h-4.3v0.9h5.5V71.6C43.9,67.2,42.5,64.5,40,62.8z"/>
	<path fill="#B1B3B6" d="M9.4,87.6c-0.7-0.8-0.8-1.9-0.8-3.3v-1c0-4.1,2-5.1,9.1-5.1H26c4.9,0,8.3,0.2,10.3,1.3
		c-1.6-1.9-5.4-2.2-11.5-2.2h-8.4c-7.1,0-9.1,1-9.1,5.1v1C7.4,85.4,7.8,86.8,9.4,87.6z"/>
	<path fill="#B1B3B6" d="M37.3,89.3h-0.1c-1.5,2.9-3.2,3.8-11.6,3.8H12.3c-3.1,0-5.4-0.5-7-1.5c1.6,1.6,4.2,2.4,8.1,2.4h13.2
		c6.6,0,9.1-0.5,10.6-2.2L37.3,89.3L37.3,89.3z"/>
</g>
<polygon fill="#B1B3B6" points="52.4,48.1 52.4,92.5 48.1,92.5 48.1,93.4 53.5,93.4 53.5,48.1 "/>
<g>
	<path fill="#B1B3B6" d="M74.2,98.4c-0.7-0.8-1.2-1.8-1.2-3.1v-0.9h-1.2C71.9,96.3,72.8,97.5,74.2,98.4z"/>
	<path fill="#B1B3B6" d="M92.2,63.9H81c-5.6,0-9.6,1.5-9.7,6.9v6c0,4.6,1,7.2,3.2,8.5c-1.5-1.5-2.1-3.9-2.1-7.6v-6
		c0.1-5.4,4.1-6.9,9.7-6.9h11.2c2.8,0,4.8,0.5,6.3,1.4C98.1,64.7,95.7,63.9,92.2,63.9z"/>
	<path fill="#B1B3B6" d="M90.8,91H79.5c-3.7,0-6.7-0.8-8.9-2.3c2.3,2.1,5.6,3.2,10,3.2h11.3c5.9,0,8.6-1.2,10-3.1V86h-0.1
		C100.7,89.1,98.4,91,90.8,91z"/>
	<path fill="#B1B3B6" d="M107.4,60.8v31.6c0,9.8-8.6,11.8-15.5,11.8H79.6c-4,0-6.8-0.9-8.8-2.2c2,1.8,5.1,3.1,9.9,3.1h12.4
		c6.8,0,15.5-2,15.5-11.8V60.8H107.4z"/>
	<path fill="#B1B3B6" d="M102.2,65.7h0.1v-1.4c-0.7-1.1-1.5-1.9-2.5-2.5C100.8,62.8,101.6,64,102.2,65.7z"/>
</g>
<g>
	<path fill="#B1B3B6" d="M134.4,63.9H133c-12.8,0-15.8,2.4-15.8,10.1v18.5h-4.3v0.9h5.5V74.9c0-7.7,2.9-10.1,15.8-10.1h1.4
		c4.6,0,7.5,0.6,9.2,1.6C143.3,64.8,140.3,63.9,134.4,63.9z"/>
	<path fill="#B1B3B6" d="M116.9,65.6h0.1c0.3-0.7,0.7-1.4,1-2v-2.7h-1.2V65.6z"/>
	<path fill="#B1B3B6" d="M148.9,62.6c2.2,2,3,4.8,3,7.8v22h-4.3v0.9h5.5v-22C153.1,67.9,152,64.7,148.9,62.6z"/>
</g>
<g>
	<path fill="#B1B3B6" d="M172.8,64.8h8c4.2,0,6.9,0.7,8.7,1.8c-1.6-1.6-4.6-2.7-9.8-2.7h-8c-8.7,0-10.7,1.4-11.2,8.8h1.3
		C162.2,66.1,164.5,64.8,172.8,64.8z"/>
	<path fill="#B1B3B6" d="M180.1,93h-10c-3.7,0-7.6-0.4-10.6-2.3c3,2.8,7.6,3.3,11.8,3.3h10c10.2,0,16.4-2.2,16.4-9.7v-0.6h-1.2
		C196.4,90.8,190.2,93,180.1,93z"/>
	<path fill="#B1B3B6" d="M192.9,63c2.3,2.1,3.7,5.5,3.7,10.6v3.6h-36.2v2c0,3.8,1,6.2,3.3,7.6c-1.4-1.4-2.1-3.6-2.1-6.7v-2h36.2
		v-3.6C197.7,68.6,195.9,65.1,192.9,63z"/>
</g>
<g>
	<path fill="#B1B3B6" d="M205.3,64.7h0.1c0.3-0.6,0.7-1.2,1-1.7v-2.1h-1.2V64.7z"/>
	<path fill="#B1B3B6" d="M231.5,62.3c1.9,1.8,2.7,4.6,2.7,8.4v3.9h-3.9v0.9h5.1v-3.9C235.4,67.1,234.3,64.1,231.5,62.3z"/>
	<path fill="#B1B3B6" d="M217.7,63.9h-3.4c-5.8,0-8.6,3.7-8.6,7.9v20.7h-4.3v0.9h5.5V72.7c0-4.2,2.8-7.9,8.6-7.9h3.4
		c4.2,0,6.9,0.2,8.7,1.2C226,64.3,223.1,63.9,217.7,63.9z"/>
</g>
<g>
	<polygon fill="#B1B3B6" points="159.1,29.2 160,27.1 158.1,4.1 157,4.1 	"/>
	<polygon fill="#B1B3B6" points="188,39.5 189.4,39.5 195.7,4.1 194.4,4.1 	"/>
	<polygon fill="#B1B3B6" points="107,30.3 107.1,28.1 99,4.1 98.1,4.1 	"/>
	<polygon fill="#B1B3B6" points="280.8,30.3 281.7,27.6 279.6,4.1 278.5,4.1 	"/>
	<polygon fill="#B1B3B6" points="215.6,30.8 217.2,30.8 224.6,15.4 224.5,12.2 	"/>
	<polygon fill="#B1B3B6" points="241.8,39.5 242.9,39.5 238.1,4.1 237.1,4.1 	"/>
	<polygon fill="#B1B3B6" points="124.3,4.1 121.8,47.1 104.3,47.1 104.7,48 123,48 125.6,4.1 	"/>
	<polygon fill="#B1B3B6" points="93.9,20 92.2,47.1 77.8,47.1 77.7,48 93.3,48 95,23 	"/>
	<polygon fill="#B1B3B6" points="270.3,20 261.8,47.1 226.2,47.1 226.2,48 262.9,48 270.7,23.5 	"/>
	<polygon fill="#B1B3B6" points="304.7,4.1 291.4,47.1 274.2,47.1 274.2,48 292.6,48 306.2,4.1 	"/>
	<polygon fill="#B1B3B6" points="225,39.4 211.7,39.4 208.3,47.1 172.4,47.1 172.2,48 209.5,48 212.9,40.3 225,40.3 	"/>
	<polygon fill="#B1B3B6" points="176.9,14.4 162,47.1 151,47.1 151.1,48 163.1,48 175.9,20.1 	"/>
	<polygon fill="#B1B3B6" points="146.9,14.4 140.8,47.1 126.5,47.1 126.4,48 142,48 147.3,19.2 	"/>
</g>
<path fill="#F0A617" d="M36.4,91.7h5.5V69.9c0-9.7-6.9-11.2-17.1-11.2h-8.7C6.2,58.6,2.5,61,2.5,67v1.6H8v-1.1
	c0-2.7,1.3-4.3,8.2-4.3h8c8.4,0,12.1,0.8,12.1,6.6v6.1h-0.1c-1.9-3.1-4.5-3.9-11.6-3.9h-8.8C6.2,72,1,72.9,1,80.3v2.2
	c0,6.1,2.2,9.8,10.5,9.8h13.2c8.4,0,10.2-0.8,11.6-3.8h0.1V91.7L36.4,91.7z M36.4,82.9c0,4.1-3.8,4.8-13.8,4.8h-7.3
	c-7.5,0-8.8-1.5-8.8-5.2v-1c0-4.1,2-5.1,9.1-5.1H24c8.4,0,12.4,0.6,12.4,5V82.9L36.4,82.9z"/>
<polygon fill="#F0A617" points="46,91.7 51.5,91.7 51.5,46.4 46,46.4 "/>
<polygon fill="#988691" points="55.1,91.7 63.8,91.7 63.8,50.3 55.1,50.3 "/>
<path fill="#F0A617" d="M101.1,77c0,5.6-2.9,8.8-10.7,8.8H79.7c-6.7,0-9.4-2.3-9.3-9.8v-6c0.1-5.4,4.1-6.9,9.7-6.9h11.2
	c7.7,0,9.9,3.9,9.8,10L101.1,77L101.1,77z M106.6,59.1h-5.1v5.8h-0.1c-1.7-5.3-5.9-6.3-10-6.3H79.6c-6.1,0-14.7,1.3-14.7,13.2v5.4
	c0,8.4,4.5,13,13.7,13h11.3c7.7,0,9.9-2,11-5h0.1V90c0,8.8-4.3,8.9-15.2,8.9h-5.4c-5.1,0-9.5-1.2-9.5-5.4v-0.9h-5.1v1.1
	c0,4.2,2.7,9.7,12.8,9.7h12.4c6.8,0,15.5-2,15.5-11.8L106.6,59.1L106.6,59.1z"/>
<path fill="#F0A617" d="M110.9,91.7h5.5V73.2c0-7.7,2.9-10.1,15.8-10.1h1.4c10.7,0,12,3.1,12,7.9v20.7h5.5v-22c0-5.9-3.3-11-13.5-11
	h-8.2c-6.8,0-11.1,1.1-13.2,6.1H116v-5.6h-5.1L110.9,91.7L110.9,91.7z"/>
<path fill="#F0A617" d="M190.2,71.9h-30.7c0.5-7.4,2.6-8.8,11.2-8.8h8c8.9,0,11.4,3.3,11.4,6.6V71.9L190.2,71.9z M154,78.9
	c0,12,8.2,13.3,15.3,13.3h10c10.2,0,16.4-2.2,16.4-9.7v-0.6h-5.5c-0.3,5-3.1,5.9-10,5.9h-7.5c-9.6,0-13.2-1.9-13.2-9.3v-2h36.2v-3.6
	c0-11.6-7.1-14.1-16.9-14.1H170c-7.8,0-16,1.3-16,13.2L154,78.9L154,78.9z"/>
<path fill="#F0A617" d="M199.3,91.7h5.5V71c0-4.2,2.8-7.9,8.6-7.9h3.4c9.8,0,11.4,1.3,11.4,9.3v1.4h5.1v-3.9c0-8-3.4-11.3-13.7-11.3
	h-5.2c-3.8,0-7.9,1-10,5.2h-0.1v-4.7h-5.1L199.3,91.7L199.3,91.7z"/>
<path fill="#F0A617" d="M75.7,46.3l2.6-43.9h18.7l9.2,27.1l1.8-27.1h15.6L121,46.3h-18.3l-9.6-27.1l-1.8,27.1H75.7L75.7,46.3z
	 M224.1,30l-0.4-18.6L214.8,30H224.1L224.1,30z M187.2,38.7h6.9l21-36.3h21l4.8,36.3h6.7l11.3-36.3h18.7l2.4,27.1l8.6-27.1h15.6
	l-13.6,43.9h-18.3l-2.7-27.1l-8.6,27.1h-36.7l0-7.7h-13.3l-3.4,7.7h-37.3l5.9-32.7l-14.9,32.7h-12l-3-32.7l-6,32.7h-15.6l7.9-43.9
	h23.9l2.1,26l11.6-26h23.9L187.2,38.7L187.2,38.7z"/>
<polygon fill="#988691" points="55.1,46.5 55.1,12 71.9,12 71.9,46.5 "/>
<polygon fill="#988691" points="55.1,9.5 55.1,1 71.9,1 71.9,9.5 "/>
<polygon fill="#988691" points="310.3,56.9 310.3,50.3 55.2,50.3 55.2,56.9 "/>
</svg>
