<?xml version="1.0" encoding="utf-8"?>
<!-- Generator: Adobe Illustrator 19.1.0, SVG Export Plug-In . SVG Version: 6.00 Build 0)  -->
<svg version="1.1" id="Layer_1" xmlns="http://www.w3.org/2000/svg" xmlns:xlink="http://www.w3.org/1999/xlink" x="0px" y="0px"
	 viewBox="0 0 576.9 177.6" style="enable-background:new 0 0 576.9 177.6;" xml:space="preserve">
<style type="text/css">
	.st0{fill:none;}
	.st1{fill:#3e3934;}
	.st2{fill:#6e6b67;}
	.st4{fill:#9e9c99;}
	.st2{fill:#9e9c99;}
	.st3{fill:#6e6b67;}
	.st5{font-family:'Avenir-Medium';}
	.st6{font-size:31.225px;}
</style>
<rect x="148.1" y="26.7" class="st0" width="294.2" height="119.3"/>
<g>
	<path class="st1" d="M511.1,45.2h10.6l0.2,4.4c1-1.2,5-5.7,12.2-5.7c11.6,0,18,7.2,18,19.7v29.2h-11V63.9c0-6.4-3.9-10.1-9.5-10.1
		c-5.5,0-9.4,3.7-9.4,10.1v28.8h-11V45.2z M418.3,92.8h-11V23.6h11V92.8z M441.8,92.8h-11V45.2h11V92.8z M436.3,22.4
		c-3.8,0-6.9,3.1-6.9,6.9c0,3.8,3.1,6.9,6.9,6.9c3.8,0,6.9-3.1,6.9-6.9C443.2,25.5,440.1,22.4,436.3,22.4 M384,45.2h10.9v47.6H384
		l-0.2-5c-2,2-7.3,6.3-14.7,6.3c-13,0-22.6-10.4-22.6-25.1c0-15.5,10.4-25.1,22.6-25.1c8.5,0,13.3,4.6,14.7,6.3L384,45.2z M357.7,69
		c0,9.1,5.6,15.2,13.4,15.2c7.1,0,13.4-5.1,13.4-15.2c0-9.8-6.1-15.2-13.4-15.2C363,53.7,357.7,60.2,357.7,69 M488.2,69
		c0-9.9-6.3-15.2-13.4-15.2c-8.5,0-13.4,6.9-13.4,15.2c0,8.8,5.3,15.2,13.4,15.2C482.3,84.2,488.2,78.6,488.2,69 M498.5,88
		c0,20.4-11.9,27.2-26,27.2c-9.4,0-15-2.8-17-3.8l2.7-9.5c1.2,0.6,6.4,3.7,14.2,3.7c8.2,0,15.1-5.2,15.1-14.7v-3.3
		c-0.9,0.9-5.5,6.4-14.9,6.4c-12.8,0-22.5-10.3-22.5-25.1c0-14.2,9.1-25.1,22.5-25.1c9.2,0,13.8,5.2,14.8,6.3l0.1-5h10.9V88z"/>
	<path class="st1" d="M246.8,45.2l12.3,28.6l12.3-28.6h12.2L259,96l-24.4-50.9H246.8z M308.3,81.8c2.7,1.7,7.9,3.6,12.3,3.6
		c5.3,0,7.9-2.3,7.9-5.4c0-3.3-2-5-7.9-7.2c-9.4-3.2-13.1-8.1-13.1-13.8c0-8.5,6.7-15,17.9-15c5.3,0,10,1.3,12.9,2.9l-2.4,8.5
		c-2-1.2-6-2.8-10.2-2.8c-4.4,0-6.9,2.2-6.9,5.1c0,3.1,2.3,4.7,8.4,6.9c8.8,3.1,12.6,7.5,12.7,14.6c0,8.8-6.5,15-19.3,15
		c-5.8,0-11.1-1.4-14.7-3.4L308.3,81.8z M179,92.8h-11V45.2h11V92.8z M173.5,22.4c-3.8,0-6.9,3.1-6.9,6.9c0,3.8,3.1,6.9,6.9,6.9
		c3.8,0,6.9-3.1,6.9-6.9C180.4,25.5,177.3,22.4,173.5,22.4 M298.5,92.8h-11V45.2h11V92.8z M293,22.4c-3.8,0-6.9,3.1-6.9,6.9
		c0,3.8,3.1,6.9,6.9,6.9c3.8,0,6.9-3.1,6.9-6.9C299.9,25.5,296.8,22.4,293,22.4 M191.4,45.2H202l0.2,4.4c1-1.2,4.7-5.7,12.3-5.7
		c10.6,0,17.8,7.2,17.8,19.7v29.2h-11V64.1c0-6.1-4-10.3-9.5-10.3c-5.5,0-9.4,4.1-9.4,10.3v28.7h-11V45.2z"/>
	<path class="st2" d="M84,42.4c4.8,2.7,8.8,6.7,11.5,11.5c-8.7,5.3-16.7,5.2-16.7,5.2S78.6,51.2,84,42.4 M95.5,84
		c-8.7-5.3-16.7-5.2-16.7-5.2s-0.1,7.9,5.2,16.7C88.8,92.8,92.8,88.8,95.5,84 M82.8,69c0,0,5.5,5.7,15.5,8.1
		c0.7-2.6,1.1-5.3,1.1-8.1c0-2.8-0.4-5.5-1.1-8.1C88.4,63.2,82.8,69,82.8,69 M55.1,69c0,0-5.5-5.7-15.5-8.1
		c-0.7,2.6-1.1,5.3-1.1,8.1c0,2.8,0.4,5.5,1.1,8.1C49.6,74.7,55.1,69,55.1,69 M59.2,78.8c0,0-8-0.1-16.7,5.2
		c2.7,4.8,6.7,8.8,11.5,11.5C59.3,86.7,59.2,78.8,59.2,78.8 M59.2,59.2c0,0,0.1-7.9-5.2-16.7c-4.8,2.7-8.8,6.7-11.5,11.5
		C51.2,59.3,59.2,59.2,59.2,59.2 M69,82.8c0,0-5.7,5.5-8.2,15.5c2.6,0.7,5.3,1.1,8.2,1.1c2.8,0,5.5-0.4,8.1-1.1
		C74.7,88.4,69,82.8,69,82.8 M69,55.1c0,0,5.7-5.5,8.1-15.5c-2.6-0.7-5.3-1.1-8.1-1.1c-2.8,0-5.5,0.4-8.2,1.1
		C63.3,49.6,69,55.1,69,55.1"/>
	<path class="st1" d="M96.2,29.9c10.1-6.9,21.6-9.7,21.6-9.7s-2.9,11.5-9.8,21.6C104.8,37.2,100.8,33.2,96.2,29.9 M77.3,22.1
		C75.1,10.1,69,0,69,0s-6.1,10.1-8.4,22.1c2.7-0.5,5.5-0.7,8.4-0.7C71.8,21.4,74.6,21.7,77.3,22.1 M96.2,108
		c10.1,6.9,21.6,9.8,21.6,9.8s-2.9-11.5-9.8-21.6C104.8,100.8,100.8,104.8,96.2,108 M22.2,60.6C10.1,62.9,0,69,0,69
		s10.1,6.1,22.2,8.3c-0.5-2.7-0.7-5.5-0.7-8.3C21.4,66.1,21.7,63.3,22.2,60.6 M115.8,77.3c12-2.3,22.1-8.3,22.1-8.3
		s-10.1-6.1-22.1-8.3c0.5,2.7,0.7,5.5,0.7,8.3C116.5,71.8,116.3,74.6,115.8,77.3 M41.8,29.9c-10.1-6.9-21.6-9.7-21.6-9.7
		s2.8,11.5,9.7,21.6C33.2,37.2,37.2,33.2,41.8,29.9 M60.6,115.8c2.3,12,8.4,22.1,8.4,22.1s6.1-10.1,8.3-22.1
		c-2.7,0.5-5.5,0.7-8.3,0.7C66.1,116.5,63.3,116.3,60.6,115.8 M30,96.2c-6.9,10.1-9.7,21.6-9.7,21.6s11.5-2.8,21.6-9.8
		C37.2,104.8,33.2,100.8,30,96.2"/>
	<path class="st3" d="M78.2,107.3c0,2.9-0.3,5.7-0.8,8.5c-2.7,0.5-5.5,0.7-8.3,0.7c-2.9,0-5.7-0.3-8.4-0.7c-0.5-2.8-0.8-5.6-0.8-8.5
		c0-3.3,0.4-6.3,1.1-9c2.6,0.7,5.3,1.1,8.2,1.1c2.8,0,5.5-0.4,8.1-1.1C77.8,101,78.2,104,78.2,107.3 M98.3,60.8
		c0.7,2.6,1.1,5.3,1.1,8.1c0,2.8-0.4,5.5-1.1,8.1c2.7,0.6,5.7,1.1,9,1.1c2.8,0,5.7-0.3,8.5-0.9c0.5-2.7,0.7-5.5,0.7-8.3
		c0-2.8-0.2-5.6-0.7-8.3c-2.7-0.5-5.6-0.8-8.5-0.8C104,59.8,101,60.2,98.3,60.8 M95.5,84c-2.7,4.8-6.7,8.8-11.5,11.5
		c1.4,2.4,3.3,4.8,5.6,7.1c2,2,4.3,3.8,6.6,5.4c4.6-3.2,8.6-7.2,11.8-11.8c-1.6-2.3-3.4-4.6-5.4-6.6C100.3,87.2,97.9,85.4,95.5,84
		 M39.6,77.1c-0.7-2.6-1.1-5.3-1.1-8.1c0-2.8,0.4-5.5,1.1-8.1c-2.7-0.7-5.7-1.1-9-1.1c-2.8,0-5.7,0.3-8.5,0.8
		c-0.5,2.7-0.7,5.5-0.7,8.3c0,2.9,0.3,5.7,0.7,8.3c2.8,0.5,5.6,0.9,8.5,0.9C33.9,78.2,36.9,77.7,39.6,77.1 M84,42.4
		c4.8,2.7,8.8,6.7,11.5,11.5c2.4-1.4,4.8-3.3,7.1-5.6c2-2,3.8-4.3,5.4-6.6c-3.2-4.6-7.2-8.6-11.8-11.8c-2.3,1.6-4.6,3.4-6.6,5.4
		C87.2,37.7,85.4,40.1,84,42.4 M60.8,39.6c2.6-0.7,5.3-1.1,8.2-1.1c2.8,0,5.5,0.4,8.1,1.1c0.7-2.7,1-5.7,1-9c0-2.9-0.3-5.7-0.8-8.5
		c-2.7-0.5-5.5-0.7-8.3-0.7c-2.9,0-5.7,0.3-8.4,0.7c-0.5,2.8-0.8,5.6-0.8,8.5C59.8,33.9,60.2,36.9,60.8,39.6 M42.5,54
		c2.7-4.8,6.7-8.8,11.5-11.5c-1.4-2.3-3.3-4.8-5.6-7.1c-2-2-4.3-3.8-6.6-5.4c-4.6,3.2-8.6,7.2-11.8,11.8c1.6,2.3,3.4,4.6,5.4,6.6
		C37.7,50.7,40.1,52.5,42.5,54 M54,95.5c-4.8-2.7-8.8-6.7-11.5-11.5c-2.4,1.4-4.8,3.3-7.1,5.6c-2,2-3.8,4.3-5.4,6.6
		c3.2,4.6,7.2,8.6,11.8,11.8c2.3-1.6,4.6-3.4,6.6-5.4C50.7,100.3,52.5,97.8,54,95.5"/>
	<path class="st4" d="M569.7,42.5c3.9,0,7.2,3.1,7.2,7.3c0,4.1-3.3,7.2-7.2,7.2c-4,0-7.2-3.1-7.2-7.2
		C562.5,45.6,565.7,42.5,569.7,42.5 M569.7,55.9c3.3,0,6-2.7,6-6.2s-2.6-6.2-6-6.2c-3.3,0-6,2.7-6,6.2S566.4,55.9,569.7,55.9
		 M566.9,45.5h3.2c2,0,3,0.8,3,2.4c0,1.5-1,2.2-2.2,2.3l2.4,3.7h-1.4l-2.3-3.6h-1.4V54h-1.3V45.5z M568.2,49.3h1.3
		c1.2,0,2.3-0.1,2.3-1.4c0-1.2-1-1.3-1.9-1.3h-1.7V49.3z"/>
</g>
<!-- <text transform="matrix(1 0 0 1 166.1883 164.8074)" class="st4 st5 st6">Science in Every Smile</text> -->
</svg>
