<?xml version="1.0" encoding="utf-8"?>
<!-- Generator: Adobe Illustrator 22.1.0, SVG Export Plug-In . SVG Version: 6.00 Build 0)  -->
<svg version="1.1" id="Layer_1" xmlns="http://www.w3.org/2000/svg" xmlns:xlink="http://www.w3.org/1999/xlink" x="0px" y="0px"
	 viewBox="0 0 1129.8 550.3" enable-background="new 0 0 1129.8 550.3" xml:space="preserve">
<polygon fill="#5DAADE" points="1128.7,550.3 564.9,481.3 0,550.3 0,0 1128.7,0 "/>
<polygon fill="#5DAADE" points="12.8,12.8 1115.9,12.8 1115.9,535.9 564.9,468.5 12.8,535.9 "/>
<path fill="#7BC1EA" d="M1111.7,17v514.1l-545.7-66.8l-1-0.1l-1,0.1L17,531.1V17H1111.7 M1120.2,8.5H8.5v532.2l556.4-68l555.3,68
	L1120.2,8.5L1120.2,8.5z"/>
<rect x="32.7" y="17" fill="#7BC1EA" width="8.5" height="512"/>
<rect x="66.6" y="17" fill="#7BC1EA" width="8.5" height="512"/>
<polygon fill="#7BC1EA" points="100.5,527.5 109,526.5 109,17 100.5,17 "/>
<polygon fill="#7BC1EA" points="134.4,523.4 142.9,522.3 142.9,17 134.4,17 "/>
<polygon fill="#7BC1EA" points="168.2,519.2 176.7,518.2 176.7,17 168.2,17 "/>
<polygon fill="#7BC1EA" points="202.1,515.1 210.6,514 210.6,17 202.1,17 "/>
<polygon fill="#7BC1EA" points="236,510.9 244.5,509.9 244.5,17 236,17 "/>
<polygon fill="#7BC1EA" points="269.8,506.8 278.3,505.8 278.3,17 269.8,17 "/>
<polygon fill="#7BC1EA" points="303.7,502.7 312.2,501.6 312.2,17 303.7,17 "/>
<polygon fill="#7BC1EA" points="337.6,498.5 346.1,497.5 346.1,17 337.6,17 "/>
<polygon fill="#7BC1EA" points="371.5,494.4 380,493.4 380,17 371.5,17 "/>
<polygon fill="#7BC1EA" points="405.3,490.3 413.8,489.2 413.8,17 405.3,17 "/>
<polygon fill="#7BC1EA" points="439.2,486.1 447.7,485.1 447.7,17 439.2,17 "/>
<polygon fill="#7BC1EA" points="473.1,482 481.6,480.9 481.6,17 473.1,17 "/>
<polygon fill="#7BC1EA" points="506.9,477.9 515.4,476.8 515.4,17 506.9,17 "/>
<polygon fill="#7BC1EA" points="540.8,473.7 549.3,472.7 549.3,17 540.8,17 "/>
<polygon fill="#7BC1EA" points="574.7,472 583.2,473 583.2,17 574.7,17 "/>
<polygon fill="#7BC1EA" points="608.5,476.1 617.1,477.2 617.1,17 608.5,17 "/>
<polygon fill="#7BC1EA" points="642.4,480.3 650.9,481.3 650.9,17 642.4,17 "/>
<polygon fill="#7BC1EA" points="676.3,484.4 684.8,485.4 684.8,17 676.3,17 "/>
<polygon fill="#7BC1EA" points="710.2,488.6 718.7,489.6 718.7,17 710.2,17 "/>
<polygon fill="#7BC1EA" points="744,492.7 752.5,493.7 752.5,17 744,17 "/>
<polygon fill="#7BC1EA" points="777.9,496.8 786.4,497.9 786.4,17 777.9,17 "/>
<polygon fill="#7BC1EA" points="811.8,501 820.3,502 820.3,17 811.8,17 "/>
<polygon fill="#7BC1EA" points="845.6,505.1 854.2,506.2 854.2,17 845.6,17 "/>
<polygon fill="#7BC1EA" points="879.5,509.3 888,510.3 888,17 879.5,17 "/>
<polygon fill="#7BC1EA" points="913.4,513.4 921.9,514.5 921.9,17 913.4,17 "/>
<polygon fill="#7BC1EA" points="947.3,517.6 955.8,518.6 955.8,17 947.3,17 "/>
<polygon fill="#7BC1EA" points="981.1,521.7 989.6,522.8 989.6,17 981.1,17 "/>
<polygon fill="#7BC1EA" points="1015,525.9 1023.5,526.9 1023.5,17 1015,17 "/>
<rect x="1048.9" y="17" fill="#7BC1EA" width="8.5" height="512"/>
<rect x="1082.7" y="17" fill="#7BC1EA" width="8.5" height="512"/>
<path fill="#DEBC64" d="M387.9,108.5c0,0,23,95.9-22.6,177.9c-45.7,82-136.5,120.8-136.5,120.8s-84.1-40.5-130.6-121.6
	s-28.5-177-28.5-177s58.1-38,158.7-38C328.9,70.5,387.9,108.5,387.9,108.5z"/>
<path fill="#473A17" d="M112.6,196.5l-3.8,13.7H96.4l16.2-53.3h15.8l16.6,53.3h-13l-4.1-13.7L112.6,196.5L112.6,196.5z M126.1,187.5
	l-3.3-11.3c-0.9-3.2-1.9-7.1-2.7-10.3h-0.2c-0.8,3.2-1.6,7.2-2.4,10.3l-3.2,11.3H126.1z"/>
<path fill="#473A17" d="M156,210.2l-12.6-53.3h12.9l4,21.9c1.2,6.4,2.3,13.3,3.2,18.6h0.2c0.9-5.8,2.1-12.2,3.5-18.8l4.5-21.7h12.8
	l4.3,22.4c1.2,6.2,2.1,11.9,2.8,17.9h0.2c0.8-5.9,2-12.2,3.1-18.6l4.3-21.7h12.2l-13.7,53.3h-13l-4.5-22.9c-1-5.4-1.9-10.4-2.5-16.4
	h-0.2c-0.9,6-1.8,11.1-3.1,16.4l-5.1,22.9L156,210.2L156,210.2z"/>
<path fill="#473A17" d="M225.6,196.5l-3.8,13.7h-12.4l16.2-53.3h15.8l16.6,53.3h-13l-4.1-13.7L225.6,196.5L225.6,196.5z
	 M239.2,187.5l-3.3-11.3c-0.9-3.2-1.9-7.1-2.7-10.3H233c-0.8,3.2-1.6,7.2-2.4,10.3l-3.2,11.3H239.2z"/>
<path fill="#473A17" d="M265.1,157.6c3.9-0.6,9.6-1.1,16-1.1c7.9,0,13.4,1.2,17.2,4.2c3.2,2.5,5,6.3,5,11.2c0,6.7-4.8,11.4-9.4,13
	v0.2c3.7,1.5,5.8,5,7.1,9.9c1.7,6.1,3.2,13,4.3,15.1H293c-0.8-1.6-2.1-5.8-3.6-12.4c-1.5-6.7-3.8-8.5-8.8-8.5H277v20.9h-11.9
	L265.1,157.6L265.1,157.6z M277,180.5h4.7c6,0,9.6-3,9.6-7.7c0-4.8-3.3-7.3-8.8-7.3c-2.9,0-4.6,0.2-5.5,0.4V180.5z"/>
<path fill="#473A17" d="M311.9,157.7c4.4-0.7,10.2-1.2,16.2-1.2c10.2,0,16.8,1.9,21.9,5.7c5.5,4.1,9,10.7,9,20.1
	c0,10.2-3.7,17.2-8.8,21.6c-5.6,4.7-14.2,6.9-24.6,6.9c-6.2,0-10.7-0.4-13.7-0.8L311.9,157.7L311.9,157.7z M323.9,201.1
	c1,0.2,2.8,0.2,4.2,0.2c11,0.1,18.2-5.9,18.2-18.6c0-11.1-6.5-16.9-16.9-16.9c-2.6,0-4.4,0.2-5.5,0.5L323.9,201.1L323.9,201.1z"/>
<path fill="#FFFFFF" d="M436.8,147.9v-4.8l6.1-6c14.8-14.1,21.5-21.5,21.5-30.3c0-5.9-2.8-11.3-11.4-11.3c-5.3,0-9.6,2.7-12.3,4.9
	l-2.5-5.5c3.9-3.3,9.7-5.9,16.3-5.9c12.5,0,17.7,8.5,17.7,16.8c0,10.7-7.7,19.3-19.9,31.1l-4.5,4.3v0.2h25.9v6.5L436.8,147.9
	L436.8,147.9z"/>
<path fill="#FFFFFF" d="M521,118.3c0,19.7-7.4,30.5-20.1,30.5c-11.3,0-19-10.6-19.2-29.7c0-19.5,8.5-30.1,20.2-30.1
	C513.9,89.1,521,99.9,521,118.3z M489.5,119.2c0,15,4.6,23.6,11.7,23.6c7.9,0,11.7-9.3,11.7-24.1c0-14.2-3.6-23.6-11.7-23.6
	C494.5,95.1,489.5,103.5,489.5,119.2z"/>
<path fill="#FFFFFF" d="M545.1,97.3h-0.2l-10.1,5.4l-1.5-6L546,90h6.7v57.9h-7.6L545.1,97.3L545.1,97.3z"/>
<path fill="#FFFFFF" d="M481.4,232c-2.8,1.4-8.5,2.8-15.8,2.8c-16.9,0-29.5-10.7-29.5-30.4c0-18.9,12.7-31.5,31.3-31.5
	c7.4,0,12.2,1.6,14.2,2.7l-2,6.3c-2.8-1.4-7-2.5-12-2.5c-14.1,0-23.4,9-23.4,24.7c0,14.8,8.5,24.1,23,24.1c4.8,0,9.6-1,12.7-2.5
	L481.4,232z"/>
<path fill="#FFFFFF" d="M525.9,222c0,4.5,0.1,8.5,0.4,11.8h-6.9l-0.4-7h-0.2c-2,3.5-6.6,8-14.2,8c-6.8,0-14.9-3.8-14.9-18.9v-25.2
	h7.8v23.8c0,8.2,2.6,13.8,9.6,13.8c5.3,0,8.9-3.6,10.3-7.2c0.4-1.1,0.7-2.5,0.7-4v-26.3h7.8V222L525.9,222z"/>
<path fill="#FFFFFF" d="M537.8,226c2.4,1.4,6.5,3,10.4,3c5.6,0,8.3-2.8,8.3-6.4c0-3.7-2.2-5.7-7.9-7.8c-7.8-2.8-11.5-7-11.5-12.2
	c0-6.9,5.7-12.6,14.9-12.6c4.4,0,8.2,1.2,10.5,2.7l-1.9,5.7c-1.7-1.1-4.8-2.6-8.8-2.6c-4.6,0-7.1,2.7-7.1,5.9c0,3.6,2.5,5.2,8.1,7.4
	c7.4,2.8,11.3,6.5,11.3,12.9c0,7.7-6,13-16,13c-4.7,0-9.1-1.2-12.1-3L537.8,226z"/>
<path fill="#FFFFFF" d="M583.5,180.5v10.3h11.2v6h-11.2V220c0,5.3,1.5,8.4,5.9,8.4c2.1,0,3.4-0.2,4.5-0.5l0.4,6
	c-1.5,0.5-3.9,1.1-6.9,1.1c-3.6,0-6.6-1.2-8.5-3.3c-2.1-2.4-3-6.2-3-11.3v-23.5h-6.7v-6h6.7v-8L583.5,180.5z"/>
<path fill="#FFFFFF" d="M642,212c0,15.9-11.1,22.9-21.4,22.9c-11.6,0-20.6-8.5-20.6-22.2c0-14.3,9.5-22.8,21.4-22.8
	C633.6,189.9,642,198.9,642,212z M607.9,212.4c0,9.4,5.3,16.6,13,16.6c7.5,0,13.1-7,13.1-16.7c0-7.3-3.6-16.5-12.9-16.5
	C611.9,195.8,607.9,204.3,607.9,212.4z"/>
<path fill="#FFFFFF" d="M651.9,202.5c0-4.5-0.2-8.1-0.4-11.7h6.9l0.4,7h0.3c2.4-4.1,6.4-7.9,13.6-7.9c5.8,0,10.2,3.6,12.1,8.6h0.2
	c1.3-2.5,3.1-4.3,4.9-5.6c2.6-2,5.3-3,9.4-3c5.8,0,14.2,3.7,14.2,18.7v25.3h-7.7v-24.3c0-8.4-3.1-13.3-9.3-13.3
	c-4.5,0-7.9,3.3-9.3,7c-0.4,1.2-0.6,2.5-0.6,3.9v26.6h-7.7v-25.8c0-6.9-3-11.7-9-11.7c-4.8,0-8.5,3.9-9.7,7.8
	c-0.4,1.1-0.6,2.5-0.6,3.8v25.9h-7.7L651.9,202.5L651.9,202.5L651.9,202.5z"/>
<path fill="#FFFFFF" d="M730.5,213.8c0.2,10.6,6.9,15,14.8,15c5.6,0,9.1-1,11.9-2.2l1.4,5.6c-2.8,1.2-7.6,2.8-14.4,2.8
	c-13.3,0-21.2-8.8-21.2-21.8c0-13,7.7-23.1,20.2-23.1c14.2,0,17.8,12.3,17.8,20.2c0,1.6-0.1,2.8-0.3,3.6L730.5,213.8L730.5,213.8z
	 M753.4,208.2c0.1-4.9-2-12.6-10.9-12.6c-8,0-11.4,7.2-12,12.6H753.4z"/>
<path fill="#FFFFFF" d="M770.7,204.2c0-5.1-0.1-9.4-0.4-13.4h6.9l0.4,8.5h0.3c2-5.8,6.8-9.4,12-9.4c0.8,0,1.4,0.1,2.1,0.2v7.4
	c-0.8-0.2-1.6-0.2-2.7-0.2c-5.5,0-9.4,4.1-10.5,10c-0.2,1.1-0.3,2.4-0.3,3.6v23h-7.8L770.7,204.2L770.7,204.2z"/>
<path fill="#FFFFFF" d="M817.9,224.4c3.5,2.2,8.5,3.9,13.8,3.9c7.9,0,12.5-4.2,12.5-10.2c0-5.5-3.2-8.8-11.3-11.8
	c-9.8-3.6-15.8-8.7-15.8-17.1c0-9.3,7.7-16.3,19.4-16.3c6.1,0,10.6,1.4,13.2,2.9l-2.1,6.3c-1.9-1.2-5.9-2.8-11.3-2.8
	c-8.2,0-11.3,4.9-11.3,9c0,5.6,3.7,8.4,11.9,11.6c10.1,3.9,15.2,8.8,15.2,17.6c0,9.3-6.8,17.4-20.9,17.4c-5.8,0-12.1-1.8-15.3-3.9
	L817.9,224.4z"/>
<path fill="#FFFFFF" d="M867.4,213.8c0.2,10.6,6.9,15,14.8,15c5.6,0,9.1-1,11.9-2.2l1.4,5.6c-2.8,1.2-7.6,2.8-14.4,2.8
	c-13.3,0-21.2-8.8-21.2-21.8c0-13,7.7-23.1,20.2-23.1c14.2,0,17.8,12.3,17.8,20.2c0,1.6-0.1,2.8-0.3,3.6L867.4,213.8L867.4,213.8z
	 M890.4,208.2c0.1-4.9-2-12.6-10.9-12.6c-8,0-11.4,7.2-12,12.6H890.4z"/>
<path fill="#FFFFFF" d="M907.7,204.2c0-5.1-0.1-9.4-0.4-13.4h6.9l0.4,8.5h0.3c2-5.8,6.8-9.4,12-9.4c0.8,0,1.4,0.1,2.1,0.2v7.4
	c-0.8-0.2-1.6-0.2-2.7-0.2c-5.5,0-9.4,4.1-10.5,10c-0.2,1.1-0.3,2.4-0.3,3.6v23h-7.8L907.7,204.2L907.7,204.2z"/>
<path fill="#FFFFFF" d="M942,190.8l8.5,24.1c1.4,4,2.6,7.6,3.5,11.1h0.3c1-3.6,2.2-7.1,3.6-11.1l8.4-24.1h8.2l-16.9,43.1H950
	l-16.4-43.1H942z"/>
<path fill="#FFFFFF" d="M990.5,178.7c0,2.7-1.9,4.8-5,4.8c-2.8,0-4.7-2.1-4.7-4.8c0-2.7,2-4.9,4.9-4.9
	C988.6,173.8,990.5,175.9,990.5,178.7z M981.8,233.9v-43.1h7.8v43.1H981.8z"/>
<path fill="#FFFFFF" d="M1033.3,232.4c-2,1-6.6,2.5-12.4,2.5c-13,0-21.4-8.8-21.4-22c0-13.3,9.1-23,23.1-23c4.6,0,8.7,1.2,10.9,2.3
	l-1.8,6c-1.9-1-4.8-2-9.1-2c-9.9,0-15.2,7.4-15.2,16.3c0,10,6.4,16.1,15,16.1c4.5,0,7.4-1.1,9.6-2L1033.3,232.4z"/>
<path fill="#FFFFFF" d="M1046.3,213.8c0.2,10.6,6.9,15,14.8,15c5.6,0,9.1-1,11.9-2.2l1.4,5.6c-2.8,1.2-7.6,2.8-14.4,2.8
	c-13.3,0-21.2-8.8-21.2-21.8c0-13,7.7-23.1,20.2-23.1c14.2,0,17.8,12.3,17.8,20.2c0,1.6-0.1,2.8-0.3,3.6L1046.3,213.8L1046.3,213.8z
	 M1069.3,208.2c0.1-4.9-2-12.6-10.9-12.6c-8,0-11.4,7.2-12,12.6H1069.3z"/>
<path fill="#FFFFFF" d="M444.9,302.9l-11.1-43.8h6l5.2,22.2c1.3,5.5,2.5,10.9,3.3,15.1h0.1c0.7-4.4,2.1-9.6,3.6-15.2l5.9-22.1h5.9
	l5.3,22.2c1.2,5.2,2.4,10.4,3.1,15h0.1c0.9-4.8,2.1-9.7,3.5-15.1l5.8-22.1h5.8l-12.4,43.8h-5.9l-5.5-22.8c-1.4-5.6-2.3-9.9-2.9-14.3
	h-0.1c-0.7,4.4-1.8,8.6-3.4,14.3l-6.2,22.8L444.9,302.9L444.9,302.9z"/>
<path fill="#FFFFFF" d="M492.2,256.7h5.7v19.7h0.1c0.9-1.6,2.3-3.1,4.1-4.1c1.7-1,3.7-1.6,5.9-1.6c4.2,0,11,2.6,11,13.4v18.7h-5.7
	v-18.1c0-5.1-1.9-9.3-7.3-9.3c-3.7,0-6.6,2.6-7.7,5.7c-0.3,0.8-0.4,1.7-0.4,2.7v19h-5.7L492.2,256.7L492.2,256.7z"/>
<path fill="#FFFFFF" d="M550.3,295.3c0,2.7,0.1,5.4,0.5,7.5h-5.1l-0.5-4H545c-1.8,2.5-5.1,4.7-9.6,4.7c-6.4,0-9.6-4.5-9.6-9
	c0-7.6,6.8-11.8,18.9-11.7v-0.6c0-2.5-0.7-7.3-7.1-7.2c-3,0-6,0.8-8.3,2.3l-1.3-3.8c2.6-1.6,6.4-2.7,10.4-2.7c9.6,0,12,6.6,12,12.8
	L550.3,295.3L550.3,295.3z M544.8,286.8c-6.2-0.1-13.3,1-13.3,7.1c0,3.8,2.5,5.5,5.3,5.5c4.2,0,6.8-2.6,7.7-5.3
	c0.2-0.6,0.3-1.3,0.3-1.8V286.8z"/>
<path fill="#FFFFFF" d="M566.2,263.9v7.5h8.2v4.4h-8.2v17c0,3.9,1.1,6.1,4.3,6.1c1.6,0,2.5-0.1,3.3-0.4l0.3,4.4
	c-1.1,0.4-2.9,0.8-5.1,0.8c-2.7,0-4.8-0.9-6.2-2.4c-1.6-1.8-2.2-4.6-2.2-8.3v-17.2h-4.9v-4.4h4.9v-5.9L566.2,263.9z"/>
<path fill="#FFFFFF" d="M611.6,301.5c-2,1-6.2,2.1-11.6,2.1c-12.4,0-21.6-7.8-21.6-22.2c0-13.8,9.3-23,22.9-23c5.4,0,8.9,1.2,10.4,2
	l-1.4,4.6c-2.1-1-5.1-1.8-8.8-1.8c-10.3,0-17.1,6.6-17.1,18.1c0,10.8,6.2,17.6,16.8,17.6c3.5,0,7-0.7,9.3-1.8L611.6,301.5z"/>
<path fill="#FFFFFF" d="M618.5,256.7h5.7v46.2h-5.7V256.7z"/>
<path fill="#FFFFFF" d="M640.2,262.6c0,2-1.4,3.5-3.6,3.5c-2.1,0-3.4-1.6-3.4-3.5s1.4-3.6,3.6-3.6
	C638.8,259,640.2,260.6,640.2,262.6z M633.9,302.9v-31.5h5.7v31.5H633.9z"/>
<path fill="#FFFFFF" d="M649.1,279.9c0-3.3-0.1-5.9-0.3-8.5h5.1l0.3,5.2h0.1c1.6-2.9,5.2-5.9,10.4-5.9c4.4,0,11.1,2.6,11.1,13.4
	v18.7h-5.7v-18.1c0-5.1-1.9-9.3-7.3-9.3c-3.7,0-6.6,2.7-7.7,5.9c-0.3,0.7-0.4,1.7-0.4,2.7v18.9h-5.7L649.1,279.9L649.1,279.9
	L649.1,279.9z"/>
<path fill="#FFFFFF" d="M691.5,262.6c0,2-1.4,3.5-3.6,3.5c-2.1,0-3.4-1.6-3.4-3.5s1.4-3.6,3.6-3.6
	C690.1,259,691.5,260.6,691.5,262.6z M685.2,302.9v-31.5h5.7v31.5H685.2z"/>
<path fill="#FFFFFF" d="M722.8,301.8c-1.5,0.7-4.8,1.8-9,1.8c-9.5,0-15.7-6.4-15.7-16.1c0-9.7,6.6-16.8,16.9-16.8
	c3.4,0,6.4,0.8,7.9,1.7l-1.3,4.4c-1.4-0.7-3.5-1.5-6.6-1.5c-7.2,0-11.1,5.4-11.1,11.9c0,7.3,4.7,11.8,10.9,11.8c3.3,0,5.4-0.8,7-1.5
	L722.8,301.8z"/>
<path fill="#FFFFFF" d="M727.5,299.5c0-2.3,1.6-4.1,3.9-4.1c2.3,0,3.8,1.7,3.8,4.1c0,2.3-1.6,4.1-4,4.1
	C729,303.6,727.5,301.8,727.5,299.5z"/>
<path fill="#FFFFFF" d="M764.7,301.8c-1.5,0.7-4.8,1.8-9,1.8c-9.5,0-15.7-6.4-15.7-16.1c0-9.7,6.6-16.8,16.9-16.8
	c3.4,0,6.4,0.8,7.9,1.7l-1.3,4.4c-1.4-0.7-3.5-1.5-6.6-1.5c-7.2,0-11.1,5.4-11.1,11.9c0,7.3,4.7,11.8,10.9,11.8c3.3,0,5.4-0.8,7-1.5
	L764.7,301.8z"/>
<path fill="#FFFFFF" d="M799.5,286.9c0,11.6-8.1,16.7-15.7,16.7c-8.4,0-15.1-6.2-15.1-16.2c0-10.5,7-16.6,15.6-16.6
	C793.4,270.8,799.5,277.3,799.5,286.9z M774.6,287.2c0,6.9,3.9,12.1,9.5,12.1c5.5,0,9.6-5.1,9.6-12.2c0-5.3-2.7-12-9.4-12
	C777.5,275.1,774.6,281.3,774.6,287.2z"/>
<path fill="#FFFFFF" d="M806.7,279.9c0-3.3-0.1-5.9-0.3-8.5h5l0.3,5.1h0.2c1.8-3,4.7-5.8,9.9-5.8c4.2,0,7.5,2.6,8.8,6.3h0.1
	c1-1.8,2.3-3.1,3.6-4.1c1.9-1.4,3.9-2.2,6.9-2.2c4.2,0,10.4,2.7,10.4,13.6v18.5h-5.6v-17.7c0-6.1-2.3-9.7-6.8-9.7
	c-3.3,0-5.8,2.4-6.8,5.1c-0.3,0.8-0.5,1.8-0.5,2.9v19.4h-5.6V284c0-5-2.2-8.6-6.6-8.6c-3.5,0-6.2,2.9-7.1,5.7
	c-0.3,0.8-0.5,1.8-0.5,2.8v18.9h-5.6L806.7,279.9L806.7,279.9z"/>
<path fill="#FFFFFF" d="M577.3,139.4c2.5,1.5,7.3,3.3,12.7,3.3c7.5,0,14-4.9,13.9-12.8c0-7.6-5.2-13-16.9-13c-3.5,0-6.1,0.3-8.3,0.5
	l3.8-28.4h28.3v6.7h-22.6l-2.3,15.2c1.4-0.2,2.6-0.3,4.8-0.3c4.6,0,9.1,0.9,12.7,3.2c4.6,2.5,8.5,7.7,8.5,15.1
	c0,11.6-9.2,20.2-22,20.2c-6.5,0-11.8-1.8-14.7-3.6L577.3,139.4z"/>
</svg>
