<?xml version="1.0" encoding="utf-8"?>
<!-- Generator: Adobe Illustrator 22.1.0, SVG Export Plug-In . SVG Version: 6.00 Build 0)  -->
<svg version="1.1" id="Layer_1" xmlns="http://www.w3.org/2000/svg" xmlns:xlink="http://www.w3.org/1999/xlink" x="0px" y="0px"
	 viewBox="0 0 107 32" enable-background="new 0 0 107 32" xml:space="preserve">
<path d="M97.3,26.2L97.3,26.2L97.3,26.2c0,0-0.1-0.1-0.2-0.1c0-0.1-0.1-0.1-0.2-0.1l0,0c-0.2,0-0.4,0.1-0.5,0.3l0,0l-0.1,0.1
	c0,0.2-0.1,0.3-0.2,0.4c0.2,0,0.3-0.1,0.5-0.2s0.3-0.2,0.5-0.3C97.2,26.3,97.3,26.3,97.3,26.2 M101.3,26.4L101.3,26.4L101.3,26.4
	L101.3,26.4c0-0.1-0.3-0.2-0.3-0.2s0,0-0.1,0l0,0c-0.2,0-0.4,0.2-0.6,0.2c-0.3,0.2-0.5,0.5-0.7,0.8l0,0c0,0-0.1,0-0.1,0.1
	s-0.1,0.3-0.1,0.4c0,0,0,0.2,0,0.3l0,0c0,0.1,0,0.1,0,0.2v0.1l0,0c0,0,0.1,0,0.2,0c0,0,0.1-0.1,0.2-0.1c0.1-0.1,0.2-0.1,0.3-0.2
	c0.1,0,0.1-0.1,0.1-0.1c0.1-0.1,0.2-0.2,0.3-0.3c0,0,0,0,0-0.1l0,0c0.1-0.1,0.1-0.2,0.3-0.3c0,0,0,0,0-0.1l0,0l0,0
	c0.1,0,0.1-0.1,0.1-0.2c0.1-0.1,0.1-0.1,0.1-0.2C101.2,26.6,101.3,26.5,101.3,26.4 M102.8,23.1C102.8,23.1,102.8,23.2,102.8,23.1
	C102.8,23.2,102.8,23.2,102.8,23.1c0,0.1,0,0.2,0,0.3l0,0c0,0.1,0,0.2,0,0.3l0,0l0,0c0,0.1,0,0.2,0,0.3l0,0c0,0.1,0,0.1,0,0.2
	c0,0.2,0,0.4,0,0.7c0,0.4,0,0.8,0,1.1c0,0.2,0,0.4,0,0.6c0,0,0,0,0,0.1s0,0.1,0,0.2V27c0,0.1,0,0.2,0,0.2c0,0.1,0,0.3,0.1,0.4
	c0,0,0,0,0,0.1s0,0.2,0.1,0.2c0,0.1,0.1,0.2,0.1,0.3c0,0.1,0.1,0.1,0.2,0.2s0.1,0.1,0.2,0.1c0,0,0.1,0,0.2,0s0.2,0,0.2,0h0.1
	c0,0,0,0,0.1,0h0.1h0.1c0,0,0,0,0.1,0s0.1,0,0.2,0s0.2,0,0.3,0l0,0c0.1,0,0.2,0,0.2,0.1l0,0l0,0c0,0.1,0,0.2-0.1,0.2
	c-0.1,0.1-0.1,0.1-0.2,0.1l0,0V29c-0.1,0-0.2,0.1-0.4,0.2h-0.1l-0.1,0.1c-0.2,0.1-0.5,0-0.7,0.1l0,0c-0.1,0-0.1,0-0.1,0l0,0l0,0
	c-0.3-0.2-0.5-0.4-0.7-0.6l0,0c-0.1-0.2-0.2-0.3-0.3-0.5c0-0.1,0-0.2-0.1-0.3l0,0c0-0.2-0.1-0.4-0.1-0.6c-0.1,0.1-0.1,0.1-0.2,0.2
	l-0.1,0.1h-0.1c0,0,0,0-0.1,0.1l-0.1,0.1c0,0,0,0,0,0.1l-0.1,0.1c-0.1,0.1-0.1,0.2-0.2,0.2c-0.1,0.1-0.2,0.2-0.3,0.3l-0.1,0.1
	c-0.1,0-0.1,0.1-0.1,0.1v0.1c0,0-0.1,0-0.1,0.1c-0.1,0.1-0.2,0.1-0.3,0.2c-0.1,0-0.1,0.1-0.2,0.1s-0.3,0.1-0.4,0.1h-0.1
	c-0.1,0-0.2,0-0.3,0c-0.1,0-0.1-0.1-0.2-0.1c-0.1-0.1-0.2-0.1-0.2-0.2c-0.1-0.1-0.1-0.2-0.2-0.3c0-0.1-0.1-0.2-0.1-0.3l-0.1,0.1
	c-0.1,0.1-0.2,0.1-0.3,0.2c-0.1,0.1-0.3,0.2-0.4,0.3c0,0.1-0.1,0.1-0.1,0.1c-0.1,0-0.1,0-0.2,0.1l-0.1,0.1c0,0,0,0-0.1,0l0,0l0,0
	c0,0-0.1,0-0.1,0.1c-0.1,0-0.2,0-0.2,0c-0.1,0-0.1,0-0.2,0h-0.1c-0.1,0-0.2,0-0.3,0h-0.1c-0.1,0-0.2,0-0.3-0.1
	c-0.1,0-0.2-0.1-0.2-0.2c-0.1-0.1-0.2-0.2-0.3-0.3l0,0c0-0.1-0.1-0.2-0.2-0.3l0,0c0-0.2-0.1-0.3-0.1-0.5c0,0,0,0,0-0.1s0-0.2,0-0.3
	c0-0.1,0-0.2,0-0.3c0-0.1,0.1-0.2,0.1-0.3c0-0.1,0-0.2,0.1-0.3c0-0.2,0.1-0.3,0.2-0.5c0-0.1,0.1-0.2,0.2-0.2
	c0.1-0.2,0.2-0.3,0.4-0.4l0,0c0.1,0,0.2-0.1,0.3-0.2l0,0c0.1,0,0.2-0.1,0.3-0.1H97c0.2,0,0.4,0.1,0.6,0.2s0.3,0.2,0.4,0.3l0,0
	c0,0.1,0.2,0.2,0.2,0.3l0,0v0.1l0,0c0,0,0,0.1,0.1,0.1l0,0c0,0.1-0.1,0.2-0.1,0.3l0,0c0,0,0,0-0.1,0.1c0,0.1-0.1,0.1-0.1,0.2
	c0,0,0,0,0,0.1s-0.1,0.1-0.3,0.2c-0.1,0.1-0.2,0.1-0.3,0.2c-0.1,0-0.1,0.1-0.3,0.1c-0.1,0.1-0.1,0.1-0.2,0.1s-0.1,0-0.1,0
	c-0.1,0-0.2,0.1-0.4,0.1h-0.1h-0.1h-0.1c0,0,0,0,0,0.1l0,0c0,0.1,0,0.2,0.1,0.2c0.1,0.1,0.1,0.1,0.2,0.2s0.1,0.1,0.2,0.1l0,0h0.1
	c0.2,0,0.4-0.1,0.6-0.2c0.1,0,0.2-0.1,0.3-0.1c0.2-0.1,0.4-0.3,0.6-0.4c0,0,0.1,0,0.1-0.1c0.1,0,0.1,0,0.2-0.1c0,0,0.1-0.1,0.2-0.1
	s0.1,0,0.1-0.1c0-0.2,0.1-0.3,0.2-0.5c0.1-0.1,0.2-0.3,0.2-0.4l0,0c0.1-0.1,0.1-0.1,0.1-0.2l0,0c0.1,0,0.1-0.1,0.1-0.2
	c0.1-0.1,0.2-0.2,0.3-0.3c0.1,0,0.1-0.1,0.2-0.1c0.2-0.1,0.3-0.2,0.5-0.2c0.1,0,0.2-0.1,0.4-0.1h0.1c0.1,0,0.2,0,0.2,0
	c0.1,0,0.3,0.1,0.4,0.1c0.1,0.1,0.2,0.1,0.3,0.2c0.1-0.1,0.1-0.2,0.2-0.4c0-0.2,0.1-0.3,0.1-0.5c0-0.1,0-0.1,0-0.2
	c0-0.2,0-0.4,0-0.7v-0.1v-0.1v-0.1v-0.1v-0.1c0-0.1,0.1-0.2,0.1-0.3l0,0c0.1,0,0.1-0.1,0.2-0.1l0,0c0.1,0,0.1,0,0.2,0
	S102.8,22.9,102.8,23.1C102.6,23,102.7,23.1,102.8,23.1"/>
<path d="M88.6,26.6L88.6,26.6C88.6,26.6,88.5,26.6,88.6,26.6c-0.1-0.1-0.2-0.1-0.3-0.1l0,0c-0.1,0-0.2,0-0.3,0.1c0,0-0.1,0-0.1,0.1
	l-0.1,0.1l0,0l0,0l0,0c0,0,0,0,0.1,0l0.1,0.1l0,0c0.1,0,0.3-0.1,0.3-0.1C88.4,26.8,88.6,26.7,88.6,26.6 M84.3,27.6L84.3,27.6
	L84.3,27.6l-0.1,0.1c-0.1,0.1-0.2,0.2-0.3,0.3c0,0.1-0.1,0.1-0.1,0.2c-0.1,0.2-0.2,0.3-0.3,0.5c-0.1,0.1-0.1,0.2-0.2,0.3
	c-0.1,0.2-0.3,0.3-0.6,0.3l0,0c0,0-0.1,0-0.2-0.1c0,0,0-0.1-0.1-0.1c-0.1-0.1-0.1-0.1-0.1-0.2c-0.1-0.2-0.1-0.5-0.1-0.8l-0.1,0.1
	c0,0.1-0.1,0.1-0.1,0.2c0,0-0.1,0-0.1,0.1c0,0,0,0.1-0.1,0.1c-0.1,0.1-0.2,0.2-0.3,0.3c-0.1,0.1-0.3,0.2-0.3,0.3l0,0h-0.1l0,0
	c-0.1,0.1-0.3,0.2-0.5,0.2c-0.1,0-0.2,0-0.3,0h-0.1c-0.2-0.1-0.4-0.3-0.5-0.4l0,0c0-0.1-0.1-0.2-0.2-0.3c0-0.1-0.1-0.2-0.1-0.3l0,0
	c-0.1-0.4-0.1-0.8-0.2-1.2c0,0,0,0,0-0.1V27v-0.1c-0.1,0-0.1,0.1-0.2,0.1s-0.2,0.1-0.3,0.1c0,0,0,0-0.1,0l0,0
	c-0.1,0-0.1-0.1-0.1-0.2s0-0.2,0.1-0.3c0.1-0.1,0.1-0.2,0.2-0.3h0.1c0.1-0.1,0.2-0.1,0.3-0.2c0-0.5,0.1-1,0.1-1.5l0,0
	c0.1-0.1,0.1-0.2,0.1-0.3c0-0.1,0.1-0.1,0.1-0.1c0-0.1,0-0.2,0.1-0.3c0,0,0.2-0.1,0.3-0.1c0,0,0,0,0.1,0s0.2,0.1,0.2,0.2v0.1
	c0,0.1,0.1,0.2,0.1,0.3l0,0c0,0.1-0.1,0.1-0.1,0.1l0,0v0.1l0,0v0.1c0,0.1,0,0.1,0,0.2V25v0.1v0.1v0.1c0,0,0,0.1,0,0.2l0,0
	c0.3-0.1,0.6-0.2,0.8-0.3c0.1,0,0.2,0,0.3-0.1c0,0,0.1,0,0.1-0.1c0.2-0.1,0.3-0.1,0.5-0.1l0,0l0,0c0,0,0,0,0.1,0l0,0
	c0,0,0.1,0,0.2,0.1l0,0c0,0.1,0,0.1,0,0.2s0,0.2-0.1,0.3c-0.1,0.1-0.1,0.2-0.2,0.2l0,0c-0.1,0-0.1,0-0.2,0l0,0
	c-0.3,0.2-0.7,0.2-1.1,0.4c0,0,0,0-0.1,0.1c-0.1,0-0.1,0-0.2,0.1l-0.1,0.1l0,0l0,0l0,0c-0.1,0-0.1,0.1-0.2,0.1v0.1
	c0,0.1,0,0.2,0,0.3c0,0.1,0,0.1,0,0.2s0,0.2,0,0.3c0,0.1,0,0.2,0,0.3c0,0.1,0,0.2,0.1,0.2l0,0c0,0.1,0,0.1,0,0.1l0,0
	c0,0.1,0.1,0.2,0.1,0.3c0,0.1,0,0.2,0.1,0.2l0,0l0,0c0.1,0,0.1,0,0.2-0.1c0.1,0,0.1-0.1,0.2-0.1c0.1-0.2,0.3-0.3,0.5-0.5
	c0.1-0.1,0.1-0.1,0.1-0.1v-0.1c0-0.1,0.1-0.1,0.1-0.1s0.1-0.1,0.1-0.2c0,0,0-0.1,0.1-0.1c0,0,0-0.1,0.1-0.1c0-0.1,0.1-0.1,0.1-0.1
	s0,0,0-0.1l0.1-0.1c0,0,0,0,0-0.1l0.1-0.1c0,0,0-0.1,0.1-0.1c0.1-0.1,0.1-0.1,0.1-0.3c0-0.1,0-0.1,0-0.2s0-0.2,0-0.3v-0.1l0,0
	c0-0.2,0.1-0.3,0.1-0.5c0,0,0,0,0-0.1c0,0,0-0.1,0-0.2c0,0,0,0,0-0.1s0-0.1,0-0.1l0,0v-0.1l0,0c0-0.3,0.1-0.5,0.2-0.7l0,0
	c0.1,0,0.1-0.1,0.2-0.2c0,0,0.1,0,0.2,0s0.2,0,0.3,0.1c0.1,0,0.1,0.1,0.2,0.2c0,0.1,0,0.1,0,0.2v0.1l0,0c0,0.1,0,0.1,0,0.1
	s0,0.1,0,0.2s0,0.2-0.1,0.3c0,0.1,0,0.2,0,0.3l0,0v0.1l0,0c0,0.1,0,0.1-0.1,0.2c0,0.1,0,0.2,0,0.2c0,0.1,0,0.2,0,0.3
	c0,0.1,0,0.2,0,0.3l0,0l0,0c0,0,0,0,0,0.1l0,0l0,0c0,0,0,0.1,0,0.2c0,0,0,0.1,0,0.2v0.1v0.1V27v0.1v0.1c0,0.1,0,0.1,0,0.1v0.1
	c0,0.1,0,0.2,0,0.3c0.1-0.1,0.1-0.2,0.2-0.3c0,0,0.1,0,0.1-0.1c0,0,0-0.1,0.1-0.1c0.1-0.1,0.2-0.2,0.3-0.3c0.1-0.1,0.2-0.2,0.4-0.2
	h0.1c0.1,0,0.3,0,0.4,0.1s0.3,0.1,0.3,0.3c0.1,0.2,0.2,0.3,0.3,0.5l0,0c0,0.1,0.1,0.2,0.1,0.3c0,0.1,0.1,0.1,0.1,0.2v0.1
	c0.1,0.1,0.1,0.2,0.2,0.2l0,0v0.1c0.1,0.1,0.1,0.1,0.2,0.1l0,0c0.2,0,0.5-0.2,0.6-0.2l0,0l0,0c0.1,0,0.1,0,0.1-0.1
	c-0.1-0.3-0.2-0.5-0.2-0.9c0-0.1,0-0.2,0-0.3V27c0-0.1,0-0.2,0.1-0.3c0-0.1,0-0.1,0.1-0.2c0-0.1,0.1-0.1,0.1-0.1s0,0,0-0.1
	c0.1-0.1,0.2-0.2,0.2-0.3l0,0c0.1,0,0.2-0.1,0.3-0.2c0.2-0.1,0.5-0.2,0.8-0.2c0,0,0.1,0,0.2,0c0.2,0.1,0.4,0.1,0.5,0.2
	s0.3,0.2,0.3,0.4l0,0c0,0.2,0.1,0.3,0.1,0.4v0.1l0,0c0,0,0,0.1-0.1,0.1C89,26.9,89,27,88.9,27.1l-0.1,0.1l-0.1,0.1
	c0,0-0.1,0-0.1,0.1l-0.1,0.1c-0.1,0-0.2,0-0.3,0.1c0,0,0,0-0.1,0H88c-0.2,0-0.3,0-0.5-0.1l0,0l0,0c0,0,0,0.1,0.1,0.1c0,0,0,0,0,0.1
	l0,0l0,0c0,0.1,0.1,0.1,0.1,0.2c0.1,0,0.1,0.1,0.2,0.1l0.1,0.1h0.1c0.1,0,0.3-0.1,0.4-0.1l0,0c0.1,0,0.2-0.1,0.3-0.1
	c0.2-0.1,0.4-0.3,0.6-0.4c0.2-0.2,0.4-0.3,0.6-0.5l0,0l0,0l0,0c0,0,0,0,0.1,0l0,0c0.1-0.1,0.2-0.2,0.3-0.2c0.1-0.1,0.3-0.1,0.4-0.1
	s0.2,0,0.3,0c0.2,0.1,0.4,0.3,0.5,0.4c0.1-0.2,0.2-0.4,0.3-0.6c0-0.1,0.1-0.1,0.1-0.1c0-0.1,0.1-0.2,0.2-0.3
	c0.1-0.1,0.1-0.2,0.2-0.2l0,0c0.1-0.1,0.1-0.1,0.1-0.2l0,0c0.1-0.1,0.2-0.1,0.2-0.3l0,0c0.1-0.1,0.3-0.2,0.3-0.3l0,0
	c0.1,0,0.1-0.1,0.2-0.1l0,0c0.1,0,0.1-0.1,0.2-0.1l0,0c0.1,0,0.2,0,0.3,0c0.1,0,0.2,0,0.4,0l0,0c0.2,0.1,0.5,0.2,0.6,0.4
	c0,0.1,0.1,0.2,0.1,0.3l0,0c0,0.1,0,0.1-0.1,0.2c-0.1,0-0.1,0.1-0.2,0.1l0,0c-0.1,0-0.2-0.1-0.3-0.1c-0.1,0-0.1,0-0.2,0
	s-0.2,0-0.3,0.1c-0.1,0-0.2,0.1-0.3,0.2c-0.1,0.1-0.2,0.1-0.2,0.2l-0.1,0.1L93,26.5c0,0,0,0.1-0.1,0.1c0.2,0.3,0.1,0.4,0.1,0.5
	s-0.1,0.1-0.2,0.2c0,0.1-0.1,0.2-0.1,0.3c-0.1,0.4-0.3,0.8-0.5,1.1c-0.1,0.1-0.1,0.2-0.2,0.3l0,0l0,0l0,0c-0.1,0-0.1,0-0.2,0
	c0,0,0,0-0.1,0s-0.1-0.1-0.1-0.1c-0.1,0-0.1,0-0.2-0.1c0-0.1,0-0.1-0.1-0.2c-0.1-0.2-0.1-0.3-0.1-0.5c0-0.1,0-0.1-0.1-0.2
	c0-0.1-0.1-0.1-0.1-0.1l0,0l0,0c-0.1,0-0.1,0.1-0.3,0.1c0,0,0,0,0,0.1l0,0c-0.3,0.1-0.5,0.3-0.7,0.5l0,0c-0.1,0-0.2,0.2-0.3,0.2
	l-0.1,0.1l0,0c-0.3,0.2-0.6,0.3-1,0.4c-0.1,0-0.2,0-0.3,0c-0.1,0-0.2,0-0.3,0c-0.3-0.1-0.6-0.2-0.8-0.4c-0.1,0-0.1-0.1-0.1-0.1l0,0
	l0,0l0,0L87,28.8c-0.1,0.1-0.2,0.2-0.3,0.2c-0.1,0.1-0.2,0.1-0.3,0.2c-0.1,0-0.3,0.1-0.5,0.1h-0.1c-0.1,0-0.3-0.1-0.4-0.1
	c-0.1-0.1-0.2-0.2-0.3-0.2c-0.1-0.1-0.2-0.2-0.3-0.4l0,0c0-0.1-0.2-0.3-0.3-0.5c0-0.1-0.1-0.2-0.1-0.3c0,0,0-0.1-0.1-0.1V27.6
	L84.3,27.6"/>
<path d="M77.6,26.8C77.6,26.7,77.6,26.7,77.6,26.8c0-0.2,0-0.2-0.1-0.3c-0.2,0-0.3-0.1-0.5-0.1l0,0c-0.1,0-0.2,0-0.3,0.1
	c-0.1,0.1-0.2,0.2-0.2,0.4l0,0c-0.1,0-0.1,0.1-0.1,0.2v0.1c0,0.1,0,0.2,0,0.3c0,0.1,0,0.2,0,0.3c0,0.1,0.1,0.3,0.1,0.4
	c0,0,0,0,0,0.1l0,0l0,0c0,0,0.1,0,0.1,0.1v0.1l0,0c0,0,0.1-0.1,0.2-0.1c0.1-0.1,0.1-0.1,0.2-0.2s0.1-0.1,0.1-0.2
	c0.1-0.1,0.1-0.2,0.1-0.3c0,0,0-0.1,0-0.2s0.1-0.2,0.1-0.3l0,0l0,0l0,0l0,0v-0.1V27C77.6,26.9,77.6,26.9,77.6,26.8L77.6,26.8
	 M78.3,27L78.3,27c0,0.1,0,0.1,0,0.2v0.1v0.1c0,0.1,0,0.1,0,0.2c0,0.2-0.1,0.3-0.2,0.5c0,0.1,0,0.1-0.1,0.2c0,0.1-0.1,0.2-0.1,0.2
	l0,0c-0.1,0-0.1,0.2-0.2,0.3c0,0-0.1,0-0.1,0.1C77.5,29,77.5,29,77.4,29s-0.3,0.1-0.5,0.1c-0.1,0-0.1,0-0.2,0S76.6,29,76.5,29h-0.1
	c-0.1,0-0.1-0.1-0.2-0.1l0,0c-0.1-0.1-0.1-0.1-0.2-0.2l0,0c0,0,0,0,0-0.1c-0.1-0.2-0.2-0.4-0.3-0.6c-0.1-0.2-0.1-0.5-0.1-0.7
	c0-0.1,0-0.2,0-0.2V27l0,0c0-0.1,0-0.2,0-0.3c0-0.1,0-0.1,0-0.2s0.1-0.1,0.1-0.2c0,0,0-0.1,0.1-0.2c0,0,0.1,0,0.1-0.1c0,0,0,0,0-0.1
	c0.1-0.1,0.2-0.2,0.4-0.3c0.1,0,0.1-0.1,0.2-0.1s0.1,0,0.2,0s0.1,0,0.2,0H77l0,0c0,0,0,0,0.1,0s0.1,0.1,0.1,0.1c0.1,0,0.1,0,0.2,0
	c0,0,0.1,0,0.2,0h0.1l0,0l0,0c0.2,0.1,0.3,0.3,0.4,0.5l0,0C78.2,26.6,78.3,26.8,78.3,27"/>
<path d="M74.4,26L74.4,26c-0.1-0.1-0.2-0.2-0.3-0.2c-0.2,0-0.3,0-0.5,0.1c-0.1,0-0.1,0-0.2,0.1c-0.1,0-0.1,0.1-0.2,0.1
	c-0.2,0.1-0.3,0.3-0.5,0.4c-0.1,0.2-0.3,0.3-0.3,0.5l0,0c-0.1,0-0.1,0.1-0.1,0.2c0,0,0,0.1-0.1,0.1c0,0.1-0.1,0.2-0.1,0.2s0,0,0,0.1
	l0,0c0,0.1,0,0.1,0.1,0.3c0.1,0.1,0.2,0.2,0.2,0.2c0.1,0.1,0.1,0.2,0.2,0.2c0,0,0.2,0.1,0.3,0.1l0,0l0,0c0.1,0,0.1-0.1,0.2-0.1
	s0.1-0.1,0.2-0.1c0.1-0.1,0.2-0.2,0.3-0.3c0,0,0-0.1,0.1-0.1l0.1-0.1v-0.1l0.1-0.1c0,0,0,0,0-0.1l0.1-0.1l0,0l0,0l0,0l0,0l0.1-0.1
	c0.1-0.2,0.2-0.4,0.3-0.6l0,0c0-0.1,0.1-0.1,0.1-0.2l0,0l0,0l0,0c0,0,0-0.1,0-0.2C74.4,26.2,74.4,26.1,74.4,26 M75.3,26L75.3,26v0.1
	c0,0.1,0,0.1,0,0.2s0,0.2-0.1,0.3l0,0c0,0.2,0,0.3-0.1,0.4c0,0.1-0.1,0.2-0.1,0.3l0,0c0,0.1-0.1,0.1-0.1,0.2l0,0
	c-0.1,0.1-0.1,0.1-0.1,0.2l0,0c-0.1,0.1-0.1,0.3-0.3,0.4c-0.1,0.2-0.3,0.3-0.4,0.5l0,0c-0.1,0-0.1,0.1-0.1,0.1l0,0
	c-0.1,0-0.1,0.1-0.2,0.1s-0.2,0.1-0.3,0.2c-0.1,0-0.2,0.1-0.3,0.1c0,0,0,0-0.1,0l0,0H73h-0.1l0,0c-0.1,0-0.2,0-0.4-0.1l0,0
	c0,0-0.1,0-0.1-0.1c-0.1,0-0.2,0-0.2-0.1l-0.1-0.1c0,0-0.1,0-0.1-0.1v-0.1l-0.1-0.1c-0.1,0.1-0.1,0.3-0.2,0.4l0,0
	c-0.1,0-0.1,0-0.1,0.1l0,0l0,0l0,0l0,0c-0.1,0-0.1,0.1-0.2,0.1l0,0c-0.1,0-0.1,0-0.1-0.1l-0.1-0.1l0,0c0-0.1-0.1-0.1-0.1-0.2l0,0
	c0-0.1,0-0.2,0.1-0.3c0-0.2,0.1-0.4,0.1-0.5c0.1-0.5,0.2-1,0.2-1.5c0-0.1,0.1-0.3,0.1-0.4l0,0v-0.1l0,0c0-0.6,0-1.3,0.1-1.9
	c0,0,0,0,0-0.1l0,0c0,0,0-0.1,0-0.2l0,0c0-0.1,0-0.2,0-0.3c0,0,0,0,0-0.1s0-0.1,0.1-0.2c0-0.1,0.1-0.2,0.1-0.2
	c0.1-0.1,0.2,0,0.2-0.1l0,0l0,0c0,0,0.1,0,0.2,0.1c0.1,0,0.1,0.1,0.2,0.1V23c0,0.1,0.1,0.2,0.1,0.3v0.1c0,0.1,0,0.1,0,0.2l0,0
	c0,0.1,0.1,0.1,0.1,0.2l0,0c0,0.1,0,0.1,0,0.2v0.1c0,0.1,0,0.2,0,0.2c0,0.1,0,0.3,0,0.4s0,0.2,0,0.2c0,0.1,0,0.2,0,0.2l0,0
	c0,0,0,0,0,0.1l0,0l0,0l0,0v0.1l0,0l0,0v0.1v0.1c0,0.1,0,0.1,0,0.2c0,0,0.1,0,0.1-0.1l0,0c0.1-0.1,0.2-0.3,0.4-0.4h0.1l0.1-0.1
	c0,0,0.1-0.1,0.2-0.1c0.1-0.1,0.2-0.1,0.3-0.2c0.1-0.1,0.2-0.1,0.3-0.1l0,0l0,0l0,0c0.1,0,0.2-0.1,0.3-0.1l0,0c0.1,0,0.2,0,0.4,0
	c0.1,0,0.2,0.1,0.3,0.1c0.2,0.1,0.4,0.2,0.6,0.3l0,0C75.2,25.6,75.2,25.8,75.3,26"/>
<path d="M67.1,26.3c0-0.1,0-0.1,0-0.1c-0.1-0.1-0.3-0.1-0.4-0.1l0,0c-0.1,0-0.1,0-0.1,0c-0.1,0-0.2,0.2-0.3,0.3
	c-0.2,0.2-0.3,0.4-0.4,0.7v0.1v0.1l0,0l0,0c0,0,0.1-0.1,0.2-0.1c0.1-0.1,0.2-0.1,0.3-0.2c0.1-0.1,0.3-0.2,0.4-0.3
	c0.1-0.1,0.2-0.1,0.2-0.1s0-0.1,0.1-0.1C67,26.4,67.1,26.4,67.1,26.3 M68.4,27.7L68.4,27.7c0,0.1-0.1,0.2-0.1,0.2l0,0l0,0l0,0
	c0,0.1-0.1,0.1-0.1,0.1l0,0l0,0l0,0c-0.1,0.1-0.1,0.1-0.1,0.1l0,0l0,0l0,0l0,0c-0.1,0.1-0.1,0.1-0.2,0.2l0,0
	c-0.1,0.1-0.2,0.1-0.2,0.2l-0.1,0.1h-0.1c-0.1,0.1-0.1,0.1-0.2,0.2l0,0c-0.3,0.2-0.7,0.4-1.1,0.4l0,0c-0.1,0-0.2,0-0.3,0l0,0
	c0,0-0.1-0.1-0.2-0.1l0,0c-0.2-0.2-0.4-0.3-0.6-0.5c0-0.1-0.1-0.1-0.1-0.2c0,0,0-0.1-0.1-0.1l0,0l0,0l0,0l0,0
	c-0.1-0.1-0.1-0.3-0.1-0.4s0-0.2,0-0.3c0-0.1,0-0.3,0-0.4s0-0.2,0-0.3c0-0.2,0.1-0.4,0.2-0.6c0-0.1,0.1-0.2,0.1-0.2
	c0-0.1,0-0.1,0.1-0.2s0.2-0.1,0.2-0.2l0,0c0.1-0.1,0.2-0.3,0.4-0.4c0.1,0,0.1,0,0.2-0.1c0.1,0,0.1-0.1,0.2-0.1l0,0h0.1l0,0
	c0,0,0,0,0.1,0h0.1c0.1,0,0.2,0,0.3,0.1c0.1,0,0.1,0.1,0.2,0.1l0,0c0.1,0.1,0.3,0.3,0.4,0.4l0,0c0,0.1,0.1,0.2,0.1,0.4
	c0,0,0,0,0,0.1l0,0l0,0l0,0c0,0.3-0.1,0.5-0.3,0.7c0,0.1-0.1,0.1-0.1,0.2l0,0c-0.2,0.1-0.4,0.3-0.6,0.4c-0.1,0-0.1,0-0.2,0.1l0,0
	c-0.1,0-0.1,0-0.2,0.1c-0.1,0-0.1,0.1-0.2,0.1s-0.2,0-0.3,0.1c-0.1,0-0.2,0-0.2,0c0,0.2,0.1,0.4,0.2,0.5c0.1,0,0.1,0,0.1,0.1l0,0
	l0,0l0,0c0.1,0,0.3,0,0.4-0.1c0.1,0,0.1-0.1,0.2-0.1s0.1,0,0.2-0.1s0.2-0.2,0.4-0.3l0,0l0,0l0,0l0,0l0.1-0.1
	c0.2-0.1,0.4-0.2,0.6-0.3l0,0l0,0l0,0c0.1,0,0.1-0.1,0.2-0.1C68.4,27.6,68.4,27.6,68.4,27.7L68.4,27.7"/>
<path d="M63.8,26.9C63.8,26.9,63.8,26.8,63.8,26.9c-0.1-0.1-0.1-0.1-0.2-0.1c-0.1,0-0.1,0-0.2,0c-0.1,0.1-0.2,0.1-0.3,0.2
	c-0.2,0.2-0.5,0.4-0.7,0.7c-0.1,0.2-0.2,0.3-0.3,0.5c0,0.1,0,0.2-0.1,0.2c0,0.1-0.1,0.1-0.1,0.2l0,0l0,0c0,0.1-0.1,0.1-0.1,0.2l0,0
	l0,0c0,0,0,0.1,0.1,0.2c0,0.1,0.1,0.1,0.1,0.1c0.1,0,0.2,0.1,0.3,0.1l0,0l0,0c0.2-0.1,0.3-0.2,0.4-0.2c0.1-0.1,0.2-0.2,0.3-0.3
	c0,0,0,0,0-0.1l0,0c0.3-0.4,0.6-0.8,0.8-1.3C63.7,27.1,63.8,27,63.8,26.9 M64.6,26.8c0,0.1,0,0.2,0,0.3c0,0.2,0,0.3-0.1,0.5
	c0,0.1-0.1,0.1-0.1,0.2l0,0l0,0l0,0c0,0,0,0.1-0.1,0.1c0,0.1,0,0.1-0.1,0.2l-0.1,0.1v0.1c0,0.1-0.1,0.1-0.1,0.1l0,0l0,0l0,0
	c0,0,0,0-0.1,0.1c0,0.1-0.1,0.1-0.1,0.2s-0.1,0.1-0.1,0.2L63.6,29c0,0,0,0.1-0.1,0.1l-0.1,0.1c0,0,0,0.1-0.1,0.1
	c-0.1,0.1-0.3,0.2-0.5,0.3c-0.1,0-0.1,0.1-0.2,0.1c-0.1,0-0.2,0-0.2,0c-0.1,0-0.1,0-0.2,0.1c-0.1,0-0.1,0.1-0.2,0.1h-0.1h-0.1l0,0
	c-0.1,0-0.1,0-0.2,0c-0.1,0-0.2,0-0.2,0s-0.1-0.1-0.2-0.1c-0.1,0-0.1-0.1-0.2-0.1c-0.1-0.1-0.1-0.2-0.2-0.2l0,0l0,0l0,0l-0.1,0.1
	l0,0c-0.1,0-0.2-0.1-0.3-0.1c-0.1-0.1-0.1-0.2-0.2-0.2l0,0c0-0.1,0-0.2,0-0.3c0-0.3,0-0.7,0-1c0-0.2,0-0.5,0-0.7l0,0v-0.1l0,0v-0.1
	l0,0l0,0l0,0l0,0c0-0.1,0-0.1,0-0.1l0,0l0,0c0-0.1,0-0.1,0-0.2c0-0.3,0-0.5,0-0.7l0,0c0-0.1,0-0.2,0-0.2v-0.1c0-0.1,0-0.2,0-0.3
	c0-0.1,0-0.1,0-0.2c0,0,0-0.1,0-0.2s0-0.2,0-0.3c0-0.1,0-0.1,0-0.2v-0.1c0-0.2,0-0.4,0-0.5s0-0.2,0-0.3c0,0,0-0.1,0.1-0.1l0.1-0.1
	h0.1c0.1,0,0.1,0,0.2,0.1c0.1,0.1,0.2,0.1,0.3,0.2c0,0,0.1,0.1,0.1,0.2v0.1c0,0.1,0,0.1,0,0.2s0,0.1,0,0.1l0,0l0,0
	c0,0.1,0,0.1,0,0.1l0,0l0,0v0.1c0,0.2,0,0.3,0,0.5l0,0c0,0.1,0,0.1,0,0.2l0,0c0,0.1,0,0.1,0,0.1c0,0.1,0,0.3,0,0.4
	c0,0.2,0,0.4,0,0.6l0,0c0,0.1,0,0.2,0,0.3c0,0.1,0,0.1,0,0.2l0,0l0,0c0,0,0,0,0,0.1l0,0c0,0.1,0,0.3,0,0.4v0.1l0.1-0.1
	c0.1-0.1,0.1-0.1,0.1-0.2l0,0c0.1-0.1,0.1-0.1,0.2-0.2l0,0c0.1-0.1,0.2-0.1,0.3-0.2s0.1-0.1,0.2-0.2c0,0,0.1-0.1,0.2-0.1
	c0.1-0.1,0.3-0.2,0.5-0.3l0,0l0,0c0.2,0,0.4-0.1,0.6-0.1l0,0c0.1,0,0.2,0,0.3,0.1c0.1,0,0.2,0.1,0.2,0.1l0,0
	c0.1,0.1,0.2,0.1,0.2,0.2l0,0c0,0.1,0.1,0.1,0.1,0.2v0.1C64.5,26.6,64.6,26.7,64.6,26.8"/>
<path fill="#DE761C" d="M49.4,26.5c0-0.1-0.1-0.2-0.1-0.2c0-0.1-0.1-0.1-0.2-0.1l0,0l0,0c-0.1,0-0.2,0.1-0.3,0.1
	c-0.1,0.1-0.2,0.2-0.3,0.3c-0.1,0.2-0.2,0.3-0.3,0.4c0,0,0,0.1-0.1,0.2c0,0.1-0.1,0.2-0.1,0.3l0,0c0,0,0,0,0,0.1s-0.1,0.2-0.1,0.2
	l0,0c0,0.1,0,0.1-0.1,0.2l0,0l0,0c0,0,0,0,0,0.1v0.1l0,0c0,0,0,0,0,0.1l0,0c0,0.1-0.1,0.2-0.1,0.3c0,0,0,0,0,0.1v0.1c0,0,0,0,0.1,0
	c0,0,0,0,0.1,0l0,0c0.2-0.1,0.3-0.2,0.5-0.3c0.1-0.1,0.3-0.3,0.4-0.4c0.1-0.1,0.1-0.3,0.2-0.4c0.1-0.1,0.1-0.2,0.2-0.4l0,0
	C49.2,27.1,49.3,26.7,49.4,26.5 M57.4,28.4v0.1c0,0.1-0.1,0.2-0.1,0.3C57.2,28.9,57.1,29,57,29s-0.2,0-0.2,0s0,0-0.1,0l0,0h-0.1l0,0
	h-0.1l0,0c-0.1,0-0.1,0-0.2-0.1c-0.1,0-0.1-0.1-0.2-0.1c0,0-0.1,0-0.2-0.1l-0.1-0.1c-0.1-0.1-0.1-0.1-0.2-0.2
	c-0.1-0.1-0.2-0.2-0.2-0.3c0,0-0.1,0-0.1-0.1c-0.2-0.3-0.4-0.6-0.6-0.8l0,0l0,0c-0.2,0-0.2,0.2-0.3,0.3c0,0,0,0,0,0.1l0,0
	c-0.2,0.1-0.2,0.4-0.4,0.6v0.1l0,0c-0.1,0.1-0.1,0.1-0.1,0.1s0,0.1-0.1,0.2c0,0.1-0.1,0.1-0.2,0.2c-0.1,0.1-0.1,0.1-0.1,0.2l0,0
	c-0.1,0.1-0.2,0.1-0.2,0.2l0,0c-0.1,0-0.2,0-0.3,0l0,0c-0.2,0-0.3-0.1-0.4-0.2c0-0.1-0.1-0.2-0.1-0.3v-0.1v-0.1
	c0-0.2,0.1-0.5,0.1-0.7c0,0.1-0.1,0.1-0.2,0.2c-0.1,0.2-0.2,0.3-0.3,0.4s-0.2,0.3-0.4,0.4c-0.1,0.1-0.2,0.1-0.2,0.2l0,0
	c-0.1,0-0.1,0.1-0.2,0.1c0,0,0,0-0.1,0.1c-0.1,0-0.2,0.1-0.3,0.1s-0.1,0.1-0.2,0.1l0,0l0,0c0,0,0,0-0.1,0s-0.2-0.1-0.3-0.1
	s-0.2-0.1-0.2-0.1C50,29.1,49.9,29,49.9,29c-0.1-0.1-0.1-0.2-0.2-0.2l0,0l0,0l0,0l0,0c0,0,0-0.1-0.1-0.1c0-0.1,0-0.3-0.1-0.4
	c-0.1,0-0.1,0.1-0.1,0.2c-0.1,0.1-0.1,0.2-0.1,0.3l0,0c-0.1,0-0.1,0.1-0.2,0.2c0,0.1-0.1,0.1-0.1,0.2c-0.1,0.1-0.2,0.2-0.3,0.3
	c-0.1,0.1-0.2,0.2-0.3,0.2s-0.2,0-0.2,0c-0.1,0-0.2,0.1-0.3,0.1c0,0,0,0-0.1,0s-0.1,0-0.1-0.1c-0.1,0-0.1,0-0.2,0
	c-0.2-0.1-0.3-0.2-0.4-0.2l0,0c0-0.1-0.1-0.2-0.2-0.3c0-0.1,0-0.1,0-0.2s0-0.1,0-0.2c0,0,0,0.1-0.1,0.1c0,0-0.1,0-0.1,0.1
	c0,0-0.1,0.1-0.1,0.2c-0.1,0.1-0.2,0.1-0.3,0.2c-0.2,0.1-0.3,0.2-0.5,0.3c0,0-0.1,0.1-0.2,0.1c-0.1,0-0.1,0.1-0.2,0.1
	C45.3,30,45.3,30,45.2,30c-0.1,0-0.1,0-0.2,0l0,0c-0.2,0-0.4,0-0.6-0.2l0,0l0,0c0,0,0,0-0.1,0l0,0l0,0c-0.1-0.1-0.2-0.2-0.3-0.3
	c0,0-0.1-0.1-0.1-0.2c-0.1-0.1-0.1-0.4-0.1-0.6c0-0.1,0-0.1,0-0.2v-0.1v-0.1v-0.1l0,0v-0.1V28c0-0.1,0-0.1,0-0.1l0,0c0,0,0,0,0-0.1
	l0,0c0-0.1,0.1-0.2,0.1-0.3c0,0,0,0,0-0.1l0,0c0.2-0.4,0.3-1,0.6-1.3c0,0,0,0,0-0.1l0,0c0.1,0,0.1-0.1,0.2-0.2
	c0.1-0.1,0.1-0.1,0.2-0.2c0.1,0,0.2-0.1,0.2-0.1c0.1-0.1,0.2-0.1,0.4-0.1l0,0c0.1,0,0.2,0,0.3,0c0.2,0,0.3,0,0.5,0.1
	c0.1,0,0.2,0.1,0.2,0.2c0.1,0.1,0.1,0.1,0.2,0.2l0,0c0,0.1,0,0.1,0,0.2l0,0c0,0.1-0.1,0.1-0.2,0.2c-0.1,0-0.2,0.1-0.3,0.1
	c0,0,0,0-0.1,0l0,0C46.1,26,46,26,46,26h-0.1c-0.2,0-0.3,0-0.4,0.1c-0.1,0.1-0.2,0.2-0.3,0.2c0,0.2-0.2,0.2-0.2,0.4
	c0,0.1-0.1,0.2-0.1,0.3l0,0v0.1l0,0l0,0l0,0v0.1c-0.1,0.2-0.1,0.5-0.1,0.8v0.1c0,0.1,0,0.3,0,0.4s0,0.3,0.1,0.4H45
	c0.1,0,0.2-0.1,0.4-0.1c0.1,0,0.2-0.1,0.3-0.1c0.1-0.1,0.2-0.2,0.3-0.2c0.1-0.1,0.2-0.2,0.4-0.2c0.1-0.1,0.3-0.3,0.5-0.3
	c0.1,0,0.1-0.1,0.2-0.2c0.1,0,0.2-0.1,0.2-0.1c0.1-0.1,0.1-0.3,0.1-0.4l0,0c0-0.1,0.1-0.1,0.1-0.2c0.1-0.1,0.1-0.2,0.2-0.3
	c0.1-0.2,0.1-0.3,0.3-0.4c0,0,0,0,0-0.1l0,0l0,0c0.1-0.1,0.1-0.1,0.2-0.2c0.1-0.1,0.1-0.2,0.2-0.2c0.1-0.1,0.2-0.2,0.4-0.2h0.1
	c0.1,0,0.1-0.1,0.2-0.1c0.1,0,0.1,0,0.2,0h0.1c0.2,0,0.3,0.1,0.4,0.2c0.1,0.1,0.2,0.2,0.3,0.3l0,0c0.1,0,0.2,0,0.3,0.1l0,0
	c0,0.1,0.1,0.1,0.1,0.1l0,0c0,0.1,0.1,0.1,0.1,0.3c0,0.1,0,0.1,0,0.2s0,0.1,0,0.2s0,0.1,0,0.2l0,0c0,0,0,0,0,0.1l0,0l0,0
	c0,0.1,0,0.2,0,0.2c0,0.1,0,0.2,0,0.2c0,0.1,0,0.1,0,0.2s0.1,0.3,0.1,0.5c0,0.1,0,0.2,0,0.3c0,0.1,0.1,0.1,0.1,0.2
	c0.2-0.1,0.4-0.3,0.5-0.5c0.2-0.2,0.3-0.4,0.5-0.5v-0.1l0,0c0.1-0.1,0.2-0.3,0.3-0.5v-0.1c0,0,0.1,0,0.1-0.1c0,0,0,0,0-0.1l0.1-0.1
	c0.1-0.1,0.1-0.2,0.2-0.2c0,0,0.1-0.1,0.1-0.2c0.1,0,0.1-0.1,0.2-0.1h0.1c0.2,0,0.3,0,0.4,0.1l0,0l0,0c0,0.1,0.1,0.1,0.1,0.2v0.1
	c0,0.1,0,0.2,0,0.2c0,0.1,0,0.1,0,0.2l0,0l0,0c0,0.1,0,0.2-0.1,0.3v0.1l0,0l0,0c0.1-0.1,0.1-0.1,0.1-0.2l0.1-0.1l0.1-0.1
	c0.1-0.1,0.1-0.2,0.2-0.3c0.1-0.1,0.2-0.2,0.4-0.3c0.1,0,0.2-0.1,0.3-0.1s0.2,0,0.2,0h0.1l0,0l0,0l0,0c0.1,0,0.2,0.1,0.3,0.2
	s0.1,0.2,0.2,0.2l0,0c0.1,0.2,0.2,0.3,0.3,0.5c0.2,0.1,0.2,0.3,0.3,0.4s0.2,0.2,0.3,0.2l0,0c0,0.2,0.4,0.1,0.6,0.2
	c0.1,0,0.1,0,0.2,0C57.3,28.4,57.3,28.4,57.4,28.4L57.4,28.4z M47.2,27.2L47.2,27.2L47.2,27.2L47.2,27.2L47.2,27.2L47.2,27.2
	L47.2,27.2L47.2,27.2"/>
<polyline fill="#DE761C" points="47.2,27.2 47.2,27.2 47.2,27.2 47.2,27.2 "/>
<polygon fill="#DE761C" points="47.2,27.2 47.2,27.2 47.2,27.2 "/>
<path d="M39.5,26.8L39.5,26.8c0-0.2,0-0.3-0.1-0.3h-0.1l0,0c-0.1,0-0.1,0.1-0.2,0.2c-0.1,0-0.1,0.1-0.1,0.2
	c-0.1,0.1-0.2,0.3-0.2,0.5l0,0c0.1,0,0.2-0.1,0.3-0.1s0.2-0.1,0.2-0.2l0.1-0.1C39.5,26.9,39.5,26.8,39.5,26.8 M41.2,28.4L41.2,28.4
	c0,0.1-0.1,0.1-0.1,0.2s0,0.1-0.1,0.2c0,0,0,0.1-0.1,0.1C40.8,29,40.8,29,40.7,29c0,0-0.1,0.1-0.1,0.2c-0.1,0.1-0.4,0.2-0.6,0.3
	c-0.1,0.1-0.3,0.2-0.4,0.2c-0.1,0-0.1,0-0.2,0c-0.1,0-0.2,0-0.3,0s-0.3,0-0.4-0.1c-0.1-0.1-0.3-0.1-0.4-0.2
	c-0.1-0.1-0.2-0.2-0.2-0.2c0-0.1-0.1-0.2-0.2-0.2v-0.1l-0.1-0.1c-0.1-0.2-0.1-0.4-0.1-0.5v-0.1c0-0.3,0-0.5,0.1-0.7
	c0-0.2,0.1-0.3,0.2-0.5c0.1-0.1,0.1-0.3,0.2-0.4c0.1-0.1,0.2-0.3,0.2-0.4c0.1-0.1,0.2-0.2,0.3-0.3c0.1,0,0.1,0,0.2,0
	c0.1,0,0.1,0,0.2-0.1l0,0c0.1,0,0.3,0,0.4,0.1c0.1,0,0.1,0.1,0.2,0.1c0.1,0.1,0.1,0.1,0.2,0.2c0.1,0.1,0.1,0.2,0.2,0.3
	c0,0.1,0.1,0.2,0.1,0.2c0,0.1,0.1,0.2,0.1,0.3c0,0,0,0,0,0.1c0,0.2-0.1,0.3-0.1,0.4c-0.1,0.1-0.2,0.2-0.2,0.3
	c-0.1,0.1-0.2,0.2-0.3,0.2c-0.1,0.1-0.2,0.1-0.3,0.2s-0.3,0.2-0.5,0.2c-0.1,0-0.2,0-0.2,0c0,0.2,0.1,0.4,0.2,0.5
	c0.1,0.1,0.3,0.2,0.5,0.2l0,0l0,0c0.3,0,0.7-0.2,1-0.4c0.1,0,0.1-0.1,0.2-0.1c0.1,0,0.1,0,0.1,0c0.1,0,0.1-0.1,0.2-0.1l0,0
	C41.1,28.2,41.2,28.3,41.2,28.4"/>
<path d="M37.2,26.9L37.2,26.9c0,0.4-0.1,0.6-0.1,0.9C37,28,37,28.2,36.9,28.4c-0.1,0.2-0.2,0.4-0.3,0.5s-0.2,0.2-0.3,0.3
	c-0.1,0.1-0.2,0.2-0.3,0.3c-0.1,0-0.2,0.1-0.3,0.1c-0.1,0.1-0.3,0.1-0.5,0.1c-0.1,0-0.3,0-0.4-0.1c-0.1,0-0.2-0.1-0.3-0.2
	s-0.1-0.2-0.2-0.3c-0.1-0.2-0.2-0.4-0.3-0.6c0-0.1-0.1-0.2-0.1-0.3c-0.1-0.2-0.1-0.4-0.2-0.5c-0.1,0-0.1,0.1-0.2,0.2
	c-0.1,0.1-0.1,0.1-0.2,0.2c-0.1,0.1-0.1,0.2-0.2,0.2c-0.1,0.1-0.1,0.2-0.2,0.2c-0.1,0.1-0.2,0.2-0.4,0.3c-0.1,0.1-0.2,0.2-0.4,0.3
	c-0.1,0.1-0.2,0.1-0.3,0.2c-0.1,0.1-0.2,0.1-0.2,0.2c-0.1,0-0.1,0-0.2,0s-0.1,0-0.2,0s-0.1,0-0.2-0.1s-0.3-0.1-0.3-0.2v-0.1
	c0-0.1-0.1-0.2-0.1-0.3l0,0c0-0.1,0-0.2,0-0.3c0-0.3,0.1-0.6,0.2-1c0-0.2,0.1-0.4,0.1-0.6c0-0.3,0.1-0.6,0.2-1c0-0.2,0-0.3,0-0.5
	c0-0.1,0-0.2,0-0.2l0,0v-0.1c0,0,0,0,0-0.1s0.1-0.1,0.2-0.1s0.2-0.1,0.2-0.1l0,0c0.1,0,0.2,0,0.3,0.1C31.9,25,32,25,32,25.1v0.1
	c0,0.1,0,0.1,0,0.2s0,0.3,0,0.4s0,0.3,0,0.4s0,0.1,0,0.1l0,0v0.1l0,0c0,0.3-0.1,0.6-0.1,0.8c0,0.1,0,0.3-0.1,0.4
	c0,0.1-0.1,0.3-0.1,0.4s0,0.1,0,0.2s0,0.1,0.1,0.2c0.1-0.1,0.3-0.2,0.4-0.4c0.1-0.1,0.3-0.3,0.4-0.4c0,0,0-0.1,0.1-0.1
	c0.1-0.2,0.4-0.4,0.5-0.5s0.2-0.2,0.3-0.3c0.1-0.1,0.2-0.2,0.3-0.2c0,0,0,0,0.1,0H34l0,0l0,0c0,0,0.1,0,0.2,0l0,0
	c0.1,0,0.2,0.1,0.3,0.2s0.2,0.2,0.2,0.3c0,0.2,0.1,0.5,0.1,0.7s0.1,0.5,0.2,0.6c0.1,0.2,0.2,0.5,0.4,0.5l0,0l0,0
	c0.1,0,0.2-0.1,0.3-0.2s0.3-0.3,0.4-0.5c0.1-0.1,0.2-0.3,0.2-0.5c0.1-0.3,0.2-0.6,0.2-1c0-0.1,0-0.2,0-0.4c0-0.2-0.1-0.5-0.2-0.7
	c0-0.1-0.1-0.2-0.2-0.4C36,25,36,24.9,35.9,24.9c-0.1,0-0.1,0-0.2,0l0,0c-0.2,0-0.3,0.2-0.5,0.3c0,0-0.1,0-0.2,0
	c-0.1,0-0.2,0.1-0.3,0.1l0,0c-0.1,0-0.1,0-0.2-0.1c0-0.1-0.1-0.1-0.1-0.2l0,0c0-0.1,0.1-0.2,0.1-0.3c0.1-0.1,0.1-0.1,0.2-0.2
	c0.1-0.1,0.2-0.2,0.4-0.2c0.1,0,0.1-0.1,0.2-0.1c0.1,0,0.2,0,0.3,0h0.1c0.2,0,0.4,0.1,0.5,0.2c0.2,0.1,0.3,0.3,0.4,0.4
	c0.1,0.2,0.2,0.4,0.3,0.6C37,25.7,37,25.8,37,26c0,0.1,0.1,0.1,0.1,0.2C37.2,26.4,37.2,26.6,37.2,26.9L37.2,26.9"/>
<path fill="#9E004F" d="M12.4,2.1c1.5,0.6,2.8,2,3.3,3.8c0.8,2.9-0.6,5.9-3.2,6.7c-0.5,0.1-1,0.2-1.4,0.2l0,0
	c3.6,1.4,6.7-1.1,7.3-3.9C18.9,6,17.2,2.6,12.4,2.1"/>
<path fill="#472F92" d="M3.6,6.1c1.3-1,3.1-1.5,5-1c2.9,0.8,4.8,3.5,4.2,6.1c-0.1,0.5-0.3,0.9-0.6,1.3l0,0c3-2.5,2.4-6.4,0.2-8.3
	C10.3,2.4,6.5,2.2,3.6,6.1"/>
<path fill="#0073A4" d="M2.7,15.8C2.4,14.2,3,12.4,4.3,11c2.1-2.2,5.4-2.4,7.4-0.6c0.4,0.3,0.6,0.7,0.9,1.2l0,0
	c-0.6-3.9-4.3-5.3-7-4.4C2.9,8.1,0.8,11.3,2.7,15.8"/>
<path fill="#73A533" d="M10.7,21.3c-1.5-0.6-2.8-2-3.3-3.8c-0.8-2.9,0.6-5.9,3.2-6.7c0.5-0.1,1-0.2,1.4-0.2l0,0
	c-3.6-1.4-6.7,1.1-7.3,3.9C4.1,17.4,5.8,20.8,10.7,21.3"/>
<path fill="#FCAF17" d="M19.4,17.3c-1.3,1-3.1,1.5-5,1c-2.9-0.8-4.8-3.5-4.2-6.1c0.1-0.5,0.3-0.9,0.6-1.3l0,0
	c-3,2.5-2.4,6.4-0.2,8.3C12.7,21,16.6,21.2,19.4,17.3"/>
<path fill="#DE761C" d="M20.3,7.6c0.3,1.6-0.3,3.4-1.6,4.8c-2.1,2.2-5.4,2.4-7.4,0.6c-0.4-0.3-0.6-0.7-0.9-1.2l0,0
	c0.6,3.8,4.4,5.3,7.1,4.3C20.2,15.3,22.3,12.1,20.3,7.6"/>
<path fill="#58595B" d="M25.2,18.1c0,0.5,0.2,0.8,0.5,0.9c0.3,0.2,0.7,0.3,1.1,0.3c0.1,0,0.3,0,0.5,0s0.4-0.1,0.5-0.1
	c0.2-0.1,0.3-0.2,0.4-0.3c0.1-0.1,0.1-0.3,0.1-0.4c0,0,0-0.1,0-0.2s-0.1-0.2-0.2-0.4c-0.1-0.1-0.3-0.2-0.5-0.3
	c-0.2-0.1-0.5-0.1-0.7-0.2c-0.3-0.1-0.5-0.1-0.8-0.2s-0.6-0.1-0.8-0.2c-0.3-0.1-0.5-0.2-0.7-0.4c-0.2-0.2-0.4-0.3-0.5-0.6
	c-0.1-0.2-0.2-0.5-0.2-0.9s0.1-0.7,0.3-1c0.2-0.3,0.4-0.5,0.7-0.6c0.3-0.2,0.6-0.3,0.9-0.3s0.7-0.1,1-0.1c0.4,0,0.7,0,1,0.1
	s0.6,0.2,0.9,0.4s0.5,0.4,0.7,0.7s0.3,0.6,0.3,1H28c-0.1-0.4-0.2-0.6-0.5-0.7c-0.3-0.1-0.6-0.2-0.9-0.2c-0.1,0-0.2,0-0.4,0
	c-0.1,0-0.3,0.1-0.4,0.1c-0.1,0.1-0.2,0.1-0.3,0.2c-0.1,0.1-0.1,0.2-0.1,0.4s0.1,0.3,0.2,0.5c0.1,0.1,0.3,0.2,0.5,0.3
	s0.5,0.1,0.7,0.2c0.3,0.1,0.5,0.1,0.8,0.2s0.6,0.1,0.8,0.2c0.3,0.1,0.5,0.2,0.7,0.4c0.2,0.2,0.4,0.3,0.5,0.6
	c0.1,0.2,0.2,0.5,0.2,0.9s-0.1,0.8-0.3,1.1c-0.2,0.3-0.4,0.5-0.7,0.7c-0.3,0.2-0.6,0.3-1,0.4s-0.7,0.1-1.1,0.1s-0.8-0.1-1.2-0.1
	c-0.4-0.1-0.7-0.3-1-0.5s-0.5-0.5-0.6-0.8c-0.2-0.3-0.2-0.7-0.3-1.1h1.6V18.1z"/>
<path fill="#58595B" d="M33.1,13.4h1.5v1l0,0c0.1-0.2,0.2-0.3,0.4-0.5c0.1-0.1,0.3-0.3,0.5-0.4c0.2-0.1,0.4-0.2,0.6-0.2
	c0.2-0.1,0.5-0.1,0.7-0.1c0.4,0,0.8,0.1,1.2,0.3s0.6,0.5,0.8,0.9c0.3-0.4,0.6-0.6,0.9-0.9c0.3-0.2,0.8-0.3,1.3-0.3
	c0.7,0,1.3,0.2,1.7,0.5c0.4,0.4,0.6,1,0.6,1.8v4.8h-1.5v-4.1c0-0.3,0-0.5,0-0.8c0-0.2-0.1-0.4-0.2-0.6c-0.1-0.2-0.2-0.3-0.4-0.4
	c-0.2-0.1-0.4-0.1-0.7-0.1c-0.5,0-0.9,0.2-1.1,0.5c-0.2,0.3-0.4,0.8-0.4,1.4v4.1h-1.5v-4.5c0-0.5-0.1-0.9-0.3-1.1
	c-0.2-0.2-0.5-0.4-1-0.4c-0.2,0-0.4,0-0.6,0.1c-0.2,0.1-0.3,0.2-0.5,0.4c-0.1,0.2-0.3,0.3-0.3,0.6s-0.1,0.5-0.1,0.8v4.1h-1.5v-6.9
	H33.1z"/>
<path fill="#58595B" d="M49.5,16.9c0-0.3,0-0.6-0.1-0.9c-0.1-0.3-0.2-0.6-0.4-0.8s-0.4-0.4-0.6-0.6c-0.2-0.1-0.5-0.2-0.8-0.2
	c-0.6,0-1.1,0.2-1.5,0.7c-0.3,0.5-0.5,1.1-0.5,1.8c0,0.4,0,0.7,0.1,1s0.2,0.6,0.4,0.8c0.2,0.2,0.4,0.4,0.6,0.5
	c0.2,0.1,0.5,0.2,0.8,0.2c0.4,0,0.6-0.1,0.9-0.2c0.2-0.1,0.4-0.3,0.6-0.6c0.2-0.2,0.3-0.5,0.3-0.8C49.5,17.5,49.5,17.2,49.5,16.9
	 M44.1,13.4h1.5v0.9l0,0c0.2-0.4,0.5-0.7,0.9-0.9s0.8-0.3,1.3-0.3c0.6,0,1,0.1,1.4,0.3s0.8,0.5,1,0.8c0.3,0.3,0.5,0.7,0.6,1.2
	s0.2,0.9,0.2,1.4s-0.1,0.9-0.2,1.4c-0.1,0.4-0.3,0.8-0.6,1.2s-0.6,0.6-0.9,0.8c-0.4,0.2-0.8,0.3-1.3,0.3c-0.2,0-0.5,0-0.7-0.1
	c-0.2,0-0.4-0.1-0.6-0.2c-0.2-0.1-0.4-0.2-0.6-0.3c-0.2-0.1-0.3-0.3-0.4-0.5l0,0V23h-1.5v-9.6H44.1z"/>
<rect x="51.8" y="10.7" fill="#58595B" width="1.5" height="9.6"/>
<path fill="#58595B" d="M54,13.4h1.7l1.8,5.2l0,0l1.8-5.2h1.6l-2.7,7.4c-0.1,0.3-0.2,0.6-0.4,0.9c-0.1,0.3-0.3,0.5-0.4,0.8
	c-0.2,0.2-0.4,0.4-0.7,0.5s-0.6,0.2-1,0.2s-0.7,0-1.1-0.1v-1.3c0.1,0,0.2,0,0.4,0.1c0.1,0,0.2,0,0.4,0s0.3,0,0.4-0.1
	c0.1,0,0.2-0.1,0.3-0.2s0.1-0.2,0.2-0.3c0.1-0.1,0.1-0.3,0.1-0.4l0.2-0.5L54,13.4z"/>
<path fill="#58595B" d="M61.5,10.7H63v3.6l0,0c0.2-0.3,0.5-0.6,0.8-0.8c0.4-0.2,0.8-0.3,1.3-0.3c0.8,0,1.4,0.2,1.8,0.6
	c0.4,0.4,0.7,1,0.7,1.8v4.8h-1.5V16c0-0.6-0.1-0.9-0.4-1.2c-0.2-0.2-0.6-0.4-1-0.4c-0.3,0-0.5,0-0.7,0.1s-0.4,0.2-0.5,0.4
	s-0.3,0.4-0.3,0.6C63.1,15.8,63,16,63,16.3v4.1h-1.5V10.7z"/>
<path fill="#58595B" d="M31.4,10.8c-0.5,0-0.9,0.4-0.9,0.9s0.4,0.9,0.9,0.9s0.9-0.4,0.9-0.9S31.9,10.8,31.4,10.8 M31.4,10.8
	c-0.5,0-0.9,0.4-0.9,0.9s0.4,0.9,0.9,0.9s0.9-0.4,0.9-0.9S31.9,10.8,31.4,10.8 M30.6,13.4h1.5v7h-1.5C30.6,20.4,30.6,13.4,30.6,13.4
	z"/>
<path fill="#58595B" d="M73.4,16.3c0-0.2-0.1-0.5-0.2-0.7S73,15.2,72.8,15c-0.1-0.2-0.3-0.3-0.5-0.4c-0.2-0.1-0.4-0.2-0.7-0.2
	c-0.3,0-0.5,0-0.7,0.1s-0.4,0.2-0.6,0.4s-0.3,0.4-0.4,0.6c-0.1,0.2-0.1,0.5-0.2,0.7L73.4,16.3L73.4,16.3z M69.8,17.3
	c0,0.3,0,0.5,0.1,0.8s0.2,0.5,0.3,0.7c0.2,0.2,0.3,0.3,0.6,0.5c0.2,0.1,0.5,0.2,0.8,0.2c0.5,0,0.8-0.1,1.1-0.3
	c0.3-0.2,0.5-0.5,0.6-0.9h1.5c-0.1,0.4-0.2,0.7-0.4,1c-0.2,0.3-0.4,0.5-0.7,0.8c-0.3,0.2-0.6,0.4-0.9,0.5s-0.7,0.2-1.1,0.2
	c-0.5,0-1-0.1-1.5-0.3c-0.4-0.2-0.8-0.4-1.1-0.8c-0.3-0.3-0.5-0.7-0.7-1.2c-0.1-0.5-0.2-0.9-0.2-1.5c0-0.5,0.1-1,0.2-1.4
	c0.2-0.4,0.4-0.8,0.7-1.2c0.3-0.3,0.6-0.6,1.1-0.8c0.4-0.2,0.9-0.3,1.4-0.3s1,0.1,1.5,0.3c0.4,0.2,0.8,0.5,1.1,0.9
	c0.3,0.4,0.5,0.8,0.6,1.3c0.1,0.5,0.2,1,0.1,1.5C74.9,17.3,69.8,17.3,69.8,17.3z"/>
<rect x="84" y="10.7" fill="#58595B" width="1.5" height="9.6"/>
<path fill="#58595B" d="M86.2,13.4h1.2v-2.1h1.5v2.1h1.4v1.1h-1.4v3.7c0,0.2,0,0.3,0,0.4s0,0.2,0.1,0.3s0.1,0.1,0.2,0.2
	c0.1,0,0.2,0.1,0.4,0.1c0.1,0,0.2,0,0.3,0c0.1,0,0.2,0,0.3,0v1.2c-0.2,0-0.3,0-0.5,0.1c-0.2,0-0.3,0-0.5,0c-0.4,0-0.7,0-1-0.1
	c-0.2-0.1-0.4-0.2-0.6-0.3c-0.1-0.1-0.2-0.3-0.3-0.6c0-0.2-0.1-0.5-0.1-0.8v-4.1H86v-1.2H86.2z"/>
<path fill="#58595B" d="M91,10.7h1.5v3.6l0,0c0.2-0.3,0.5-0.6,0.8-0.8c0.4-0.2,0.8-0.3,1.3-0.3c0.8,0,1.4,0.2,1.8,0.6
	c0.4,0.4,0.7,1,0.7,1.8v4.8h-1.5V16c0-0.6-0.1-0.9-0.4-1.2c-0.2-0.2-0.6-0.4-1-0.4c-0.3,0-0.5,0-0.7,0.1s-0.4,0.2-0.5,0.4
	s-0.3,0.4-0.3,0.6c-0.1,0.2-0.1,0.5-0.1,0.7v4.1H91V10.7z"/>
<path fill="#58595B" d="M81.1,19.7c-0.8,1.1-5.5,1.9-5.5-2.8c0-0.5,0.1-1,0.2-1.4c0.1-0.5,0.3-0.8,0.6-1.2c0.3-0.3,0.6-0.6,1-0.8
	s0.9-0.3,1.4-0.3c0.4,0,0.9,0.1,1.3,0.3s0.7,0.5,0.9,0.9l0,0v-0.9h1.5v1.8v3.6c0,0.2,0,0.3,0.1,0.4s0.1,0.1,0.3,0.1h0.2
	c0.1,0,0.1,0,0.2,0v1.1c-0.1,0-0.1,0-0.2,0.1c-0.1,0-0.2,0-0.3,0.1c-0.1,0-0.2,0-0.3,0c-0.1,0-0.2,0-0.2,0c-0.3,0-0.6-0.1-0.8-0.2
	C81.3,20.2,81.2,20,81.1,19.7 M77.3,17.8c0.1,0.3,0.2,0.6,0.3,0.8c0.2,0.2,0.4,0.4,0.6,0.6c0.2,0.1,0.5,0.2,0.9,0.2
	c0.3,0,0.6-0.1,0.8-0.2c0.2-0.1,0.4-0.3,0.6-0.5s0.3-0.5,0.4-0.8s0.1-0.6,0.1-1c0-0.7-0.2-1.3-0.5-1.8c-0.3-0.4-0.8-0.7-1.5-0.7
	c-0.3,0-0.6,0.1-0.8,0.2s-0.4,0.3-0.6,0.6s-0.3,0.5-0.4,0.8c-0.1,0.3-0.1,0.6-0.1,0.9C77.2,17.2,77.2,17.5,77.3,17.8"/>
</svg>
