<?xml version="1.0" encoding="utf-8"?>
<!-- Generator: Adobe Illustrator 22.1.0, SVG Export Plug-In . SVG Version: 6.00 Build 0)  -->
<svg version="1.1" id="Layer_1" xmlns="http://www.w3.org/2000/svg" xmlns:xlink="http://www.w3.org/1999/xlink" x="0px" y="0px"
	 viewBox="0 0 495.2 301.2" enable-background="new 0 0 495.2 301.2" xml:space="preserve">
<path fill="none" d="M392.7,74.9v0.4H455v-1.1h-0.4v-1.5h-0.4v-1.1h-0.4v-1.5h-0.4v-0.8H453v-0.8h-0.4v-1.1h-0.4v-0.8H452v-0.8h-0.4
	V65h-0.4v-0.8h-0.4v-0.4h-0.4V63H450v-0.4h-0.4V62h-0.4v-0.4H449v-0.4h-0.4v-0.8h-0.4V60h-0.4v-0.4h-0.4v-0.4H447V59h-0.4v-0.4h-0.4
	v-0.4H446v-0.4h-0.4v-0.4h-0.4V57h-0.4v-0.4h-0.4v-0.4H444V56h-0.4v-0.4h-0.4v-0.4h-0.8v-0.4H442v-0.4h-0.8V54H441v-0.4h-0.4v-0.4
	h-0.8V53H439v-0.4h-0.8v-0.4h-0.8v-0.4h-0.8v-0.4h-0.8V51H435v-0.4h-0.8v-0.4h-1.5v-0.4h-1.5v-0.4h-1.1V49h-2.3v-0.4h-7.9V49h-2.6
	v0.4h-1.1v0.4H415v0.4h-1.1v0.4h-1.1V51H412v0.4h-0.8v0.4h-0.8v0.4h-0.8v0.4h-0.8V53H408v0.4h-0.8v0.4h-0.4v0.4h-0.4v0.4h-0.8V55
	h-0.4v0.4h-0.8v0.4H404V56h0v0.4h-0.4v0.4h-0.4v0.4h-0.4v0.4h-0.4V58H402v0.4h-0.4v0.4h-0.4V59H401v0.4h-0.4v0.4h-0.4v0.4h-0.4v0.4
	h-0.4V61H399v0.8h-0.4V62h-0.4v0.8H398v0.4h-0.4V64h-0.4v0.4h-0.4V65h-0.4v0.8H396v0.8h-0.4v0.8h-0.4v0.8H395V69h-0.4v0.8h-0.4v1.1
	h-0.4v1.5h-0.4v1.5H393V75 M303.6,114.1v0.4h1.5v-0.4h3.4v-0.4h2.6v-0.4h1.1V113h1.1v-0.4h1.1v-0.4h1.1v-0.4h1.1v-0.4h0.8V111h0.4
	v-0.4h0.8v-0.4h0.8V110h0.8v-0.4h0.4v-0.4h0.8v-0.4h0.8v-0.4h0.4V108h0.4v-0.4h0.4v-0.4h0.8V107h0.4v-0.4h0.4v-0.4h0.4v-0.4h0.4
	v-0.4h0.4V105h0.8v-0.4h0.4v-0.8h0.4v-0.4h0.4V103h0.4v-0.4h0.4V102h0.4v-0.4h0.4v-0.4h0.4v-0.4h0.4V100h0.4v-0.4h0.4V99h0.4v-0.8
	h0.4v-0.8h0.4v-0.8h0.4V96h0.4v-0.4h0.4v-0.8h0.4V94h0.4v-1.5h0.4v-1.1h0.4v-1.1h0.4v-1.5h0.4v-1.9h0.4v-3.8h0.4v-3.4h-0.4v-4.2
	h-0.4V74H335v-1.5h-0.4v-1.1h-0.4v-1.1h-0.4v-1.5h-0.4V68H333v-0.8h-0.4v-0.8h-0.4v-0.8h-0.4V65h-0.4v-0.4H331v-0.8h-0.4V63h-0.4
	v-0.4H330V62h-0.4v-0.4h-0.4v-0.4h-0.4v-0.4h-0.4V60H328v-0.4h-0.4v-0.4h-0.4V59H327v-0.8h-0.4v-0.4h-0.8v-0.4h-0.4V57H325v-0.4
	h-0.4v-0.4h-0.4V56h-0.8v-0.4H323v-0.4h-0.4v-0.4h-0.4v-0.4h-0.4V54H321v-0.4h-0.8v-0.4h-0.8V53H319v-0.4h-0.8v-0.4H318v-0.4h-0.8
	v-0.4h-0.8V51h-1.1v-0.4h-1.1v-0.4H313v-0.4h-1.1v-0.4h-1.5V49h-3.8v-0.4h-4.5V49h-3.8v0.4h-1.1v0.4h-1.1v0.4H295v0.4h-1.1V51h-1.1
	v0.4H292v0.4h-0.8v0.4h-0.8v0.4h-0.8V53h-0.4v0.4h-0.8v0.4h-0.8v0.4H287v0.4h-0.4V55h-0.4v0.4h-0.4v0.4h-0.4V56h-0.8v0.4h-0.4v0.4
	H284v0.4h-0.4v0.4h-0.4V58h-0.4v0.4h-0.4v0.4H282V59h-0.4v0.4h-0.4v0.4h-0.4v0.8h-0.4V61H280v0.4h-0.4v0.4h-0.4V62h-0.4v0.8h-0.4
	v0.4H278V64h-0.4v0.8h-0.4v0.8h-0.4v0.8h-0.4v0.4H276v0.8h0v0.8h-0.4v1.1h-0.4v1.1h-0.4v1.1h-0.4v1.1H274v1.1h-0.4v2.7h-0.4v3H273v3
	h0.4v3.8h0.4V89h0.4v1h0.4v1.1h0.4v1.5h0.4v1.1h0.4v0.8h0.4v0.8h0.4V96h0.4v0.8h0.4v0.8h0.4v0.8h0.4V99h0.4v0.8h0.4v0.4h0.4v0.4h0.4
	v0.4h0.4v0.8h0.4v0.4h0.4v0.4h0.4v0.8h0.4v0.4h0.4v0.4h0.4v0.4h0.4v0.4h0.4v0.4h0.4v0.4h0.4v0.4h0.4v0.4h0.4v0.4h0.4v0.4h0.8v0.4
	h0.4v0.4h0.4v0.4h0.4v0.4h0.4v0.4h0.8v0.4h0.8v0.4h0.4v0.4h0.8v0.4h0.8v0.4h0.8v0.4h0.4v0.4h0.8v0.4h1.1v0.4h1.1v0.4h1.1v0.4h1.1
	v0.4h1.1v0.4h2.3v0.4L303.6,114.1L303.6,114.1L303.6,114.1z M362.1,123.6v-0.4h-1.5v-0.4h-0.8v-0.4h-0.4v-0.8H359V6.1h0.4V5.4h0.4V5
	h0.8V4.6h5.7V5h0.8v0.4h0.4v0.8h0.4v115.6h-0.4v0.8H367v0.4h-0.8v0.4h-1.9v0.4L362.1,123.6L362.1,123.6z M128,123.6v-0.4h-1.1v-0.4
	h-0.8v-0.4h-0.4V122h-0.4v-1.1H125V42.4h0.4v-1.1h0.4v-0.4h0.8v-0.4h1.1v-0.4h3v0.4h1.5v0.4h0.4v0.4h0.4v0.4h0.4v9.8h0.8v-0.4h0.4
	v-0.4h0.4v-0.4h0.4v-0.4h0.4v-0.4h0.4v-0.4h0.4v-0.4h0.4v-0.4h0.4v-0.4h0.4v-0.4h0.4v-0.4h0.4v-0.4h0.8v-0.4h0.4v-0.4h0.8v-0.4h0.8
	v-0.4h0.4V45h0.8v-0.4h0.4v-0.4h0.8v-0.4h0.8v-0.4h0.8V43h0.8v-0.4h1.1v-0.4h1.1V42h1.1v-0.4h1.1v-0.4h1.1v-0.4h3.4v-0.4h3.4V40h2.7
	v0.4h3.8v0.4h1.9v0.4h1.9v0.4h1.1V42h1.1v0.4h1.1v0.4h0.8v0.4h0.8v0.4h0.8V44h0.8v0.4h0.8v0.4h0.8V45h0.8v0.4h0.4v0.4h0.8v0.4h0.4
	v0.4h0.8V47h0.4v0.4h0.4v0.4h0.8v0.4h0.4v0.4h0.4V49h0.4v0.4h0.4v0.4h0.4v0.4h0.4v0.4h0.4V51h0.4v0.4h0.4v0.4h0.4v0.4h0.4v0.4h0.4
	V53h0.4v0.4h0.4v0.4h0.4v0.4h0.4V55h0.4v0.8h0.4V56h0.4v0.8h0.4v0.4h0.8v-0.4h0.4V56h0.4v-0.4h0.4v-0.8h0.4v-0.4h0.4v-0.8h0.4v-0.4
	h0.4V53h0.4v-0.4h0.4v-0.4h0.4v-0.4h0.4V51h0.4v-0.4h0.4v-0.4h0.4v-0.4h0.4v-0.4h0.8V49h0.4v-0.4h0.4v-0.4h0.4v-0.4h0.4v-0.4h0.4V47
	h0.8v-0.4h0.4v-0.4h0.4v-0.4h0.8v-0.4h0.4V45h0.8v0h0.8v-0.4h0.8v-0.4h0.4v-0.4h0.8v-0.4h0.8V43h0.8v-0.4h1.1v-0.4h1.1V42h1.1v-0.4
	h1.1v-0.4h1.9v-0.4h1.5v-0.4h4.2V40h2.6v0.4h3.8v0.4h2.6v0.4h1.1v0.4h1.1V42h1.5v0.4h1.1v0.4h1.1v0.4h0.8v0.4h0.4V44h0.8v0.4h0.8
	v0.4h0.8V45h0.8v0.4h0.8v0.4h0.8v0.4h0.4v0.4h0.4V47h0.4v0.4h0.4v0.4h0.8v0.4h0.4v0.4h0.4V49h0.4v0.4h0.4v0.4h0.8v0.4h0.4v0.4h0.4
	v0.8h0.4v0.4h0.4v0.4h0.4v0.4h0.4V53h0.4v0.8h0.4v0.4h0.4v0.4h0.4V55h0.4v0.4h0.4v0.8h0.4V57h0.4v0.8h0.4v0.8h0.4v0.8h0.4V59h0.4
	v0.8h0.4v0.8h0.4v1.1h0.4v1.1h0.4v1.1h0.4v1.5h0.4v1.1h0.4v2.3h0.4v3.8h0.4v48.3h-0.4v1.1H255v0.4h-0.4v0.4h-0.8v0.4h-1.9v0.4h-1.1
	v-0.4h-1.5v-0.4h-0.8v-0.4h-0.4V122h-0.4v-0.4h-0.4V73.4h-0.4v-3h-0.4v-1.9h-0.4v-1.1h-0.4v-1.1H242V65h-0.4v-1.1h-0.4v-0.8h-0.4
	v-0.4h-0.4V62H240v-0.8h-0.4v-0.8h-0.4v-0.8H239v-0.4h-0.4V59h-0.4v-0.4h-0.4v-0.8h-0.4v-0.4H237V57h-0.4v-0.4h-0.4V56h-0.8v-0.4
	H235v-0.4h-0.4v-0.4h-0.4v-0.4h-0.4V54H233v-0.4h0v-0.4h-0.4V53h-0.8v-0.4h-0.4v-0.4h-0.8v-0.4H230v-0.4h-0.8V51h-0.8v-0.4h-0.8
	v-0.4h-1.1v-0.4h-1.1v-0.4h-1.1V49h-1.9v-0.4h-3.8v-0.4h-0.8v0.4H214V49h-1.9v0.4H211v0.4h-1.1v0.4h-1.1v0.4H208V51h-0.8v0.4h-0.8
	v0.4h-0.8v0.4h-0.4v0.4h-0.8V53h-0.8v0.4h-0.4v0.4h-0.4v0.4h-0.4v0.4H202V55h-0.4v0.4h-0.4v0.4h-0.4V56h-0.4v0.4H200v0.4h-0.4v0.4
	h-0.4v0.4H199v0.8h-0.4v0.4h-0.4V59h-0.4v0.4h-0.4v0.4H197v0.8h-0.4v0.8h-0.4V62H196v0.8h-0.4v0.8h-0.4v0.8h-0.4V65h-0.4v1.5H194
	v1.1h-0.4v1.1h-0.4v3h-0.4v49.1h-0.4v1.1H192v0.4h-0.4v0.4h-0.8v0.4h-1.1v0.4h-2.3v-0.4h-1.9v-0.4H185v-0.4h-0.4v-0.8h-0.4V73h-0.4
	v-3.8h-0.4v-1.1H183V67h-0.4v-1.5h-0.4v-1.1H182v-0.8h-0.4v-0.8h-0.4v-0.4h-0.4v-0.8h-0.4v-0.8H180V60h-0.4v-0.4h-0.4V59H179v-0.4
	h-0.4v-0.4h-0.4v-0.4h-0.4V57h-0.4v-0.4H177v-0.4h-0.4V56h-0.4v-0.4H176v-0.4h-0.4v-0.4h-0.8v-0.4h-0.4V54H174v-0.4h-0.4v-0.4h-0.4
	V53h-0.8v-0.4h-0.8v-0.4H171v-0.4h-0.4v-0.4h-0.8V51H169v-0.4h-0.8v-0.4h-1.1v-0.4h-1.5v-0.4h-1.1V49H163v-0.4h-3.8v-0.4h-1.1v0.4
	h-3.8V49h-1.5v0.4h-1.1v0.4h-1.5v0.4h-1.1v0.4h-0.8V51h-0.8v0.4h-0.4v0.4h-0.8v0.4h-0.8v0.4H145V53h-0.4v0.4h-0.8v0.4h-0.4v0.4H143
	v0.4h-0.4V55h-0.4v0.4h-0.8v0.4H141V56h-0.4v0.4h-0.4v0.4h-0.4v0.8h-0.4V58H139v0.4h0v0.4h-0.4V59h-0.4v0.8h-0.4v0.4h-0.4V61H137
	v0.8h-0.4v0.8h-0.4v0.8h-0.4v0.4h-0.4v0.8H135v1.5h-0.4v1.1h-0.4v1.1h-0.4v1.5h-0.4v3.8H133v48.3h-0.4v0.8h-0.8v0.4h-0.4v0.4h-1.1
	v0.4L128,123.6L128,123.6z M107.6,123.6v-0.4h-1.9v-0.4H105v-0.4h-0.4v-0.8h-0.4v-80h0.4v-0.4h0.4v-0.4h0.4v-0.4h0.8V40h4.5v0.4h1.1
	v0.4h0.4v0.4h0.4v1.1h0.4v78.5h-0.4v1.1h-0.4v0.4h-0.4v0.4H111v0.4h-1.9v0.4L107.6,123.6L107.6,123.6z M267.7,158.3v-0.4h-1.5v-0.4
	h-0.8v-0.4H265v-0.4h-0.4v-1.1h-0.4V80.9h0.4v-4.5h0.4v-1.9h0.4v-2.3h0.4v-1.5h0.4v-1.1h0.4v-1.1h0.4v-1.1h0.4v-1.1h0.4V65h0.4v-0.8
	h0.4v-0.8h0.4v-1.1h0.4v-0.8h0.4v-0.8h0.4v-0.8h0.4v-0.4h0.4V59h0.4v-0.8h0.4v-0.8h0.4V57h0.4v-0.8h0.4V56h0.4v-0.4h0.4v-0.4h0.4
	v-0.8h0.4V54h0.4v-0.4h0.4v-0.4h0.4V53h0.4v-0.4h0.4v-0.4h0.4v-0.4h0.4v-0.4h0.4V51h0.4v-0.4h0.4v-0.4h0.4v-0.4h0.4v-0.4h0.4V49h0.4
	v-0.4h0.8v-0.4h0.4v-0.4h0.4v-0.4h0.8V47h0.4v-0.4h0.4v-0.4h0.8v-0.4h0.8v-0.4h0.4V45h0.8v0h0.8v-0.4h0.4v-0.4h0.8v-0.4h1.1v-0.4
	h0.8V43h0.8v-0.4h0.8v-0.4h1.1V42h1.5v-0.4h1.1v-0.4h1.5v-0.4h1.9v-0.4h2.3V40h9.1v0.4h2.7v0.4h1.9v0.4h1.5v0.4h1.5V42h1.1v0.4h0.8
	v0.4h1.1v0.4h0.8v0.4h1.1V44h0.8v0.4h0.8v0.4h0.8V45h0.4v0.4h0.8v0.4h0.8v0.4h0.4v0.4h0.8V47h0.4v0.4h0.8v0.4h0.4v0.4h0.4v0.4h0.8
	V49h0.4v0.4h0.4v0.4h0.4v0.4h0.4v0.4h0.4V51h0.8v0.4h0.4v0.4h0.4v0.4h0.4v0.4h0.4V53h0.4v0.8h0.4v0.4h0.4v0.4h0.4V55h0.4v0.4h0.4
	v0.4h0.4V56h0.4v0.4h0.4v0.8h0.4v0.4h0.4V58h0.4v0.8h0.4v0.8h0.4V60h0.4v0.8h0.4v0.8h0.4V62h0.4v1.1h0.4v0.8h0.4v0.8h0.4V65h0.4v1.1
	h0.4v1.1h0.4V68h0.4v1.1h0.4V71h0.4v1.5h0.4v1.9h0.4v3h0.4v7.9h-0.4v2.6H344v2.3h-0.4v1.5h-0.4v1.5h-0.4v1.1h-0.4v1.1H342v1.1h-0.4
	v1.1h-0.4v0.8H341v0.8h-0.4v0.8h-0.4v0.8h-0.4v0.8h-0.4v0.8H339v0.4h-0.4v0.8h-0.4v0.8H338v0.4h-0.4v0.8h-0.4v0.4h-0.4v0.4h-0.4v0.8
	H336v0.4h-0.4v0.8h-0.4v0.4H335v0.4h-0.4v0.4h-0.4v0.4h-0.4v0.4h-0.4v0.4H333v0.4h-0.4v0.4h-0.4v0.4h-0.4v0.4h-0.4v0.4H331v0.4h-0.4
	v0.4h-0.4v0.4h-0.4v0.4h-0.4v0.4h-0.8v0.4h-0.4v0.4h-0.4v0.4H327v0.4h0v0.4h-0.4v0.4h-0.8v0.4H325v0.4h-0.4v0.4H324v0.4h-0.8v0.4
	h-0.8v0.4h-0.8v0.4H321v0.4h-0.8v0.4h-0.8v0.4h-1.1v0.4h-0.8v0.4h-1.1v0.4h-1.5v0.4h-1.5v0.4h-1.9v0.4h-2.3v0.4h-9.8v-0.4h-1.9v-0.4
	h-2.3v-0.4h-1.1v-0.4h-1.5V122h-1.1v-0.4h-1.1v-0.4h-0.8v-0.4h-0.8v-0.4H288V119h-0.8v-0.4h-1.1v-0.4h-0.4v-0.4h-0.8v-0.4h-0.4V117
	H284v-0.4h-0.8v-0.4h-0.4V116H282v-0.4h-0.4v-0.4h-0.4v-0.4h-0.4v-0.4H280V114h-0.4v-0.4h-0.4v-0.4h-0.4V113h-0.4v-0.4H278v-0.4
	h-0.4v-0.4h-0.4v-0.4h-0.4V111h-0.4v-0.4H276v-0.4h0V110h-0.4v-0.4h-0.4v-0.4h-0.4v-0.4h-0.4V108H274v-0.4h-0.4v-0.4h-0.4V107H273
	v49.5h-0.4v0.8h-0.4v0.4h-0.8v0.4H270v0.4L267.7,158.3L267.7,158.3z M222,208.2v0.4h5.7v-0.4h3.4v-0.4h1.1v-0.4h1.1V207h1.1v-0.4
	h1.1v-0.4h1.1v-0.4h0.8v-0.4h0.4V205h0.8v-0.4h0.8v-0.4h0.4V204h0.8v-0.4h0.8v-0.4h0.8v-0.4h0.4v-0.4h0.4V202h0.4v-0.4h0.4v-0.4h0.4
	V201h0.4v-0.4h0.8v-0.4h0.4v-0.4h0.4v-0.4h0.4V199h0.4v-0.4h0.4v-0.4h0.4v-0.7h0.4v-0.4h0.4v-0.4h0.4v-0.8h0.4v-0.4h0.4v-0.4h0.4
	v-0.4h0.4v-0.8h0.4v-0.4h0.4v-0.8h0.4v-0.8h0.4v-0.8h0.4v-0.8h0.4V190h0.4v-0.8h0.4v-0.8h0.4V187h0.4v-1.1h0.4v-1.5h0.4v-1.1h0.4
	v-1.5h0.4v-4.2h0.4v-4.1h-0.4v-4.2h-0.4v-1.5h-0.4v-1.1H255v-1.5h-0.4V164h-0.4v-1.5H253v-0.7h-0.4V161h-0.4v-0.8h-0.4v-0.4h-0.4
	V159H251v-0.8h-0.4v-0.8h-0.4v-0.8H250v-0.4h-0.4v-0.8h-0.4V155h-0.4v-0.4h-0.4v-0.4H248v-0.8h-0.4V153h-0.4v0H247v-0.8h-0.4v-0.4
	h-0.4v-0.4h-0.8V151H245v-0.4h-0.4v-0.4h-0.4V150h-0.4v-0.4h-0.4v-0.4H243v-0.4h-0.8v-0.4H242V148h-0.4v-0.4h-0.8v-0.4H240V147h-0.8
	v-0.4H239v-0.4h-0.8v-0.4h-0.8v-0.4h-0.8V145H236v-0.4h-1.1v-0.4h-1.1V144h-1.1v-0.4h-1.1v-0.4H229v-0.4h-3.8v-0.4h-0.4v0.4H221v0.4
	h-2.7v0.4h-1.1v0.4H216v0.4h-1.1v0.4h-1.1v0.4H213v0.4h-0.8v0.4h-0.8v0.4h-0.8v0.4h-0.4v0.4h-0.8v0.4h-0.8v0.4h-0.4v0.4h-0.8v0.4
	H207v0.4h-0.4v0.4h-0.4v0.4h-0.8v0.4H205v0.4h0v0.4h-0.4v0.4h-0.4v0.4h-0.4v0.4h-0.4v0.4H203v0.4h-0.4v0.4h-0.4v0.4H202v0.7h-0.4
	v0.4h-0.4v0.4h-0.4v0.8h-0.4v0.4H200v0.4h-0.4v0.4h-0.4v0.8H199v0.8h-0.4v0.8h-0.4v0.8h-0.4v0.7h-0.4v0.8H197v0.8h-0.4v0.8h-0.4v1.5
	H196v1.1h-0.4v1.5h-0.4v1.1h-0.4v2.7h-0.4v3.8H194v1.5h0.4v4.2h0.4v2.6h0.4v1.1h0.4v1.5h0.4v1.1h0.4v1.5h0.4v0.7h0.4v0.8h0.4v0.8
	h0.4v0.8h0.4v0.8h0.4v0.7h0.4v0.8h0.4v0.8h0.4v0.4h0.4v0.4h0.4v0.8h0.4v0.4h0.4v0.4h0.4v0.8h0.4v0.4h0.4v0.4h0.4v0.8h0.4v0.4h0.4
	v0.4h0.4v0.4h0.8v0.4h0.4v0.4h0.4v0.4h0.4v0.4h0.4v0.4h0.4v0.4h0.4v0.4h0.4v0.4h0.8v0.4h0.4v0.4h0.8v0.4h0.8v0.4h0.4v0.4h0.8v0.4
	h0.8v0.4h0.8v0.4h0.4v0.4h1.1v0.4h1.1v0.4h1.1v0.4h1.1v0.4h1.1v0.4L222,208.2L222,208.2L222,208.2z M395,208.5v0.4h4.2v-0.4h3.4
	v-0.4h1.5v-0.4h1.1v-0.4h1.1V207h1.1v-0.4h1.1v-0.4h0.8v-0.4h0.8v-0.4h0.4V205h0.8v-0.4h0.8v-0.4h0.8V204h0.4v-0.4h0.8v-0.4h0.4
	v-0.4h0.8v-0.4h0.4V202h0.4v-0.4h0.4v-0.4h0.4V201h0.4v-0.4h0.4v-0.4h0.8v-0.4h0.4v-0.4h0.4V199h0.4v-0.8h0.4V198h0.4v-0.4h0.4v-0.4
	h0.4v-0.8h0.4V196h0.4v-0.4h0.4v-0.8h0.4v-0.4h0.4v-0.7h0.4v-0.4h0.4v-0.8h0.4v-0.7h0.4V191h0.4v-0.8h0.4v-0.8h0.4v-0.8h0.4v-1.1
	h0.4V186h0.4v-1.1h0.4v-1.5h0.4v-1.1h0.4v-4.1h0.4v-4.9h-0.4v-4.2h-0.4v-1.5h-0.4v-1.1h-0.4V165H426v-1h-0.4v-1.1h-0.4v-0.8h-0.4
	v-0.8h-0.4v-0.8H424v-0.7h-0.4V159h-0.4v-0.8h-0.4v-0.8h-0.4v-0.8H422v-0.4h-0.4V156h-0.4v-0.7h-0.4v-0.4h-0.4v-0.4H420v-0.4h-0.4
	v-0.7h-0.4V153h-0.4v-0.4h-0.4v-0.4H418v-0.4h0v-0.4h-0.4V151h-0.4v-0.4h-0.4v-0.4h-0.4V150H416v-0.4h-0.4v-0.4H415v-0.4h-0.4v-0.4
	h-0.4V148h-0.4v-0.4H413v-0.4h-0.8V147H412v-0.4h-0.8v-0.4h-0.8v-0.4h-0.8v-0.4h-0.4V145h-1.1v-0.4H407v-0.4h-1.1V144h-1.1v-0.4
	h-1.1v-0.4h-1.5v-0.4h-3.4v-0.4h-3.4v0.4h-3.8v0.4h-1.5v0.4H389v0.4h-1.1v0.4h-1.1v0.4h-1.1v0.4h-0.8v0.4H384v0.4h-0.8v0.4h-0.4v0.4
	H382v0.4h-0.8v0.4h-0.8v0.4H380v0.4h-0.8v0.4h-0.4v0.4h-0.4v0.4H378v0.4h0v0.4h-0.4v0.4h-0.8v0.4h-0.4v0.4H376v0.4h-0.4v0.4h-0.4
	v0.4H375v0.4h-0.4v0.4h-0.4v0.8h-0.4v0.4h-0.4v0.4H373v0.8h-0.4v0.4h-0.4v0.4H372v0.4h-0.4v0.8h-0.4v0.8h-0.4v0.7h-0.4v0.8H370v0.4
	h-0.4v0.7h-0.4v0.8h-0.4v0.8h-0.4v1.1H368v1.1h-0.4v1.1h-0.4v1.5H367v1.1h-0.4v1.9h-0.4v4.2h-0.4v3.4h0.4v3.8h0.4v1.9h0.4v1.5h0.4
	v1.1h0.4v1.5h0.4v1.1h0.4v0.8h0.4v0.8h0.4v0.7h0.4v0.8h0.4v0.8h0.4v0.8h0.4v0.8h0.4v0.7h0.4v0.4h0.4v0.4h0.4v0.8h0.4v0.4h0.4v0.4
	h0.4v0.4h0.4v0.8h0.4v0.4h0.4v0.4h0.4v0.4h0.4v0.4h0.4v0.4h0.4v0.4h0.4v0.4h0.4v0.4h0.4v0.4h0.4v0.4h0.8v0.4h0.4v0.4h0.4v0.4h0.4
	v0.4h0.4v0.4h0.8v0.4h0.8v0.4h0.4v0.4h0.8v0.4h0.8v0.4h0.8v0.4h0.4v0.4h0.8v0.4h1.1v0.4h1.1v0.4h1.1v0.4h1.5v0.4h1.1v0.4L395,208.5
	L395,208.5L395,208.5z M452.4,217.6v-0.4h-1.5v-0.4h-0.4v-0.4h-0.4v-0.8h-0.4V114.1h-0.4v0.4H449v0.4h-0.4v0.4h-0.8v0.4h-0.4v0.4
	h-0.8v0.4h-0.4v0.4H446v0.4h-0.8v0.4h-0.4v0.4H444v0.4h-0.8v0.4h-0.8v0.4h-0.8v0.4h-0.8v0.4H440v0.4h-0.8v0.4h-0.8v0.4h-1.1v0.4
	h-1.1v0.4H435v0.4h-1.5v0.4h-1.1v0.4h-2.7v0.4h-4.1v0.4h-3.8v-0.4H418v-0.4h-2.3v-0.4h-1.5v-0.4h-1.5v-0.4h-1.1v-0.4h-1.1v-0.4h-0.8
	v-0.4h-1.1v-0.4h-0.8v-0.4H407v-0.4h-0.8V119h-0.8v-0.4h-0.8v-0.4h-0.8v-0.4h-0.4v-0.4h-0.8V117h-0.8v-0.4h-0.4v-0.4H401V116h-0.4
	v-0.4h-0.4v-0.4h-0.8v-0.4H399v-0.4h-0.4V114h-0.4v-0.4H398v-0.4h-0.8V113h-0.4v-0.4h-0.4v-0.4H396v-0.4h-0.4v-0.4h-0.4V111H395
	v-0.4h-0.4v-0.4h-0.4v-0.8h-0.4V109h-0.4v-0.4H393v-0.4h-0.4v-0.4h-0.4V107H392v0h-0.4v-0.4h-0.4v-0.8h-0.4v-0.4h-0.4v-0.8H390v-0.8
	h-0.4v-0.4h-0.4v-0.8h-0.4V102h-0.4v-0.8H388v-0.8h-0.4v-0.7h-0.4V99h-0.4v-0.8h-0.4v-1.1H386V96h-0.4v-0.8h-0.4v-1.5h-0.4v-1.5
	h-0.4v-1.5H384v-2.3h0v-3h-0.4v-6.8h0.4v-3.4h0.4V73h0.4v-1.5h0.4V70h0.4v-1.1h0.4v-1.1h0.4v-1.1h0.4v-1.1h0.4v-0.8h0.4V64h0.4v-0.8
	h0.4v-0.8h0.4v-0.8h0.4v-0.8h0.4V60h0.4v-0.4h0.4V59h0.4v-0.8h0.4v-0.4h0.4v-0.4h0.4v-0.8h0.4v-0.4h0.4v-0.8h0.4V55h0.4v-0.4h0.4
	v-0.4h0.4v-0.4h0.4V53h0.4v0h0.4v-0.4h0.4v-0.4h0.4v-0.4h0.4v-0.4h0.4V51h0.4v-0.4h0.4v-0.4h0.4v-0.4h0.8v-0.4h0.4V49h0.4v-0.4h0.4
	v-0.4h0.8v-0.4h0.4v-0.4h0.4V47h0.8v-0.4h0.4v-0.4h0.8v-0.4h0.4v-0.4h0.8V45h0.8v0h0.4v-0.4h0.8v-0.4h0.8v-0.4h1.1v-0.4h0.8V43h0.8
	v-0.4h1.1v-0.4h1.1V42h1.1v-0.4h1.1v-0.4h1.5v-0.4h2.3v-0.4h2.6V40h6v0.4h3.8v0.4h2.6v0.4h1.1v0.4h1.5V42h1.1v0.4h1.1v0.4h1.1v0.4
	h1.1v0.4h0.8V44h0.8v0.4h0.4v0.4h0.8V45h0.8v0.4h0.8v0.4h0.8v0.4h0.8v0.4h0.4V47h0.8v0.4h0.4v0.4h0.4v0.4h0.4v0.4h0.8V49h0.4v0.4
	h0.4v0.4h0.4v0.4h0.8v0.4h0.4V51h0.4v0.4h0.4v0.4h0.4v0.4h0.4v0.4h0.4V53h0.4v0h0.4v0.8h0.4v0.4h0.4v0.4h0.4V55h0.4v0.4h0.4v0.4h0.4
	v0.8h0.4V57h0.4v0.4h0.4v0.8h0.4V59h0.4v0h0.4v0.8h0.4v0.8h0.4v0.8h0.4v0.4h0.4v0.8h0.4v0.8h0.4v0.8h0.4V65h0.4v1.1h0.4v1.1h0.4v1.1
	h0.4v0.8h0.4v1.1h0.4v1.5h0.4V74h0.4v2h0.4v1.9h0.4v2.3h-0.4v1.5h-0.4V82h-0.4v0.4H463v0.4h-0.8v0.4h-0.8v0.4h-69.1v1.9h0.4v2.6h0.4
	v2.3h0.4v1.1h0.4v0.8h0.4v1.1h0.4v1.1h0.4v1.1h0.4v0.8h0.4v0.8h0.4V98h0.4v0.4h0.4V99h0.4v0.8h0.4v0.8h0.4v0.4h0.4v0.8h0.4v0.4h0.4
	v0.4h0.4v0.4h0.4v0.4h0.4v0.8h0.4v0.4h0.4v0.4h0.4v0.4h0.4v0.4h0.4v0.4h0.4v0.4h0.4v0.4h0.4v0.4h0.4v0.4h0.4v0.4h0.8v0.4h0.4v0.4
	h0.4v0.4h0.4v0.4h0.8v0.4h0.4v0.4h0.8v0.4h0.8v0.4h0.8v0.4h0.4v0.4h0.8v0.4h0.8v0.4h0.8v0.4h1.1v0.4h1.1v0.4h1.1v0.4h1.5v0.4h1.1
	v0.4h3.4v0.4h6.8v-0.4h1.9V115h1.9v-0.4h1.1v-0.4h1.1V113h1.1v-0.4h1.1v-0.4h0.8v-0.4h0.8v-0.4h0.8V111h0.8v-0.4h0.4v-0.4h0.8V110
	h0.8v-0.4h0.4v-0.4h0.8v-0.4h0.4v-0.4h0.4V108h0.4v-0.4h0.4v-0.4h0.8V107h0.4v-0.4h0.4v-0.4h0.4v-0.4h0.4v-0.4h0.4V105h0.4v-0.4h0.4
	v-0.4h0.4v-0.8h0.4V103h0.4v-0.4h0.4V102h0.4v-0.4h0.4v-0.4h0.4v-0.8h0.4V100h0.4v-0.4h0.4v-0.4h0.4v-0.8h0.8V98h1.5v-0.4h1.5V98
	h0.8v0.4h0.8V99h0.4v0.4h0.4v0.8h0.4v1.5h0.4v114H460v0.8h-0.4v0.4h-0.4v0.4h-1.5v0.4L452.4,217.6L452.4,217.6z M395.4,217.6v-0.4
	h-4.2v-0.4H389v-0.4h-1.5V216H386v-0.4h-1.1v-0.4h-1.1V215H383v-0.4h-1.1v-0.4H381v-0.4h-0.8v-0.4h-0.8V213h-0.8v-0.4H378v-0.4h-0.4
	v-0.4h-0.8v-0.4H376V211h-0.4v-0.4H375v-0.4h-0.4v-0.4h-0.4v-0.4h-0.8V209H373v-0.4h-0.4v-0.4h-0.4v-0.4h-0.8v-0.4H371V207h-0.4v0
	h-0.4v-0.4h-0.4v-0.4h-0.4v-0.4H369v-0.4h-0.4V205h-0.4v-0.4h-0.4v-0.4h-0.4v-0.8H367V203h0v-0.4h-0.4v-0.4h-0.4v-0.4h-0.4v-0.7
	h-0.4V201H365v-0.8h-0.4v-0.4h-0.4V199H364v-0.4h-0.4V198h-0.4v-0.8h-0.4v-0.4h-0.4V196H362v-0.8h-0.4v-0.8h-0.4v-1.1H361v-0.8h-0.4
	v-0.7h-0.4v-1.1h-0.4v-1.1h-0.4v-1.1H359v-1.1h-0.4v-1.5h-0.4V184H358v-2.7h-0.4V176h-0.4v-0.4h0.4V170h0.4v-2.6h0.4v-1.5h0.4v-1.5
	h0.4v-1.5h0.4v-1.1h0.4v-1.1h0.4V160h0.4v-1.1h0.4v-0.7h0.4v-0.8h0.4v-0.8h0.4v-0.8h0.4V155h0.4v-0.8h0.4v-0.7h0.4V153h0.4v-0.8h0.4
	v-0.4h0.4V151h0.4v-0.4h0.4V150h0.4v-0.4h0.4v-0.4h0.4v-0.8h0.4V148h0.4v-0.4h0.4v-0.4h0.4V147h0.4v-0.4h0.4v-0.4h0.4v-0.4h0.4v-0.4
	h0.4V145h0.4v-0.4h0.4v-0.4h0.4V144h0.4v-0.4h0.4v-0.4h0.4v-0.4h0.8v-0.4h0.4V142h0.4v-0.4h0.4v-0.4h0.8v-0.4h0.4v-0.4h0.8V140h0.4
	v-0.4h0.8v-0.4h0.4V139h0.8v-0.4h0.8v-0.4h0.8v-0.4h0.8v-0.4h0.8V137h1.1v-0.4h0.8v-0.4h1.1V136h1.1v-0.4h1.1v-0.4h1.5v-0.4h1.9
	v-0.4h2.3V134h8.7v0.4h2.6v0.4h1.9v0.4h1.5v0.4h1.1v0.4h1.1v0.4h1.1v0.4h1.1v0.4h0.8v0.4h0.8v0.4h0.8v0.4h0.8v0.4h0.8v0.4h0.8v0.4
	h0.4v0.4h0.8v0.4h0.4v0.4h0.8v0.4h0.4v0.4h0.8v0.4h0.4v0.4h0.4v0.4h0.8v0.4h0.4v0.4h0.4v0.4h0.4v0.4h0.4v0.4h0.4v0.4h0.4v0.4h0.4
	v0.4h0.4v0.4h0.4v0.4h0.4v0.4h0.8v0.8h0.4v0.4h0.4v0.4h0.4v0.4h0.4v0.8h0.4v0.4h0.4v0.4h0.4v0.4h0.4v0.8h0.4v0.8h0.4v0.4h0.4v0.8
	h0.4v0.8h0.4v0.8h0.4v0.8h0.4v0.7h0.4v0.8h0.4v0.8h0.4v0.8h0.4v1.1h0.4v0.8h0.4v1.1h0.4v1.1h0.4v1.1h0.4v1.5h0.4v1.5h0.4v1.9h0.4
	v1.9h0.4v4.9h0.4v40h-0.4v1.1h-0.4v0.4H438v0.4h-1.5v0.4h-3.4v-0.4H429v-0.4h-0.4v-0.4h-0.4v-1.1h-0.4v-13.6h-0.4v0.4H427v0.8h-0.4
	v0.4h-0.4v0.4H426v0.4h-0.4v0.8h-0.4v0.4h-0.4v0.4h-0.4v0.4H424v0.4h-0.4v0.4h-0.4v0.4h-0.4v0.4h-0.4v0.4h-0.8v0.4h-0.4v0.4h-0.4
	v0.4h-0.4v0.4h-0.8v0.4h-0.4v0.4h-0.4v0.4H418v0.4h0v0.4h-0.8v0.4h-0.4v0.4H416v0.4h-0.8v0.4H415v0.4h-0.8v0.4h-0.8v0.4h-1.1v0.4
	h-0.8v0.4h-0.8v0.4h-1.1v0.4h-1.1v0.4h-1.1v0.4h-1.1v0.4h-1.9v0.4h-1.9v0.4h-4.1v0.4L395.4,217.6L395.4,217.6L395.4,217.6z
	 M311.2,217.6v-0.4h-3.8v-0.4h-2.6v-0.4h-1.1V216h-1.5v-0.4H301v-0.4h-1.1V215h-1.1v-0.4H298v-0.4h-0.8v-0.4h-0.4v-0.4H296V213h-0.8
	v-0.4h-0.8v-0.4h-0.8v-0.4H293v-0.4h-0.4V211h-0.4v-0.4h-0.4v-0.4h-0.4v-0.4h-0.8v-0.4h-0.4V209H290v-0.4h-0.4v-0.4h-0.4v-0.4h-0.8
	v-0.4H288V207h-0.4v0h-0.4v-0.8H287v-0.4h-0.4v-0.4h-0.4V205h-0.4v-0.8h-0.4V204H285v-0.4h-0.4v-0.4h-0.4v-0.8H284V202h-0.4v-0.7
	h-0.4v-0.8h-0.4v-0.8h-0.4v-0.8H282v-0.8h-0.4V198h-0.4v-0.8h-0.4v-1.1h-0.4V195H280v-1.1h-0.4v-1.5h-0.4v-1.1h-0.4V189h-0.4v-3.8
	H278v-49.8h0.4v-0.8h0.4v-0.4h1.5v-0.4h4.2v0.4h1.1v0.4h0.8v1.1h0.4v51h0.4v2.3h0.4v1.5h0.4v1.1h0.4v1.1h0.4v1.1h0.4v0.4h0.4v0.8
	h0.4v0.8h0.4v0.7h0.4v0.8h0.4v0.8h0.4v0.4h0.4v0.4h0.4v0.4h0.4v0.4h0.4v0.7h0.4v0.4h0.4v0.4h0.4v0.4h0.4v0.4h0.4v0.4h0.4v0.4h0.4
	v0.4h0.8v0.4h0.4v0.4h0.4v0.4h0.4v0.4h0.8v0.4h0.4v0.4h0.8v0.4h0.8v0.4h0.8v0.4h0.8v0.4h0.4v0.4h1.1v0.4h1.5v0.4h1.1v0.4h1.1v0.4h3
	v0.4h4.2v-0.4h3v-0.4h1.1v-0.4h1.1V208h1.5v-1h1.1v-0.4h0.8v-0.4h0.4v-0.4h0.8v-0.4h0.8V205h0.8v-0.4h0.8v-0.4h0.4V204h0.4v-0.4h0.4
	v-0.4h0.8v-0.4h0.4v-0.4h0.4V202h0.4v-0.4h0.8v-0.4h0.4v-0.8h0.4V200h0.4v-0.4h0.4v-0.4h0.4v-0.4h0.4V198h0.4v0h0.4v-0.4h0.4v-0.8
	h0.4V196h0.4v-0.8h0.4v-0.4h0.4V194h0.4v-0.8h0.4v-1.1h0.4V191h0.4v-1h0.4v-1.5h0.4v-3h0.4v-50.2h0.4v-0.8h0.4v-0.4h1.5v-0.4h4.5
	v0.4h1.1v0.4h0.4v0.4h0.4v51h-0.4v3.8h-0.4v1.5h-0.4v1.5h-0.4v1.1h-0.4v1.1H344v1.1h-0.4v1.1h-0.4v0.8h-0.4v0.4h-0.4v0.8H342v0.8
	h-0.4v0.8h-0.4v0.8H341v0.7h-0.4v0.4h-0.4v0.8h-0.4v0.4h-0.4v0.4H339v0.4h-0.4v0.4h-0.4v0.8H338v0.4h-0.4v0.4h-0.4v0.4h-0.4v0.8
	h-0.4v0.4h-0.8v0.4h-0.4v0.4H335v0.4h-0.4v0.4h-0.4v0.4h-0.8v0.4H333v0.4h-0.4v0.4h-0.4v0.4h-0.4v0.4H331v0.4h-0.8v0.4h-0.8v0.4H329
	v0.4h-0.8v0.4h-0.8v0.4H327v0.4h-0.8v0.4h-0.8v0.4h-1.1v0.4h-1.1v0.4h-1.1v0.4H321v0.4h-1.5v0.4h-2.6v0.4H313v0.4L311.2,217.6
	L311.2,217.6L311.2,217.6z M111.8,217.6v-0.4h-1.9v-0.4h-0.4v-0.4h-0.8v-0.8h-0.4v-79.3h0.4v-0.8h0.4v-0.4h0.4v-0.4h0.8v-0.4h1.5
	v-0.4h1.5v0.4h1.5v0.4h0.4v0.4h0.4v0.4h0.4v0.4h0.4v1.1h0.4v8.7h0.4v-0.4h0.4v-0.4h0.4v-0.4h0.4v-0.4h0.4V144h0.4v-0.4h0.4v-0.4h0.4
	v-0.4h0.4v-0.4h0.4V142h0.4v-0.4h0.4v-0.4h0.4v-0.4h0.8v-0.4h0.8V140h0.4v-0.4h0.8v-0.4h0.4v-0.4h0.8v-0.4h0.8V138h0.4v-0.4h0.8
	v-0.4h0.8v-0.4h1.1v-0.4h1.1V136h1.1v0h1.1v-0.4h0.8v-0.4h1.5v-0.4h3v-0.4h3.4V134h1.9v0.4h3.8v0.4h2.6v0.4h1.1v0.4h1.5v0.4h1.1v0.4
	h1.1v0.4h1.1v0.4h0.8v0.4h0.8v0.4h0.8v0.4h0.4v0.4h0.8v0.4h0.8v0.4h0.8v0.4h0.8v0.4h0.4v0.4h0.4v0.4h0.4v0.4h0.8v0.4h0.4v0.4h0.4
	v0.4h0.4v0.4h0.4v0.4h0.8v0.4h0.4v0.4h0.4v0.4h0.4v0.4h0.4v0.4h0.4v0.8h0.4v0.4h0.4v0.4h0.4v0.4h0.4v0.4h0.4v0.8h0.4v0.4h0.4v0.4
	h0.4v0.8h0.4v0.4h0.4v0.8h0.4v0.8h0.4v0.8h0.4v0.8h0.4v0.8h0.4v0.4h0.4v1.1h0.4v1.1h0.4v1.1h0.4v1.1h0.4v1.1h0.4v1.5h0.4v3.4h0.4
	V217h-0.4v0.4h-0.4v0.4h-0.4v0.4H175v0.4h-3v-0.4h-1.5v-0.4h-0.4v-0.4H168V217h-0.4v-48.7h-0.4v-3.8h-0.4V163h-0.4v-2H166v-1.1h-0.4
	v-1.5h-0.4v-0.8H165v-0.4h-0.4v-0.8h-0.4v-0.8h-0.4v-0.8h-0.4V154H163v-0.4h-0.4v-0.4h-0.4v-0.8H162V152h-0.4v-0.4h-0.4v-0.4h-0.4
	v-0.8h-0.4V150H160v0h-0.4v-0.4H159v-0.4h-0.4v-0.4h-0.4v-0.4h-0.4V148h-0.4v-0.4h-0.8v-0.4h-0.4V147h-0.8v-0.4h-0.8v-0.4h-0.4v-0.4
	h-0.8v-0.4h-0.8V145h-0.8v-0.4h-1.1v-0.4h-1.1V144h-1.1v-0.4h-1.1v-0.4h-3v-0.4h-4.9v0.4h-3v0.4h-1.1v0.4h-1.1v0.4h-1.1v0.4h-1.1
	v0.4h-0.8v0.4H131v0.4h-0.8v0.4h-0.8v0.4h-0.8v0.4H128v0.4h-0.4v0.4h-0.4v0.4h-0.4v0.4H126v0.4h-0.4v0.4h-0.4v0.4H125v0.4h-0.4v0.4
	h-0.4v0.4h-0.4v0.4h-0.4v0.4H123v0.4h-0.4v0.4h-0.4v0.8H122v0.4h-0.4v0.4h-0.4v0.8h-0.4v0.4h-0.4v0.8H120v0.8h-0.4v0.8h-0.4v0.8H119
	v0.7h-0.4v1.1h-0.4v1.1h-0.4v1.1h-0.4v1.1H117v3h-0.4V216h-0.4v0.8h-0.4v0.4h-0.4v0.4h-0.8v0.4h-1.1v0.4L111.8,217.6L111.8,217.6z
	 M90.6,217.6v-0.4h-1.5v-0.4h-0.8v-0.4H88V216h-0.4v-0.8h-0.4v-78.9h0.4v-0.8H88v-0.4h0.4v-0.4h0.4v-0.4h0.8v-0.4h3.8v0.4H94v0.4
	h0.8v0.4h0.4v0.4h0.4v1.1H96V215h-0.4v1.1h-0.4v0.4h-0.4v0.4H94v0.4h-1.5v0.4L90.6,217.6L90.6,217.6z M6.8,217.6v-0.4H5.7v-0.4H4.9
	v-0.4H4.5V216H4.1v-0.4H3.8V215H3.4V101h0.4v-0.4h0.4v-0.4H5v-0.4h0.8v-0.4h2.6v0.4h0.4v0.4h0.8v0.4H10v0.4h0.8v0.4h0.4v0.4H12v0.4
	h0.4v0.4h0.4v0.4h0.8v0.4H14v0.4h0.8v0.4h0.4v0.4H16v0.4h0.4v0.4h0.8v0.4H17v0.4h0.8v0.4h0.8v0.4H19v0.4h0.8v0.4h0.8v0.4h0.8v0.4
	h0.4v0.4h0.8v0.4H23v0.4h0.8v0.4h0.8v0.4h1.1v0.4h0.8v0.4h0.8v0.4h0.8v0.4h1.1v0.4h1.1v0.4H31v0.4h1.1v0.4h1.1v0.4h1.5v0.4h1.1v0.4
	h1.5v0.4h1.9v0.4h2.3v0.4h3.8v0.4h5.3v-0.4h4.9v-0.4h1.9v-0.4h1.5V115h1.9v-0.4h1.5v-0.4h1.1V113h1.1v-0.4h0.8v-0.4h1.1v-0.4h0.8
	v-0.4h1.1V111h0.8v-0.4h0.8v-0.4h0.4V110H71v-0.4h0.8v-0.4h0.4v-0.4H73v-0.4h0.8V108H74v-0.4h0.8v-0.4h0.4V107h0.4v-0.4H76v-0.4h0.4
	v-0.4h0.4v-0.4h0.8V105H78v-0.4h0.4v-0.4h0.4v-0.4h0.4v-0.4h0.4v-0.8H80v-0.4h0V102h0.4v-0.8h0.4v-0.4h0.4v-0.4h0.4v-0.8H82V99h0.4
	v-0.8h0.4v-1.1h0.4v-0.8h0.4v-0.8H84v-1.9h0.4v-3h0.4V90h-0.4v-3H84v-1.9h-0.4v-0.8h-0.4v-0.8h-0.4v-1.1h-0.4v-0.8H82v-0.4h-0.4
	v-0.8h-0.4V80h-0.4v-0.4h-0.4v-0.4H80v-0.8h-0.4V78h-0.4v-0.4h-0.4v-0.4h-0.4v-0.4H78v-0.4h-0.8V76H77v0h-0.4v-0.4h-0.4v-0.4h-0.4
	v-0.4H75v-0.4h-0.4V74H74v-0.4h-0.8v-0.4h-0.4V73H72v-0.4h-0.8v-0.4h-0.8v-0.4h-0.8v-0.4h-0.4V71h-1.1v-0.4h-0.8v-0.4h-1.1v-0.4
	h-0.8v-0.4h-1.1V69h-0.8v-0.4h-1.1v-0.4h-1.1v-0.4H60v-0.4h-1.1V67h-1.1v-0.4h-1.1v-0.4h-1.5v-0.4h-1.9v-0.4h-1.5V65h-1.9v0h-1.5
	v-0.4h-2.3v-0.4h-1.5v-0.4h-1.9v-0.4h-1.5V63h-1.9v-0.4h-1.5v-0.4h-1.1V62h-1.1v-0.4H34v-0.4h-1.1v-0.4h-1.1v-0.4h-1.1V60h-0.8v-0.4
	h-1.1v-0.4H28V59h-1.1v-0.4H26v-0.4h-1.1v-0.4h-0.4v-0.4h-0.8V57H23v-0.4h-0.8v-0.4h-0.4V56H21v-0.4h-0.8v-0.4h-0.8v-0.4H19v-0.4
	h-0.8V54h-0.4v-0.4h-0.4v-0.4H17V53h-0.8v-0.4h-0.4v-0.4h-0.4v-0.4H15v-0.4h-0.8V51h-0.4v-0.4H14v-0.4h-0.4v-0.4h-0.4V49h-0.4v-0.4
	h-0.4v-0.4H12v-0.4h-0.4V47h-0.4v-0.4h-0.4v-0.4h-0.4v-0.4H10V45H9.8v-0.8H9.4v-1.1H9.1v-0.8H8.7V42H8.3v-0.8H7.9v-1.1H7.5v-2.6H7.2
	v-2.6H6.8v-2.3h0.4V30h0.4v-2.6H8v-1.1h0.4v-0.8h0.4v-1.1h0.4v-0.8h0.4v-0.8H10v-1.1h0.4v-0.8h0.4v-0.4h0.4v-0.4h0.4v-0.8H12V19h0.4
	v-0.4h0.4v-0.8h0.4v-0.4h0.4V17H14v-0.8h0V16h0.4v-0.4h0.4v-0.4h0.4v-0.4h0.4v-0.4H16V14h0.8v-0.4H17v-0.4h0.4v-0.4h0.4v-0.4h0.4V12
	h0.4v-0.4H19v-0.4h0.8V11H20v-0.4h0.8v-0.4h0.8V9.9H22V9.5h0.8V9.2h0.8V8.8H24V8.4h0.8V8h0.8V7.6H26V7.3h1.1V6.9h0.8V6.5H29V6.1h0.8
	V5.8H31V5.4h0.8V5h1.5V4.6h1.5V4.2h1.9V3.9h1.5V3.5h2.3V3.1h14.4v0.4H57v0.4h1.9v0.4h1.5v0.4h1.1V5h1.1v0.4h1.5v0.4h0.8v0.4H66v0.4
	h0.8V7H68v0.4h0.8v0.4h1.1V8h0.8v0.4h0.8v0.4h0.8v0.4h0.8v0.4h0.8V10h0.8v0.4h0.4v0.4h0.8V11h0.8v0.4H77v0.4h0.8v0.4h0.4v0.4H79V13
	h0.8v0.4H80v0.4h0.8v0.4h0.4v0.4H82V15h0.8v0.4h0.4v0.4H84V16h0.4v0.4H85v0.4h0.4v0.4h0.8v0.4h0.4V18H87v2.6h-0.4v0.8h-0.4V22h-0.4
	v0.8h-0.4v0.4H85v0.4h-0.4V24h-0.4v0.4h-2.3V24h-0.8v-0.4h-0.4v-0.4H80v-0.4h-0.4v-0.4h-0.8V22H78v-0.4h-0.4v-0.4H77v-0.4h-0.4v-0.4
	h-0.8V20H75v-0.4h-0.4v-0.4H74V19h-0.8v-0.4h-0.4v-0.4H72v-0.4h-0.8v-0.4h-0.8V17H70v-0.4h-0.8v-0.4h-1.1V16h-0.8v-0.4h-0.8v-0.4
	h-0.8v-0.4h-0.8v-0.4h-0.8V14H63v-0.4h-0.8v-0.4h-1.1v-0.4H60v-0.4h-1.1V12h-1.5v-0.4h-1.5v-0.4H54V11h-2.6v-0.4h-7.2V11h-3.8v0.4
	h-1.9v0.4H37v0.4h-1.9v0.4H34V13h-1.1v0.4h-0.8v0.4H31v0.4h-1.1v0.4h-0.8V15h-0.8v0.4h-0.8v0.4h-0.8V16h-0.4v0.4H26v0.4h-0.8v0.4
	h-0.4v0.4H24V18h-0.4v0.4h-0.4v0.4h-0.8V19H22v0.4h-0.4v0.4h-0.4v0.4h-0.4v0.4h-0.4V21H20v0.4h0v0.4h-0.4V22h-0.4v0.8h-0.4v0.4h-0.4
	v0.4H18v0.8h-0.4v0.4h-0.4V25H17v1.1h-0.4v0.8h-0.4v0.8h-0.4v1.1h-0.4v0.8H15v3h-0.4v2.6H15v2.3h0.4v1.1h0.4v0.8h0.4v1.1h0.4v0.8H17
	v0.4h0.4v0.8h0.4v0.4h0.4v0.4h0.4v0.4H19v0.8h0.4v0.4h0.4V45H20v0.4h0.4v0.4h0.8v0.4h0.4v0.4H22V47h0.4v0.4H23v0.4h0.4v0.4h0.4v0.4
	h0.8V49h0.8v0.4H26v0.4h0.4v0.4h0.8v0.4H28V51h0.8v0.4h0.8v0.4h1.1v0.4h0.8v0.4h1.1V53h0.8v0H34v0.4h1.5v0.4h1.1v0.4h1.1v0.4h1.5V55
	h1.1v0.4h1.5v0.4h1.5V56h1.9v0.4h1.5v0.4h1.9v0.4h1.9v0.4h1.9V58H54v0.4h1.9v0.4h1.9V59h1.1v0.4H60v0.4h1.5v0.4h1.1v0.4h1.1V61h1.5
	v0.4h1.1v0.4h0.8V62h1.1v0.4H69v0.4h0.8v0.4H71v0.4h0.8V64h1.1v0.4h0.8v0.4H74V65h0.8v0.4h0.8v0.4h0.8v0.4H77v0.4h0.4V67h0.8v0.4H79
	v0.4h0.8v0.4H80v0.4h0.4V69h0.4v0.4h0.4v0.4H82V70h0.4v0.4h0.4v0.4h0.4v0.4H84v0.4h0.4V72h0.4v0.4H85v0.4h0.4V73h0.4v0.8h0.4v0.4
	h0.4v0.4H87V75h0.4v0.8h0.4V76H88v0.4h0.4v0.8h0.4v0.4h0.4v0.8h0.4v1.1H90v0.8h0.4v0.8h0.4v0.8H91V83h0.4v1.1h0.4v2.6h0.4v2.6h0.4
	v3.4h-0.4v2.7h-0.4v1.9h-0.4v1.1H91v1.1h-0.4v1.1h-0.4v0.8h-0.4v0.8h-0.4v0.8H89v0.8h-0.4v0.8h-0.4v0.4H88v0.8h-0.4v0.4h-0.4v0.8
	h-0.4v0.4h-0.4v0.4H86v0.4h-0.4v0.8h-0.4v0.4H85v0.4h-0.4v0.4h-0.4v0.4h-0.4v0.4h-0.4v0.4H83v0.4h-0.4v0.4h-0.4v0.4h-0.4v0.4h-0.4
	v0.4h-0.8v0.4h-0.4v0.4h-0.4v0.4h-0.4v0.4h-0.8v0.4h-0.4v0.4h-0.8v0.4H77v0.4h-0.4v0.4h-0.8v0.4H75v0.4h-0.4v0.4H74v0.4h-0.8v0.4
	h-0.4v0.4h-1.1v0.4H71v0.4h-1.1v0.4h-0.8v0.4H68v0.4h-0.8v0.4h-1.1v0.4h-0.8v0.4h-1.5v0.4h-1.9v0.4h-1.5v0.4h-1.9v0.4h-1.9v0.4h-4.9
	v0.4h-7.6v-0.4h-3.4v-0.4h-2.3v-0.4h-1.9v-0.4H35V123h-1.9v-0.4H32v-0.4h-1v-0.4h-1.1v-0.4h-1.5V121h-0.8v-0.4h-1.1V119h-0.8v-0.4
	h-1.1v-0.4h-0.8v-0.4H23v-0.4h-1.1V117h-0.8v-0.4h-0.8v-0.4h-0.8V116h-0.8v-0.4h-0.8v-0.4h-0.8v-0.4H17v-0.4h-0.8V114h-0.8v-0.4
	h-0.8v-0.4h-0.4V113h-0.8v-0.4h-0.8v-0.4h-0.4v-0.4h-0.8v97h59.7v0.4h0.4v0.4h0.4v0.4h0.4v1.1h0.4v4.1h-0.4v0.8h-0.4v0.4h-0.4v0.4
	h-0.4v0.4H70v0.4L6.8,217.6L6.8,217.6z M220.1,249.7v-0.4h-1.9V249h-1.9v-0.4h-1.5v-0.4h-1.5v-0.4h-1.1v-0.4h-1.1V247H210v-0.4h-0.8
	v-0.4h-1.1v-0.4H207v-0.4h-0.8v-0.7h-0.4v-0.4h-0.4v-0.8H205v-2.3h0.4v-1.1h0.4v-0.8h0.4v-0.4h0.4v-0.8h0.4V238h0.4v-0.4h1.1v-0.4
	h0.8v0.4h1.5v0.4h0.8v0.4h0.8v0.4h1.1v0.4h0.8v0.4h1.1v0.4h1.5v0.4h1.1v0.4h1.9v0.4h3v0.4h3.4V241h3.8v-0.4h1.9v-0.4h1.1v-0.4h1.5
	v-0.4h1.1V239h1.1v-0.4h0.8v-0.4h0.8V238h0.8v-0.4h0.8v-0.4h0.4v-0.4h0.8v-0.4h0.8V236h0.8v-0.4h0.4v-0.4h0.4V235h0.4v-0.4h0.8v-0.4
	h0.4v-0.4h0.4v-0.4h0.4V233h0.4v-0.4h0.8v-0.4h0.4v-0.7h0.4v-0.4h0.4v-0.4h0.4v-0.4h0.4v-0.4h0.4v-0.8h0.4v-0.4h0.4v-0.4h0.4v-0.4
	h0.4v-0.8h0.4v-0.8h0.4v-0.4h0.4v-0.8h0.4v-0.8h0.4V224h0.4v-0.8h0.4v-0.8h0.4v-1.1h0.4v-1.1h0.4v-1.1h0.4V218h0.4v-1.5h0.4v-3.8
	h0.4v-11.3h-0.4v0.7H256v0.4h-0.4v0.4h-0.4v0.4h-0.4v0.7h-0.4v0.4H253v0.4h-0.4v0.4h-0.4v0.4h-0.4v0.4h-0.4v0.4H251v0.4h-0.4v0.4
	h-0.4v0.4H250v0.4h-0.4v0.4h-0.8v0.4h-0.4v0.4H248v0.4h-0.8v0.4H247v0.4h-0.4v0.4h-0.8v0.4h-0.4v0.4h-0.8v0.4h-0.8v0.4h-0.4v0.4
	h-0.8v0.4H242v0.4h-0.8v0.4h-0.8v0.4h-1.1v0.4h-0.8v0.4h-1.1v0.4h-1.1v0.4h-1.1v0.4h-1.1v0.4h-2.3v0.4H230v0.4h-9.8v-0.4h-2.6v-0.4
	H216v-0.4h-1.5V216H213v-1h-0.8v-0.4h-1.1v-0.4H210v-0.4h-0.8v-0.4h-0.8V213h-0.8v-0.4h-0.8v-0.4H206v-0.4h-0.4v-0.4H205V211h-0.8
	v-0.4h-0.4v-0.4H203v-0.4h-0.4v-0.4h-0.4V209h-0.8v-0.4H201v-0.4h-0.4v-0.4h-0.8v-0.4h-0.4V207H199v0h0v-0.4h-0.4v-0.4h-0.4v-0.4
	h-0.4v-0.4h-0.4V205H197v-0.4h-0.4v-0.4h-0.4V204H196v-0.7h-0.4v-0.4h-0.4v-0.4h-0.4v-0.4h-0.4v-0.4H194V201h-0.4v-0.4h-0.4v-0.8
	H193v-0.4h-0.4V199h-0.4v-0.8h-0.4v-0.7h-0.4v-0.8H191v-0.4h-0.4v-0.7h-0.4v-0.8h-0.4V194h-0.4v-1.1H189v-0.8h-0.4v-0.8h-0.4v-1.1
	H188v-1.1h-0.4V188h-0.4v-1.5h-0.4V185h-0.4v-1.9H186v-2.6h-0.4v-10.2h0.4v-2.6h0.4v-1.9h0.4v-1.5h0.4v-1.5h0.4v-1.1h0.4v-1.1h0.4
	v-0.7h0.4v-1.1h0.4v-0.7h0.4v-0.8h0.4v-0.8h0.4v-0.8h0.4v-0.8h0.4v-0.8h0.4v-0.7h0.4V153h0.4v-0.8h0.4v-0.4h0.4V151h0.4v-0.4h0.4
	V150h0.4v-0.4h0.4v-0.8h0.4v-0.4h0.4V148h0.4v-0.4h0.4v-0.4h0.4V147h0.4v-0.8h0.4v-0.4h0.4v-0.4h0.4V145h0.8v-0.4h0.4v-0.4h0.4V144
	h0.4v-0.4h0.4v-0.4h0.4v-0.4h0.4v-0.4h0.8V142h0.4v-0.4h0.4v-0.4h0.4v-0.4h0.8v-0.4h0.4V140h0.8v-0.4h0.8v-0.4h0.4V139h0.8v-0.4h0.8
	v-0.4h0.8v-0.4h0.8v-0.4h0.8V137h0.8v-0.4h1.1v-0.4h0.8V136h1.1v-0.4h1.5v-0.4h1.1v-0.4h2.3v-0.4h2.3V134h8.7v0.4h2.3v0.4h1.9v0.4
	h1.5v0.4h1.1v0.4h1.1v0.4h1.5v0.4h0.8v0.4h0.8v0.4h0.8v0.4h0.8v0.4h0.8v0.4h0.8v0.4h0.8v0.4h0.4v0.4h0.8v0.4h0.8v0.4h0.4v0.4h0.8
	v0.4h0.4v0.4h0.4v0.4h0.4v0.4h0.8v0.4h0.4v0.4h0.4v0.4h0.4v0.4h0.4v0.4h0.4v0.4h0.8v0.4h0.4v0.4h0.4v0.4h0.4v0.4h0.4v0.4h0.4v0.8
	h0.4v0.4h0.4v0.4h0.4v0.4h0.4v0.8h0.4v0.4h0.4v0.4h0.4v0.8h0.4v0.4h0.4v0.8h0.4v0.8h0.4v0.4h0.4v0.8h0.4v0.8h0.4v0.8h0.4v0.7h0.4
	v0.8h0.4v0.8h0.4v0.8h0.4v0.8h0.4v1.1h0.4v0.8h0.4v1.1h0.4v1.1h0.4v1.1h0.4v1.1h0.4v1.5h0.4v1.9h0.4v3.8h0.4v38.5H264v4.9h-0.4v2.6
	h-0.4v1.5h-0.4v1.5h-0.4v1.1H262v1.1h-0.4v0.7h-0.4v1.1h-0.4v0.7h-0.4v0.8H260v0.8h-0.4v1.1h-0.4v0.4H259v0.7h-0.4v0.8h-0.4v0.4
	h-0.4v0.7h-0.4v0.4H257v0.8h-0.4v0.4h-0.4v0.4H256v0.8h-0.4v0.4h-0.4v0.4h-0.4v0.4h-0.4v0.8H254v0.4h-0.4v0.4h-0.4v0.4H253v0.4h-0.4
	v0.4h-0.4v0.4h-0.4v0.4h-0.4v0.4H251v0.4h-0.8v0.4H250v0.4h-0.4v0.4h-0.4v0.4h-0.8v0.4H248v0.4h-0.4v0.4H247v0.4h-0.4v0.4h-0.8v0.4
	h-0.4v0.4h-0.8v0.4h-0.8v0.4H243v0.4h-0.8v0.4h-0.8v0.4h-0.8v0.4h-0.8v0.4H239v0.4h-1.1v0.4h-0.8v0.4h-1.5v0.4h-1.5v0.4h-1.5v0.4
	H230v0.4L220.1,249.7L220.1,249.7z"/>
<path fill="#F6871F" d="M79.2,68c-7.8-5.3-18.3-8.6-30.2-10.8h-0.3c-10.7-2-19.5-4.9-25.4-9s-8.6-8.5-8.8-14.4
	c0-6.1,3.4-11.9,9.3-16.3c5.9-4.2,14.6-7.1,24.3-7.1c13,0,24.3,7.2,33.6,13.3c1.7,1.2,3,0,4-1.7c1.2-1.9,1.8-3.4,0.1-4.5
	C76.4,11.3,63.6,2.9,48.1,2.9c-11.2,0-21.2,3.2-28.7,8.6C12,17,7,24.8,7,33.8c0,8.8,4.9,15.9,12.2,20.7c7.3,4.9,16.9,7.9,27.9,10
	h0.3c11.5,2.2,21,5.4,27.4,9.7c6.4,4.4,9.7,9.5,9.7,16.3c0,6.6-3.6,12.9-10.2,17.6c-6.4,4.8-15.8,7.8-26.1,7.8
	C34,116,20.4,109,11.5,102.4c-2.2-1.4-3.7-2.7-4.2-2.7c-2.2,0-4.1,1-4.1,3.2v110.5c0,2.2,1.9,4.1,4.1,4.1h62.2c2.4,0,3-1.9,3-4.1
	c0-2.4-0.6-4.2-3-4.2h-58v-97.7c9.6,6.2,22.4,12,36.7,12.1c11.9,0,22.6-3.6,30.5-9.3c8-5.8,13.4-14.2,13.4-23.7
	C92.3,80.9,87,73.1,79.2,68z M112.6,120.3V43.1c0-2.4-1.9-2.9-4.2-2.9c-2.2,0-4.1,0.5-4.1,2.9v77.2c0,2.2,1.9,2.9,4.1,2.9
	C110.7,123.3,112.6,122.5,112.6,120.3z M188.8,123.3c0,0,4,0.2,4-3.1V74.1c0-14.1,11.5-25.8,25.6-25.8c14.2,0,25.4,11.7,25.7,25.8
	v46c0,2,1.7,3.1,3.9,3.1c2.4,0,4.1-1.1,4.1-3.1v-46c0-18.6-15.1-33.7-33.7-33.7c-12.7,0-23.9,7.1-29.8,17.6
	c-5.8-10.5-16.8-17.6-29.7-17.6c-10.4,0-19.5,4.6-25.6,11.9v-9.2c0-2.2-1.7-2.7-4.1-2.7c-2,0-3.9,0.5-3.9,2.7V120
	c0,3.5,3.9,3.2,3.9,3.2s4.1,0.4,4.1-3.3V74.1c0-14.1,11.4-25.8,25.6-25.8c14.2,0,25.6,11.7,25.6,25.8v46.4
	C184.5,120.7,184,123.3,188.8,123.3z M344.6,81.4c0-22.7-17.8-41.2-40.2-41.2c-12.9,0-24.4,6.4-31.5,16.1c0,0-8.3,11-8.3,26.5v72.3
	c0,2.2,1.9,2.8,4.1,2.8c2.4,0,4.2-0.5,4.2-3.2V106c7.1,10.3,18.6,16.8,31.5,16.8C326.8,122.8,344.6,103.9,344.6,81.4z M272.9,81.4
	V80c0.7-17.6,14.7-31.5,31.5-31.5c17.6,0,31.8,14.6,31.8,32.9s-14.2,33-31.8,33.2C287.3,114.4,272.9,99.7,272.9,81.4z M363.4,123.3
	c2.4,0,4.2-0.4,4.2-2.6V7.2c0-2.2-1.8-2.5-4.2-2.5c-2.2,0-4.1,0.3-4.1,2.5v113.5C359.3,122.9,361.2,123.3,363.4,123.3z M424.2,40.3
	c-22.4,0-40.3,18.6-40.3,41.7c0,22.7,18,41.3,40.3,41.3c9.8,0,18.8-3.6,25.8-9.7v101.1c0,2.2,1.9,2.6,4.1,2.6c2.4,0,4.2-0.3,4.2-2.6
	V105c0-4-0.4-5.2-1.8-6.2c-1.7-1-4.2-0.7-5.4,1.3l0,0c-0.3,0.3-0.5,0.6-0.7,1c-5.7,8.7-15.5,14.1-26.1,14.1
	c-17.1,0-31.4-13.7-32.2-31.9h68.1c2.2,0,4.1-1.5,4.1-3.7v-0.7C462.5,57.2,445.6,40.3,424.2,40.3z M392.5,75.4
	c3-15.8,16.1-26.9,31.7-26.9c15.2,0,28.5,11.3,31.2,26.9H392.5z M91.4,134.3c-2.2,0-4.1,1.1-4.1,3.5v76.4c0,2.2,1.9,3.1,4.1,3.1
	c2.4,0,4.2-0.9,4.2-3.1v-76.4C95.7,135.4,93.8,134.3,91.4,134.3z M142.2,134.5c-10.3,0-19.7,4.7-25.8,12v-8.6c0-2.2-1.7-3.5-3.9-3.5
	c-2.4,0-4.1,1.3-4.1,3.5v76.6c0,0-0.2,2.7,4.2,2.8c0,0,3.8,0.1,3.8-3.1v-46c0.3-14.1,11.7-25.6,25.8-25.6
	c14.2,0,25.6,11.5,25.6,25.6v46.4c0,2.4,1.9,2.8,4.1,2.8c2.2,0,4.1-0.4,4.1-2.8v-46.4C175.9,149.7,160.8,134.5,142.2,134.5z
	 M224.8,134.3c-21.7,0-39,18.8-39,41.2c0,22.9,17.3,41.3,39,41.3c12.7,0,24.1-6.3,31-16.3v10.2c0,17.1-13.7,30.8-31,30.8
	c-5.1,0-10.2-1.5-14.4-3.5c-2.1-1.2-3.6,0.1-4.6,2.3c-1,1.8-0.9,3.7,0.8,5c5.4,2.4,12.1,4.4,18.2,4.4c21.7,0,39.1-17.5,39.1-39
	v-37.6c0-10.4-8.1-22.5-8.1-22.5C248.9,140.7,237.5,134.3,224.8,134.3z M224.8,208.9c-17,0-30.8-14.8-30.8-33.4
	c0-18.5,13.9-33.1,30.8-33.1c17.1,0,31,14.6,31,33.1C255.9,194.1,242,208.9,224.8,208.9z M341.9,134.1c-2,0-4.1-0.2-4.1,2.2v47.1
	c0,14.2-11.5,25.6-25.8,25.8c-14.1-0.2-25.4-11.5-25.4-25.8v-47.1c0-2.4-1.9-2.2-4.1-2.2s-4.1-0.2-4.1,2.2v47.1
	c0,18.6,14.9,33.9,33.5,33.9c19,0,34.1-15.3,34.1-33.9v-47.1C346.1,133.9,344.3,134.1,341.9,134.1z M396.9,134.3
	c-21.9,0-39.3,18.8-39.3,41.5s17.5,41.5,39.3,41.5c12.7,0,24.1-6.6,31.2-16.5v13.9c0,2.2,1.9,2.6,4.1,2.6s4.1-0.3,4.1-2.6v-38.2
	c0-14.7-8.1-26-8.1-26C421,140.7,409.6,134.3,396.9,134.3z M396.9,209.2c-16.9,0-31.2-14.7-31.2-33.4c0-18.6,14.2-33.5,31.2-33.5
	c17.1,0,31.2,14.9,31.2,33.5S414,209.2,396.9,209.2z"/>
<path fill="#F6871F" d="M492.6,204.4v12.5h-2v-10.7l-4.3,10.7h-1.2l-4.2-10.7v10.7h-2v-12.5h3.2l3.6,8.8l3.7-8.8H492.6 M476.8,204.4
	v1.8h-3.9v10.7h-2.2v-10.7h-4v-1.8H476.8z"/>
<path fill="#727171" d="M16.2,292.6v-1.9c-1.3,1.7-2.8,2.1-4.5,2.1c-1.6,0-3.1-0.6-3.9-1.4c-1.6-1.6-1.9-4.2-1.9-6.8
	c0-2.5,0.3-5.1,1.9-6.8c0.8-0.8,2.3-1.4,3.9-1.4c1.7,0,3.2,0.4,4.5,2v-9h2.3v23L16.2,292.6 M12.1,278.6c-3.5,0-4,3-4,6.1
	s0.6,6.1,4,6.1s4-3,4-6.1S15.6,278.6,12.1,278.6z"/>
<path fill="#727171" d="M24.1,272.2v-2.6h2.6v2.6H24.1 M24.3,292.6v-15.9h2.3v15.9H24.3L24.3,292.6z"/>
<path fill="#727171" d="M37.5,292.8c-2.7,0-4.8-0.6-6.5-2.3l1.6-1.5c1.3,1.3,2.9,1.8,4.9,1.8c2.6,0,4.2-0.9,4.2-2.8
	c0-1.4-0.8-2.2-2.7-2.3l-2.6-0.2c-3.1-0.3-4.8-1.7-4.8-4.3c0-2.9,2.5-4.6,5.9-4.6c2.3,0,4.3,0.5,5.7,1.7l-1.5,1.5
	c-1.1-0.9-2.6-1.3-4.2-1.3c-2.3,0-3.6,1-3.6,2.6c0,1.4,0.8,2.2,2.8,2.3l2.6,0.2c2.8,0.2,4.7,1.3,4.7,4.3
	C43.9,291,41.3,292.8,37.5,292.8"/>
<path fill="#727171" d="M54.7,292.8c-4,0-7.1-2.7-7.1-8.2s3-8.1,7.1-8.1c2.2,0,3.6,0.6,5.2,2.4l-1.6,1.5c-1.2-1.3-2.1-1.8-3.6-1.8
	c-1.6,0-2.8,0.6-3.7,1.8c-0.7,1-1,2.3-1,4.3s0.3,3.2,1,4.3c0.9,1.2,2.1,1.8,3.7,1.8c1.5,0,2.5-0.5,3.6-1.8l1.6,1.5
	C58.2,292.2,56.8,292.8,54.7,292.8"/>
<path fill="#727171" d="M73.2,279.8c-0.9-0.9-1.5-1.2-2.7-1.2c-2.3,0-3.8,1.9-3.8,4.3v9.8h-2.3v-15.9h2.3v1.9
	c0.9-1.3,2.6-2.1,4.5-2.1c1.5,0,2.7,0.4,3.8,1.5L73.2,279.8"/>
<path fill="#727171" d="M79.4,285.3c0,3.5,1.7,5.5,4.7,5.5c1.9,0,2.9-0.6,4.2-1.8l1.6,1.4c-1.6,1.6-3.1,2.5-5.8,2.5
	c-4.2,0-6.9-2.5-6.9-8.2c0-5.1,2.5-8.1,6.5-8.1c4.1,0,6.5,3,6.5,7.7v1.1L79.4,285.3 M87.3,280.9c-0.6-1.5-2.1-2.4-3.7-2.4
	c-1.7,0-3.1,0.9-3.7,2.4c-0.3,0.9-0.4,1.4-0.5,2.7h8.4C87.7,282.3,87.6,281.8,87.3,280.9z"/>
<path fill="#727171" d="M96.5,285.3c0,3.5,1.7,5.5,4.7,5.5c1.8,0,2.9-0.6,4.2-1.8l1.6,1.4c-1.6,1.6-3.1,2.5-5.8,2.5
	c-4.2,0-6.9-2.5-6.9-8.2c0-5.1,2.5-8.1,6.5-8.1c4.1,0,6.5,3,6.5,7.7v1.1L96.5,285.3 M104.4,280.9c-0.6-1.5-2-2.4-3.7-2.4
	s-3.1,0.9-3.7,2.4c-0.4,0.9-0.4,1.4-0.5,2.7h8.4C104.8,282.3,104.8,281.8,104.4,280.9z"/>
<path fill="#727171" d="M116.6,292.6c-2.7,0-4.1-1.9-4.1-4.3v-9.8h-2v-1.8h2v-5h2.3v5h3.4v1.8h-3.4v9.7c0,1.5,0.7,2.3,2.2,2.3h1.2v2
	L116.6,292.6"/>
<path fill="#727171" d="M137.2,292.8c-4,0-7-2.7-7-8.2s3-8.1,7-8.1c2.2,0,3.6,0.6,5.2,2.4l-1.6,1.5c-1.2-1.3-2.1-1.8-3.6-1.8
	s-2.8,0.6-3.7,1.8c-0.7,1-1,2.3-1,4.3s0.3,3.2,1,4.3c0.9,1.2,2.2,1.8,3.7,1.8s2.4-0.5,3.6-1.8l1.6,1.5
	C140.7,292.2,139.3,292.8,137.2,292.8"/>
<path fill="#727171" d="M157,291c-1.1,1.1-2.6,1.8-4.6,1.8c-1.9,0-3.5-0.7-4.6-1.8c-1.6-1.6-1.9-3.9-1.9-6.3s0.3-4.7,1.9-6.3
	c1.1-1.1,2.6-1.8,4.6-1.8c1.9,0,3.5,0.7,4.6,1.8c1.6,1.6,1.9,3.9,1.9,6.3C159,287.1,158.6,289.4,157,291 M155.4,279.8
	c-0.7-0.7-1.8-1.2-2.9-1.2c-1.1,0-2.1,0.4-2.9,1.2c-1.2,1.1-1.3,3.1-1.3,4.9s0.1,3.8,1.3,4.9c0.8,0.7,1.8,1.2,2.9,1.2
	c1.1,0,2.2-0.4,2.9-1.2c1.2-1.1,1.3-3.1,1.3-4.9C156.6,282.9,156.5,280.9,155.4,279.8z"/>
<path fill="#727171" d="M169,292.8c-2.7,0-4.8-0.6-6.5-2.3l1.5-1.5c1.3,1.3,3,1.8,5,1.8c2.6,0,4.2-0.9,4.2-2.8
	c0-1.4-0.8-2.2-2.6-2.3l-2.6-0.2c-3.1-0.3-4.7-1.7-4.7-4.3c0-2.9,2.4-4.6,5.9-4.6c2.3,0,4.3,0.5,5.7,1.7l-1.5,1.5
	c-1.1-0.9-2.6-1.3-4.2-1.3c-2.3,0-3.6,1-3.6,2.6c0,1.4,0.8,2.2,2.8,2.3l2.5,0.2c2.8,0.2,4.7,1.3,4.7,4.3
	C175.4,291,172.8,292.8,169,292.8"/>
<path fill="#727171" d="M200.4,292.6v-9.8c0-2.8-1.5-4.2-3.9-4.2c-2.3,0-4,1.4-4,4v10h-2.3v-9.8c0-2.8-1.5-4.2-3.9-4.2s-4,1.4-4,4.2
	v9.8H180v-15.9h2.3v1.7c1.1-1.3,2.7-1.9,4.5-1.9c2.2,0,3.9,0.9,4.9,2.7c1.2-1.8,3-2.7,5.2-2.7c1.7,0,3.2,0.6,4.1,1.5
	c1.1,1.1,1.7,2.6,1.7,4.4v10.2L200.4,292.6"/>
<path fill="#727171" d="M209.8,285.3c0,3.5,1.6,5.5,4.7,5.5c1.8,0,2.9-0.6,4.2-1.8l1.6,1.4c-1.6,1.6-3.1,2.5-5.8,2.5
	c-4.2,0-7-2.5-7-8.2c0-5.1,2.5-8.1,6.5-8.1c4.1,0,6.5,3,6.5,7.7v1.1L209.8,285.3 M217.8,280.9c-0.6-1.5-2-2.4-3.7-2.4
	s-3.1,0.9-3.7,2.4c-0.4,0.9-0.4,1.4-0.5,2.7h8.4C218.2,282.3,218.1,281.8,217.8,280.9z"/>
<path fill="#727171" d="M230,292.6c-2.7,0-4.1-1.9-4.1-4.3v-9.8h-2v-1.8h2v-5h2.3v5h3.4v1.8h-3.4v9.7c0,1.5,0.7,2.3,2.2,2.3h1.2v2
	L230,292.6"/>
<path fill="#727171" d="M236.1,272.2v-2.6h2.6v2.6H236.1 M236.3,292.6v-15.9h2.3v15.9H236.3L236.3,292.6z"/>
<path fill="#727171" d="M250.6,292.8c-4,0-7-2.7-7-8.2s3.1-8.1,7-8.1c2.2,0,3.6,0.6,5.3,2.4l-1.6,1.5c-1.2-1.3-2.1-1.8-3.7-1.8
	c-1.5,0-2.8,0.6-3.7,1.8c-0.7,1-1,2.3-1,4.3s0.3,3.2,1,4.3c0.8,1.2,2.1,1.8,3.7,1.8c1.5,0,2.5-0.5,3.7-1.8l1.6,1.5
	C254.2,292.2,252.8,292.8,250.6,292.8"/>
<path fill="#727171" d="M272.8,292.6c-2.7,0-4.1-1.9-4.1-4.3v-9.8h-2v-1.8h2v-5h2.3v5h3.4v1.8H271v9.7c0,1.5,0.7,2.3,2.2,2.3h1.2v2
	L272.8,292.6"/>
<path fill="#727171" d="M289.3,291c-1.1,1.1-2.6,1.8-4.6,1.8c-1.9,0-3.5-0.7-4.5-1.8c-1.6-1.6-1.9-3.9-1.9-6.3s0.3-4.7,1.9-6.3
	c1.1-1.1,2.6-1.8,4.5-1.8s3.5,0.7,4.6,1.8c1.6,1.6,1.9,3.9,1.9,6.3C291.2,287.1,290.9,289.4,289.3,291 M287.6,279.8
	c-0.8-0.7-1.8-1.2-2.9-1.2s-2.1,0.4-2.9,1.2c-1.2,1.1-1.3,3.1-1.3,4.9s0.1,3.8,1.3,4.9c0.8,0.7,1.8,1.2,2.9,1.2s2.2-0.4,2.9-1.2
	c1.1-1.1,1.3-3.1,1.3-4.9S288.8,280.9,287.6,279.8z"/>
<path fill="#727171" d="M306.4,291c-1.1,1.1-2.6,1.8-4.6,1.8c-1.9,0-3.5-0.7-4.6-1.8c-1.6-1.6-1.9-3.9-1.9-6.3s0.3-4.7,1.9-6.3
	c1.1-1.1,2.6-1.8,4.6-1.8c1.9,0,3.4,0.7,4.6,1.8c1.6,1.6,1.9,3.9,1.9,6.3S308,289.4,306.4,291 M304.8,279.8
	c-0.8-0.7-1.8-1.2-2.9-1.2s-2.1,0.4-2.9,1.2c-1.2,1.1-1.3,3.1-1.3,4.9s0.1,3.8,1.3,4.9c0.8,0.7,1.7,1.2,2.9,1.2
	c1.1,0,2.2-0.4,2.9-1.2c1.2-1.1,1.3-3.1,1.3-4.9C306,282.9,305.9,280.9,304.8,279.8z"/>
<path fill="#727171" d="M317.8,292.6c-2.7,0-4.1-1.9-4.1-4.3v-9.8h-2v-1.8h2v-5h2.3v5h3.4v1.8H316v9.7c0,1.5,0.7,2.3,2.2,2.3h1.2v2
	L317.8,292.6"/>
<path fill="#727171" d="M334.2,292.6v-9.8c0-2.8-1.5-4.2-3.9-4.2s-4,1.4-4,4.2v9.8H324v-23h2.3v8.9c1.1-1.3,2.7-1.9,4.5-1.9
	c3.6,0,5.7,2.3,5.7,5.9v10.2L334.2,292.6"/>
<path fill="#727171" d="M359.3,292.6v-1.5c-1.3,1.3-2.5,1.7-4.6,1.7c-2.2,0-3.5-0.4-4.5-1.5c-0.8-0.8-1.2-2-1.2-3.2
	c0-2.8,1.9-4.6,5.5-4.6h4.8V282c0-2.3-1.2-3.5-4.1-3.5c-2,0-3.1,0.5-4,1.8l-1.6-1.4c1.4-1.8,3-2.4,5.6-2.4c4.3,0,6.4,1.8,6.4,5.3
	v10.8L359.3,292.6 M359.3,285.3h-4.5c-2.4,0-3.6,1-3.6,2.8s1.1,2.7,3.7,2.7c1.4,0,2.5-0.1,3.6-1.1c0.5-0.5,0.8-1.4,0.8-2.8V285.3
	L359.3,285.3z"/>
<path fill="#727171" d="M371.3,292.6c-2.8,0-4-1.8-4-4.2v-18.8h2.3v18.7c0,1.5,0.5,2.3,2.1,2.3h1.3v2H371.3"/>
<path fill="#727171" d="M376.7,272.2v-2.6h2.6v2.6H376.7 M376.9,292.6v-15.9h2.3v15.9H376.9L376.9,292.6z"/>
<path fill="#727171" d="M390.2,299.9c-2.4,0-3.7-0.6-5.4-2.1l1.5-1.5c1.1,1,2,1.6,3.8,1.6c3.1,0,4.4-2.2,4.4-4.9v-2.5
	c-1.3,1.7-2.8,2.1-4.5,2.1c-1.6,0-3-0.6-3.9-1.4c-1.6-1.6-1.9-4-1.9-6.6c0-2.5,0.4-5,1.9-6.6c0.8-0.8,2.3-1.4,3.9-1.4
	c1.7,0,3.2,0.4,4.5,2.1v-1.9h2.3v16.4C396.8,297.1,394.3,299.9,390.2,299.9 M390.5,278.6c-3.5,0-4,3-4,5.9c0,3,0.5,6,4,6s4-3,4-6
	C394.5,281.6,394,278.6,390.5,278.6z"/>
<path fill="#727171" d="M412.8,292.6v-9.8c0-2.8-1.5-4.2-3.9-4.2s-3.9,1.4-3.9,4.2v9.8h-2.3v-15.9h2.3v1.7c1.1-1.3,2.7-1.9,4.5-1.9
	c1.7,0,3.1,0.5,4.1,1.5c1.1,1.1,1.6,2.6,1.6,4.4v10.2L412.8,292.6"/>
<path fill="#727171" d="M441.2,292.6v-9.8c0-2.8-1.5-4.2-3.9-4.2c-2.3,0-4,1.4-4,4v10H431v-9.8c0-2.8-1.5-4.2-3.9-4.2s-4,1.4-4,4.2
	v9.8h-2.3v-15.9h2.3v1.7c1.1-1.3,2.7-1.9,4.5-1.9c2.2,0,3.9,0.9,4.9,2.7c1.2-1.8,3-2.7,5.2-2.7c1.7,0,3.2,0.6,4.1,1.5
	c1.1,1.1,1.7,2.6,1.7,4.4v10.2L441.2,292.6"/>
<path fill="#727171" d="M450.6,285.3c0,3.5,1.7,5.5,4.7,5.5c1.8,0,2.9-0.6,4.2-1.8l1.6,1.4c-1.6,1.6-3.1,2.5-5.8,2.5
	c-4.2,0-6.9-2.5-6.9-8.2c0-5.1,2.5-8.1,6.5-8.1c4.1,0,6.5,3,6.5,7.7v1.1L450.6,285.3 M458.5,280.9c-0.6-1.5-2-2.4-3.7-2.4
	s-3.1,0.9-3.7,2.4c-0.4,0.9-0.4,1.4-0.5,2.7h8.4C459,282.3,458.9,281.8,458.5,280.9z"/>
<path fill="#727171" d="M476.5,292.6v-9.8c0-2.8-1.5-4.2-3.9-4.2s-3.9,1.4-3.9,4.2v9.8h-2.3v-15.9h2.3v1.7c1.1-1.3,2.7-1.9,4.4-1.9
	c1.7,0,3.1,0.5,4.1,1.5c1.1,1.1,1.7,2.6,1.7,4.4v10.2L476.5,292.6"/>
<path fill="#727171" d="M488.9,292.6c-2.7,0-4.1-1.9-4.1-4.3v-9.8h-2v-1.8h2v-5h2.3v5h3.4v1.8h-3.4v9.7c0,1.5,0.7,2.3,2.2,2.3h1.2v2
	L488.9,292.6"/>
</svg>
