<?xml version="1.0" encoding="utf-8"?>
<!-- Generator: Adobe Illustrator 22.1.0, SVG Export Plug-In . SVG Version: 6.00 Build 0)  -->
<svg version="1.1" id="Ebene_1" xmlns="http://www.w3.org/2000/svg" xmlns:xlink="http://www.w3.org/1999/xlink" x="0px" y="0px"
	 viewBox="0 0 156.4 43.8" enable-background="new 0 0 156.4 43.8" xml:space="preserve">
<path d="M147.5,11.2h-4.4v12.6h4.4v-6.5c0-1.6,0.5-2.9,2.3-2.9c2.2,0,2,2.1,2,3.3v6.1h4.5V16c0-3.1-1.4-5.2-4.7-5.2
	c-1.8,0-3,0.5-4,2h-0.1V11.2L147.5,11.2L147.5,11.2z"/>
<path d="M132.2,11.2h-4.4v12.6h4.4v-6.5c0-1.6,0.5-2.9,2.3-2.9c2.2,0,2,2.1,2,3.3v6.1h4.5V16c0-3.1-1.4-5.2-4.7-5.2
	c-1.8,0-3,0.5-4,2h-0.1L132.2,11.2L132.2,11.2L132.2,11.2z"/>
<path d="M126,11.2h-4.4v1.2c-1-1.1-2.5-1.6-3.9-1.6c-3.7,0-6.3,3.1-6.3,6.7c0,3.6,2.6,6.7,6.4,6.7c1.5,0,3-0.6,3.8-1.8h0v1.4h4.4
	L126,11.2L126,11.2L126,11.2z M118.9,14.7c1.8,0,2.9,1.3,2.9,2.8c0,1.6-1.1,2.8-2.9,2.8c-1.8,0-2.9-1.2-2.9-2.8
	C116,16,117.1,14.7,118.9,14.7L118.9,14.7L118.9,14.7z"/>
<path d="M93.6,11.2h-4.4v12.6h4.4v-6c0-1.4,0-3.5,2-3.5c2,0,2,2.2,2,3.5v6h4.4v-6c0-1.5,0.1-3.4,2.2-3.4c1.9,0,1.8,2.2,1.8,3.4v6
	h4.4v-8c0-2.9-1.1-5-4.3-5c-1.7,0-3.4,0.8-4.2,2.4c-0.9-1.7-2.5-2.4-4.3-2.4c-1.6,0-2.9,0.6-4,2h0L93.6,11.2L93.6,11.2L93.6,11.2z"
	/>
<path d="M74,11.2v7.6c0,4.1,2.9,5.5,6.7,5.5c3.8,0,6.7-1.3,6.7-5.5v-7.6h-4.5v6.7c0,1.6-0.4,2.7-2.2,2.7c-1.9,0-2.2-1.1-2.2-2.7
	v-6.7H74L74,11.2L74,11.2z"/>
<path d="M71.9,11.2h-4.4v1.2c-1-1.1-2.5-1.6-3.9-1.6c-3.7,0-6.3,3.1-6.3,6.7c0,3.6,2.6,6.7,6.4,6.7c1.5,0,3-0.6,3.8-1.8h0.1v1.4h4.4
	L71.9,11.2L71.9,11.2L71.9,11.2z M64.8,14.7c1.8,0,2.9,1.3,2.9,2.8c0,1.6-1.1,2.8-2.9,2.8c-1.8,0-2.9-1.2-2.9-2.8
	C61.9,16,63,14.7,64.8,14.7L64.8,14.7L64.8,14.7z"/>
<path d="M52.5,11.2h-4.4v12.6h4.4v-5c0-2.2,0.6-3.8,3.1-3.8c0.7,0,1.3,0,1.9,0.4v-4.3h-0.9c-1.8,0-3.2,0.6-4.1,2.2h-0.1L52.5,11.2
	L52.5,11.2L52.5,11.2z"/>
<polygon points="45.3,14.9 47.8,14.9 47.8,11.2 45.3,11.2 45.3,7.4 40.8,7.4 40.8,11.2 39.4,11.2 39.4,14.9 40.8,14.9 40.8,23.8 
	45.3,23.8 45.3,14.9 "/>
<path d="M38.6,11.6c-1.3-0.6-2.7-0.8-4.1-0.8c-2.8,0-5.6,1.4-5.6,4.4c0,2.3,1.4,3,2.8,3.3c1.4,0.4,2.8,0.4,2.8,1.4
	c0,0.7-0.9,1-1.4,1c-1.1,0-2.6-0.7-3.5-1.3L28,22.8c1.5,1,3.3,1.5,5.1,1.5c2.9,0,5.9-1.4,5.9-4.7c0-2.3-1.6-3.3-3.6-3.7
	c-0.6-0.1-2-0.3-2-1.1c0-0.6,0.9-0.9,1.4-0.9c0.8,0,1.7,0.3,2.4,0.6L38.6,11.6L38.6,11.6L38.6,11.6z"/>
<path fill="#1E7539" d="M24.4,0.3c-6.5,4.3-13,8.7-19.5,13c-2.9,2.2-2.8,5.6-0.8,8.4L24.4,8.1V0.3L24.4,0.3L24.4,0.3z"/>
<path fill="#1E7539" d="M0.4,34.1c6.5-4.3,13-8.7,19.5-13c2.9-2.2,2.8-5.6,0.8-8.4L0.4,26.3V34.1L0.4,34.1L0.4,34.1z"/>
<path fill="#6E6E6E" d="M67.9,40.1c-0.4,0-0.9-0.1-1.2-0.1v-1.5h0.5c0.1,0.3,0.1,0.6,0.1,0.9c0.2,0,0.5,0.1,0.7,0.1
	c0.8,0,1.4-0.4,1.4-1c0-1.3-2.8-0.5-2.8-2.5c0-0.9,0.8-1.6,2.2-1.6c0.4,0,0.8,0.1,1.2,0.2V36h-0.5c-0.1-0.3-0.1-0.6-0.1-0.9
	C69,35,68.8,35,68.6,35c-0.8,0-1.2,0.3-1.2,0.9c0,1.3,2.8,0.6,2.8,2.4C70.2,39.3,69.3,40.1,67.9,40.1L67.9,40.1z"/>
<path fill="#6E6E6E" d="M72.3,33.5c-0.3,0-0.6-0.2-0.6-0.6c0-0.3,0.3-0.6,0.6-0.6c0.3,0,0.6,0.3,0.6,0.6
	C72.9,33.2,72.6,33.5,72.3,33.5L72.3,33.5z M70.9,40v-0.5c0.3-0.1,0.6-0.1,1-0.1v-4.2c-0.3,0-0.6-0.1-1-0.1v-0.5
	c0.5-0.1,1.2-0.1,1.8-0.1v4.9c0.3,0,0.7,0.1,0.9,0.1V40H70.9L70.9,40z"/>
<path fill="#6E6E6E" d="M82.2,36.4c0-0.8-0.2-1.4-1-1.4c-0.8,0-1.7,0.9-1.7,2.3v2c0.3,0,0.6,0.1,0.9,0.1V40h-1.8v-3.6
	c0-0.8-0.1-1.4-1-1.4c-0.9,0-1.7,1-1.7,2.3v2c0.3,0,0.6,0.1,0.9,0.1V40h-2.7v-0.5c0.3-0.1,0.6-0.1,1-0.1v-4.2c-0.3,0-0.6-0.1-1-0.1
	v-0.5c0.5-0.1,1.2-0.1,1.8-0.1c0,0.4,0,0.9-0.1,1.2l0,0c0.3-0.8,1-1.3,1.9-1.3c1.3,0,1.5,0.9,1.5,1.3c0.2-0.5,0.8-1.3,1.9-1.3
	c1,0,1.6,0.6,1.6,1.8v3.2c0.3,0,0.7,0.1,1,0.1V40h-1.8L82.2,36.4L82.2,36.4z"/>
<path fill="#6E6E6E" d="M87.5,35c-1.1,0-1.6,1.3-1.6,2.3v1.9c0.3,0.1,0.7,0.1,1.1,0.1c1.1,0,1.9-0.7,1.9-2.4
	C88.8,35.8,88.4,35,87.5,35L87.5,35z M86.9,40c-0.4,0-0.7,0-1-0.1v2.1c0.3,0,0.7,0.1,1,0.2v0.5h-2.8v-0.5c0.3-0.1,0.6-0.1,1-0.2v-7
	c-0.3,0-0.6-0.1-1-0.1v-0.5c0.5-0.1,1.2-0.1,1.8-0.1c0,0.3,0,0.9-0.1,1.2l0,0c0.3-0.8,1-1.3,1.9-1.3c1.3,0,2,0.9,2,2.6
	C89.7,38.9,88.6,40,86.9,40L86.9,40z"/>
<path fill="#6E6E6E" d="M93,39.5V40h-2.8v-0.5c0.3-0.1,0.6-0.1,1-0.1v-6.8c-0.3,0-0.6-0.1-1-0.1v-0.5c0.5-0.1,1.2-0.1,1.8-0.1v7.5
	C92.4,39.4,92.7,39.4,93,39.5L93,39.5z"/>
<path fill="#6E6E6E" d="M98.3,35.1l-2,5.5c-0.6,1.7-1.1,2.3-2.3,2.3c-0.2,0-0.5,0-0.7-0.1l0.1-0.8c0.2,0.1,0.5,0.1,0.7,0.1
	c0.7,0,1-0.3,1.4-1.5l0.3-0.7h-0.2l-1.8-4.9c-0.3,0-0.5-0.1-0.7-0.1v-0.5h2.5v0.5c-0.2,0.1-0.5,0.1-0.8,0.1l1,2.7
	c0.2,0.5,0.3,0.9,0.4,1.3h0c0.1-0.3,0.3-1,0.5-1.6l0.8-2.4c-0.3,0-0.6-0.1-0.8-0.1v-0.5H99v0.5C98.8,35,98.5,35,98.3,35.1L98.3,35.1
	z"/>
<path fill="#6E6E6E" d="M105.9,35.2c-0.4-0.1-0.7-0.1-1.1-0.1c-1.1,0-1.9,0.7-1.9,2.4c0,1.2,0.4,2,1.3,2c1.1,0,1.6-1.3,1.6-2.3V35.2
	L105.9,35.2z M105.9,40c0-0.3,0-0.9,0.1-1.2l0,0c-0.3,0.8-1,1.3-1.9,1.3c-1.4,0-2-1-2-2.6c0-2,1.1-3.1,2.8-3.1c0.3,0,0.6,0,1,0.1
	v-1.9c-0.3,0-0.6-0.1-1-0.1v-0.5c0.5-0.1,1.2-0.1,1.8-0.1v7.5c0.3,0,0.6,0.1,1,0.1v0.5C107.2,40,106.4,40,105.9,40L105.9,40z"/>
<path fill="#6E6E6E" d="M110.5,35c-0.9,0-1.7,0.7-1.7,2.1c0,1.4,0.6,2.2,1.7,2.2c0.9,0,1.7-0.7,1.7-2.2
	C112.1,35.8,111.6,35,110.5,35L110.5,35z M110.3,40c-1.5,0-2.4-0.9-2.4-2.8c0-1.6,1-2.9,2.6-2.9c1.3,0,2.4,0.7,2.4,2.8
	C113,38.7,112,40,110.3,40L110.3,40z"/>
<path fill="#6E6E6E" d="M114.9,33.4c-0.3,0-0.6-0.2-0.6-0.6c0-0.3,0.3-0.6,0.6-0.6c0.3,0,0.6,0.3,0.6,0.6
	C115.5,33.2,115.2,33.4,114.9,33.4L114.9,33.4z M113.5,39.9v-0.5c0.3-0.1,0.6-0.1,1-0.1v-4.2c-0.3,0-0.6-0.1-1-0.1v-0.5
	c0.5-0.1,1.2-0.1,1.8-0.1v4.9c0.3,0,0.7,0.1,0.9,0.1v0.5H113.5L113.5,39.9z"/>
<path fill="#6E6E6E" d="M121.4,36.3c0-0.9-0.2-1.4-1-1.4c-1,0-1.7,1-1.7,2.3v2c0.3,0,0.6,0.1,0.9,0.1v0.5h-2.7v-0.5
	c0.3-0.1,0.6-0.1,1-0.1v-4.2c-0.3,0-0.6-0.1-1-0.1v-0.5c0.5-0.1,1.2-0.1,1.8-0.1c0,0.4,0,0.9-0.1,1.2l0,0c0.3-0.8,1-1.3,2-1.3
	c1.3,0,1.7,0.8,1.7,1.8v3.2c0.3,0,0.7,0.1,0.9,0.1v0.5h-1.8V36.3L121.4,36.3z"/>
<path fill="#6E6E6E" d="M126.2,34.9c-1,0-1.5,0.6-1.5,1.4c0,0.9,0.5,1.4,1.5,1.4c0.9,0,1.5-0.5,1.5-1.4
	C127.6,35.5,127.1,34.9,126.2,34.9L126.2,34.9z M126.7,40h-1.1c-0.1,0-0.3,0-0.4,0c-0.5,0.2-0.8,0.6-0.8,1.1c0,0.7,0.7,1.1,1.6,1.1
	c1.2,0,1.9-0.5,1.9-1.3C128,40.3,127.6,40,126.7,40L126.7,40z M125.9,42.8c-1.4,0-2.3-0.6-2.3-1.6c0-0.7,0.4-1.2,1-1.5
	c-0.3-0.2-0.6-0.4-0.6-0.8c0-0.4,0.2-0.7,0.6-0.9c-0.5-0.3-0.8-0.9-0.8-1.6c0-1.2,0.9-2.1,2.4-2.1c0.3,0,0.6,0,0.8,0.1h1.9v0.7h-1
	c0.3,0.3,0.5,0.7,0.5,1.2c0,1.2-0.8,2.1-2.4,2.1c-0.3,0-0.6,0-0.8-0.1c-0.3,0.1-0.4,0.3-0.4,0.5c0,0.3,0.3,0.5,1,0.5h1.1
	c1.2,0,1.9,0.6,1.9,1.5C128.8,41.9,127.6,42.8,125.9,42.8L125.9,42.8z"/>
<path fill="#6E6E6E" d="M140,36.4c0-0.8-0.2-1.4-1-1.4c-0.8,0-1.7,0.9-1.7,2.3v2c0.3,0,0.6,0.1,0.9,0.1v0.5h-1.8v-3.6
	c0-0.8-0.1-1.4-1-1.4c-0.9,0-1.7,1-1.7,2.3v2c0.3,0,0.6,0.1,0.9,0.1v0.5h-2.7v-0.5c0.3-0.1,0.6-0.1,1-0.1v-4.2c-0.3,0-0.6-0.1-1-0.1
	v-0.5c0.5-0.1,1.2-0.1,1.8-0.1c0,0.4,0,0.9-0.1,1.2l0,0c0.3-0.8,1-1.3,1.9-1.3c1.3,0,1.5,0.9,1.5,1.3c0.2-0.5,0.8-1.3,1.9-1.3
	c1,0,1.6,0.6,1.6,1.8v3.2c0.3,0,0.7,0.1,1,0.1v0.5H140L140,36.4L140,36.4z"/>
<path fill="#6E6E6E" d="M144.6,35c-0.9,0-1.7,0.7-1.7,2.1c0,1.4,0.6,2.2,1.7,2.2c0.9,0,1.7-0.7,1.7-2.2
	C146.2,35.8,145.7,35,144.6,35L144.6,35z M144.4,40c-1.5,0-2.4-0.9-2.4-2.8c0-1.6,1-2.9,2.6-2.9c1.3,0,2.4,0.7,2.4,2.8
	C147.1,38.7,146.1,40,144.4,40L144.4,40z"/>
<path fill="#6E6E6E" d="M151.2,35.1c-1.3-0.2-1.9,0.7-1.9,2.6v1.6c0.3,0,0.7,0.1,1,0.1v0.5h-2.8v-0.5c0.3-0.1,0.6-0.1,1-0.1v-4.2
	c-0.3,0-0.6-0.1-1-0.1v-0.5c0.5-0.1,1.2-0.1,1.8-0.1c0,0.4,0,0.9-0.1,1.4l0,0c0.2-0.8,0.8-1.6,2.1-1.5L151.2,35.1L151.2,35.1z"/>
<path fill="#6E6E6E" d="M154.1,35c-0.8,0-1.3,0.6-1.5,1.4h2.8C155.4,35.5,154.9,35,154.1,35L154.1,35z M156.2,37h-3.7
	c-0.1,1.7,0.6,2.3,1.8,2.3c0.6,0,1.2-0.1,1.6-0.4l0.1,0.7c-0.5,0.2-1.1,0.3-1.8,0.3c-1.7,0-2.6-0.9-2.6-2.8c0-1.7,0.9-2.9,2.4-2.9
	c1.5,0,2.2,1.1,2.2,2.3C156.3,36.7,156.3,36.8,156.2,37L156.2,37z"/>
</svg>
