<?xml version="1.0" encoding="utf-8"?>
<!-- Generator: Adobe Illustrator 22.1.0, SVG Export Plug-In . SVG Version: 6.00 Build 0)  -->
<svg version="1.1" id="Layer_1" xmlns="http://www.w3.org/2000/svg" xmlns:xlink="http://www.w3.org/1999/xlink" x="0px" y="0px"
	 viewBox="0 0 561.6 687.7" enable-background="new 0 0 561.6 687.7" xml:space="preserve">
<g display="none">
	<path display="inline" fill="none" d="M146.6,686.2c-10.3,0-20.7,0-31,0c-10.4-2.3-18.7-6.6-25-13c-6.3,6.4-14.6,10.7-25,13
		c-10.3,0-20.7,0-31,0c-37.8-1.9-36.5-48.2-33-88c5.3,0,10.7,0,16,0c3,23.8-7.1,58.1,8,68c7.8,5.1,34.8,6,45,2
		c20.8-8.2,7.8-45.9,13-70c5,0,10,0,15,0c3.5,21.6-6.4,50.8,4,64c8.1,10.3,45.1,11.4,55,2c14.8-14.1,0.3-44.9,7-66c5,0,10,0,15,0
		C180.7,639.7,184.6,683.9,146.6,686.2z"/>
	<path display="inline" fill="none" d="M289.6,652.2c6.6,11.4,18.1,23.2,23,33c-28.9,6.6-29.5-20.5-43-31c-20.3,0-40.7,0-61,0
		c0,10.3,0,20.7,0,31c-5.7,0-11.3,0-17,0c0-29,0-58,0-87c23.9,3.6,68-4.8,94,0C313.4,603.3,316,645,289.6,652.2z M292.6,625.2
		c-1.6-22.6-59.8-5.7-83-11c-2.3,6-0.3,16.3-1,24C228.8,633.6,294.4,649.7,292.6,625.2z"/>
	<path display="inline" fill="none" d="M337.6,654.2c0,10.3,0,20.7,0,31c-5.3,0-10.7,0-16,0c0.7-28.7-1.3-60,1-87
		c38,4.5,103.9-12.8,114,18c1.5,4.5,2.5,12.5,0,20C427.1,665.3,374.5,650.7,337.6,654.2z M421.6,626.2c0-23-60.2-7.4-83-12
		c-2.3,6-0.3,16.3-1,24C358.2,633.4,421.6,649.6,421.6,626.2z"/>
	<path display="inline" fill="none" d="M561.6,631.2c0,18,0,36,0,54c-6.1-0.7-15,1.4-17-1c-5.4-6.5,3.8-23.2,0-35
		c-26.3,0-52.7,0-79,0c-0.7,11.7,1.3,26-1,36c-5,0-10,0-15,0c2.9-23.7-4.5-44.7,1-63c2.5-8.5,16.2-22.6,28-24
		C517.4,593.6,561.3,598.1,561.6,631.2z M481.6,614.3c-10.4,2.1-14.8,10.5-16,18c26.3,0,52.7,0,79,0
		C547.2,611.9,502.8,610,481.6,614.3z"/>
	<path display="inline" fill="#FFFFFF" stroke="#000000" stroke-miterlimit="10" d="M54.6,14.3c34.9-4.8,80.8-1,118-1
		c77.7,0,153,0,234,0c37.3,0,91-4.9,113,4c29.7,12,30,34.3,30,79c0,121.8,0,242.3,0,366c0,44.8,2.7,77.9-33,89
		c-14.3,4.5-37.3,2-58,2c-103.7,0-194,0-300,0c-35.5,0-90,6.3-116-4c-11.6-4.6-20.8-13.2-26-26c-5.6-13.7-4-36.9-4-57
		c0-98.9,0-205.7,0-305c0-15.6,0-36.4,0-61c0-18.7-2.3-42.9,3-57C21.7,27.3,38.7,16.5,54.6,14.3z M228.6,272.3c-4.2,6.8-14,9.8-24,8
		c-1.4,6.6,5.2,11.6,5,18c-0.1,4.2-5.1,8.6-5,13c0.1,3.8,3.8,6.5,5,10c4.2,12,2.7,27.7,9,42c5.4,12.4,12.8,24.9,16,36
		c2.1,7.4,0.9,13.6,5,19c7.8,10.2,21.1,11.2,27,22c-3.4-0.7-3.7,1.7-4,4c0.4,22.3-12,41.9-2,62c23.6,9.9,25.8-14.6,30-38
		c2.5-14.2,8.2-24.6,9-32c1.7-15.7-7.1-18.9-16-21c6.5-14.9-6.1-22.1-8-30c-1-3.9-1.4-17.1-1-20c1-8.2,6.8-13.7,7-22
		c0.2-5.9-3.8-9.2,0-15c8.4,0.6,8,10,9,18c20.1,20.5,37,44.3,53,69c3.4,11,0.2,22.7,5,32c1.6,3.1,5.1,4.4,7,7
		c9.6,13.6,11.3,27,11,48c-0.1,3.1-1.6,6.4-1,10c3,17.5,26.6,31.8,44,16c-1.2-10.1-7.2-15.5-8-26c-1.9-3.1-8.4-1.6-10-5
		c-5.2-19.7-1.1-47.1-3-68c-1.1-11.9-6.9-18.3-13-30c-10.3-19.9-9.5-47.3-14-71c-5.8-31-23.7-55.1-34-80c9.6-2.4,20.9-3.1,29-7
		c11-44.6,1-90.8-22-118c-11-13-28.5-15.4-41-26c7-27.4,2.1-57.7-23-60c-7.4-0.7-21.1,0.7-27,8c-4.7,5.9-2.2,16.6-3,28
		c-0.8,10.8-0.4,14.3,5,24c-13.2,10.1-33.5,9.2-48,19c-9.9,6.7-29,29-33,41c-2.2,6.7-1.2,14-3,21c-2.3,8.8-8.9,16.5-10,25
		c-2.7,20.2,10,34.3,19,48c-2.3,16.4,17.3,33.3,30,28c-6.6-2.4-9.5-8.4-16-11c4.4-7.9-5.9-7.5-7-13c-4.8-16.4-1.7-29.8,9-38
		c-5.1-0.7-3.6-8.8-3-11c1.1-3.9,7.5-5.4,11-10c4.3-5.6,3.2-13,9-13c0.6,12.3,10,23.7,7,35c10.7,4,17.1,12.2,22,22
		c-6.5,1.8-17.2-0.5-19,6c2.2,4.5,13.5-0.2,16,4c-4.9,7.8-17,8.3-20,18c8.7,2.6,13.9-6.7,22-8c-2.3,7.1-12,6.6-14,14
		C221.4,277.1,225.8,273.6,228.6,272.3z M228.6,272.3c-4.2,6.8-14,9.8-24,8c-1.4,6.6,5.2,11.6,5,18c-0.1,4.2-5.1,8.6-5,13
		c0.1,3.8,3.8,6.5,5,10c4.2,12,2.7,27.7,9,42c5.4,12.4,12.8,24.9,16,36c2.1,7.4,0.9,13.6,5,19c7.8,10.2,21.1,11.2,27,22
		c-3.4-0.7-3.7,1.7-4,4c0.4,22.3-12,41.9-2,62c23.6,9.9,25.8-14.6,30-38c2.5-14.2,8.2-24.6,9-32c1.7-15.7-7.1-18.9-16-21
		c6.5-14.9-6.1-22.1-8-30c-1-3.9-1.4-17.1-1-20c1-8.2,6.8-13.7,7-22c0.2-5.9-3.8-9.2,0-15c8.4,0.6,8,10,9,18
		c20.1,20.5,37,44.3,53,69c3.4,11,0.2,22.7,5,32c1.6,3.1,5.1,4.4,7,7c9.6,13.6,11.3,27,11,48c-0.1,3.1-1.6,6.4-1,10
		c3,17.5,26.6,31.8,44,16c-1.2-10.1-7.2-15.5-8-26c-1.9-3.1-8.4-1.6-10-5c-5.2-19.7-1.1-47.1-3-68c-1.1-11.9-6.9-18.3-13-30
		c-10.3-19.9-9.5-47.3-14-71c-5.8-31-23.7-55.1-34-80c9.6-2.4,20.9-3.1,29-7c11-44.6,1-90.8-22-118c-11-13-28.5-15.4-41-26
		c7-27.4,2.1-57.7-23-60c-7.4-0.7-21.1,0.7-27,8c-4.7,5.9-2.2,16.6-3,28c-0.8,10.8-0.4,14.3,5,24c-13.2,10.1-33.5,9.2-48,19
		c-9.9,6.7-29,29-33,41c-2.2,6.7-1.2,14-3,21c-2.3,8.8-8.9,16.5-10,25c-2.7,20.2,10,34.3,19,48c-2.3,16.4,17.3,33.3,30,28
		c-6.6-2.4-9.5-8.4-16-11c4.4-7.9-5.9-7.5-7-13c-4.8-16.4-1.7-29.8,9-38c-5.1-0.7-3.6-8.8-3-11c1.1-3.9,7.5-5.4,11-10
		c4.3-5.6,3.2-13,9-13c0.6,12.3,10,23.7,7,35c10.7,4,17.1,12.2,22,22c-6.5,1.8-17.2-0.5-19,6c2.2,4.5,13.5-0.2,16,4
		c-4.9,7.8-17,8.3-20,18c8.7,2.6,13.9-6.7,22-8c-2.3,7.1-12,6.6-14,14C221.4,277.1,225.8,273.6,228.6,272.3z"/>
	<path display="inline" fill="none" d="M319.6,199.3c-1.7-1.8,7.7,9.6,2,12C319,209.2,319.6,203.9,319.6,199.3z"/>
</g>
<g>
	<path fill="#D73446" d="M54.6,560.1c-26.2,0-47.5-21.3-47.5-47.5V54.4c0-26.2,21.3-47.5,47.5-47.5h452.4
		c26.2,0,47.5,21.3,47.5,47.5v458.2c0,26.2-21.3,47.5-47.5,47.5L54.6,560.1L54.6,560.1z"/>
	<g>
		<path fill="#A7A8AC" d="M507.1,11.9c23.5,0,42.5,19,42.5,42.5v458.2c0,23.5-19,42.5-42.5,42.5H54.6c-23.5,0-42.5-19-42.5-42.5
			V54.4c0-23.5,19-42.5,42.5-42.5L507.1,11.9 M507.1,1.9H54.6c-29,0-52.5,23.6-52.5,52.5v458.2c0,29,23.6,52.5,52.5,52.5h452.4
			c29,0,52.5-23.6,52.5-52.5V54.4C559.6,25.5,536,1.9,507.1,1.9L507.1,1.9z"/>
	</g>
</g>
<path fill="#FFFFFF" d="M228.6,272.3c-4.2,6.8-14,9.8-24,8c-1.4,6.6,5.2,11.6,5,18c-0.1,4.2-5.1,8.6-5,13c0.1,3.8,3.8,6.5,5,10
	c4.2,12,2.7,27.7,9,42c5.4,12.4,12.8,24.9,16,36c2.1,7.4,0.9,13.6,5,19c7.8,10.2,21.1,11.2,27,22c-3.4-0.7-3.7,1.7-4,4
	c0.4,22.3-12,41.9-2,62c23.6,9.9,25.8-14.6,30-38c2.5-14.2,8.2-24.6,9-32c1.7-15.7-7.1-18.9-16-21c6.5-14.9-6.1-22.1-8-30
	c-1-3.9-1.4-17.1-1-20c1-8.2,6.8-13.7,7-22c0.2-5.9-3.8-9.2,0-15c8.4,0.6,8,10,9,18c20.1,20.5,37,44.3,53,69c3.4,11,0.2,22.7,5,32
	c1.6,3.1,5.1,4.4,7,7c9.6,13.6,11.3,27,11,48c-0.1,3.1-1.6,6.4-1,10c3,17.5,26.6,31.8,44,16c-1.2-10.1-7.2-15.5-8-26
	c-1.9-3.1-8.4-1.6-10-5c-5.2-19.7-1.1-47.1-3-68c-1.1-11.9-6.9-18.3-13-30c-10.3-19.9-9.5-47.3-14-71c-5.8-31-23.7-55.1-34-80
	c9.6-2.4,20.9-3.1,29-7c11-44.6,1-90.8-22-118c-11-13-28.5-15.4-41-26c7-27.4,2.1-57.7-23-60c-7.4-0.7-21.1,0.7-27,8
	c-4.7,5.9-2.2,16.6-3,28c-0.8,10.8-0.4,14.3,5,24c-13.2,10.1-33.5,9.2-48,19c-9.9,6.7-29,29-33,41c-2.2,6.7-1.2,14-3,21
	c-2.3,8.8-8.9,16.5-10,25c-2.7,20.2,10,34.3,19,48c-2.3,16.4,17.3,33.3,30,28c-6.6-2.4-9.5-8.4-16-11c4.4-7.9-5.9-7.5-7-13
	c-4.8-16.4-1.7-29.8,9-38c-5.1-0.7-3.6-8.8-3-11c1.1-3.9,7.5-5.4,11-10c4.3-5.6,3.2-13,9-13c0.6,12.3,10,23.7,7,35
	c10.7,4,17.1,12.2,22,22c-6.5,1.8-17.2-0.5-19,6c2.2,4.5,13.5-0.2,16,4c-4.9,7.8-17,8.3-20,18c8.7,2.6,13.9-6.7,22-8
	c-2.3,7.1-12,6.6-14,14C221.4,277.1,225.8,273.6,228.6,272.3z"/>
<path fill="#D73446" d="M146.6,686.2c-10.3,0-20.7,0-31,0c-10.4-2.3-18.7-6.6-25-13c-6.3,6.4-14.6,10.7-25,13c-10.3,0-20.7,0-31,0
	c-37.8-1.9-36.5-48.2-33-88c5.3,0,10.7,0,16,0c3,23.8-7.1,58.1,8,68c7.8,5.1,34.8,6,45,2c20.8-8.2,7.8-45.9,13-70c5,0,10,0,15,0
	c3.5,21.6-6.4,50.8,4,64c8.1,10.3,45.1,11.4,55,2c14.8-14.1,0.3-44.9,7-66c5,0,10,0,15,0C180.7,639.7,184.6,683.9,146.6,686.2z"/>
<path fill="#D73446" d="M289.6,652.2c6.6,11.4,18.1,23.2,23,33c-28.9,6.6-29.5-20.5-43-31c-20.3,0-40.7,0-61,0c0,10.3,0,20.7,0,31
	c-5.7,0-11.3,0-17,0c0-29,0-58,0-87c23.9,3.6,68-4.8,94,0C313.4,603.3,316,645,289.6,652.2z M292.6,625.2c-1.6-22.6-59.8-5.7-83-11
	c-2.3,6-0.3,16.3-1,24C228.8,633.6,294.4,649.7,292.6,625.2z"/>
<path fill="#D73446" d="M337.6,654.2c0,10.3,0,20.7,0,31c-5.3,0-10.7,0-16,0c0.7-28.7-1.3-60,1-87c38,4.5,103.9-12.8,114,18
	c1.5,4.5,2.5,12.5,0,20C427.1,665.3,374.5,650.7,337.6,654.2z M421.6,626.2c0-23-60.2-7.4-83-12c-2.3,6-0.3,16.3-1,24
	C358.2,633.4,421.6,649.6,421.6,626.2z"/>
<path fill="#D73446" d="M561.6,631.2c0,18,0,36,0,54c-6.1-0.7-15,1.4-17-1c-5.4-6.5,3.8-23.2,0-35c-26.3,0-52.7,0-79,0
	c-0.7,11.7,1.3,26-1,36c-5,0-10,0-15,0c2.9-23.7-4.5-44.7,1-63c2.5-8.5,16.2-22.6,28-24C517.4,593.6,561.3,598.1,561.6,631.2z
	 M481.6,614.3c-10.4,2.1-14.8,10.5-16,18c26.3,0,52.7,0,79,0C547.2,611.9,502.8,610,481.6,614.3z"/>
</svg>
